<?xml version="1.0" encoding="iso-8859-1"?>
<!-- Uploaded to: SVG Repo, www.svgrepo.com, Generator: SVG Repo Mixer Tools -->
<svg fill="#000000" version="1.1" id="Layer_1" xmlns="http://www.w3.org/2000/svg" xmlns:xlink="http://www.w3.org/1999/xlink" 
	 viewBox="0 0 491.584 491.584" xml:space="preserve">
<g>
	<g>
		<g>
			<path d="M309.792,219.584v-38.112L396.952,7.16L382.64,0l-85.792,171.584h-22.112l14.208-28.424L274.632,136l-11.912,23.832
				L254,140.936L317.032,6.984l-14.488-6.816l-57.312,121.784L189.056,0.232l-14.528,6.704l90.76,196.648h-18.312L149,0.112
				l-14.424,6.936l94.632,196.536h-18.472L108.952,0.008L94.64,7.168l87.152,174.304v38.112h-152v272h432v-272H309.792z
				 M288.848,187.584l-6.928,13.856l-6.392-13.856H288.848z M197.792,213.472l3.056,6.112h89.888l3.056-6.112v30.112
				c0,4.416-3.584,8-8,8h-80c-4.416,0-8-3.584-8-8V213.472z M445.792,475.584h-400v-240h136v8c0,13.232,10.768,24,24,24h80
				c13.232,0,24-10.768,24-24v-8h136V475.584z"/>
			<path d="M77.792,443.584h160v-160h-160V443.584z M125.816,427.584c0.136-8.84,7.352-16,16.224-16h31.504
				c8.872,0,16.088,7.16,16.224,16H125.816z M93.792,299.584h128v128h-16.024c-0.136-17.664-14.528-32-32.224-32h-15.752H142.04
				c-17.696,0-32.088,14.336-32.224,32H93.792V299.584z"/>
			<path d="M197.792,355.584c0-22.056-17.944-40-40-40c-22.056,0-40,17.944-40,40c0,22.056,17.944,40,40,40
				C179.848,395.584,197.792,377.64,197.792,355.584z M157.792,379.584c-13.232,0-24-10.768-24-24s10.768-24,24-24s24,10.768,24,24
				S171.024,379.584,157.792,379.584z"/>
			<rect x="269.792" y="283.584" width="144" height="16"/>
			<rect x="269.792" y="331.584" width="144" height="16"/>
			<rect x="269.792" y="379.584" width="144" height="16"/>
			<rect x="397.792" y="427.584" width="16" height="16"/>
			<rect x="269.792" y="427.584" width="112" height="16"/>
			
				<rect x="252.702" y="55.616" transform="matrix(-0.4472 0.8944 -0.8944 -0.4472 519.6956 -193.9584)" width="134.164" height="15.999"/>
		</g>
	</g>
</g>
</svg>