<?xml version="1.0" encoding="utf-8"?>
<!-- Generator: Adobe Illustrator 26.2.1, SVG Export Plug-In . SVG Version: 6.00 Build 0)  -->
<svg version="1.1" id="Layer_1" xmlns="http://www.w3.org/2000/svg" xmlns:xlink="http://www.w3.org/1999/xlink" x="0px" y="0px"
	 viewBox="0 0 344 267" style="enable-background:new 0 0 344 267;" xml:space="preserve">
<style type="text/css">
	.st0{fill:#D9D9D9;filter:url(#Adobe_OpacityMaskFilter);}
	.st1{mask:url(#mask0_156_31049_00000181770419418879807980000002974613282320874382_);}
	.st2{fill:#FCFCFC;}
	.st3{fill:#FAFAFA;}
	.st4{fill:#455A64;}
	.st5{fill:#263238;}
	.st6{fill:#FFFFFF;fill-opacity:0.7;stroke:#027E43;stroke-width:0.5;}
	.st7{fill:#83C11F;}
	.st8{fill:#FFFFFF;}
	.st9{fill:#EBEBEB;}
	.st10{fill:#DBE0D2;}
	.st11{fill:#DBE0D2;filter:url(#Adobe_OpacityMaskFilter_00000026844905284451844930000003112619262533637009_);}
	.st12{mask:url(#mask1_156_31049_00000173129943983810077640000003806704338095713426_);}
	.st13{opacity:0.6;}
	.st14{fill:#E0E0E0;}
	.st15{fill:#F5F5F5;}
	.st16{fill:#9AA48B;}
	.st17{fill:#FFBE9D;}
	.st18{fill:#EB996E;}
	.st19{opacity:0.3;}
	.st20{fill:#FFFFFF;fill-opacity:0.7;stroke:#EBEBEB;stroke-width:0.5;}
	.st21{fill:#ECF1E4;}
	.st22{fill:none;stroke:#000000;}
	.st23{fill:#5D676E;}
	.st24{opacity:0.8;}
	.st25{opacity:0.6;fill:#FFFFFF;enable-background:new    ;}
	.st26{fill:#FFFFFF;stroke:#455A64;}
	.st27{fill-rule:evenodd;clip-rule:evenodd;fill:#5D676E;}
	.st28{fill:#B7715B;}
	.st29{fill:#754235;}
	.st30{fill:#7E9161;}
	.st31{fill:#236C01;}
	.st32{opacity:0.2;}
	.st33{fill:#FCBF9E;}
	.st34{fill:#D16F43;}
	.st35{fill:#435158;}
	.st36{fill:#114777;}
	.st37{fill:#39BAD5;}
</style>
<defs>
	<filter id="Adobe_OpacityMaskFilter" filterUnits="userSpaceOnUse" x="2" y="-3.2" width="341" height="290.8">
		<feColorMatrix  type="matrix" values="1 0 0 0 0  0 1 0 0 0  0 0 1 0 0  0 0 0 1 0"/>
	</filter>
</defs>
<mask maskUnits="userSpaceOnUse" x="2" y="-3.2" width="341" height="290.8" id="mask0_156_31049_00000181770419418879807980000002974613282320874382_">
	<rect x="8" y="0" class="st0" width="344" height="267"/>
</mask>
<g class="st1">
	<path class="st2" d="M94,80.3c0.5-3.8-4.8-6.9-8.8-7.2c-1.9-0.2-3.9,0.1-5.7-0.5c-3.9-1.4-5.5-6.5-9.3-8.1
		c-2.9-1.2-6.2-0.1-8.9,1.3c-2.8,1.4-5.5,3.2-8.6,3.4c-2.7,0.2-5.6-0.8-8,0.5c-1.8,1-2.7,3-4.3,4.2c-1.6,1.2-3.6,1.4-5.6,1.5
		c-2,0.1-4,0.1-5.8,1c-1.8,0.8-3.3,2.7-2.9,4.7L94,80.3z"/>
	<path class="st3" d="M323.8,74.6c0.8-5.7-7.3-10.4-13.4-10.9c-2.9-0.2-5.9,0.2-8.7-0.8c-5.9-2.1-8.3-9.8-14.1-12.2
		c-4.3-1.8-9.3-0.2-13.5,1.9c-4.2,2.1-8.4,4.8-13.1,5.1c-4.1,0.3-8.5-1.3-12.1,0.7c-2.7,1.5-4.1,4.6-6.5,6.4
		c-2.4,1.8-5.5,2.2-8.5,2.3c-3,0.2-6.1,0.2-8.8,1.4c-2.7,1.2-5,4.1-4.4,7.1L323.8,74.6L323.8,74.6z"/>
	<g>
		<path class="st4" d="M228.6,40.1h-89c-8.5,0-15.3,6.9-15.3,15.3v206.3c0,8.5,6.9,15.3,15.3,15.3h89c8.5,0,15.3-6.9,15.3-15.3V55.5
			C243.9,47,237.1,40.1,228.6,40.1z"/>
		<path class="st5" d="M242.1,261.7V55.5c0-7.4-6-13.4-13.4-13.4h-89c-7.4,0-13.4,6-13.4,13.4v206.3c0,7.4,6,13.4,13.4,13.4h89
			C236,275.2,242.1,269.2,242.1,261.7z"/>
		<path class="st4" d="M175.5,49.5c-0.4,0-0.7-0.1-0.9-0.4c-0.2-0.2-0.4-0.6-0.4-0.9c0-0.4,0.1-0.7,0.4-0.9c0.2-0.2,0.6-0.4,0.9-0.4
			h17.1c0.4,0,0.7,0.1,0.9,0.4c0.2,0.2,0.4,0.6,0.4,0.9c0,0.4-0.1,0.7-0.4,0.9c-0.2,0.2-0.6,0.4-0.9,0.4H175.5z"/>
		<path class="st4" d="M166.3,49.5c-0.3,0-0.5-0.1-0.7-0.2c-0.2-0.1-0.4-0.4-0.5-0.6c-0.1-0.2-0.1-0.5-0.1-0.8
			c0.1-0.3,0.2-0.5,0.4-0.7c0.2-0.2,0.4-0.3,0.7-0.4c0.3-0.1,0.5,0,0.8,0.1c0.2,0.1,0.5,0.3,0.6,0.5c0.1,0.2,0.2,0.5,0.2,0.7
			c0,0.4-0.1,0.7-0.4,0.9C167,49.3,166.7,49.5,166.3,49.5z"/>
		<path class="st4" d="M171.2,49.5c-0.3,0-0.5-0.1-0.7-0.2c-0.2-0.1-0.4-0.4-0.5-0.6c-0.1-0.2-0.1-0.5-0.1-0.8
			c0.1-0.3,0.2-0.5,0.4-0.7c0.2-0.2,0.4-0.3,0.7-0.4c0.3-0.1,0.5,0,0.8,0.1c0.2,0.1,0.5,0.3,0.6,0.5c0.1,0.2,0.2,0.5,0.2,0.7
			c0,0.4-0.1,0.7-0.4,0.9C171.9,49.3,171.6,49.5,171.2,49.5z"/>
		<path class="st4" d="M201.9,49.5c-0.3,0-0.5-0.1-0.7-0.2c-0.2-0.1-0.4-0.4-0.5-0.6c-0.1-0.2-0.1-0.5-0.1-0.8
			c0.1-0.3,0.2-0.5,0.4-0.7c0.2-0.2,0.4-0.3,0.7-0.4c0.3-0.1,0.5,0,0.8,0.1c0.2,0.1,0.5,0.3,0.6,0.5c0.1,0.2,0.2,0.5,0.2,0.7
			c0,0.4-0.1,0.7-0.4,0.9C202.6,49.3,202.2,49.5,201.9,49.5z"/>
		<path class="st4" d="M197,49.5c-0.3,0-0.5-0.1-0.7-0.2c-0.2-0.1-0.4-0.4-0.5-0.6c-0.1-0.2-0.1-0.5-0.1-0.8
			c0.1-0.3,0.2-0.5,0.4-0.7c0.2-0.2,0.4-0.3,0.7-0.4c0.3-0.1,0.5,0,0.8,0.1c0.2,0.1,0.5,0.3,0.6,0.5c0.1,0.2,0.2,0.5,0.2,0.7
			c0,0.4-0.1,0.7-0.4,0.9C197.7,49.3,197.3,49.5,197,49.5z"/>
		<path class="st3" d="M229.5,43.6h-16.8c-1.3,0-2.6,0.4-3.6,1.2c-1,0.8-1.8,1.9-2.2,3.1l-0.3,1c-0.4,1.3-1.2,2.5-2.3,3.3
			s-2.5,1.3-3.8,1.3h-32c-1.4,0-2.7-0.4-3.8-1.3s-1.9-2-2.3-3.3l-0.3-1c-0.4-1.2-1.1-2.3-2.2-3.1c-1-0.8-2.3-1.2-3.6-1.2h-15.3
			c-3.1,0-6.1,1.2-8.4,3.5c-2.2,2.2-3.5,5.2-3.5,8.4v205.5c0,1.5,0.3,2.9,0.8,4.3c0.6,1.4,1.4,2.6,2.4,3.6c1,1,2.3,1.9,3.6,2.4
			c1.4,0.6,2.8,0.8,4.3,0.8h89.3c1.3,0,2.6-0.3,3.9-0.8c1.2-0.5,2.3-1.2,3.3-2.2c0.9-0.9,1.7-2,2.2-3.3c0.5-1.2,0.8-2.5,0.8-3.9
			V53.9c0-2.7-1.1-5.3-3-7.3C234.8,44.7,232.2,43.6,229.5,43.6z"/>
		<path class="st6" d="M144.7,125.4h59.9c2.1,0,3.8,1.7,3.8,3.8v59c0,2.1-1.7,3.8-3.8,3.8h-59.9c-2.1,0-3.8-1.7-3.8-3.8v-59
			C141,127.1,142.7,125.4,144.7,125.4z"/>
		<path class="st6" d="M144.7,125.4h59.9c2.1,0,3.8,1.7,3.8,3.8v59c0,2.1-1.7,3.8-3.8,3.8h-59.9c-2.1,0-3.8-1.7-3.8-3.8v-59
			C141,127.1,142.7,125.4,144.7,125.4z"/>
		<path class="st7" d="M204.2,178.1H176v8.8h28.2V178.1z"/>
		<path class="st8" d="M188.4,181.6h-10.6v1.8h10.6V181.6z"/>
		<path class="st8" d="M202.5,181.6h-10.6v1.8h10.6V181.6z"/>
		<path class="st9" d="M174.2,178.1H146v8.8h28.2V178.1z"/>
		<path class="st10" d="M204.2,131.4H146v39.7h58.2V131.4z"/>
		<defs>
			
				<filter id="Adobe_OpacityMaskFilter_00000019656520352747942890000005568695130107518126_" filterUnits="userSpaceOnUse" x="157.5" y="138.1" width="41" height="34.4">
				<feColorMatrix  type="matrix" values="1 0 0 0 0  0 1 0 0 0  0 0 1 0 0  0 0 0 1 0"/>
			</filter>
		</defs>
		
			<mask maskUnits="userSpaceOnUse" x="157.5" y="138.1" width="41" height="34.4" id="mask1_156_31049_00000173129943983810077640000003806704338095713426_">
			<path style="fill:#DBE0D2;filter:url(#Adobe_OpacityMaskFilter_00000019656520352747942890000005568695130107518126_);" d="
				M204.2,131.4H146v39.7h58.2V131.4z"/>
		</mask>
		<g class="st12">
			<g class="st13">
				<path class="st14" d="M182.4,170.8l-7.8-2.5c0,0,0,0-0.1,0l-6,0.4c-1-2.5-2.4-5.7-3-7.2c-0.1-0.2-0.3-0.4-0.5-0.6
					c-0.2-0.2-0.4-0.3-0.7-0.3l-6.5-0.8c-0.1,0-0.2,0-0.2,0c-0.1,0-0.1,0.1-0.2,0.1c0,0.1-0.1,0.1-0.1,0.2c0,0.1,0,0.2,0,0.2
					l3.6,8.5c0,0.1,0.1,0.2,0.2,0.3c0.1,0.1,0.2,0.1,0.3,0.2l7.4,2.9c0.2,0.1,0.4,0.1,0.5,0.1l0.5-0.1c1.6-0.2,9.7-1,12.3-1.3
					c0,0,0.1,0,0.1,0c0,0,0-0.1,0.1-0.1C182.5,171,182.5,170.9,182.4,170.8C182.5,170.9,182.4,170.8,182.4,170.8z"/>
				<path class="st5" d="M182.4,170.8C182.4,170.8,182.4,170.8,182.4,170.8c0.1,0.1,0.1,0.1,0.1,0.1c0,0,0,0.1,0,0.1
					c0,0,0,0.1-0.1,0.1c0,0-0.1,0-0.1,0l-0.1,0l-1.8,0.2l-6.7,0.7l-2.2,0.2l-1.2,0.1l-0.6,0.1c-0.2,0-0.4,0-0.6-0.1l-4.9-2l-1.3-0.5
					l-0.7-0.3l-0.3-0.1c-0.1,0-0.1,0-0.2-0.1c-0.1,0-0.1-0.1-0.2-0.1c-0.1-0.1-0.2-0.2-0.3-0.3c-0.1-0.1-0.1-0.2-0.2-0.3l-0.3-0.7
					c-0.2-0.5-0.4-0.9-0.6-1.4c-0.8-1.9-1.6-3.8-2.5-5.8l-0.1-0.3c0-0.1-0.1-0.2-0.1-0.3c0-0.1,0-0.2,0.1-0.3
					c0.1-0.1,0.2-0.1,0.3-0.2c0,0,0.1,0,0.1,0l0.1,0l0.1,0l0.3,0l0.6,0.1l2.3,0.3l2.2,0.3l0.6,0.1c0.2,0,0.4,0,0.6,0.1
					c0.4,0.1,0.7,0.3,0.9,0.6c0.1,0.2,0.2,0.3,0.2,0.5c0.1,0.2,0.1,0.3,0.2,0.5l0.4,1l0.8,1.9c0.5,1.2,1,2.4,1.5,3.6l0,0l5.8-0.4
					l0.2,0c0,0,0.1,0,0.1,0l0.1,0l0.3,0.1l0.6,0.2l1.1,0.4l2,0.6l2.7,0.9l0.7,0.2C182.3,170.8,182.4,170.8,182.4,170.8
					c0,0-0.1,0-0.2-0.1l-0.7-0.2l-2.7-0.9l-2-0.6l-1.1-0.4l-0.6-0.2l-0.3-0.1c0,0-0.1,0-0.1,0l-0.2,0l-5.8,0.4h0l0,0
					c-0.5-1.1-1-2.3-1.5-3.6l-0.8-1.9c-0.1-0.3-0.3-0.6-0.4-1c-0.1-0.2-0.1-0.3-0.2-0.5c-0.1-0.2-0.1-0.3-0.2-0.5
					c-0.2-0.3-0.5-0.5-0.8-0.6c-0.2,0-0.4-0.1-0.5-0.1l-0.6-0.1l-2.2-0.3L159,160l-0.6-0.1l-0.3,0c-0.1,0-0.2,0-0.3,0
					c-0.1,0-0.2,0.1-0.2,0.1c-0.1,0.1-0.1,0.2-0.1,0.2c0,0.1,0,0.2,0.1,0.3l0.1,0.3l2.5,5.8c0.2,0.5,0.4,0.9,0.6,1.4
					c0.1,0.2,0.2,0.5,0.3,0.7c0,0.1,0.1,0.2,0.1,0.3c0.1,0.1,0.1,0.2,0.2,0.3c0,0,0.1,0.1,0.2,0.1c0.1,0,0.1,0,0.2,0.1l0.3,0.1
					l0.7,0.3l1.3,0.5l4.9,2c0.2,0.1,0.4,0.1,0.6,0.1l0.6-0.1l1.2-0.1l2.2-0.2l6.7-0.7l1.8-0.2l0.1,0c0,0,0.1,0,0.1,0
					c0,0,0,0,0.1-0.1c0,0,0-0.1,0-0.1C182.5,170.9,182.5,170.9,182.4,170.8C182.4,170.8,182.4,170.8,182.4,170.8z"/>
				<path class="st15" d="M172.4,169.3l2.9,1.2l3.6-0.4l-3-1.3L172.4,169.3z"/>
				<path class="st15" d="M170.2,171.6l5.7-0.5l-5.4-2.1l-1.7,0.1l0.9,2.2L170.2,171.6z"/>
				<path d="M181.8,170.8L181.8,170.8l-0.2,0l-0.4,0l-1.6,0.2l-5.4,0.5l-4.3,0.4h0l0,0l-0.9-2.3l-0.3-0.6c0-0.1-0.1-0.1-0.1-0.2
					c0,0,0,0,0-0.1c0,0,0,0,0,0.1l0.1,0.2l0.3,0.6c0.2,0.6,0.6,1.3,1,2.3l0,0l4.3-0.4l5.4-0.5l1.6-0.1l0.4,0L181.8,170.8
					L181.8,170.8z"/>
				<path d="M157.7,160.2L157.7,160.2l0.2,0l0.6,0.1l2,0.3c0.9,0.1,1.9,0.3,3,0.4l0.9,0.1l0.2,0c0,0,0.1,0,0.1,0c0,0,0,0,0.1,0
					c0.1,0,0.2,0.1,0.2,0.2c0,0,0.1,0.1,0.1,0.1l0,0.1c0.2,0.6,0.5,1.2,0.7,1.8c1,2.4,1.9,4.7,2.5,6.3c0.3,0.8,0.6,1.4,0.8,1.9
					c0.1,0.2,0.2,0.4,0.2,0.5c0,0.1,0,0.1,0.1,0.1c0,0,0,0,0,0c0,0,0,0,0,0l-0.1-0.1l-0.2-0.5c-0.2-0.5-0.4-1.1-0.8-1.9l-2.5-6.3
					c-0.2-0.6-0.5-1.2-0.7-1.8l0-0.1c0,0,0-0.1-0.1-0.1c0-0.1-0.1-0.1-0.2-0.1c0,0,0,0-0.1,0l-0.1,0c0,0-0.1,0-0.1,0l-0.2,0
					l-0.9-0.1l-3-0.4l-2-0.3l-0.6-0.1L157.7,160.2L157.7,160.2z"/>
				<path class="st8" d="M163.5,165.2c0.3,0.4,0.3,0.8,0.1,0.9c-0.2,0.2-0.6,0-0.9-0.4c-0.3-0.4-0.3-0.8-0.1-0.9
					C162.8,164.7,163.2,164.9,163.5,165.2z"/>
				<path class="st16" d="M198.4,158.9c-0.4-2.1-2.7-3.4-3.5-4.1l1.2,1.5c0.6,2.4,0.8,4.9,0.7,7.4c0,0.3,0,0.6,0.2,0.7
					c0.1,0,0.1,0,0.2-0.1c0.7-0.4,1.1-1.4,1.2-2.5C198.5,161,198.6,159.9,198.4,158.9z"/>
				<path class="st4" d="M196.7,156.6c-0.1-0.2-0.1-0.9-0.7-0.2l0-0.3l-3.7-2.8l-8.2,0.4c-0.8,0-2,1.4-2.3,2c-0.2,2.1-0.3,4-0.3,4
					s-0.3,2.4,0,3.5c0.3,1.1,0.6,1.5,1.1,2.4c0.3,0.6,0.7,1.1,1.2,1.6l0.4,3l8.6,0.8l3.9-0.2c0,0-0.4-5.9-0.4-6c0,0,0.5-1.2,1-2.4
					C198.2,160.3,197.7,158.6,196.7,156.6z"/>
				<path class="st4" d="M175.1,167.3c0,0,0.5-2.9,0.8-3.6c0.3-0.6,5.9-8,5.9-8l1.3,4.3l-0.6,2.3l-3.1,3.7l-0.9,2.7L175.1,167.3z"/>
				<path class="st4" d="M197.9,158.8c-0.4-2.6-2.4-2.5-2.4-2.5l-2,3.5v7.2l-9.7,0.8l-0.2,2.4c0,0,9.6,2.2,11.8,1.5
					c1.5-0.5,2.7-1.7,2.8-3.7C198.4,166,198.3,161.4,197.9,158.8z"/>
				<path d="M179.5,166c0-0.2-0.1-0.3-0.1-0.5c-0.1-0.4-0.3-0.7-0.6-1c-0.3-0.3-0.7-0.5-1-0.6c-0.2,0-0.3-0.1-0.5-0.1
					c0,0,0.1,0,0.1,0c0.1,0,0.2,0,0.4,0c0.4,0.1,0.8,0.3,1.1,0.6c0.3,0.3,0.5,0.6,0.6,1c0,0.1,0.1,0.2,0.1,0.4
					C179.5,166,179.5,166,179.5,166z"/>
				<path d="M184.1,167.7C184.1,167.7,184.1,167.7,184.1,167.7l0.2,0l0.5-0.1l1.7-0.2l5.7-0.7l1.3-0.2l0,0c0.1-2,0.1-3.7,0.1-4.9
					c0-0.6,0-1.1,0-1.5c0-0.2,0-0.3,0-0.4v-0.1c0,0,0,0,0,0c0,0,0,0,0,0c0,0,0,0.1,0,0.1c0,0.1,0,0.2,0,0.4c0,0.3,0,0.8,0,1.5
					c0,1.2,0,3-0.1,4.9v0h0l-1.3,0.2l-5.8,0.7l-1.7,0.2l-0.5,0.1L184.1,167.7L184.1,167.7z"/>
				<path d="M198.4,167.7C198.4,167.8,198.4,167.8,198.4,167.7c0,0.1,0,0.1,0,0.2c0,0.2,0,0.3-0.1,0.5c0,0.3-0.1,0.5-0.2,0.8
					c-0.1,0.3-0.3,0.6-0.5,0.9c-0.2,0.4-0.5,0.7-0.8,0.9c-0.4,0.3-0.8,0.5-1.3,0.6c-0.3,0.1-0.5,0.1-0.8,0.1c-0.3,0-0.5,0-0.8,0
					c-0.6,0-1.1-0.1-1.7-0.2l-3.3-0.5l-1.4-0.2l-1.2-0.2c-0.8-0.1-1.4-0.2-1.8-0.3l-0.5-0.1l-0.1,0c0,0,0,0,0,0h0l0.1,0
					c0.1,0,0.3,0,0.5,0.1c0.4,0.1,1,0.2,1.8,0.3l1.2,0.2l1.4,0.2l3.3,0.5c0.6,0.1,1.1,0.1,1.7,0.2c0.3,0,0.5,0,0.8,0
					c0.3,0,0.5-0.1,0.8-0.1c0.5-0.1,0.9-0.3,1.3-0.6c0.3-0.3,0.6-0.6,0.8-0.9c0.2-0.3,0.3-0.6,0.5-0.9c0.1-0.2,0.2-0.5,0.2-0.8
					c0-0.2,0.1-0.4,0.1-0.5L198.4,167.7C198.4,167.8,198.4,167.8,198.4,167.7z"/>
				<path d="M183.9,167.9C183.8,167.9,183.8,167.9,183.9,167.9c0-0.1,0-0.1,0-0.2c0-0.1,0-0.3-0.1-0.5v0l-0.7-0.8
					c-0.1-0.2-0.3-0.4-0.4-0.6c-0.1-0.3-0.2-0.5-0.3-0.8c-0.2-0.6-0.4-1.2-0.4-1.8c-0.1-0.7-0.1-1.4,0-2.1c0-0.6,0.1-1.2,0.2-1.7
					c0.1-0.5,0.1-0.9,0.2-1.1l0.1-0.3c0,0,0-0.1,0-0.1c0,0,0,0,0,0c0,0,0,0,0,0c0,0,0,0,0,0.1c0,0.1,0,0.2,0,0.3
					c0,0.3-0.1,0.6-0.1,1.1c-0.1,0.5-0.1,1-0.1,1.7c0,0.7,0,1.4,0.1,2c0.1,0.6,0.2,1.2,0.4,1.8c0.1,0.3,0.2,0.5,0.3,0.8
					c0.1,0.2,0.2,0.4,0.4,0.6l0.7,0.8l0.1,0.5C183.8,167.8,183.8,167.8,183.9,167.9C183.9,167.9,183.9,167.9,183.9,167.9z"/>
				<path d="M194.9,168.2c-0.1-0.1-0.1-0.2-0.2-0.3c-0.1-0.2-0.3-0.4-0.5-0.6c-0.2-0.2-0.4-0.4-0.5-0.6c-0.1-0.1-0.2-0.2-0.2-0.2
					c0.1,0.1,0.2,0.1,0.2,0.2c0.2,0.2,0.4,0.4,0.5,0.6c0.2,0.2,0.3,0.4,0.5,0.6C194.8,168,194.9,168.1,194.9,168.2z"/>
				<path class="st17" d="M177.5,167.6c-0.1-0.5-0.5-0.8-0.5-0.8s-0.2-0.6-0.5-0.7c-0.3-0.2-0.6,0.2-0.8,0.1c-0.3-0.1-0.8-0.1-1,0
					c-0.2,0.1-0.4,0.7-0.4,0.7c-0.2,0-0.4,0.1-0.5,0.1c-0.1,0.1-0.3,0.2-0.4,0.3c-0.1,0-0.2,0-0.3,0c-0.1,0-0.2,0.1-0.2,0.1
					c-0.1,0.1-0.2,0.3-0.2,0.4l-0.1,0.4c0,0.1,0,0.1,0,0.2c0,0.1,0,0.1,0.1,0.1c0,0,0.1,0.1,0.2,0.1c0.1,0,0.1,0,0.2,0
					c0.1,0,0.1-0.1,0.1-0.1c0.1-0.1,0.1-0.2,0.2-0.2l0,0.3c0,0,0.1,0.4,0.4,0.4c0.2,0,0.5-0.2,0.5-0.2l0.6-0.1l0.1,0.6
					c0,0.1,0.1,0.2,0.2,0.3c0.1,0.1,0.2,0.1,0.3,0.1c0.2,0,0.5-0.3,0.5-0.3l0.5,0.2c0,0,0.6,0.4,0.9,0.3c0.1,0,0.1-0.1,0.2-0.2
					c0-0.1,0-0.2,0-0.3c0.1-0.1,0.2-0.3,0.3-0.5C177.7,168.5,177.6,168.1,177.5,167.6z"/>
				<path class="st18" d="M173.2,168.4c0-0.2,0-0.4,0-0.6c0-0.2,0.1-0.4,0.1-0.6c0,0,0,0.3-0.1,0.6
					C173.2,168.1,173.2,168.4,173.2,168.4z"/>
				<path class="st18" d="M174.1,167.8c0,0.1,0.1,0.3,0,0.4c0,0.1,0,0.2,0,0.3c0,0.1-0.1,0.1-0.1,0.1c0,0,0,0,0-0.1
					c0-0.1,0-0.2,0-0.3C174,168.1,174,168,174.1,167.8z"/>
				<path class="st18" d="M174.4,167.6c0,0-0.1,0.1-0.2,0.2c-0.1,0.1-0.2,0.2-0.2,0.2c0,0,0.1-0.1,0.2-0.2
					C174.3,167.7,174.4,167.6,174.4,167.6z"/>
				<path class="st18" d="M174.5,166.5c0,0.1,0,0.2,0,0.3c0,0.2,0,0.5,0,0.8c0,0.3,0,0.6,0.1,0.8c0,0.1,0,0.2,0,0.3
					c0-0.1-0.1-0.2-0.1-0.3c0-0.2-0.1-0.5-0.1-0.8c0-0.3,0-0.6,0-0.8C174.5,166.7,174.5,166.6,174.5,166.5z"/>
				<path class="st18" d="M176.7,166.7c0,0,0,0.1-0.1,0.2c-0.1,0.1-0.1,0.3-0.1,0.4c0,0.1,0,0.2-0.1,0.3c0,0.1-0.1,0.2-0.1,0.4
					c0,0.1-0.1,0.2-0.2,0.3c-0.1,0.1-0.1,0.1-0.2,0.1c-0.1,0-0.2,0-0.2,0c-0.1,0-0.1-0.1-0.2-0.1c0-0.1-0.1-0.1-0.1-0.2
					c0-0.1,0-0.3,0-0.4c0-0.2,0-0.4,0.1-0.7c0-0.1,0.1-0.3,0.1-0.4c0-0.1,0-0.1,0.1-0.1c0,0,0,0,0,0c0,0.1,0,0.1-0.1,0.2
					c-0.1,0.1-0.1,0.3-0.1,0.4c-0.1,0.2-0.1,0.4-0.1,0.7c0,0.1,0,0.3,0,0.4c0,0.1,0,0.1,0.1,0.2c0,0.1,0.1,0.1,0.2,0.1
					c0.1,0,0.1,0,0.2,0c0.1,0,0.1,0,0.2-0.1c0.1-0.1,0.2-0.2,0.2-0.3c0.1-0.2,0.1-0.4,0.2-0.6c0-0.1,0.1-0.3,0.1-0.4
					C176.6,166.8,176.6,166.8,176.7,166.7C176.7,166.7,176.7,166.7,176.7,166.7z"/>
				<path class="st18" d="M176.9,167c0,0.1-0.1,0.2-0.2,0.3c-0.1,0.1-0.2,0.2-0.3,0.2c0.1-0.1,0.2-0.1,0.3-0.2
					C176.8,167.2,176.8,167.1,176.9,167z"/>
				<path class="st18" d="M175.7,168.4c0,0.2,0,0.3,0,0.5c0,0.1,0,0.3-0.1,0.4v0c0,0,0,0,0,0c0,0,0,0,0,0c0,0,0,0,0,0c0,0,0,0,0,0
					c0,0,0,0,0,0s0,0,0,0c0,0,0,0,0,0l0,0c0-0.1,0-0.2,0-0.4C175.7,168.7,175.7,168.5,175.7,168.4z"/>
				<path class="st18" d="M177,167.9c0,0.1-0.1,0.1-0.2,0.2c-0.1,0.1-0.2,0.3-0.3,0.5c-0.1,0.2-0.1,0.4-0.2,0.6c0,0.1,0,0.2,0,0.2
					c0-0.1-0.1-0.2-0.1-0.2c0-0.2,0-0.4,0.1-0.6c0.1-0.2,0.2-0.3,0.4-0.5C176.9,168,176.9,168,177,167.9z"/>
				<path class="st17" d="M176.8,169c0-0.1,0-0.3,0-0.4c0-0.1,0.1-0.2,0.2-0.3c0.4-0.3,1.5-1,1.6-1s1.4-0.4,1.9-0.5
					c0.6-0.1,3,1.2,3,1.2s0.6,0.8,0.5,1.6c-0.1,0.8-0.6,0.8-0.6,0.8l-0.7-0.2l-0.7-0.1c0,0-1.6,0.5-1.9,0.4
					c-0.3-0.1-0.3-0.4-0.1-0.5c0.3-0.2,1.1-0.4,1.1-0.4l0.6-0.3l-2,0.3c0,0-1.7,0.3-1.9,0.3c-0.2,0-0.2-0.2-0.2-0.3
					c0,0-0.7,0.3-0.9,0.2C176.5,169.5,176.4,169.1,176.8,169z"/>
				<path class="st18" d="M181.1,168.5c0,0-0.1,0-0.1,0c-0.1,0-0.2,0-0.4,0c-0.2,0-0.4,0-0.6,0.1c-0.1,0-0.2,0.1-0.3,0.1
					c-0.1,0.1-0.2,0.1-0.3,0.2c-0.1,0.1-0.2,0.1-0.4,0.2c-0.1,0-0.2,0.1-0.4,0.1c-0.2,0-0.4,0-0.6,0.1c-0.1,0-0.2,0.1-0.3,0.2
					c0,0-0.1,0.1-0.1,0.1c0,0,0,0,0,0c0,0,0-0.1,0-0.1c0.1-0.1,0.2-0.2,0.3-0.2c0.2-0.1,0.4-0.1,0.6-0.1c0.2,0,0.5-0.1,0.7-0.2
					c0.1-0.1,0.2-0.1,0.3-0.2c0.1,0,0.2-0.1,0.3-0.1c0.2,0,0.4-0.1,0.6-0.1c0.2,0,0.3,0,0.4,0C181,168.5,181,168.5,181.1,168.5z"/>
				<path class="st18" d="M180.5,167.6C180.5,167.6,180.4,167.6,180.5,167.6c-0.1,0-0.1,0-0.1,0.1c-0.1,0-0.3,0.1-0.4,0.1
					c-0.2,0-0.4,0.1-0.6,0.1c-0.2,0.1-0.5,0.2-0.7,0.3c-0.4,0.2-0.8,0.4-1.3,0.6c-0.2,0.1-0.3,0.1-0.4,0.1c0,0-0.1,0-0.2,0
					c0,0,0.1,0,0.1-0.1l0.4-0.1c0.4-0.2,0.9-0.4,1.3-0.6c0.2-0.1,0.5-0.2,0.7-0.3c0.2,0,0.4-0.1,0.6-0.1c0.1,0,0.3,0,0.4-0.1
					C180.4,167.7,180.4,167.6,180.5,167.6z"/>
				<path class="st18" d="M182.1,168.1c0,0,0-0.1,0-0.1c0-0.1-0.1-0.2-0.1-0.3c-0.1-0.1-0.2-0.1-0.3-0.2c0,0-0.1,0-0.1,0
					c0,0,0.1,0,0.1,0c0.1,0,0.2,0.1,0.3,0.2c0.1,0.1,0.1,0.2,0.1,0.3C182.1,168,182.1,168.1,182.1,168.1z"/>
				<path class="st18" d="M183,169.3c0-0.1,0-0.1,0-0.2c0-0.1-0.1-0.3-0.2-0.4c-0.1-0.1-0.3-0.2-0.4-0.2c-0.1,0-0.1,0-0.2-0.1
					c0.1,0,0.1,0,0.2,0c0.2,0,0.3,0.1,0.4,0.2c0.1,0.1,0.2,0.2,0.2,0.4C183,169.2,183,169.3,183,169.3z"/>
				<path class="st18" d="M177.6,169.5C177.5,169.5,177.5,169.6,177.6,169.5c-0.2,0.1-0.3,0.1-0.4,0.2c-0.1,0-0.1,0-0.2,0.1
					c-0.1,0-0.2,0-0.2,0c0,0-0.1,0-0.1-0.1c0,0-0.1-0.1-0.1-0.1c0-0.1-0.1-0.2-0.1-0.3c0-0.1,0.1-0.1,0.1-0.2c0.1,0,0.1-0.1,0.2-0.1
					l0,0c0-0.1,0-0.3,0-0.4c0.1-0.1,0.1-0.2,0.2-0.3c0.1,0,0.1-0.1,0.2-0.1c0,0,0,0,0.1,0c0,0-0.1,0.1-0.2,0.2
					c-0.1,0.1-0.1,0.2-0.2,0.2c-0.1,0.1-0.1,0.3,0,0.4l0,0l0,0c-0.1,0.1-0.2,0.1-0.2,0.3c0,0.1,0,0.2,0,0.3c0,0,0,0.1,0.1,0.1
					c0,0,0.1,0.1,0.1,0.1c0.1,0,0.1,0,0.2,0c0.1,0,0.1,0,0.2,0c0.1,0,0.2-0.1,0.3-0.1C177.5,169.5,177.5,169.5,177.6,169.5z"/>
				<path class="st5" d="M186.1,147.2c-0.2-2.4-0.7-4.8-0.6-7.2l-2,1.2c0.1,1-0.8,1.7-1.3,2.5c-0.3,0.5-0.5,1.1-0.5,1.6
					c0,0.6,0.1,1.2,0.3,1.7c0.2,0.4,0.4,0.8,0.5,1.2c0.1,0.7-0.3,1.5-0.2,2.2c0.2,0.8,1.2,1.3,2,1c0.8-0.2,1.4-1,1.6-1.8
					C186.3,148.9,186.2,148,186.1,147.2z"/>
				<path class="st5" d="M183.6,140.8c0.1-0.6,0.4-1.1,0.8-1.6c0.4-0.4,0.9-0.8,1.5-1c0.6-0.2,1.2-0.2,1.7-0.1s1.1,0.4,1.6,0.8
					c0.4,0.3,0.7,0.7,1.1,1c0.5,0.3,0.5,0.2,1,0.3c0.5,0.2,1.5,1.5,1.5,2.1l0.4,2.4c0,0.6-0.7,0.9-1.2,0.8c-0.5-0.1-0.9-0.6-1.2-1.1
					c-0.3-0.5-0.6-1-1.1-1.3c-0.8-0.5-1.8-0.2-2.7,0c-0.9,0.2-1.9,0.4-2.7-0.1C183.7,142.5,183.5,141.6,183.6,140.8z"/>
				<path class="st17" d="M183.4,144.2c0-1.6,0.9-3.5,2.5-3.4l4.9,0.9c0.2,0,0.4,0.1,0.6,0.3c0.2,0.2,0.3,0.4,0.3,0.6l0.2,11.7h0
					c0,0-1.7,4.3-4.9,3.5c-0.6-0.2-0.2-1.8-0.3-2.5l0,0c0-0.1,0-0.2,0-0.2c-0.1-0.5-0.1-1.1-0.1-1.6c-0.1-0.9-0.1-1.3-0.1-1.3
					s-2-0.2-2.6-2.8C183.4,148.1,183.3,146,183.4,144.2z"/>
				<path class="st5" d="M184.2,146.3c0,0.1,0,0.2,0.1,0.2c0.1,0.1,0.1,0.1,0.2,0.1c0,0,0.1,0,0.1,0c0,0,0.1,0,0.1-0.1
					s0.1-0.1,0.1-0.1c0,0,0-0.1,0-0.1c0-0.1,0-0.2-0.1-0.2c-0.1-0.1-0.1-0.1-0.2-0.1c0,0-0.1,0-0.1,0c0,0-0.1,0-0.1,0.1
					c0,0-0.1,0.1-0.1,0.1C184.2,146.2,184.2,146.2,184.2,146.3z"/>
				<path class="st5" d="M183.9,145.3c0,0,0.3-0.2,0.6-0.2c0.4,0,0.6,0.1,0.7,0.1c0,0,0-0.1-0.1-0.2c-0.2-0.1-0.3-0.1-0.5-0.1
					c-0.2,0-0.4,0.1-0.5,0.2C183.9,145.2,183.9,145.3,183.9,145.3z"/>
				<path class="st5" d="M187.4,146.1c0,0.1,0,0.2,0.1,0.2c0.1,0.1,0.1,0.1,0.2,0.1c0,0,0.1,0,0.1,0c0,0,0.1,0,0.1-0.1
					c0,0,0.1-0.1,0.1-0.1c0,0,0-0.1,0-0.1c0-0.1,0-0.2-0.1-0.2c-0.1-0.1-0.1-0.1-0.2-0.1c0,0-0.1,0-0.1,0c0,0-0.1,0-0.1,0.1
					c0,0-0.1,0.1-0.1,0.1C187.4,146,187.4,146,187.4,146.1z"/>
				<path class="st5" d="M187.4,145.2c0,0,0.3-0.2,0.6-0.2c0.4,0,0.6,0.1,0.7,0.1c0,0,0-0.1-0.1-0.2c-0.2-0.1-0.3-0.1-0.5-0.1
					c-0.2,0-0.4,0.1-0.5,0.2C187.4,145.1,187.4,145.1,187.4,145.2z"/>
				<path class="st5" d="M186.2,147.9c0,0-0.2,0-0.6-0.1c-0.1,0-0.2,0-0.2-0.1c0-0.1,0-0.2,0-0.3c0.1-0.2,0.1-0.5,0.2-0.7
					c0.3-1,0.5-1.8,0.5-1.9c0,0-0.3,0.8-0.6,1.8l-0.2,0.7c-0.1,0.1-0.1,0.2,0,0.4c0,0,0,0.1,0.1,0.1c0,0,0.1,0,0.1,0
					c0.1,0,0.1,0,0.2,0C186,147.9,186.2,147.9,186.2,147.9z"/>
				<path class="st18" d="M186.3,152.1c1.2-0.1,2.4-0.4,3.4-1.1c0,0-0.8,1.9-3.4,1.8L186.3,152.1z"/>
				<path class="st18" d="M186.4,148.7c0.1-0.1,0.1-0.2,0.2-0.2c0.1,0,0.2-0.1,0.3-0.1c0.1,0,0.2,0,0.2,0.1c0.1,0,0.1,0.1,0.2,0.1
					c0.1,0.1,0.1,0.1,0.1,0.2c0,0.1,0,0.2,0,0.2c-0.1,0.1-0.1,0.1-0.2,0.1s-0.2,0-0.3,0c-0.2-0.1-0.3-0.1-0.5-0.2
					c0,0-0.1-0.1-0.1-0.1C186.4,148.9,186.4,148.8,186.4,148.7C186.4,148.8,186.4,148.8,186.4,148.7"/>
				<path class="st5" d="M187.3,148.1c-0.1,0,0,0.4-0.4,0.7s-0.7,0.3-0.7,0.3c0,0,0.1,0.1,0.3,0.1c0.2,0,0.4-0.1,0.6-0.3
					c0.2-0.1,0.3-0.4,0.3-0.6C187.4,148.2,187.3,148.1,187.3,148.1z"/>
				<path class="st5" d="M187.2,143.8c0,0.1,0.4,0,0.8,0.1c0.4,0,0.8,0.1,0.8,0c0,0,0-0.1-0.2-0.2c-0.2-0.1-0.4-0.2-0.6-0.2
					c-0.2,0-0.4,0-0.6,0.1C187.3,143.7,187.2,143.8,187.2,143.8z"/>
				<path class="st5" d="M183.9,144.3c0.1,0.1,0.3,0,0.6,0c0.3,0,0.6,0,0.6-0.1c0,0,0-0.1-0.1-0.2c-0.2-0.1-0.3-0.1-0.5-0.1
					c-0.2,0-0.3,0.1-0.5,0.2C183.9,144.1,183.9,144.2,183.9,144.3z"/>
				<path class="st5" d="M185.9,140.1l0.2-0.3c1.5,0.1,3,0.4,4.4,0.8c0.6,0.2,1.1,0.4,1.6,0.9c0.6,0.6,0.7,1.5,0.8,2.3
					c0.4,3.1,0.8,6.3,0,9.4c-0.3-0.4-0.7-0.5-1.2-0.6c-0.4-0.1-0.9-0.1-1.3-0.2c-0.2-0.1-0.4-0.3-0.6-0.4c-0.2-0.2-0.3-0.4-0.4-0.6
					c-0.1-0.5-0.1-1,0.1-1.4c0.2-0.5,0.6-1,0.5-1.5c-0.1-0.6-0.8-0.8-1-1.4c-0.3-0.9,1-1.9,0.6-2.8c-0.1-0.3-0.4-0.6-0.8-0.7
					c-0.3-0.1-0.7-0.2-1.1-0.3c-0.6-0.2-1.1-0.6-1.4-1.2C186,141.4,185.8,140.7,185.9,140.1z"/>
				<path class="st16" d="M193.5,141.7c-1.6-2.3-2.7-2.5-4.2-2.6l2.1,4.7c0.3,0.8,0.7,1.7,0.8,2.5c0.1,1-0.3,1.8-0.7,2.6
					c-0.5,1-1.1,2-2.1,2.7c-0.9,0.7-3,1.6-4.1,1.1l1.5,0.8l3.6,0l4.2,0c0,0,0.5-0.4,0.9-1.5C196.6,149.3,195.3,144.2,193.5,141.7z"
					/>
				<path class="st16" d="M196.5,156.3c0,0-0.9-1.8-2.1-2.8c-1.2-1-1.9-1-3.6-0.9c-1.7,0.1-4,0.4-4.6,0.3l-0.1-0.8
					c-0.3,0-1.4-0.6-1.6-0.9c-0.4,0.4-0.6,0.9-0.5,1.4l-0.3,0.1c-0.4,0.1-0.7,0.4-0.9,0.8c-0.2,0.4-0.3,0.8-0.2,1.2
					c0.1,0.4,0.4,0.6,0.9,0.7c2,0.3,7.3-1.1,9-1.1C194.2,154.4,196.5,156.3,196.5,156.3z"/>
				<path class="st5" d="M183.4,155.4c0,0,0.1,0,0.1,0c0.1,0,0.2,0,0.4,0c0.5,0,1,0,1.5,0c0.7,0,1.4-0.1,2.1-0.3
					c0.4-0.1,0.8-0.2,1.2-0.3l1.3-0.4c0.9-0.3,1.8-0.5,2.6-0.4c0.7,0.1,1.4,0.3,2.1,0.7c0.4,0.2,0.8,0.6,1.1,0.9
					c0.1,0.1,0.2,0.2,0.3,0.3c0,0,0.1,0.1,0.1,0.1c0,0-0.1-0.1-0.1-0.1c-0.1-0.1-0.1-0.2-0.3-0.3c-0.8-0.9-2-1.4-3.2-1.5
					c-0.8-0.1-1.7,0.1-2.6,0.4c-0.5,0.1-0.9,0.3-1.3,0.4c-0.4,0.1-0.8,0.2-1.3,0.3c-0.7,0.2-1.4,0.2-2.2,0.3c-0.5,0-1,0-1.5-0.1
					c-0.2,0-0.3,0-0.4-0.1C183.5,155.5,183.5,155.5,183.4,155.4z"/>
				<path class="st16" d="M196.6,155.7c-2-2.6-5.9-3.6-8.9-2.3l-3.2,0.7c-0.8,0.1-2.2,0.4-2.3,1.2c-0.1,0.8,0.1,1.7,0.5,2.4
					c0.7,1.3,0.3,3,1.1,4.3c0.4,0.6,0.7,1.2,1.2,1.7s1.2,0.8,1.9,0.8c0.8-0.1,1.4-0.7,1.9-1.3c1.1-1.3,1.7-2.9,2.7-4.3
					c1-1.4,2.2-2.4,4.3-2.5c0.4,0,1.5,0.5,1.5,0.5C197.4,156.8,196.7,155.9,196.6,155.7z"/>
				<g class="st19">
					<path d="M192.3,154.2c-1.4,0-2.8,0.7-4.1,1c-5.4,1.2-5.4-0.9-5.4-0.9c-0.2,1,0.7,1.4,1.7,1.6c1.8,0.4,3.8,0.6,5.1,0.2
						c1.1-0.3,2.2-0.6,3.2-0.9c1.1-0.3,2.6-0.2,3.4,0.6C195.4,154.6,193.6,154.2,192.3,154.2z"/>
				</g>
				<g class="st19">
					<path d="M185.2,154c0.1,0.1,0.2,0.3,0.3,0.4c0.1,0.1,0.3,0.2,0.4,0.2c0.3,0.1,0.6,0.1,0.9,0.1c1.1-0.1,2.2-0.5,3.3-0.8
						c-0.9,0-1.7,0.3-2.5,0.4C186.7,154.5,185.8,154.5,185.2,154"/>
				</g>
				<path d="M196.8,156.6C196.8,156.6,196.8,156.6,196.8,156.6l-0.1-0.1c-0.1-0.1-0.1-0.2-0.3-0.3c-0.3-0.4-0.7-0.6-1.2-0.8
					c-0.3-0.1-0.6-0.2-1-0.2c-0.4,0-0.8,0-1.1,0c-0.8,0.1-1.7,0.4-2.5,0.6c-0.9,0.3-1.8,0.5-2.6,0.6c-0.7,0-1.4,0-2.1-0.2
					c-0.6-0.1-1.1-0.2-1.4-0.3l-0.4-0.1l-0.1,0l0,0c0,0,0,0,0,0l0.1,0l0.4,0.1c0.3,0.1,0.8,0.2,1.4,0.3c0.7,0.1,1.4,0.2,2.1,0.1
					c0.8,0,1.7-0.3,2.6-0.6c0.9-0.3,1.7-0.5,2.6-0.6c0.4-0.1,0.8-0.1,1.2,0c0.4,0,0.8,0.1,1.2,0.3s0.7,0.4,1,0.7
					c0.1,0.1,0.2,0.2,0.3,0.3L196.8,156.6L196.8,156.6z"/>
				<path d="M194.8,153.9C194.8,153.9,194.8,153.9,194.8,153.9L194.8,153.9c-0.1-0.1-0.2-0.2-0.3-0.3c-0.3-0.3-0.7-0.5-1-0.6
					c-0.6-0.3-1.1-0.4-1.7-0.5c-0.7-0.1-1.5-0.1-2.2,0c-0.7,0.1-1.5,0.2-2.2,0.4c-0.3,0.1-0.6,0.1-1,0.1c-0.3,0-0.6-0.1-0.8-0.3
					c-0.2-0.1-0.3-0.3-0.5-0.5c-0.1-0.1-0.2-0.3-0.2-0.5c-0.1-0.1-0.1-0.2-0.1-0.3l0-0.1c0,0,0,0,0,0c0,0,0,0,0,0c0,0,0,0,0,0.1
					c0,0.1,0.1,0.2,0.1,0.3c0.1,0.2,0.2,0.3,0.3,0.5c0.1,0.2,0.3,0.4,0.5,0.5c0.2,0.2,0.5,0.3,0.8,0.3c0.3,0,0.6,0,1-0.1
					c0.7-0.2,1.5-0.3,2.2-0.4c0.7-0.1,1.5-0.1,2.2,0c0.6,0.1,1.2,0.3,1.7,0.5c0.4,0.2,0.7,0.4,1,0.7
					C194.6,153.6,194.7,153.7,194.8,153.9L194.8,153.9C194.8,153.9,194.8,153.9,194.8,153.9z"/>
				<path d="M194.2,153.8L194.2,153.8l-0.1,0l-0.3-0.1c-0.4-0.1-0.8-0.1-1.2-0.1c-0.6,0-1.2,0-1.7,0.1c-0.7,0.1-1.4,0.2-2.1,0.4
					c-0.7,0.2-1.4,0.3-2.1,0.3c-0.3,0-0.6,0-0.9-0.1c-0.3-0.1-0.5-0.2-0.7-0.4c-0.3-0.3-0.5-0.6-0.7-0.9c-0.1-0.1-0.1-0.3-0.2-0.4
					c0,0,0,0,0,0l0,0.1c0,0.1,0.1,0.2,0.1,0.3c0.2,0.3,0.4,0.7,0.7,0.9c0.2,0.2,0.4,0.3,0.7,0.4c0.3,0.1,0.6,0.1,0.9,0.1
					c0.7,0,1.4-0.1,2.1-0.3c0.7-0.2,1.4-0.3,2.1-0.4c0.6-0.1,1.2-0.1,1.7,0c0.4,0,0.8,0.1,1.2,0.1c0.1,0,0.2,0,0.3,0.1L194.2,153.8
					C194.2,153.8,194.2,153.8,194.2,153.8z"/>
				<path d="M194.3,148.9c0,0.1,0,0.1,0,0.2c0,0.1,0,0.1-0.1,0.2c0,0.1-0.1,0.2-0.1,0.3c0,0.1-0.1,0.2-0.1,0.3
					c-0.1,0.1-0.1,0.2-0.2,0.4c-0.3,0.5-0.7,1-1.2,1.4c-0.1,0.1-0.2,0.2-0.3,0.2c-0.1,0.1-0.2,0.1-0.3,0.2c-0.1,0.1-0.2,0.1-0.3,0.1
					c-0.1,0-0.1,0.1-0.2,0.1c-0.1,0-0.1,0-0.2,0.1c0.1,0,0.1-0.1,0.2-0.1c0.1,0,0.1-0.1,0.2-0.1c0.1,0,0.2-0.1,0.3-0.1
					c0.1-0.1,0.2-0.1,0.3-0.2c0.1-0.1,0.2-0.2,0.3-0.2c0.5-0.4,0.9-0.9,1.2-1.4c0.1-0.1,0.1-0.2,0.2-0.4c0.1-0.1,0.1-0.2,0.2-0.3
					c0-0.1,0.1-0.2,0.1-0.3c0-0.1,0.1-0.2,0.1-0.2C194.2,149,194.2,148.9,194.3,148.9z"/>
				<path d="M194.1,155.4C194.1,155.4,194,155.4,194.1,155.4l-0.2,0c0,0-0.1,0-0.1,0c-0.3,0-0.6,0-0.9,0.1c-0.2,0.1-0.4,0.2-0.6,0.3
					c-0.2,0.1-0.4,0.2-0.6,0.4c-0.4,0.3-0.9,0.6-1.4,1l-2.5,1.9l-0.8,0.6l-0.2,0.1c0,0,0,0-0.1,0c0,0,0,0,0.1-0.1l0.2-0.2l0.8-0.6
					l2.5-1.9c0.5-0.4,0.9-0.7,1.4-1c0.2-0.1,0.4-0.3,0.6-0.4c0.2-0.1,0.4-0.2,0.6-0.2c0.3-0.1,0.6-0.1,0.9-0.1c0.1,0,0.1,0,0.1,0
					L194.1,155.4C194,155.4,194.1,155.4,194.1,155.4z"/>
				<path d="M197.7,158.8c0-0.1,0-0.1,0-0.2c0-0.1-0.1-0.2-0.1-0.4c-0.1-0.2-0.1-0.4-0.2-0.6c-0.1-0.2-0.3-0.5-0.4-0.7
					s-0.4-0.3-0.7-0.4c-0.2-0.1-0.4-0.1-0.6-0.1c-0.2,0-0.4,0.1-0.6,0.1c0,0,0,0,0,0c0,0,0.1,0,0.1,0c0.1,0,0.3-0.1,0.4-0.1
					c0.2,0,0.4,0,0.7,0c0.3,0.1,0.5,0.2,0.7,0.4c0.2,0.2,0.3,0.4,0.5,0.7c0.1,0.2,0.2,0.4,0.2,0.6c0,0.2,0.1,0.3,0.1,0.4
					C197.7,158.7,197.7,158.8,197.7,158.8z"/>
			</g>
		</g>
		<path class="st20" d="M214.2,129.2c0-2.1,1.7-3.8,3.8-3.8h21.3V192h-21.3c-2.1,0-3.8-1.7-3.8-3.8V129.2z"/>
		<path class="st9" d="M239.5,178.1h-20.3v8.8h20.3V178.1z"/>
		<path class="st10" d="M239.5,131.4h-20.3v39.7h20.3V131.4z"/>
		<path class="st6" d="M144.7,220.9h59.9c2.1,0,3.8,1.7,3.8,3.8v59c0,2.1-1.7,3.8-3.8,3.8h-59.9c-2.1,0-3.8-1.7-3.8-3.8v-59
			C141,222.5,142.7,220.9,144.7,220.9z"/>
		<path class="st20" d="M144.7,220.9h59.9c2.1,0,3.8,1.7,3.8,3.8v59c0,2.1-1.7,3.8-3.8,3.8h-59.9c-2.1,0-3.8-1.7-3.8-3.8v-59
			C141,222.5,142.7,220.9,144.7,220.9z"/>
		<path class="st21" d="M204.2,226.8H146v39.7h58.2V226.8z"/>
		<path class="st20" d="M214.2,224.6c0-2.1,1.7-3.8,3.8-3.8h21.3v66.5h-21.3c-2.1,0-3.8-1.7-3.8-3.8V224.6z"/>
		<path class="st10" d="M239.5,226.8h-20.3v39.7h20.3V226.8z"/>
		<line class="st22" x1="336" y1="265.5" x2="16" y2="265.5"/>
		<path class="st4" d="M244.1,118.9H244V91.6h0.1c0.2,0,0.3,0.1,0.5,0.2c0.1,0.1,0.2,0.3,0.2,0.5v25.9c0,0.2-0.1,0.3-0.2,0.4
			C244.4,118.8,244.3,118.9,244.1,118.9z"/>
		<path class="st4" d="M124.1,108.4h0.2v17.2h-0.2c-0.2,0-0.3-0.1-0.5-0.2c-0.1-0.1-0.2-0.3-0.2-0.5v-15.9c0-0.2,0.1-0.3,0.2-0.5
			C123.8,108.5,123.9,108.4,124.1,108.4z"/>
		<path class="st4" d="M124.1,85.9h0.2v17.2h-0.2c-0.2,0-0.3-0.1-0.5-0.2c-0.1-0.1-0.2-0.3-0.2-0.5V86.5c0-0.2,0.1-0.3,0.2-0.5
			C123.8,86,123.9,85.9,124.1,85.9z"/>
		<path class="st4" d="M124.2,69h0.1v8h-0.1c-0.2,0-0.3-0.1-0.4-0.2c-0.1-0.1-0.2-0.3-0.2-0.4v-6.9c0-0.2,0.1-0.3,0.2-0.4
			C123.9,69,124,69,124.2,69z"/>
		<path class="st5" d="M213.4,51.3h-0.8v1.2h0.8V51.3z"/>
		<path class="st5" d="M214.7,50.8h-0.8v1.7h0.8V50.8z"/>
		<path class="st5" d="M216,50.4h-0.8v2h0.8V50.4z"/>
		<path class="st5" d="M217.4,49.7h-0.8v2.8h0.8V49.7z"/>
		<path class="st5" d="M229.5,52.5h-4.1c0,0-0.1,0-0.1,0s-0.1,0-0.1-0.1c0,0,0-0.1-0.1-0.1c0,0,0-0.1,0-0.1v-2c0,0,0-0.1,0-0.1
			c0,0,0-0.1,0.1-0.1c0,0,0.1,0,0.1-0.1s0.1,0,0.1,0h4.1c0,0,0,0,0,0c0,0,0,0,0,0.1v0.7h0.4c0,0,0,0,0.1,0c0,0,0,0,0,0.1v1
			c0,0,0,0,0,0s0,0,0,0c0,0,0,0,0,0c0,0,0,0,0,0h-0.4L229.5,52.5C229.6,52.5,229.6,52.5,229.5,52.5
			C229.5,52.5,229.5,52.5,229.5,52.5z M229.5,50h-4.1c0,0-0.1,0-0.1,0c0,0,0,0.1,0,0.1v2c0,0,0,0.1,0,0.1c0,0,0.1,0,0.1,0h4.1v-0.7
			c0,0,0,0,0-0.1c0,0,0,0,0.1,0h0.4v-0.8h-0.4c0,0,0,0-0.1,0c0,0,0,0,0-0.1V50z"/>
		<path class="st5" d="M225.6,52v-1.7h3.5v0.8v0.2V52H225.6z"/>
		<path class="st5" d="M221.3,52.4c0-0.1,0-0.2-0.1-0.2c-0.1-0.1-0.1-0.1-0.2-0.1c-0.1,0-0.1,0-0.2,0.1c-0.1,0-0.1,0.1-0.1,0.1
			c0,0.1,0,0.1,0,0.2c0,0.1,0,0.1,0.1,0.2c0,0,0.1,0.1,0.2,0.1c0.1,0,0.1,0,0.2,0c0.1,0,0.1-0.1,0.1-0.1
			C221.3,52.5,221.3,52.4,221.3,52.4z"/>
		<path class="st5" d="M220,51.6l0.4,0.4c0.2-0.2,0.4-0.3,0.6-0.3c0.2,0,0.5,0.1,0.6,0.3l0.4-0.4c-0.3-0.3-0.6-0.4-1-0.4
			c-0.2,0-0.4,0-0.6,0.1C220.3,51.4,220.1,51.5,220,51.6z"/>
		<path class="st5" d="M221,50.4c-0.6,0-1.2,0.2-1.6,0.7l0.4,0.4c0.2-0.2,0.4-0.3,0.6-0.4c0.2-0.1,0.4-0.1,0.7-0.1
			c0.2,0,0.5,0,0.7,0.1c0.2,0.1,0.4,0.2,0.6,0.4l0.4-0.4C222.2,50.6,221.6,50.4,221,50.4z"/>
		<path class="st5" d="M218.7,50.4l0.4,0.4c0.5-0.5,1.2-0.8,1.9-0.8s1.4,0.3,1.9,0.8l0.4-0.4c-0.6-0.6-1.4-0.9-2.3-0.9
			C220.2,49.5,219.3,49.8,218.7,50.4z"/>
		<path class="st14" d="M222.8,110.7h-75c-2,0-3.9-0.8-5.3-2.2c-1.4-1.4-2.2-3.3-2.2-5.3c0-2,0.8-3.9,2.2-5.3
			c1.4-1.4,3.3-2.2,5.3-2.2h75c2,0,3.9,0.8,5.3,2.2c1.4,1.4,2.2,3.3,2.2,5.3c0,2-0.8,3.9-2.2,5.3C226.7,110,224.8,110.7,222.8,110.7
			z"/>
		<path class="st5" d="M220.9,106.1c-0.6,0-1.1-0.2-1.6-0.5c-0.5-0.3-0.8-0.8-1-1.3c-0.2-0.5-0.3-1.1-0.2-1.6
			c0.1-0.6,0.4-1.1,0.8-1.5c0.4-0.4,0.9-0.7,1.5-0.8c0.6-0.1,1.1-0.1,1.6,0.2c0.5,0.2,1,0.6,1.3,1.1s0.5,1,0.5,1.6
			c0,0.8-0.3,1.5-0.8,2C222.3,105.8,221.6,106.1,220.9,106.1z M220.9,101c-0.5,0-0.9,0.1-1.3,0.4c-0.4,0.2-0.7,0.6-0.8,1
			c-0.2,0.4-0.2,0.9-0.1,1.3s0.3,0.8,0.6,1.2c0.3,0.3,0.7,0.5,1.2,0.6s0.9,0,1.3-0.1c0.4-0.2,0.8-0.5,1-0.8c0.3-0.4,0.4-0.8,0.4-1.3
			c0-0.6-0.2-1.2-0.7-1.6C222,101.3,221.5,101,220.9,101z"/>
		<path class="st5" d="M224.7,106.9c-0.1,0-0.1,0-0.2-0.1l-1.9-1.6c-0.1-0.1-0.1-0.1-0.1-0.2c0-0.1,0-0.1,0.1-0.2c0,0,0.1,0,0.1-0.1
			c0,0,0.1,0,0.1,0c0,0,0.1,0,0.1,0c0,0,0.1,0,0.1,0.1l1.9,1.6c0.1,0.1,0.1,0.1,0.1,0.2c0,0.1,0,0.1-0.1,0.2c0,0-0.1,0-0.1,0.1
			C224.8,106.9,224.7,106.9,224.7,106.9z"/>
		<path class="st23" d="M176.1,208.8c0,0.5-0.1,0.9-0.4,1.3c-0.3,0.4-0.6,0.7-1.1,0.9s-0.9,0.2-1.4,0.1c-0.5-0.1-0.9-0.3-1.2-0.7
			c-0.3-0.3-0.6-0.8-0.7-1.2c-0.1-0.5,0-1,0.1-1.4s0.5-0.8,0.9-1.1c0.4-0.3,0.9-0.4,1.3-0.4c0.6,0,1.3,0.3,1.7,0.7
			C175.8,207.5,176.1,208.1,176.1,208.8z"/>
		<path class="st14" d="M184.1,208.8c0,0.5-0.1,0.9-0.4,1.3c-0.3,0.4-0.6,0.7-1.1,0.9c-0.4,0.2-0.9,0.2-1.4,0.1
			c-0.5-0.1-0.9-0.3-1.2-0.7c-0.3-0.3-0.6-0.8-0.7-1.2c-0.1-0.5,0-1,0.1-1.4s0.5-0.8,0.9-1.1c0.4-0.3,0.9-0.4,1.3-0.4
			c0.6,0,1.3,0.3,1.7,0.7C183.8,207.5,184.1,208.1,184.1,208.8z"/>
		<path class="st14" d="M189.7,211.2c1.3,0,2.4-1.1,2.4-2.4c0-1.3-1.1-2.4-2.4-2.4c-1.3,0-2.4,1.1-2.4,2.4
			C187.3,210.1,188.4,211.2,189.7,211.2z"/>
		<path class="st14" d="M200.2,208.8c0,0.5-0.1,0.9-0.4,1.3c-0.3,0.4-0.6,0.7-1.1,0.9s-0.9,0.2-1.4,0.1c-0.5-0.1-0.9-0.3-1.2-0.7
			c-0.3-0.3-0.6-0.8-0.7-1.2c-0.1-0.5,0-1,0.1-1.4s0.5-0.8,0.9-1.1c0.4-0.3,0.9-0.4,1.3-0.4c0.6,0,1.3,0.3,1.7,0.7
			C199.9,207.5,200.2,208.1,200.2,208.8z"/>
		<path class="st8" d="M224.6,245c-0.1,0-0.2,0-0.3,0.1c-0.1,0.1-0.2,0.2-0.2,0.3c0,0.1-0.1,0.2,0,0.3c0,0.1,0.1,0.2,0.2,0.3
			c0.1,0.1,0.2,0.1,0.3,0.2s0.2,0,0.3,0s0.2-0.1,0.3-0.2c0.1-0.1,0.1-0.2,0.1-0.3c0-0.2-0.1-0.3-0.2-0.4
			C224.9,245.1,224.8,245,224.6,245z"/>
		<path class="st5" d="M149.1,138c0-0.1,6.5-0.2,14.4-0.2c8,0,14.4,0.1,14.4,0.2c0,0.1-6.5,0.2-14.4,0.2
			C155.6,138.2,149.1,138.1,149.1,138z"/>
		<path class="st5" d="M149.1,141.7c0-0.1,4.8-0.2,10.7-0.2c5.9,0,10.7,0.1,10.7,0.2c0,0.1-4.8,0.2-10.7,0.2
			C153.9,142,149.1,141.9,149.1,141.7z"/>
		<path class="st5" d="M149.1,146.4c0-0.1,4.8-0.2,10.7-0.2c5.9,0,10.7,0.1,10.7,0.2s-4.8,0.2-10.7,0.2
			C153.9,146.6,149.1,146.5,149.1,146.4z"/>
		<path class="st5" d="M225.4,138c0-0.1,2.1-0.2,4.6-0.2c2.6,0,4.6,0.1,4.6,0.2c0,0.1-2.1,0.2-4.6,0.2
			C227.5,138.2,225.4,138.1,225.4,138z"/>
		<path class="st5" d="M225.4,141.7c0-0.1,3.1-0.2,7-0.2c3.9,0,7,0.1,7,0.2c0,0.1-3.1,0.2-7,0.2S225.4,141.9,225.4,141.7z"/>
		<path class="st5" d="M225.4,146.4c0-0.1,3.1-0.2,7-0.2c3.9,0,7,0.1,7,0.2s-3.1,0.2-7,0.2S225.4,146.5,225.4,146.4z"/>
		<path class="st14" d="M305.7,126.3c0,0,0-0.1,0-0.1v-0.4c0-0.3,0-0.8,0-1.4c0-1.2,0-3,0-5.2l0.1,0.1l-26.6,0.1l0.1-0.1v3.6
			c0,1.2,0,2.3,0,3.5l-0.1-0.1l19,0.1l5.6,0h1.5L305.7,126.3L305.7,126.3C305.8,126.3,305.7,126.3,305.7,126.3l-0.5,0h-1.5l-5.6,0
			l-19.1,0.1h-0.1v-0.1c0-1.1,0-2.3,0-3.5v-3.6l0.1-0.1l26.6,0.1h0.1v0.1c0,2.2,0,4,0,5.2c0,0.6,0,1,0,1.4c0,0.1,0,0.3,0,0.4
			C305.8,126.3,305.7,126.3,305.7,126.3z"/>
		<path class="st14" d="M111.3,41.8c0,0,0,0,0-0.1v-0.4c0-0.3,0-0.8,0-1.4c0-1.2,0-3,0-5.2l0.1,0.1l-26.6,0c0.1-0.1-0.1,0.1,0.1-0.1
			v1.8c0,0.6,0,1.2,0,1.8v3.5l-0.1-0.1l18.9,0.1l5.6,0h1.5h0.4C111.2,41.8,111.3,41.8,111.3,41.8l-0.1,0h-0.4h-1.5l-5.6,0l-19.1,0.1
			h-0.1v-0.1c0-1.1,0-2.3,0-3.5v-3.5l0.1-0.1l26.6,0.1h0.1v0.1c0,2.2,0,4,0,5.2c0,0.6,0,1,0,1.4c0,0.1,0,0.3,0,0.3
			C111.4,41.7,111.3,41.8,111.3,41.8z"/>
		<path class="st9" d="M113.4,226.2H86.7v7h26.6V226.2z"/>
		<path class="st14" d="M102.1,240.7c0,0,0-0.1,0-0.1v-0.4c0-0.3,0-0.8,0-1.4c0-1.2,0-3,0-5.2l0.1,0.1l-26.6,0.1
			c0.1-0.1-0.1,0.1,0.1-0.1v7l-0.1-0.1l19,0.1l5.6,0h1.5h0.4L102.1,240.7L102.1,240.7l-0.5,0h-1.5l-5.6,0l-19.1,0.1h-0.1v-7.2
			l0.1-0.1l26.6,0.1h0.1v0.1c0,2.2,0,4,0,5.2c0,0.6,0,1,0,1.4c0,0.1,0,0.3,0,0.4C102.1,240.6,102.1,240.6,102.1,240.7z"/>
		<path class="st14" d="M281.3,38.2c0,0,0-0.1,0-0.1v-0.4c0-0.3,0-0.8,0-1.4c0-1.2,0-3,0-5.2l0.1,0.1l-26.6,0.1l0.1-0.1v3.6
			c0,1.2,0,2.3,0,3.5l-0.1-0.1l19,0.1l5.6,0h1.5L281.3,38.2L281.3,38.2C281.4,38.1,281.3,38.1,281.3,38.2l-0.5,0h-1.5l-5.6,0
			l-19.1,0.1h-0.1v-0.1c0-1.1,0-2.3,0-3.5v-3.5c0.3-0.3,0.1-0.1,0.1-0.1l26.6,0h0.1v0.1c0,2.2,0,4,0,5.2c0,0.6,0,1,0,1.4
			c0,0.1,0,0.3,0,0.3C281.4,38.2,281.3,38.2,281.3,38.2z"/>
		<path class="st14" d="M284.9,31.1c0,0,0-0.1,0-0.1c0-0.1,0-0.2,0-0.4c0-0.4,0-0.8,0-1.4c0-1.2,0-3-0.1-5.1l0.1,0.1l-16.1,0
			c-0.1,0.1,0.2-0.2,0.1-0.1v3.6c0,1.2,0,2.3,0,3.4l-0.1-0.1l11.5,0.1l3.3,0h0.9L284.9,31.1c-0.1,0-0.2,0-0.3,0h-0.9l-3.3,0
			l-11.5,0.1h-0.1v-0.1c0-1.1,0-2.2,0-3.4v-3.6l0.1-0.1l16,0h0.1v0.1c0,2.2,0,3.9-0.1,5.2c0,0.6,0,1.1,0,1.4
			C285,31,284.9,31.1,284.9,31.1z"/>
		<path class="st14" d="M90.8,148.7c0,0,0-0.1,0-0.1v-0.4c0-0.3,0-0.8,0-1.4c0-1.2,0-3,0-5.2l0.1,0.1l-26.6,0.1l0.1-0.1v3.6
			c0,1.2,0,2.3,0,3.5l-0.1-0.1l19,0.1l5.6,0h1.5L90.8,148.7L90.8,148.7C90.8,148.6,90.8,148.6,90.8,148.7l-0.5,0h-1.5l-5.6,0
			l-19.1,0.1H64v-0.1c0-1.1,0-2.3,0-3.5v-3.6c0.3-0.3,0.1-0.1,0.1-0.1l26.6,0.1h0.1v0.1c0,2.2,0,4,0,5.2c0,0.6,0,1,0,1.4v0.4
			C90.8,148.6,90.8,148.7,90.8,148.7z"/>
		<path class="st14" d="M94.4,141.6c0,0,0-0.1,0-0.1c0-0.1,0-0.2,0-0.4c0-0.4,0-0.8,0-1.4c0-1.2,0-3-0.1-5.1l0.1,0.1l-16,0
			c-0.1,0.1,0.2-0.2,0.1-0.1v3.6c0,1.2,0,2.3,0,3.4l-0.1-0.1l11.5,0.1l3.3,0h0.9L94.4,141.6c0,0-0.1,0-0.2,0h-0.9l-3.3,0l-11.5,0.1
			h-0.1v-0.1c0-1.1,0-2.2,0-3.4v-3.6l0.1-0.1l16,0h0.1v0.1c0,2.2,0,3.9-0.1,5.2c0,0.6,0,1.1,0,1.4S94.4,141.6,94.4,141.6z"/>
		<path class="st14" d="M280.3,238.5c0,0,0-0.1,0-0.1c0-0.1,0-0.2,0-0.4c0-0.3,0-0.8,0-1.4c0-1.2,0-3,0-5.2l0.1,0.1l-26.6,0.1
			c0.1-0.1-0.1,0.1,0.1-0.1v7l-0.1-0.1l19,0.1l5.6,0h1.5h0.4L280.3,238.5L280.3,238.5l-0.5,0h-1.5l-5.6,0l-19.1,0.1h-0.1v-7.1
			l0.1-0.1l26.6,0.1h0.1v0.1c0,2.2,0,4,0,5.2c0,0.6,0,1,0,1.4c0,0.1,0,0.3,0,0.3C280.3,238.5,280.3,238.5,280.3,238.5z"/>
		<path class="st14" d="M283.9,231.5c0,0,0,0,0-0.1s0-0.2,0-0.4c0-0.3,0-0.8,0-1.4c0-1.2,0-3-0.1-5.1l0.1,0.1l-16,0l0.1-0.1v3.6
			c0,1.2,0,2.3,0,3.4l-0.1-0.1l11.5,0.1l3.3,0h0.9L283.9,231.5c-0.1,0-0.2,0-0.3,0h-0.9l-3.3,0l-11.5,0.1h-0.1v-0.1
			c0-1.1,0-2.2,0-3.4c0-0.6,0-1.2,0-1.8v-1.8c0,0,0.3-0.3,0.1-0.1l16,0h0.1v0.1c0,2.2,0,3.9,0,5.2c0,0.6,0,1.1,0,1.4
			C284,231.1,283.9,231.3,283.9,231.5z"/>
		<path class="st9" d="M208.5,28.2c0,0,0-0.1,0-0.1c0-0.1,0-0.2,0-0.4c0-0.3,0-0.8,0-1.4c0-1.2,0-3,0-5.2l0.1,0.1l-26.6,0.1
			c0.1-0.1-0.1,0.1,0.1-0.1v3.6c0,1.2,0,2.3,0,3.5l-0.1-0.1l19,0.1l5.6,0h1.5L208.5,28.2L208.5,28.2
			C208.5,28.2,208.5,28.2,208.5,28.2l-0.5,0h-1.5l-5.6,0l-19.1,0.1h-0.1v-7.1l0.1-0.1l26.6,0.1h0.1v0.1c0,2.2,0,4,0,5.2
			c0,0.6,0,1,0,1.4c0,0.1,0,0.3,0,0.3C208.6,28.2,208.5,28.2,208.5,28.2z"/>
		<g class="st24">
			<path class="st25" d="M320.2,62.6h-25.9c-1.4,0-2.7,0.5-3.6,1.5c-1,1-1.5,2.3-1.5,3.6v15.9c0,1.4,0.6,2.7,1.5,3.6
				c1,1,2.3,1.5,3.6,1.5h1.2l-0.5,4.9l5.9-4.9h19.3c1.4,0,2.7-0.5,3.6-1.5c1-1,1.5-2.3,1.5-3.6V67.8c0-1.4-0.5-2.7-1.5-3.6
				C322.9,63.2,321.6,62.6,320.2,62.6z"/>
			<g class="st24">
				<path class="st8" d="M308.5,69.1h-9.2l-0.8,0.4l0.4,6.8l1.6,0.4v1.6h0.8l1.2-2h6V69.1z"/>
				<path class="st8" d="M304.9,73.5h9.6l0.8,0.4v6.4l-1.7,1.2l-0.3,1.2l-0.8,0.4l-1-1.7l-6.2-0.3L304.9,73.5z"/>
				<path class="st4" d="M313.7,72.9h-4.4v-2.6c0-0.5-0.2-1-0.6-1.4c-0.4-0.4-0.9-0.6-1.4-0.6h-7.2c-0.5,0-1,0.2-1.4,0.6
					c-0.4,0.4-0.6,0.9-0.6,1.4v4.8c0,0.5,0.2,1,0.6,1.4c0.4,0.4,0.9,0.6,1.4,0.6v0.8c0,0.2,0,0.3,0.1,0.4c0.1,0.1,0.2,0.2,0.4,0.3
					c0.1,0.1,0.3,0.1,0.5,0c0.2,0,0.3-0.1,0.4-0.2c0,0,0,0,0,0l1-1.4h2v2.6c0,0.5,0.2,1,0.6,1.4c0.4,0.4,0.9,0.6,1.4,0.6h4.4
					l1.4,1.4c0.1,0.1,0.3,0.2,0.4,0.2s0.3,0,0.5,0s0.3-0.2,0.4-0.3c0.1-0.1,0.1-0.3,0.1-0.4v-0.8c0.5,0,1-0.2,1.4-0.6
					c0.4-0.4,0.6-0.9,0.6-1.4v-4.8c0-0.5-0.2-1-0.6-1.4C314.8,73.1,314.3,72.9,313.7,72.9z M302.3,76.3c-0.1,0-0.1,0-0.2,0
					c-0.1,0-0.1,0.1-0.1,0.1l-1.1,1.5v-1.2c0-0.1,0-0.2-0.1-0.3c-0.1-0.1-0.2-0.1-0.3-0.1h-0.4c-0.3,0-0.6-0.1-0.8-0.4
					c-0.2-0.2-0.4-0.5-0.4-0.8v-2.4v-2.4c0-0.3,0.1-0.6,0.4-0.8c0.2-0.2,0.5-0.4,0.8-0.4h7.2c0.3,0,0.6,0.1,0.8,0.4
					c0.2,0.2,0.4,0.5,0.4,0.8v2.6h-2c-0.4,0-0.8,0.1-1.2,0.4l-1.3-2.8c0-0.1-0.1-0.1-0.1-0.2c-0.1,0-0.1-0.1-0.2-0.1
					c-0.1,0-0.2,0-0.2,0.1c-0.1,0-0.1,0.1-0.1,0.2l-2,4.4c0,0,0,0.1,0,0.2c0,0.1,0,0.1,0,0.2c0,0,0,0.1,0.1,0.1c0,0,0.1,0.1,0.1,0.1
					c0.1,0,0.1,0,0.2,0c0.1,0,0.2,0,0.2-0.1c0.1,0,0.1-0.1,0.1-0.2l0.6-1.4h2l0,0.1c-0.2,0.3-0.2,0.6-0.2,0.9v1.4H302.3z
					 M304.4,73.1h-1.3l0.7-1.4L304.4,73.1z M314.9,79.7c0,0.3-0.1,0.6-0.4,0.8s-0.5,0.4-0.8,0.4h-0.4c-0.1,0-0.2,0-0.3,0.1
					c-0.1,0.1-0.1,0.2-0.1,0.3v1.2l-1.5-1.5c-0.1-0.1-0.2-0.1-0.3-0.1h-4.6c-0.3,0-0.6-0.1-0.8-0.4c-0.2-0.2-0.4-0.5-0.4-0.8v-4.8
					c0-0.3,0.1-0.6,0.4-0.8c0.2-0.2,0.5-0.4,0.8-0.4h7.2c0.3,0,0.6,0.1,0.8,0.4s0.4,0.5,0.4,0.8V79.7z"/>
				<path class="st4" d="M312.1,75.9h-1.6v-0.8c0-0.1,0-0.2-0.1-0.3c-0.1-0.1-0.2-0.1-0.3-0.1c-0.1,0-0.2,0-0.3,0.1
					c-0.1,0.1-0.1,0.2-0.1,0.3v0.8h-1.6c-0.1,0-0.2,0-0.3,0.1c-0.1,0.1-0.1,0.2-0.1,0.3c0,0.1,0,0.2,0.1,0.3
					c0.1,0.1,0.2,0.1,0.3,0.1h3c-0.1,0.7-0.4,1.3-1,1.7c-0.3-0.3-0.6-0.6-0.7-0.9c0,0-0.1-0.1-0.1-0.1s-0.1-0.1-0.1-0.1
					c0,0-0.1,0-0.2,0c-0.1,0-0.1,0-0.2,0c0,0-0.1,0.1-0.1,0.1c0,0-0.1,0.1-0.1,0.1c0,0.1,0,0.1,0,0.2c0,0.1,0,0.1,0,0.2
					c0.2,0.4,0.4,0.7,0.7,1c-0.4,0.2-0.7,0.2-1.1,0.2c-0.1,0-0.1,0-0.2,0c0,0-0.1,0-0.1,0.1c0,0-0.1,0.1-0.1,0.1c0,0,0,0.1,0,0.2
					c0,0.1,0,0.2,0.1,0.3c0.1,0.1,0.2,0.1,0.3,0.1c0.6,0,1.3-0.2,1.8-0.5c0.6,0.3,1.2,0.5,1.8,0.5c0.1,0,0.1,0,0.2,0
					c0,0,0.1-0.1,0.1-0.1c0,0,0.1-0.1,0.1-0.1c0,0,0-0.1,0-0.2c0-0.1,0-0.2-0.1-0.3c-0.1-0.1-0.2-0.1-0.3-0.1
					c-0.4,0-0.7-0.1-1.1-0.2c0.6-0.6,1-1.3,1.1-2.2h0.2c0.1,0,0.2,0,0.3-0.1c0.1-0.1,0.1-0.2,0.1-0.3c0-0.1,0-0.2-0.1-0.3
					C312.3,75.9,312.2,75.9,312.1,75.9z"/>
			</g>
			<path class="st5" d="M320.2,62.6c0.1,0,0.2,0,0.3,0c0.2,0,0.5,0,0.7,0.1c1,0.2,1.9,0.6,2.6,1.3c0.5,0.5,0.9,1.1,1.2,1.7
				c0.3,0.8,0.5,1.6,0.4,2.5c0,1.8,0,3.9,0,6.2c0,2.3,0,4.8,0,7.5c0,0.7,0,1.4,0,2.1c-0.1,0.7-0.3,1.5-0.6,2.1
				c-0.4,0.7-0.9,1.3-1.5,1.7c-0.6,0.5-1.4,0.8-2.1,0.9c-0.8,0.1-1.6,0.1-2.4,0.1h-17.9l0.1,0l-5.9,4.9l-0.3,0.3l0-0.5
				c0.1-0.8,0.2-1.7,0.2-2.5c0.1-0.9,0.2-1.6,0.2-2.4l0.2,0.2c-0.5,0-1,0-1.6,0c-0.5,0-1-0.1-1.5-0.3c-1-0.4-1.8-1-2.4-1.9
				c-0.6-0.8-0.9-1.8-1-2.9c0-1,0-2,0-2.9c0-3.9,0-7.6,0-11.1c0-0.4,0-0.9,0-1.3c0-0.4,0-0.9,0-1.3c0.1-0.9,0.4-1.7,0.9-2.4
				c0.5-0.7,1.1-1.2,1.9-1.6s1.6-0.6,2.4-0.6h8.7l12.6,0.1h3.4h0.9C320,62.6,320.1,62.6,320.2,62.6c-0.1-0.1-0.2-0.1-0.3-0.1H319
				h-3.4L303,62.6h-8.7c-1.2,0-2.4,0.5-3.3,1.3c-0.9,0.8-1.5,1.9-1.6,3.1c-0.1,0.8,0,1.7,0,2.6c0,3.5,0,7.3,0,11.1c0,1,0,1.9,0,2.9
				c0,1,0.4,1.9,0.9,2.7c0.6,0.8,1.4,1.4,2.3,1.7c0.9,0.4,2,0.5,3,0.5h0.2v0.2c-0.1,0.7-0.1,1.6-0.2,2.4c-0.1,0.8-0.2,1.7-0.2,2.5
				l-0.3-0.2l5.9-4.9l0.1,0h18c0.8,0,1.5,0,2.3-0.1c0.7-0.1,1.4-0.4,2-0.9c0.6-0.4,1.1-1,1.4-1.6c0.3-0.6,0.5-1.3,0.6-2
				c0-0.7,0-1.4,0-2.1c0-2.7,0-5.2,0-7.5c0-2.3,0-4.4,0-6.2c0-0.8-0.1-1.7-0.4-2.4c-0.3-0.8-0.8-1.4-1.5-2c-0.6-0.5-1.4-0.9-2.2-1.1
				C320.6,62.6,320.2,62.7,320.2,62.6z"/>
			<path class="st9" d="M70,186.3c0.5-3.8-4.8-6.9-8.8-7.2c-1.9-0.2-3.9,0.1-5.7-0.5c-3.9-1.4-5.5-6.5-9.3-8.1
				c-2.9-1.2-6.1-0.1-8.9,1.3s-5.5,3.2-8.6,3.4c-2.7,0.2-5.6-0.8-8,0.5c-1.8,1-2.7,3-4.3,4.2c-1.6,1.2-3.6,1.4-5.6,1.5
				c-2,0.1-4,0.1-5.8,1c-1.8,0.8-3.3,2.7-2.9,4.7L70,186.3L70,186.3z"/>
			<path class="st9" d="M343,220.4c0.5-3.7-4.7-6.8-8.6-7.1c-1.9-0.1-3.8,0.1-5.6-0.5c-3.8-1.3-5.4-6.3-9.1-7.9
				c-2.8-1.2-6-0.1-8.8,1.2c-2.7,1.4-5.4,3.1-8.5,3.3c-2.6,0.2-5.5-0.8-7.8,0.5c-1.7,1-2.6,3-4.2,4.1c-1.6,1.2-3.6,1.4-5.5,1.5
				s-3.9,0.1-5.7,0.9c-1.8,0.8-3.2,2.7-2.8,4.6L343,220.4z"/>
			<path class="st25" d="M281.5,17.1H264c-1.4,0-2.7,0.6-3.6,1.5c-1,1-1.5,2.3-1.5,3.6v15.9c0,1.4,0.5,2.6,1.5,3.6
				c1,1,2.2,1.5,3.6,1.5h1.2l-0.5,4.9l5.9-4.9h10.9c1.4,0,2.7-0.5,3.6-1.5c1-1,1.5-2.3,1.5-3.6V22.3c0-0.7-0.1-1.4-0.4-2
				c-0.3-0.6-0.6-1.2-1.1-1.7c-0.5-0.5-1.1-0.9-1.7-1.1C282.8,17.2,282.2,17.1,281.5,17.1z"/>
			<g class="st24">
				<path class="st26" d="M272.6,33.6h-0.4h-0.1h-5.6c-0.5,0-0.8-0.3-0.8-0.6v-8.8c0-0.3,0.3-0.6,0.8-0.6h12c0.5,0,0.8,0.3,0.8,0.6
					V33c0,0.2-0.3,0.6-0.8,0.6H272.6L272.6,33.6z"/>
				<path class="st5" d="M273.5,26.9c-0.1,0-0.1,0-0.2,0c-0.1,0-0.1,0.1-0.2,0.1l-1.5,3c0,0,0,0.1,0,0.1c0,0,0,0.1,0,0.1
					c0,0,0,0.1,0.1,0.1c0,0,0.1,0.1,0.1,0.1c0,0,0.1,0,0.1,0c0,0,0.1,0,0.1,0c0,0,0.1,0,0.1-0.1c0,0,0.1-0.1,0.1-0.1l1.5-3
					c0-0.1,0-0.1,0-0.2C273.6,27,273.6,26.9,273.5,26.9z"/>
				<path class="st5" d="M275.3,26.8c-0.1-0.1-0.1-0.1-0.2-0.1c-0.1,0-0.1,0-0.2,0.1s-0.1,0.1-0.1,0.2c0,0.1,0,0.1,0.1,0.2l1.4,1.4
					l-1.4,1.4c0,0-0.1,0.1-0.1,0.1c0,0,0,0.1,0,0.1c0,0,0,0.1,0,0.1c0,0,0,0.1,0.1,0.1c0,0,0.1,0,0.1,0.1c0,0,0.1,0,0.1,0
					c0,0,0.1,0,0.1,0s0.1,0,0.1-0.1l1.6-1.6c0.1-0.1,0.1-0.1,0.1-0.2s0-0.1-0.1-0.2L275.3,26.8z"/>
				<path class="st5" d="M270.3,26.8c-0.1-0.1-0.1-0.1-0.2-0.1c-0.1,0-0.1,0-0.2,0.1l-1.6,1.6c-0.1,0.1-0.1,0.1-0.1,0.2
					c0,0.1,0,0.1,0.1,0.2l1.6,1.6c0.1,0.1,0.1,0.1,0.2,0.1c0.1,0,0.1,0,0.2-0.1c0.1-0.1,0.1-0.1,0.1-0.2c0-0.1,0-0.1-0.1-0.2
					l-1.4-1.4l1.4-1.4c0.1-0.1,0.1-0.1,0.1-0.2C270.3,26.9,270.3,26.8,270.3,26.8z"/>
			</g>
			<path class="st5" d="M281.5,17.1h0.2c0.2,0,0.4,0,0.6,0.1c0.8,0.1,1.6,0.4,2.2,0.9c1.1,0.8,1.8,1.9,2.1,3.2
				c0.1,0.8,0.1,1.6,0.1,2.4c0,0.9,0,1.8,0,2.7c0,1.9,0,4,0,6.3c0,1.1,0,2.3,0,3.5v1.9c0,0.7-0.1,1.3-0.4,1.9
				c-0.4,1-1.1,1.8-1.9,2.4c-0.9,0.6-1.9,0.9-2.9,1h-10.9l0.1,0l-5.9,4.9l-0.4,0.3l0-0.5c0.1-0.8,0.2-1.7,0.2-2.5
				c0.1-0.9,0.2-1.6,0.2-2.4l0.2,0.2c-0.4,0-0.9,0-1.3,0c-0.5,0-0.9-0.1-1.3-0.2c-0.9-0.2-1.6-0.7-2.3-1.3c-0.6-0.6-1.1-1.4-1.4-2.3
				c-0.2-0.8-0.3-1.7-0.2-2.5c0-3.3,0-6.5,0-9.5c0-1.5,0-3,0-4.4c0-0.7,0-1.5,0.2-2.2c0.3-1,0.8-1.9,1.6-2.6
				c0.8-0.7,1.7-1.1,2.7-1.3c0.6-0.1,1.2-0.1,1.9-0.1h1.8l10.8,0.1h2.9h0.7h0.3c-0.1,0-0.2,0-0.3,0h-0.7h-2.9l-10.8,0.1h-1.8
				c-0.6,0-1.2,0-1.8,0.1c-1.3,0.2-2.4,0.9-3.2,1.9c-0.4,0.5-0.7,1.1-0.9,1.8c-0.1,0.7-0.2,1.4-0.2,2.1c0,1.5,0,2.9,0,4.4
				c0,3,0,6.2,0,9.5c-0.1,0.8,0,1.6,0.2,2.4c0.2,0.8,0.7,1.5,1.3,2.1c0.6,0.6,1.3,1,2.1,1.2c0.8,0.2,1.7,0.2,2.6,0.2h0.2v0.2
				c-0.1,0.7-0.1,1.6-0.2,2.4c-0.1,0.8-0.2,1.7-0.2,2.5l-0.3-0.2l5.9-4.9l0.1,0h9c1.4,0,2.8,0.2,4-0.4c1.2-0.5,2.1-1.5,2.6-2.7
				c0.5-1.2,0.3-2.4,0.4-3.6c0-1.2,0-2.4,0-3.5c0-2.3,0-4.4,0-6.3c0-1,0-1.9,0-2.7c0-0.8,0-1.6-0.1-2.4c-0.2-1-0.7-2-1.4-2.7
				c-0.7-0.7-1.7-1.2-2.7-1.4C281.8,17.1,281.5,17.1,281.5,17.1z"/>
		</g>
		<g class="st24">
			<path class="st25" d="M99.5,103H82c-1.4,0-2.7,0.6-3.6,1.5c-1,1-1.5,2.3-1.5,3.6V124c0,1.3,0.6,2.6,1.5,3.6c1,1,2.2,1.5,3.6,1.5
				h1.2l-0.5,4.9l5.9-4.9h10.9c1.4,0,2.7-0.5,3.6-1.5c1-1,1.5-2.3,1.5-3.6v-15.9c0-0.7-0.1-1.4-0.4-2c-0.3-0.6-0.6-1.2-1.1-1.7
				c-0.5-0.5-1.1-0.9-1.7-1.1C100.8,103.1,100.2,103,99.5,103z"/>
			<path class="st5" d="M99.5,103h0.2c0.2,0,0.4,0,0.6,0.1c0.8,0.1,1.6,0.4,2.2,0.9c1.1,0.8,1.8,1.9,2.1,3.2
				c0.1,0.8,0.1,1.6,0.1,2.4c0,0.9,0,1.8,0,2.7c0,1.9,0,4,0,6.3c0,1.1,0,2.3,0,3.5v1.9c0,0.7-0.1,1.3-0.4,1.9
				c-0.4,1-1.1,1.8-1.9,2.4c-0.9,0.6-1.9,0.9-2.9,0.9H88.6l0.1,0l-5.9,4.9l-0.4,0.3l0-0.5c0.1-0.8,0.2-1.7,0.2-2.5
				c0.1-0.9,0.2-1.6,0.2-2.4l0.2,0.2c-0.4,0-0.9,0-1.3,0c-0.5,0-0.9-0.1-1.3-0.2c-0.9-0.2-1.7-0.7-2.3-1.3c-0.6-0.6-1.1-1.4-1.4-2.3
				c-0.2-0.8-0.3-1.7-0.2-2.5c0-3.3,0-6.5,0-9.5c0-1.5,0-3,0-4.4c0-0.7,0-1.5,0.2-2.2c0.3-1,0.8-1.9,1.6-2.6
				c0.8-0.7,1.7-1.1,2.7-1.3c0.6-0.1,1.2-0.1,1.9-0.1h1.8l10.8,0.1h2.9h0.7h0.3c-0.1,0-0.2,0-0.3,0h-0.7h-2.9l-10.8,0.1h-1.8
				c-0.6,0-1.2,0-1.8,0.1c-1.3,0.2-2.4,0.9-3.2,1.9c-0.4,0.5-0.7,1.1-0.9,1.8c-0.1,0.7-0.2,1.4-0.2,2.1c0,1.5,0,2.9,0,4.4
				c0,3,0,6.2,0,9.5c-0.1,0.8,0,1.6,0.2,2.4c0.2,0.8,0.7,1.5,1.3,2.1c0.6,0.6,1.3,1,2.1,1.2c0.8,0.2,1.7,0.2,2.6,0.2h0.2v0.2
				c-0.1,0.7-0.1,1.6-0.2,2.4c-0.1,0.8-0.2,1.7-0.2,2.5l-0.3-0.2l5.9-4.9l0.1,0h9c1.4,0,2.8,0.2,4-0.4c1.2-0.5,2.1-1.5,2.6-2.7
				c0.5-1.2,0.3-2.4,0.4-3.6c0-1.2,0-2.4,0-3.5c0-2.3,0-4.4,0-6.3c0-1,0-1.9,0-2.7c0-0.8,0-1.6-0.1-2.4c-0.2-1-0.7-2-1.4-2.7
				c-0.7-0.7-1.7-1.2-2.7-1.4C99.8,103,99.5,103,99.5,103z"/>
			<g class="st24">
				<path class="st8" d="M82.8,110.7l15.2-0.2l0.1,5l-0.7,0.3l0.1,7.1l-13.7,0.1l-0.1-7.5l-0.8-0.3L82.8,110.7z"/>
				<path class="st23" d="M87.1,109.3c0-0.9,0.7-1.7,1.6-1.7l3.3,0c0.9,0,1.7,0.7,1.7,1.6l0,1l4.6,0l0.1,5.6l-0.7,0l0.1,7.6
					l-14.6,0.2l-0.1-7.6l-0.7,0l-0.1-5.6l4.6,0L87.1,109.3z M93.1,109.2c0-0.5-0.5-1-1-1l-3.3,0c-0.5,0-1,0.5-1,1l0,1l5.3-0.1
					L93.1,109.2z M97.2,121.2c-0.8,0.1-1.5,0.8-1.6,1.6l1.6,0L97.2,121.2z M85.6,122.9c-0.1-0.8-0.8-1.5-1.6-1.6l0,1.6L85.6,122.9z
					 M83.9,120.6c1.2,0.1,2.2,1.1,2.3,2.3l8.7-0.1c0.1-1.2,1.1-2.2,2.3-2.3l0-4.7l-4.6,0l0,2l-1.7,0l0,0.7l-0.7,0l0-0.7l-1.7,0l0-2
					l-4.6,0L83.9,120.6z M90.8,116.6l0,0.7l1,0l0-1.3l-2.7,0l0,1.3l1,0l0-0.7L90.8,116.6z M83.2,115.3l5.3-0.1l4,0l5.3-0.1l0-4.3
					L83.1,111L83.2,115.3z"/>
			</g>
		</g>
		<g class="st24">
			<path class="st25" d="M138.7-3h17.5c1.4,0,2.7,0.6,3.6,1.5c1,1,1.5,2.3,1.5,3.6V18c0,1.4-0.6,2.6-1.5,3.6c-1,1-2.2,1.5-3.6,1.5
				H155l0.5,4.9l-5.9-4.9h-10.9c-1.4,0-2.7-0.5-3.6-1.5c-1-1-1.5-2.3-1.5-3.6V2.1c0-0.7,0.1-1.4,0.4-2c0.3-0.6,0.6-1.2,1.1-1.7
				s1.1-0.9,1.7-1.1C137.3-2.9,138-3,138.7-3z"/>
			<path class="st8" d="M141.4,15.4v-4.5c0-0.1,0.1-0.2,0.2-0.2h11.2c0.1,0,0.2,0.1,0.2,0.2v4.5c0,0,0,0.1-0.1,0.1
				c-4.9,3.7-9.6,1.6-11.4,0C141.5,15.5,141.4,15.4,141.4,15.4z"/>
			<path class="st27" d="M141.8,11.1v4.2c1.7,1.5,6.1,3.4,10.7,0v-4.2H141.8z M141,10.9c0-0.3,0.3-0.6,0.6-0.6h11.2
				c0.3,0,0.6,0.2,0.6,0.6v4.5c0,0.2-0.1,0.3-0.2,0.4c-5.1,3.9-10,1.6-11.9,0c-0.1-0.1-0.2-0.3-0.2-0.4V10.9z"/>
			<path class="st8" d="M147.2,2.4l-10.3,5.5c-0.1,0.1-0.1,0.2,0,0.3l10.3,5.6c0,0,0.1,0,0.2,0l10.2-5.6c0.1-0.1,0.1-0.2,0-0.3
				l-10.2-5.5C147.3,2.4,147.2,2.4,147.2,2.4z"/>
			<path class="st27" d="M147.3,2.9l-9.8,5.2l9.8,5.4l9.7-5.4L147.3,2.9z M147,2.1c0.2-0.1,0.4-0.1,0.5,0l10.2,5.5
				c0.4,0.2,0.4,0.8,0,1l-10.2,5.6c-0.2,0.1-0.4,0.1-0.5,0l-10.3-5.6c-0.4-0.2-0.4-0.8,0-1L147,2.1z"/>
			<path class="st27" d="M155.7,9.9l-8.6-1.3l0.1-0.8l8.8,1.3c0.3,0,0.5,0.3,0.5,0.6v2.4h-0.8V9.9z"/>
			<path class="st8" d="M155.4,17.6h1.4c0.1,0,0.2-0.1,0.2-0.2v-4.3c0-1.4-1.8-1.4-1.8,0v4.2C155.2,17.5,155.3,17.6,155.4,17.6z"/>
			<path class="st27" d="M155.8,12.6c-0.1,0.1-0.2,0.3-0.2,0.5v4h1v-4c0-0.5-0.3-0.7-0.5-0.7C156,12.5,155.9,12.6,155.8,12.6z
				 M156.1,11.7c0.7,0,1.3,0.6,1.3,1.5v4.3c0,0.3-0.3,0.6-0.6,0.6h-1.4c-0.3,0-0.6-0.3-0.6-0.6v-4.2l0,0c0-0.4,0.1-0.8,0.4-1.1
				C155.4,11.8,155.8,11.7,156.1,11.7z"/>
			<path class="st5" d="M138.7-3h-0.2c-0.2,0-0.4,0-0.6,0.1c-0.8,0.1-1.6,0.4-2.2,0.9c-1.1,0.8-1.8,1.9-2.1,3.2
				c-0.1,0.8-0.1,1.6-0.1,2.4c0,0.9,0,1.8,0,2.7c0,1.9,0,4,0,6.3c0,1.1,0,2.3,0,3.5V18c0,0.7,0.1,1.3,0.4,1.9c0.4,1,1.1,1.8,1.9,2.4
				c0.9,0.6,1.9,0.9,2.9,1h10.9l-0.1,0l5.9,4.9l0.4,0.3l0-0.5c-0.1-0.8-0.2-1.7-0.2-2.5c-0.1-0.9-0.2-1.6-0.2-2.4l-0.2,0.2
				c0.4,0,0.9,0,1.3,0c0.5,0,0.9-0.1,1.3-0.2c0.9-0.2,1.6-0.7,2.3-1.3s1.1-1.4,1.4-2.3c0.2-0.8,0.3-1.7,0.2-2.5c0-3.3,0-6.5,0-9.5
				c0-1.5,0-3,0-4.4c0-0.7,0-1.5-0.2-2.2c-0.3-1-0.8-1.9-1.6-2.6c-0.8-0.7-1.7-1.1-2.7-1.3c-0.6-0.1-1.2-0.1-1.9-0.1h-1.8l-10.8,0.1
				h-2.9H139h-0.3c0.1,0,0.2,0,0.3,0h0.7h2.9l10.8,0.1h1.8c0.6,0,1.2,0,1.8,0.1c1.3,0.2,2.4,0.9,3.2,1.9c0.4,0.5,0.7,1.1,0.9,1.8
				c0.1,0.7,0.2,1.4,0.2,2.1c0,1.5,0,2.9,0,4.4c0,3,0,6.2,0,9.5c0.1,0.8,0,1.6-0.2,2.4c-0.2,0.8-0.7,1.5-1.3,2.1
				c-0.6,0.6-1.3,1-2.1,1.2c-0.8,0.2-1.7,0.2-2.6,0.2h-0.2V23c0.1,0.7,0.1,1.6,0.2,2.4c0.1,0.8,0.2,1.7,0.2,2.5l0.3-0.2l-5.9-4.9
				l-0.1,0h-9c-1.4,0-2.8,0.2-4-0.4c-1.2-0.5-2.1-1.5-2.6-2.7c-0.5-1.2-0.3-2.4-0.4-3.6c0-1.2,0-2.4,0-3.5c0-2.3,0-4.4,0-6.3
				c0-1,0-1.9,0-2.7c0-0.8,0-1.6,0.1-2.4c0.2-1,0.7-2,1.4-2.7c0.7-0.7,1.7-1.2,2.7-1.4C138.4-3,138.7-3,138.7-3z"/>
		</g>
		<path class="st28" d="M257,180.8c0,0-3.2,33.5-2.1,39.4c1.1,6,39.1,31.6,39.1,31.6l5.8-7.3c0,0-9.1-12.6-17.3-19.9
			c-8.2-7.3-10.4-8.8-10.4-8.8l0.7-3.7l4.5-27.9L257,180.8z"/>
		<path class="st28" d="M278.8,183.1l0.7,32.9l3.1,45.9h8c0,0,3.6-21.5,3.4-32.7c-0.2-11.2-0.1-15.3,0-16.7
			c0.1-1.4,3.9-16.5,4.8-27.7c0.9-11.3-4.8-14.2-4.8-14.2L278.8,183.1z"/>
		<path class="st29" d="M278.8,183.1l0.3-0.2l0.8-0.6l3-2.5l11.2-9.3l0,0h0.1c1,0.6,1.8,1.5,2.5,2.5c0.7,1.1,1.2,2.2,1.6,3.4
			c0.8,2.7,1,5.4,0.8,8.2c-0.4,5.8-1.5,12.1-2.9,18.8c-0.4,1.7-0.7,3.4-1.1,5.1l-0.5,2.6c-0.1,0.4-0.2,0.9-0.2,1.3
			c0,0.4,0,0.9-0.1,1.4c-0.1,3.6,0,7.4,0,11.2c0,1.9,0.1,3.8,0,5.8c0,1-0.1,2-0.1,3c0,1-0.1,2-0.2,3c-0.3,4-0.7,8-1.3,12.1
			c-0.6,4.4-1.2,8.8-1.9,13v0.1h-8.3v-0.1c-0.8-11.3-1.5-21.8-2.1-31.3c-0.3-4.7-0.6-9.2-0.9-13.4c-0.1-1-0.1-2.1-0.1-3.1
			c0-1,0-2-0.1-3c0-1.9-0.1-3.8-0.1-5.5c-0.1-7-0.2-12.7-0.3-16.5c0-1.9,0-3.4-0.1-4.4c0-0.5,0-0.9,0-1.1S278.9,183.2,278.8,183.1
			c0,0,0,0.1,0,0.4s0,0.7,0,1.2c0,1,0.1,2.5,0.1,4.4c0.1,3.9,0.2,9.5,0.4,16.5c0,1.8,0.1,3.6,0.1,5.5c0,1,0,1.9,0.1,3
			c0,1,0,2,0.1,3.1c0.3,4.2,0.6,8.7,0.9,13.4c0.7,9.5,1.4,20,2.2,31.3l-0.1-0.1h8l-0.1,0.1c0.7-4.2,1.3-8.6,1.9-13
			c0.5-4.1,1-8.1,1.3-12.1c0.1-1,0.1-2,0.2-3c0.1-1,0.1-2,0.1-2.9c0-2,0-3.9,0-5.8c0-3.8-0.1-7.6,0-11.2c0-0.5,0-0.9,0.1-1.4
			c0-0.5,0.2-0.9,0.2-1.3c0.2-0.9,0.4-1.8,0.5-2.6c0.4-1.7,0.7-3.4,1.1-5.1c1.4-6.7,2.5-13,2.9-18.8c0.2-2.7,0-5.5-0.8-8.1
			c-0.4-1.2-0.9-2.3-1.6-3.4c-0.6-1-1.4-1.8-2.4-2.4h0.1l-11.3,9.2l-3,2.4l-0.8,0.6L278.8,183.1z"/>
		<path class="st4" d="M281.6,258.5v0.6c0,0-10.5,4.1-10.6,6.1h20.7l-0.3-6.9c-1.5,0.7-3.2,1.1-4.9,1.2
			C284.9,259.5,283.2,259.2,281.6,258.5z"/>
		<g class="st13">
			<path class="st8" d="M289.4,260.5c0.2,0.1,0.4,0.2,0.5,0.4s0.1,0.4,0.1,0.6c-0.1,0.2-0.2,0.4-0.4,0.5c-0.2,0.1-0.4,0.1-0.6,0.1
				c-0.2-0.1-0.4-0.2-0.5-0.4s-0.2-0.4-0.1-0.6c0.1-0.2,0.2-0.4,0.4-0.5C289,260.5,289.3,260.5,289.4,260.5"/>
		</g>
		<g class="st13">
			<path class="st8" d="M291.8,265.2l-0.1-1.6l-19.9,0.6c0,0-0.9,0.4-0.8,1.1L291.8,265.2z"/>
		</g>
		<path class="st5" d="M281.6,259.1c0,0.1,0.5,0.1,1,0.5c0.5,0.3,0.8,0.8,0.9,0.7c0.1,0-0.1-0.6-0.7-1
			C282.1,258.9,281.5,259.1,281.6,259.1z"/>
		<path class="st5" d="M279.4,260c0,0.1,0.4,0.3,0.8,0.7c0.3,0.4,0.4,0.9,0.5,0.9s0.2-0.6-0.3-1.1C280,260,279.4,260,279.4,260z"/>
		<path class="st5" d="M278.1,262.6c0.1,0,0.2-0.5,0-1c-0.3-0.6-0.7-0.8-0.8-0.7c0,0.1,0.3,0.4,0.5,0.8
			C278,262.2,278,262.6,278.1,262.6z"/>
		<path class="st5" d="M269,80.2c1.2,0.8,2.2,1.8,2.9,3c0.7,1.2,1.1,2.6,1.2,4c0,1.4-0.1,3,0.9,3.9c1,0.9,2.7,0.7,3.7,1.6
			c1.1,1.1,0.5,3.1,1.1,4.6c0.3,0.7,0.8,1.3,1.5,1.6c0.7,0.4,1.4,0.5,2.2,0.3c-1.6,1.6-3.6,2.8-5.8,3.4l-2-2
			c0.3,0.4,0.5,0.9,0.6,1.4c0,0.5-0.1,1-0.4,1.4c-0.6,0.8-1.4,1.5-2.4,1.8c-2.2,1-4.6,1.4-7.1,1.3c-2.4-0.1-4.8-0.8-6.9-2"/>
		<path class="st5" d="M244.8,95.2c0.2-1.1,0.7-2.1,0.8-3.2c0.2-2.4-1.2-4.8-0.3-7.1c0.6-1.6,2.2-2.5,3.8-3.2
			c1.6-0.7,3.2-1.3,4.3-2.6c0.8-1,1.1-2.2,1.9-3.2c1.1-1.4,2.9-2,4.7-2.3c1.8-0.4,3.6-0.3,5.4,0.3c0.9,0.3,1.7,0.8,2.3,1.4
			c0.6,0.6,1.1,1.4,1.4,2.3c0.2,0.9,0.2,1.8,0.6,2.6c0.4,0.9,1.2,1.5,1.8,2.3c0.6,0.9,0.8,1.9,0.7,2.9s-0.5,2-1.2,2.8l-10.6,17.4
			c-2.5,1.3-8.9,0.8-11.2-0.9C246.9,103.1,244.2,98,244.8,95.2z"/>
		<path class="st28" d="M270.3,86.2c-0.9-3.6-4.2-7.5-7.7-6.5l-10.7,5c-0.5,0.2-0.9,0.5-1.2,1c-0.3,0.5-0.4,1-0.3,1.5l5,26.5
			c0,0,0.5,0.1,0,0c0,0-0.1,0-0.1,0c0,0-0.1,0-0.1,0.1s0,0.1,0,0.1c0,0,0,0.1,0,0.1c1.6,1.8,8.9,9.6,15.1,6.2
			c1.4-0.7-0.7-5.1-0.8-6.9l-0.7-4.3c-0.4-2.2-0.6-3.1-0.5-3.1c0,0,4.5-1.6,4.3-7.9C272.5,95.1,271.4,90.2,270.3,86.2z"/>
		<path class="st5" d="M269.3,91.8c0,0.2,0,0.4-0.1,0.6c-0.1,0.2-0.3,0.3-0.5,0.3c-0.1,0-0.2,0-0.3,0c-0.1,0-0.2,0-0.3-0.1
			c-0.1-0.1-0.2-0.1-0.2-0.2c-0.1-0.1-0.1-0.2-0.1-0.3c0-0.2,0-0.4,0.1-0.6c0.1-0.2,0.3-0.3,0.5-0.3c0.1,0,0.2,0,0.3,0
			s0.2,0,0.3,0.1c0.1,0.1,0.2,0.1,0.2,0.2C269.3,91.6,269.3,91.7,269.3,91.8z"/>
		<path class="st5" d="M261.8,93.7c0,0.2,0,0.4-0.1,0.6c-0.1,0.2-0.3,0.3-0.5,0.3c-0.1,0-0.2,0-0.3,0c-0.1,0-0.2,0-0.3-0.1
			c-0.1-0.1-0.2-0.1-0.2-0.2c-0.1-0.1-0.1-0.2-0.1-0.3c0-0.2,0-0.4,0.1-0.6c0.1-0.2,0.3-0.3,0.5-0.3c0.1,0,0.2,0,0.3,0
			c0.1,0,0.2,0,0.3,0.1c0.1,0.1,0.2,0.1,0.2,0.2C261.8,93.5,261.8,93.6,261.8,93.7z"/>
		<path class="st5" d="M270.1,89c-0.1,0.2-0.8-0.2-1.7,0c-0.9,0.2-1.4,0.9-1.5,0.8c-0.1-0.1,0-0.3,0.2-0.6c0.3-0.4,0.7-0.7,1.2-0.8
			c0.5-0.1,1-0.1,1.4,0.1C270,88.7,270.1,88.9,270.1,89z"/>
		<path class="st5" d="M262.1,90.9c-0.1,0.1-0.9-0.3-1.8-0.1c-1,0.2-1.6,0.8-1.7,0.7c-0.1-0.1,0-0.3,0.3-0.6
			c0.4-0.4,0.8-0.6,1.4-0.7c0.5-0.1,1,0,1.5,0.3C262,90.6,262.1,90.8,262.1,90.9z"/>
		<path class="st5" d="M265.8,96.3c0.4-0.2,0.8-0.4,1.3-0.5c0.2-0.1,0.4-0.1,0.4-0.3c0-0.2-0.1-0.4-0.3-0.6l-0.9-1.5
			c-1.3-2.1-2.3-3.9-2.2-4c0.1-0.1,1.2,1.6,2.5,3.8l0.9,1.5c0.2,0.2,0.3,0.5,0.3,0.8c0,0.1-0.1,0.2-0.1,0.2
			c-0.1,0.1-0.1,0.1-0.2,0.2c-0.1,0.1-0.2,0.1-0.4,0.1C266.7,96.2,266.3,96.3,265.8,96.3z"/>
		<path class="st29" d="M268.3,106c-2.8,0.6-5.8,0.4-8.5-0.6c0,0,2.9,3.8,8.8,2.1L268.3,106z"/>
		<path class="st29" d="M265.8,98.4c-0.2-0.1-0.5-0.2-0.7-0.2c-0.3,0-0.5,0.1-0.7,0.2c-0.2,0.1-0.3,0.2-0.4,0.4
			c-0.1,0.1-0.2,0.3-0.2,0.5c0,0.2,0,0.4,0,0.5c0.1,0.2,0.2,0.3,0.3,0.4c0.2,0.1,0.4,0.1,0.6,0.1c0.2,0,0.4-0.1,0.5-0.3
			c0.3-0.3,0.6-0.6,0.7-1c0.1-0.1,0.1-0.2,0.1-0.3c0-0.1,0-0.1,0-0.2C265.9,98.5,265.9,98.5,265.8,98.4"/>
		<path class="st5" d="M263.6,97.8c0.1,0,0.3,0.9,1.2,1.4c0.9,0.5,1.8,0.2,1.9,0.3c0,0.1-0.2,0.2-0.6,0.3c-0.5,0.1-1.1,0-1.6-0.2
			c-0.5-0.2-0.8-0.7-1-1.2C263.5,98.1,263.5,97.8,263.6,97.8z"/>
		<path class="st5" d="M261.8,88.6c0,0.2-0.9,0.3-1.8,0.6c-1,0.3-1.7,0.7-1.9,0.5c-0.1-0.1,0-0.3,0.3-0.6c0.4-0.4,0.8-0.6,1.3-0.8
			c0.5-0.2,1-0.2,1.5-0.1C261.6,88.4,261.8,88.5,261.8,88.6z"/>
		<path class="st5" d="M268.8,85.7c-0.1,0.2-0.8,0.2-1.6,0.3c-0.8,0.1-1.4,0.4-1.6,0.2c-0.1-0.1,0-0.3,0.2-0.5
			c0.4-0.3,0.8-0.5,1.2-0.6c0.5-0.1,0.9,0,1.4,0.1C268.8,85.4,268.9,85.6,268.8,85.7z"/>
		<path class="st5" d="M249.5,85.9c0.5-0.9,1.4-1.5,2.3-2c4-2.1,8.2-3.7,12.5-4.8c0.7,0.8,0.3,2.1-0.5,2.9c-0.8,0.8-1.8,1.1-2.7,1.6
			c-0.9,0.5-1.9,1.2-2.2,2.2c-0.3,1,0.2,2.3-0.1,3.4c-0.4,1.9-2.9,2.8-3.4,4.7c-0.3,1.4,0.6,2.8,1,4.2c0.2,0.7,0.2,1.5,0.1,2.2
			c-0.1,0.7-0.4,1.4-0.8,2.1c-0.4,0.6-1,1.1-1.6,1.5c-0.6,0.4-1.4,0.6-2.1,0.7l-2.7-15.6C249.2,88.1,249,86.9,249.5,85.9z"/>
		<path class="st5" d="M240.5,100.3c0.7-0.8,1.7-1.6,1.9-2.7c0.3-1.6-1.1-3.3-0.5-4.8c0.6-1.4,2.7-1.6,3.3-2.9
			c0.4-1.1-0.3-1.9-0.2-2.8c0.1-0.9,1.3-1.9,2.2-1.9l8.3,9.5c1.1,3.4,1.9,5.2,1.4,7.3c-0.4,1.1-0.6,2.3-0.7,3.5
			c0,1.2,0.4,2.5,1.5,3.1c-4.2,0.8-8.5-0.9-12.4-2.7l-4.2-1.8c-0.5-0.2-0.9-0.4-1.2-0.8C239.2,102.5,239.8,101.2,240.5,100.3z"/>
		<path class="st4" d="M245,104.9c0.2,0,0.3,0,0.5,0c0.5,0,0.9-0.1,1.3-0.2c0.7-0.2,1.3-0.7,1.7-1.2c0.6-0.7,0.9-1.7,0.9-2.6
			c0-0.6-0.1-1.1-0.3-1.6c-0.3-0.5-0.6-1-1-1.5c-0.4-0.5-0.8-1-1-1.6c-0.1-0.3-0.2-0.6-0.2-0.9c0-0.3,0.1-0.6,0.2-0.9
			c0.3-0.5,1-0.8,1.7-1.1c0.3-0.2,0.6-0.4,0.8-0.8c0.2-0.4,0.2-0.8,0.2-1.2c-0.2-0.8-0.4-1.5-0.7-2.2c-0.1-0.4-0.2-0.7-0.1-1.1
			c0.1-0.4,0.2-0.7,0.5-0.9c0.6-0.5,1.3-0.7,2.1-0.8c0.8-0.1,1.5-0.4,2.1-0.9c0.6-0.5,1.1-1.1,1.3-1.8c0.2-0.7,0.3-1.4,0.3-2.1
			c0-0.7,0.1-1.3,0.2-2c0.2-0.6,0.4-1.2,0.8-1.6c0.7-0.9,1.7-1.5,2.8-1.7c0.9-0.2,1.8-0.1,2.7,0.2c0.7,0.2,1.3,0.6,1.8,1.1
			c0.4,0.4,0.8,0.8,1.2,1.3c0,0,0,0-0.1-0.1c-0.1-0.1-0.1-0.2-0.2-0.3c-0.7-1-1.6-1.7-2.7-2.1c-0.9-0.4-1.9-0.5-2.8-0.3
			c-1.1,0.2-2.2,0.8-2.9,1.7c-0.4,0.5-0.7,1.1-0.9,1.7c-0.1,0.7-0.2,1.3-0.2,2c0,0.7-0.1,1.4-0.3,2c-0.3,0.7-0.7,1.3-1.2,1.7
			c-0.6,0.4-1.3,0.7-2,0.8c-0.8,0.1-1.6,0.4-2.2,0.9c-0.3,0.3-0.5,0.7-0.6,1.1c0,0.4,0,0.8,0.1,1.2c0.3,0.7,0.6,1.4,0.7,2.1
			c0.1,0.3,0,0.7-0.1,1c-0.2,0.3-0.4,0.5-0.7,0.7c-0.3,0.2-0.6,0.3-1,0.5c-0.3,0.2-0.6,0.4-0.8,0.7c-0.2,0.3-0.2,0.7-0.2,1
			s0.1,0.7,0.2,1c0.3,0.6,0.6,1.1,1.1,1.6c0.4,0.4,0.7,0.9,1,1.4c0.2,0.5,0.3,1,0.3,1.5c0,0.9-0.3,1.8-0.9,2.5c-0.4,0.5-1,1-1.7,1.2
			C246.2,104.8,245.6,104.9,245,104.9z"/>
		<path class="st5" d="M238.5,98.2c-0.1,0.1-0.1,0.2-0.1,0.4c0,0.4,0.1,0.7,0.3,1c0.2,0.2,0.4,0.4,0.6,0.5c0.3,0.1,0.6,0.2,0.9,0.1
			c0.4-0.1,0.8-0.2,1.1-0.5c0.3-0.2,0.5-0.6,0.7-0.9c0.2-0.4,0.2-0.9,0.2-1.3c-0.1-0.5-0.2-0.9-0.5-1.4c-0.4-0.9-1.2-1.7-1.3-2.8
			c-0.1-0.3-0.1-0.5,0-0.8c0.1-0.3,0.2-0.5,0.3-0.7c0.4-0.4,0.9-0.6,1.5-0.7c0.6,0,1.2-0.2,1.8-0.4c0.3-0.2,0.5-0.4,0.7-0.7
			c0.1-0.3,0.2-0.6,0.2-1c0-0.6-0.2-1.3-0.4-1.9c-0.2-0.6-0.2-1.2-0.1-1.8c0.2-1.1,0.8-2.1,1.7-2.8c0.9-0.6,1.9-0.9,2.9-1
			c0.9-0.1,1.8-0.4,2.7-0.7c0.7-0.3,1.3-0.8,1.8-1.4c0.4-0.4,0.7-0.9,0.9-1.5c0.2-0.4,0.3-0.9,0.4-1.4c-0.1,0.5-0.3,0.9-0.4,1.4
			c-0.2,0.5-0.5,1-0.9,1.4c-0.5,0.6-1.1,1-1.7,1.4c-0.8,0.4-1.7,0.6-2.6,0.7c-1.1,0.1-2.1,0.5-3,1c-1,0.7-1.6,1.8-1.8,3
			c-0.1,0.6-0.1,1.3,0.1,1.9c0.2,0.6,0.3,1.2,0.4,1.8c0,0.3,0,0.6-0.2,0.9c-0.1,0.3-0.3,0.5-0.6,0.6c-0.6,0.2-1.1,0.4-1.7,0.4
			c-0.6,0-1.2,0.3-1.6,0.8c-0.2,0.2-0.3,0.5-0.4,0.8c-0.1,0.3-0.1,0.6,0,0.9c0.1,0.5,0.3,1.1,0.6,1.6c0.3,0.5,0.5,0.9,0.8,1.3
			c0.2,0.4,0.4,0.8,0.5,1.3c0.1,0.4,0,0.9-0.1,1.3c-0.1,0.3-0.3,0.7-0.6,0.9c-0.3,0.2-0.6,0.4-1,0.4c-0.2,0-0.4,0-0.7,0
			c-0.2-0.1-0.4-0.2-0.6-0.3c-0.2-0.1-0.3-0.3-0.4-0.5c-0.1-0.2-0.1-0.4-0.1-0.7C238.5,98.5,238.5,98.4,238.5,98.2z"/>
		<path class="st5" d="M283.8,95.6c0.2,0.3,0.2,0.7,0.1,1.1c0,0.2-0.1,0.4-0.3,0.6c-0.1,0.2-0.3,0.3-0.5,0.4
			c-0.3,0.1-0.6,0.2-0.9,0.1c-0.3,0-0.6-0.2-0.8-0.4c-0.2-0.2-0.4-0.5-0.5-0.9c-0.1-0.4,0-0.7,0-1.1c0.1-0.7,0.5-1.6,0.3-2.5
			c-0.1-0.5-0.3-0.9-0.5-1.3c-0.3-0.4-0.6-0.7-1-1c-0.4-0.3-0.9-0.5-1.4-0.5c-0.5-0.1-1-0.1-1.5,0c-0.5,0-1,0-1.5,0
			c-0.5,0-0.9-0.2-1.2-0.6c-0.3-0.3-0.5-0.8-0.5-1.2c-0.1-0.4-0.1-0.9,0-1.3c0.1-0.8,0.2-1.7,0.1-2.5c-0.1-0.7-0.5-1.4-1-2
			c-0.4-0.4-1-0.8-1.5-1c-0.4-0.2-0.8-0.4-1.2-0.6c-0.3-0.2-0.6-0.5-0.8-0.8c0,0,0,0,0,0.1c0,0.1,0.1,0.1,0.1,0.2
			c0.2,0.2,0.4,0.5,0.6,0.6c0.4,0.3,0.8,0.5,1.2,0.7c0.5,0.2,1,0.6,1.5,1c0.5,0.5,0.8,1.2,0.9,1.9c0.1,0.8,0,1.7-0.1,2.5
			c-0.1,0.5,0,0.9,0,1.4c0.1,0.5,0.3,1,0.6,1.3c0.4,0.4,0.9,0.6,1.4,0.7c0.5,0,1,0,1.5,0c0.5-0.1,1,0,1.5,0c0.5,0.1,0.9,0.3,1.3,0.5
			c0.4,0.2,0.7,0.6,1,0.9c0.3,0.4,0.4,0.8,0.5,1.2c0.2,0.9-0.2,1.6-0.3,2.4c-0.1,0.4-0.1,0.8,0,1.2c0.1,0.4,0.3,0.7,0.5,0.9
			c0.2,0.2,0.5,0.3,0.9,0.4c0.3,0,0.6,0,0.9-0.1c0.2-0.1,0.4-0.3,0.5-0.5c0.1-0.2,0.2-0.4,0.3-0.6c0.1-0.3,0-0.6-0.1-0.9
			C283.9,95.8,283.9,95.7,283.8,95.6z"/>
		<path class="st5" d="M292.5,155.5c0,0,4.4,7,6.4,13c2,6,1.2,20.6,1.2,20.6l-21.3,2.1l-0.7-5.7l-0.7,5.6l-22.6,0.9l1.6-15.9
			l-0.9-12.1L292.5,155.5z"/>
		<path class="st4" d="M274.1,169.3c0.1,0,1.1,3.6,2.2,8c1.1,4.4,2,8,1.9,8.1c-0.1,0-1.1-3.6-2.2-8C274.9,173,274,169.4,274.1,169.3
			z"/>
		<path class="st4" d="M291.9,169c0,0-0.7,0.2-1.8,0.5c-1.5,0.4-2.9,1-4.3,1.6c-1.4,0.6-2.8,1.4-4.1,2.2c-1,0.6-1.6,1.1-1.6,1
			c0-0.1,0.1-0.1,0.4-0.4c0.3-0.2,0.6-0.5,1.1-0.8c2.6-1.8,5.4-3.1,8.5-3.9c0.6-0.1,1.1-0.3,1.4-0.3C291.6,169,291.8,169,291.9,169z
			"/>
		<path class="st4" d="M298.2,166.4c-0.5,0.1-0.9,0.2-1.4,0.1c-1.1,0-2.3-0.2-3.4-0.5c-1.1-0.3-2.1-0.8-3.1-1.4
			c-0.4-0.2-0.8-0.5-1.1-0.9c1.3,0.8,2.8,1.5,4.3,2C295,166.2,296.6,166.4,298.2,166.4z"/>
		<path class="st4" d="M261.2,169.6c0,0.3,0,0.6-0.2,0.9c-0.3,0.7-0.8,1.3-1.4,1.8c-0.7,0.5-1.3,1-1.7,1.4c-0.2,0.2-0.5,0.4-0.7,0.5
			c0,0,0.2-0.3,0.6-0.7c0.4-0.4,1-0.9,1.7-1.4c0.6-0.5,1-1,1.4-1.6C261.1,169.9,261.2,169.6,261.2,169.6z"/>
		<path class="st4" d="M276.8,169.5c0,0,0-0.1,0.2-0.2c0.1-0.1,0.2-0.1,0.3-0.1c0.1,0,0.2,0,0.4,0.1c0.2,0.1,0.3,0.2,0.4,0.3
			c0.1,0.2,0.2,0.4,0.1,0.6c0,0.2-0.1,0.4-0.2,0.6c-0.1,0.2-0.3,0.3-0.5,0.4c-0.2,0.1-0.4,0.1-0.7,0.1c-0.2,0-0.4-0.1-0.6-0.3
			c-0.2-0.1-0.3-0.3-0.3-0.5c0-0.2,0-0.3,0.1-0.5c0-0.1,0.1-0.2,0.2-0.3c0.1-0.1,0.2-0.1,0.3-0.2
			C276.7,169.4,276.8,169.4,276.8,169.5c0-0.1-0.1-0.1-0.2,0c-0.1,0-0.2,0.1-0.2,0.2c-0.1,0.1-0.1,0.2-0.1,0.3
			c-0.1,0.1-0.1,0.3,0,0.4c0,0.1,0.1,0.3,0.2,0.3c0.1,0.1,0.3,0.2,0.5,0.2c0.2,0,0.4,0,0.5-0.1c0.2-0.1,0.3-0.2,0.4-0.3
			c0.1-0.1,0.2-0.3,0.2-0.5c0-0.1,0-0.3-0.1-0.4c-0.1-0.1-0.2-0.2-0.3-0.3c-0.1,0-0.2-0.1-0.3-0.1c-0.1,0-0.2,0-0.3,0
			C276.9,169.5,276.8,169.5,276.8,169.5z"/>
		<path class="st30" d="M246.6,115.5l8.4-3.7c0,0,4.7,4.4,10.2,2.7c3.2-1,3.9-4.4,3.9-4.4l9.8,0.5l4.3,18.6l0.1,10.6l10.9,18.3
			c0,0-13.3,13.9-39.7,9.5l-1.6-20.7c0,0-4.1-11.1-4.3-14.8s0-8.1,0-8.1L246.6,115.5z"/>
		<path class="st5" d="M277.4,139.6c-0.1,0.2-0.3,0.4-0.5,0.5c-0.3,0.4-0.8,0.8-1.5,1.4c-3.3,3-7.2,5.4-11.4,6.9
			c-0.8,0.3-1.5,0.5-1.9,0.6c-0.2,0.1-0.5,0.1-0.7,0.2c0.2-0.1,0.5-0.2,0.7-0.3c0.4-0.2,1.1-0.4,1.9-0.7c2.1-0.8,4.1-1.8,6-3
			c1.9-1.2,3.7-2.5,5.4-3.9c0.6-0.5,1.2-1,1.5-1.3C277,139.9,277.2,139.7,277.4,139.6z"/>
		<g class="st19">
			<path d="M287,146.3c-0.6,0.3-1.3,0.4-2,0.3c-0.7-0.1-1.3-0.4-1.8-0.8c-0.9-0.9-1.7-2-2.2-3.2l-4-7.9c-4.7-1.4-9.8-1.1-14.3,0.8
				c-0.7,0.3-1.3,0.7-1.9,1.2c-0.7,0.8-0.8,1.9-1,2.9c-0.3,2.5-0.5,5-1.5,7.3c-1,2.3-2.8,4.4-5.2,5.1l-1.3-11.2l3.7-8.9l17.6-3.3
				l7.3,2.7l4.9,12.1L287,146.3z"/>
		</g>
		<path class="st30" d="M247.6,115.2c0,0-4.2,0.4-5.8,5.9c-1.2,4-2.2,11.8-2.2,11.8l10.2,0.5v-9.9L247.6,115.2z"/>
		<path class="st30" d="M278.8,110.7c2,0,3.8,0.7,5.3,2c2.2,2.1,7.1,10.2,7.1,10.2l-9.9,3.3l-3.2-9.8L278.8,110.7z"/>
		<path class="st5" d="M247.1,125.6c0.2,0.4,0.4,0.8,0.5,1.2c0.3,0.8,0.7,1.8,1.1,2.8l1.1,2.8c0.2,0.4,0.3,0.8,0.4,1.2
			c-0.2-0.3-0.4-0.7-0.6-1.1c-0.3-0.7-0.8-1.7-1.2-2.8c-0.4-1.1-0.8-2.1-1-2.9C247.2,126.4,247.1,126,247.1,125.6z"/>
		<path class="st5" d="M280,118.4c0.6,1.5,1,3.1,1.4,4.7c0.5,1.6,0.9,3.2,1.1,4.8c-0.6-1.5-1-3.1-1.4-4.7
			C280.7,121.6,280.3,120,280,118.4z"/>
		<path class="st28" d="M270.5,220.1c0.8-2.2,1.6-4.4,2.4-6.6L270.5,220.1z"/>
		<path class="st29" d="M272.9,213.4c-0.3,1.1-0.6,2.3-1.1,3.4c-0.4,1.1-0.8,2.2-1.3,3.3c0.3-1.1,0.6-2.3,1.1-3.4
			C271.9,215.6,272.4,214.5,272.9,213.4z"/>
		<path class="st5" d="M259.8,112.9l1.4,14.8c0,0.2,0.1,0.5,0.3,0.6c0.2,0.2,0.4,0.2,0.7,0.2l9.5-0.7c0.2,0,0.5-0.1,0.7-0.3
			c0.2-0.2,0.3-0.4,0.2-0.7l-0.9-15.6c0-0.1,0-0.3-0.1-0.4c-0.1-0.1-0.1-0.2-0.2-0.3c-0.1-0.1-0.2-0.1-0.3-0.2c-0.1,0-0.3,0-0.4,0
			l-10,1.5c-0.2,0-0.5,0.2-0.6,0.3C259.8,112.4,259.8,112.7,259.8,112.9z"/>
		<path class="st28" d="M265.4,119.9c-0.3,0.1-5.6,2-5.6,2l-7.1,5.4l-2.8,6.1l5.2,6.3l1-6.5c1.2,0.2,2.5,0.1,3.7-0.2
			c1.6-0.5,7-1.8,7-1.8l2.5-2c0,0,0.6-1.6,0.5-1.9c0-0.1-0.1-0.2-0.1-0.3c-0.1-0.1-0.2-0.2-0.3-0.2c-0.1,0-0.2,0-0.3,0
			c-0.1,0-0.2,0.1-0.3,0.2c-0.5,0.4-4.4,1.2-5.4,1c0,0,5.6-1.4,6.1-2.4c0.6-1,0.2-1.7-0.7-1.5c-0.9,0.2-4,1.2-5,1.3
			c-1,0.1-2.2,0.3-2.5-0.1c-0.3-0.4,0.3-0.9,0.3-0.9l0.9-1c0,0,4-1.4,4.1-2.3c0-0.2,0-0.3,0-0.5c0-0.1-0.1-0.3-0.2-0.4
			s-0.2-0.2-0.4-0.2C265.7,119.9,265.6,119.9,265.4,119.9z"/>
		<path class="st28" d="M267.3,119.3c0,0,4.8-0.1,5.2,0.1c0.3,0.2,7.5,6.2,7.5,6.2l1.7,1.1l-2.8,5.5l-0.8-0.3l-5.8-1.8
			c-0.6-0.1-1.2-0.2-1.8-0.2c0,0-5.5,0.1-6-0.4c-0.5-0.6-0.3-0.7,0.1-0.9c1.5-0.2,2.9-0.4,4.4-0.4c0.7-0.1,1.4-0.2,2.1-0.4
			c0,0-2.3-0.1-2.8-0.2s-5.7-0.3-5.8-1.1c-0.1-0.9,0.5-1.3,3.8-1c1.8,0.2,3.6,0.1,5.4-0.1l-7.3-1.1c0,0-2.9-0.4-2.2-1.3
			c0.7-0.9,7-0.4,7-0.4l2.8,0.5l-1-1.3c0,0-3.9-0.4-4.5-0.7c-0.7-0.3-0.8-0.7-0.4-1.2S267.3,119.3,267.3,119.3z"/>
		<path class="st28" d="M290.3,123.2l-8,2.7l0.4,1.9l-1.6-1.5l-2.3,5.9c0,0,1.8,3.4,2.8,5.3c2.6,5,6.4,10.5,9.7,9.6
			c3.9-1.1,5.1-5.6,4.5-8.6C295.3,135.8,290.3,123.2,290.3,123.2z"/>
		<path class="st28" d="M240.2,133l7.4,0.4l2.2,0.1l1.5-3.2l4.3,5.5c0,0-0.5,3.8-0.8,5.9c-0.7,5.6-2.3,12.1-5.7,12.4
			c-4.1,0.4-7.8-3.7-8.3-6.6C240.3,144.7,240.2,133,240.2,133z"/>
		<path class="st29" d="M280,125.6l-0.2-0.2l-0.6-0.5l-2.3-1.9l-3.6-3l-0.5-0.4l-0.3-0.2c-0.1-0.1-0.3-0.1-0.4-0.1
			c-0.5,0-1-0.1-1.5-0.1c-1.1,0-2.2,0-3.3,0c-0.3,0-0.6,0-0.9,0.1c-0.1,0-0.3,0.1-0.4,0.2c-0.1,0.1-0.2,0.2-0.3,0.4
			c0,0.1,0,0.2,0,0.2c0,0.1,0,0.2,0.1,0.2c0.1,0.1,0.2,0.3,0.3,0.3c0.1,0.1,0.3,0.2,0.4,0.2c0.2,0.1,0.3,0.1,0.5,0.1
			c1.2,0.2,2.5,0.4,3.9,0.5l-0.1,0l1,1.4l0.1-0.1l-2.8-0.5c-1.2-0.1-2.4-0.1-3.6-0.1c-0.6,0-1.3,0-1.9,0.1c-0.3,0-0.6,0.1-0.9,0.2
			c-0.2,0-0.3,0.1-0.5,0.2c-0.1,0-0.1,0.1-0.2,0.2c-0.1,0.1-0.1,0.2-0.1,0.3c0,0.1,0,0.2,0.1,0.3c0,0.1,0.1,0.2,0.2,0.2
			c0.1,0.1,0.3,0.2,0.4,0.2c0.3,0.1,0.6,0.2,0.9,0.3c0.6,0.1,1.3,0.2,1.9,0.3l4,0.6l2.1,0.3v-0.2c-1.7,0.2-3.3,0.3-5,0.2
			c-0.8-0.1-1.6-0.1-2.4-0.1c-0.4,0-0.8,0.1-1.2,0.2c-0.2,0.1-0.4,0.2-0.5,0.4c-0.1,0.2-0.1,0.4-0.1,0.6c0,0.1,0.1,0.2,0.2,0.3
			c0.1,0.1,0.2,0.1,0.3,0.1c0.2,0.1,0.4,0.1,0.5,0.2c0.4,0.1,0.8,0.2,1.1,0.2c0.8,0.1,1.5,0.2,2.3,0.2l1.1,0.1
			c0.4,0,0.7,0.1,1.1,0.1c0.7,0,1.4,0.1,2.1,0.1v-0.2c-0.8,0.2-1.5,0.4-2.3,0.4c-0.8,0-1.5,0.1-2.3,0.2c-0.4,0-0.7,0.1-1.1,0.1
			c-0.2,0-0.4,0-0.5,0.1c-0.1,0-0.2,0-0.3,0.1c-0.1,0-0.2,0.1-0.2,0.1c-0.1,0.1-0.1,0.2-0.2,0.3c0,0.1,0,0.2,0.1,0.3
			c0,0.1,0.1,0.1,0.1,0.2l0.1,0.1c0,0,0.1,0.1,0.1,0.1c0.3,0.1,0.7,0.2,1,0.2c1.2,0.1,2.5,0.1,3.7,0.1h0.8c0.3,0,0.5,0,0.8,0
			c0.5,0,1,0.1,1.5,0.2l4.2,1.3l1.1,0.3l0.3,0.1l0.1,0c0,0-0.1,0-0.1,0l-0.3-0.1l-1.1-0.4l-4.1-1.3c-1-0.2-2.1-0.3-3.1-0.3
			c-1.2,0-2.5,0-3.7-0.1c-0.3,0-0.6-0.1-0.9-0.2c0,0-0.1,0-0.1-0.1l-0.1-0.1c0-0.1-0.1-0.1-0.1-0.2c-0.1-0.1-0.1-0.3,0.1-0.4
			c0.1,0,0.1-0.1,0.2-0.1c0.1,0,0.2,0,0.2-0.1l0.5-0.1l1.1-0.1c0.7-0.1,1.5-0.1,2.3-0.1c0.8,0,1.6-0.2,2.4-0.4c0,0,0,0,0,0
			c0,0,0,0,0,0c0,0,0,0,0,0c0,0,0,0,0,0c0,0,0,0,0,0c0,0,0,0-0.1,0c-0.7,0-1.4-0.1-2.1-0.1c-0.4,0-0.7-0.1-1.1-0.1l-1.1-0.1
			c-0.7-0.1-1.5-0.1-2.2-0.2c-0.4-0.1-0.8-0.1-1.1-0.2c-0.2,0-0.4-0.1-0.5-0.2c-0.2-0.1-0.4-0.2-0.4-0.3c0-0.2,0-0.3,0.1-0.5
			c0.1-0.2,0.2-0.3,0.4-0.3c0.4-0.1,0.7-0.2,1.1-0.2c0.8,0,1.6,0,2.4,0.1c1.7,0.1,3.4,0.1,5-0.2c0,0,0,0,0.1,0c0,0,0,0,0-0.1
			c0,0,0,0,0-0.1c0,0,0,0-0.1,0l-2.2-0.3l-4-0.6c-0.6-0.1-1.3-0.2-1.9-0.3c-0.3-0.1-0.6-0.2-0.9-0.3c-0.1-0.1-0.3-0.1-0.4-0.2
			c-0.1,0-0.1-0.1-0.1-0.1c0-0.1,0-0.1,0-0.2c0-0.3,0.3-0.4,0.6-0.5c0.3-0.1,0.6-0.1,0.9-0.2c0.6-0.1,1.2-0.1,1.9-0.1
			c1.2,0,2.4,0,3.6,0.1l2.8,0.5c0,0,0,0,0.1,0c0,0,0,0,0-0.1c0,0,0,0,0-0.1c-0.4-0.5-0.7-1-1-1.4c0,0,0,0,0,0c0,0,0,0,0,0
			c-1.4-0.1-2.7-0.3-3.9-0.5c-0.2,0-0.3-0.1-0.4-0.1c-0.1,0-0.3-0.1-0.4-0.2c-0.1-0.1-0.2-0.1-0.3-0.3c-0.1-0.1-0.1-0.3,0-0.4
			c0-0.1,0.1-0.2,0.2-0.3c0.1-0.1,0.2-0.2,0.4-0.2c0.3-0.1,0.5-0.1,0.8-0.1c1.2,0,2.3,0,3.3,0c0.5,0,1,0,1.5,0.1
			c0.1,0,0.2,0,0.3,0.1l0.3,0.2l0.5,0.4l3.6,2.9l2.3,1.9l0.6,0.5C279.9,125.5,280,125.6,280,125.6z"/>
		<path class="st29" d="M281.4,126.6c0,0.1,2.9,2.5,6.6,5.6c3.7,3,6.8,5.4,6.8,5.4c0-0.1-2.9-2.5-6.6-5.6
			C284.6,129,281.5,126.6,281.4,126.6z"/>
		<path class="st29" d="M244.8,144.2c0,0,0.2-0.7,0.6-1.8c0.5-1.4,1.2-2.9,1.9-4.2c0.8-1.6,1.6-3,2.2-4.1c0.3-0.5,0.5-1,0.6-1.3
			c0.1-0.2,0.1-0.3,0.2-0.5c-0.1,0.1-0.2,0.3-0.3,0.4l-0.7,1.2c-0.6,1-1.4,2.4-2.3,4.1c-0.7,1.4-1.3,2.8-1.8,4.3
			c-0.1,0.4-0.3,0.9-0.4,1.4C244.8,143.9,244.8,144,244.8,144.2z"/>
		<path class="st4" d="M293.1,251.4l0.5,0.4c0,0-3.1,11.4-1.5,12.8l13.1-17.4l-6-4.1c-0.4,1.8-1.1,3.4-2.1,4.9
			C296,249.3,294.6,250.5,293.1,251.4z"/>
		<g class="st13">
			<path class="st8" d="M299.7,246.2c0.2-0.1,0.4-0.2,0.6-0.2c0.2,0,0.4,0.1,0.6,0.3c0.1,0.2,0.2,0.4,0.2,0.6c0,0.2-0.1,0.4-0.3,0.6
				c-0.2,0.1-0.4,0.2-0.6,0.2c-0.2,0-0.4-0.1-0.6-0.3c-0.1-0.2-0.2-0.4-0.1-0.7C299.4,246.4,299.6,246.3,299.7,246.2"/>
		</g>
		<g class="st13">
			<path class="st8" d="M305.1,247.1l-1.4-1l-12,17.1c0,0-0.2,1,0.4,1.4L305.1,247.1z"/>
		</g>
		<path class="st5" d="M293.6,251.9c0.1,0.1,0.4-0.3,1-0.5c0.6-0.2,1.1-0.2,1.1-0.3c0-0.1-0.5-0.3-1.3-0.1
			C293.8,251.3,293.5,251.9,293.6,251.9z"/>
		<path class="st5" d="M293,254.3c0.1,0.1,0.5-0.2,1.1-0.2c0.6,0,1,0.2,1.1,0.1c0.1-0.1-0.4-0.5-1.1-0.5
			C293.3,253.8,292.9,254.2,293,254.3z"/>
		<path class="st5" d="M294.4,257c0.1-0.1-0.3-0.5-0.9-0.6c-0.6-0.1-1.1,0.1-1.1,0.2c0,0.1,0.5,0,1,0.1
			C293.9,256.8,294.3,257.1,294.4,257z"/>
		<path class="st31" d="M58.7,215.4l46.2,21.7l-10.4-48.4H76.8c-2.1,0-9.3,2.4-11.1,7.1C65.8,195.8,58,214.4,58.7,215.4"/>
		<path class="st31" d="M60.6,208.9L48,256.9l8.9,2.4c0,0,17.1-36.8,16.8-37.4C73.4,221.3,60.6,208.9,60.6,208.9z"/>
		<g class="st32">
			<path d="M70.4,206.3c-1.7,0-3.2,1.1-4.1,2.6c-0.8,1.5-1.3,3.1-1.5,4.7c-0.5,3.1-0.8,6.2-0.8,9.3c0,1.7,0,3.4-0.9,4.9
				c-0.9,1.4-2.6,2.2-4,3.1c-1.9,1.3-3.5,3.1-4.6,5.1c-1.1,2.1-1.6,4.4-1.6,6.7c0.1,4.6,3.1,7.7,7,10.1l6.2-19.9l5.1-22.5
				L70.4,206.3z"/>
		</g>
		<path class="st5" d="M68.9,198.9c0.2,1.7,0.5,3.3,0.9,4.9c0.3,1.6,0.7,3.3,1.1,4.9c-0.2-1.7-0.5-3.3-0.9-4.9
			C69.7,202.2,69.4,200.5,68.9,198.9z"/>
		<path class="st5" d="M77,189.3c0,0.1,0,0.3,0,0.4c0,0.4,0.1,0.8,0.2,1.2c0.3,1.3,1.1,2.5,2.2,3.4c1.1,0.8,2.4,1.3,3.8,1.3
			c0.4,0,0.8,0,1.2-0.1c0.1,0,0.3-0.1,0.4-0.1c0-0.1-0.6,0.1-1.6,0.1c-1.3-0.1-2.6-0.5-3.6-1.3c-1-0.8-1.8-1.9-2.2-3.2
			C77,189.9,77,189.3,77,189.3z"/>
		<path class="st3" d="M80.1,201.2c-0.2-0.6-0.4-1.1-0.7-1.6c-0.2-0.5-0.6-1-1-1.5c0.2,0.6,0.4,1.1,0.7,1.6
			C79.3,200.3,79.6,200.8,80.1,201.2z"/>
		<path class="st3" d="M72.9,204.1c0.5-0.5,0.8-1.1,1-1.7c0.3-0.6,0.5-1.3,0.5-1.9c-0.3,0.6-0.6,1.2-0.8,1.8
			C73.3,202.8,73,203.4,72.9,204.1z"/>
		<path class="st3" d="M71,196c0.6,0,1.2-0.2,1.8-0.5c0.6-0.2,1.1-0.5,1.6-0.9c-0.6,0.2-1.2,0.4-1.7,0.7
			C72.1,195.5,71.5,195.7,71,196z"/>
		<path class="st3" d="M65.2,208c-0.4-1-0.8-2.1-1.2-3.2C64,206.1,64.4,207.2,65.2,208z"/>
		<path class="st3" d="M59.6,229.4c0.5-0.2,1-0.5,1.5-0.8c0.5-0.3,0.9-0.7,1.3-1.1C61.3,227.9,60.4,228.6,59.6,229.4z"/>
		<path class="st3" d="M55.2,253.9c-0.5-1.3-1-2.5-1.6-3.8C53.8,251.5,54.3,252.8,55.2,253.9z"/>
		<path class="st5" d="M88.8,172.9c1.2-3.8,0.6-10.2-2-13.4c-2.6-3.2-7.2-5-11.3-5.4c-0.7-0.1-1.4-0.1-2,0.2
			c-0.3,0.2-0.5,0.4-0.7,0.7c-0.1,0.3-0.1,0.7,0,1c-0.8-0.5-1.7-0.8-2.7-1c-0.5-0.1-1,0-1.4,0.1c-0.5,0.1-0.9,0.4-1.2,0.7
			c-0.2,0.2-0.3,0.4-0.4,0.6c-0.1,0.2-0.1,0.5-0.1,0.7c0,0.2,0.1,0.5,0.2,0.7c0.1,0.2,0.3,0.4,0.4,0.6c-0.6-0.2-1.2-0.1-1.8,0.1
			c-0.6,0.2-1.1,0.5-1.4,1c-0.4,0.5-0.6,1-0.6,1.6s0.1,1.2,0.4,1.7c0.7,1.1,1.5,2,2.5,2.8c0.9,0.7,1.1,1.5,1.1,2.6"/>
		<path class="st33" d="M67.6,168.5c-0.3-2.7,0.4-5.3,1.9-7.5c1.6-2.2,3.9-3.7,6.5-4.2l0.6-0.1c5.9-0.9,9.9,3.7,10.6,9.6l2.9,21.7
			c0.2,1.7-0.2,3.5-1.3,4.9c-1,1.4-2.6,2.3-4.3,2.6c-0.9,0.1-1.8,0.1-2.7-0.1c-0.9-0.2-1.7-0.6-2.4-1.2s-1.3-1.2-1.8-2
			c-0.4-0.8-0.7-1.6-0.8-2.5c-0.2-1.3-0.3-2.3-0.3-2.3c0-0.1-5.8,0.3-7-5.3C69,179.3,68.2,173.7,67.6,168.5z"/>
		<path class="st34" d="M76.6,187.3c2.6-0.5,5-1.8,6.9-3.7c0,0-1,4.4-6.7,5L76.6,187.3z"/>
		<path class="st5" d="M70,171.9c0,0.2,0.2,0.4,0.3,0.5c0.2,0.1,0.4,0.2,0.6,0.1c0.1,0,0.2,0,0.3-0.1c0.1-0.1,0.2-0.1,0.2-0.2
			c0.1-0.1,0.1-0.2,0.1-0.3c0-0.1,0-0.2,0-0.3c0-0.2-0.2-0.4-0.3-0.5c-0.2-0.1-0.4-0.2-0.6-0.1c-0.1,0-0.2,0-0.3,0.1
			c-0.1,0.1-0.2,0.1-0.2,0.2c-0.1,0.1-0.1,0.2-0.1,0.3C70,171.7,70,171.8,70,171.9z"/>
		<path class="st5" d="M69.4,171c0.1,0.1,0.6-0.5,1.5-0.7c0.9-0.2,1.6,0.1,1.7,0c0.1-0.1-0.1-0.2-0.4-0.4c-0.4-0.2-0.9-0.2-1.3-0.1
			c-0.4,0.1-0.8,0.3-1.1,0.7C69.4,170.8,69.3,171,69.4,171z"/>
		<path class="st5" d="M78.5,170.5c0,0.2,0.2,0.4,0.3,0.5c0.2,0.1,0.4,0.2,0.6,0.1c0.1,0,0.2,0,0.3-0.1c0.1-0.1,0.2-0.1,0.2-0.2
			c0.1-0.1,0.1-0.2,0.1-0.3c0-0.1,0-0.2,0-0.3c0-0.2-0.2-0.4-0.3-0.5c-0.2-0.1-0.4-0.2-0.6-0.1c-0.1,0-0.2,0-0.3,0.1
			s-0.2,0.1-0.2,0.2c-0.1,0.1-0.1,0.2-0.1,0.3C78.5,170.3,78.5,170.4,78.5,170.5z"/>
		<path class="st5" d="M77.9,169.4c0.1,0.1,0.6-0.5,1.5-0.7c0.9-0.2,1.6,0.1,1.7,0c0.1-0.1-0.1-0.2-0.4-0.4
			c-0.4-0.2-0.9-0.2-1.3-0.1c-0.4,0.1-0.8,0.3-1.1,0.7C77.9,169.2,77.8,169.4,77.9,169.4z"/>
		<path class="st5" d="M76.1,176.5c-0.5-0.1-1,0-1.5,0c-0.2,0-0.4,0-0.5-0.1c-0.1-0.2-0.1-0.5,0-0.7c0.1-0.6,0.2-1.2,0.3-1.8
			c0.4-2.6,0.7-4.7,0.6-4.7c-0.1,0-0.5,2.1-0.9,4.6c-0.1,0.6-0.2,1.2-0.3,1.8c-0.1,0.3-0.1,0.6,0.1,0.9c0,0.1,0.1,0.1,0.2,0.2
			c0.1,0,0.2,0.1,0.2,0.1c0.1,0,0.3,0,0.4,0C75.1,176.7,75.6,176.6,76.1,176.5z"/>
		<path class="st5" d="M78.7,176.5c-0.1,0,0,1-0.6,1.8c-0.7,0.8-1.7,0.9-1.7,1.1c0,0.1,0.3,0.1,0.7,0.1c0.5-0.1,1-0.4,1.4-0.8
			c0.3-0.4,0.5-1,0.5-1.5C78.9,176.7,78.8,176.5,78.7,176.5z"/>
		<path class="st5" d="M77,166.1c0.1,0.2,1-0.1,2-0.2c1-0.1,1.9,0,2-0.2c0-0.1-0.1-0.3-0.5-0.5c-0.5-0.2-1-0.3-1.6-0.2
			c-0.5,0-1,0.2-1.5,0.5C77,165.8,76.9,166,77,166.1z"/>
		<path class="st5" d="M69.2,168.5c0.2,0.2,0.7-0.2,1.5-0.3c0.7-0.2,1.3-0.1,1.4-0.4c0-0.1-0.1-0.3-0.4-0.4
			c-0.4-0.1-0.8-0.2-1.3-0.1c-0.4,0.1-0.8,0.3-1.1,0.6C69.1,168.2,69.1,168.4,69.2,168.5z"/>
		<path class="st33" d="M87.6,170.5c0.1-0.1,3.6-1.9,4.3,1.9c0.7,3.9-3.3,3.7-3.4,3.6C88.5,176,87.6,170.5,87.6,170.5z"/>
		<path class="st34" d="M89.4,174.4c0,0,0.1,0,0.2,0.1c0.2,0,0.4,0,0.5-0.1c0.2-0.2,0.4-0.5,0.5-0.7c0.1-0.3,0.1-0.6,0-0.9
			c0-0.3-0.2-0.7-0.4-0.9c-0.1-0.1-0.1-0.2-0.2-0.3c-0.1-0.1-0.2-0.1-0.4-0.1c-0.1,0-0.2,0-0.2,0.1c-0.1,0-0.1,0.1-0.1,0.2
			c0,0.1,0,0.2,0,0.2c0,0-0.1-0.1-0.1-0.2c0-0.1,0-0.2,0.1-0.3c0.1-0.1,0.2-0.2,0.4-0.2c0.2,0,0.3,0.1,0.5,0.1
			c0.1,0.1,0.3,0.2,0.3,0.3c0.2,0.3,0.4,0.7,0.4,1c0.1,0.8-0.2,1.6-0.7,1.8c-0.1,0-0.2,0.1-0.3,0.1c-0.1,0-0.2,0-0.3-0.1
			C89.4,174.5,89.4,174.4,89.4,174.4z"/>
		<path class="st5" d="M63.9,161.7c0.4,5.1,6.9,6.1,9.1,2.8c1-1.5,1.8-3.3,3.4-4.2c0.6-0.3,1.2-0.4,1.8-0.5c0.6,0,1.2,0,1.8,0.2h0
			c1.7,0.6,3,2.2,3.5,4c0.8,2.4,0.8,4.7,1.8,6.8c0.1,0.3,0.3,0.6,0.6,0.8c0.5,0.3,1.1-0.2,1.5-0.6c0.4-0.8,0.6-1.8,0.5-2.7
			c0-2.1-0.5-4.2-1.3-6.2c-0.9-2-2.3-3.6-4.1-4.8c-2.3-1.4-5.1-1.8-7.7-1.2c-2.6,0.6-5,2-6.7,4.1c-0.9,0.9-1.5,2-1.8,3.2"/>
		<path class="st4" d="M67.5,158.2c-0.2,0-0.4,0-0.5,0.1c-0.5,0.2-0.8,0.5-1.1,0.9c-0.4,0.6-0.7,1.4-0.6,2.1
			c0.1,0.9,0.5,1.8,1.2,2.4c0.7,0.6,1.5,1.1,2.4,1.3c0.7,0.2,1.5,0.2,2.2,0.1c0.5-0.1,1-0.2,1.4-0.3c0.2,0,0.3-0.1,0.5-0.2
			c0-0.1-0.7,0.2-2,0.3c-0.7,0.1-1.4,0-2.1-0.2c-0.8-0.2-1.6-0.6-2.2-1.2c-0.6-0.6-1-1.4-1.1-2.2c0-0.7,0.1-1.4,0.5-2
			c0.3-0.4,0.6-0.7,1-0.9C67.2,158.4,67.3,158.3,67.5,158.2z"/>
		<path class="st4" d="M69.8,156c0,0-0.2,0-0.4,0.1c-0.1,0.1-0.3,0.3-0.3,0.4c-0.1,0.2-0.1,0.3-0.1,0.5c0,0.5,0.2,1,0.6,1.4
			c0.4,0.5,0.8,0.9,1.3,1.3c0.9,0.7,1.9,1.1,3.1,1.3c0.5,0.1,0.9,0.1,1.4,0c0-0.1-0.5,0-1.3-0.2c-1.1-0.2-2-0.7-2.9-1.3
			c-0.5-0.4-0.9-0.8-1.3-1.2c-0.3-0.3-0.5-0.8-0.6-1.3c0-0.3,0.1-0.6,0.3-0.8C69.6,156.1,69.8,156,69.8,156z"/>
		<path class="st33" d="M94.9,243.2c-0.6,0-27.8-9.1-27.8-9.1s-12.4-2.7-13.8,5.2c-1.4,7.9,11.3,17.3,11.3,17.3L87.2,268l11.8-9.2
			l-1.7-7L94.9,243.2z"/>
		<path class="st5" d="M84.9,253.3l15.2,9.2c0.4,0.3,0.8,0.7,0.9,1.2c0.1,0.5,0.1,1-0.2,1.5l-9.9,16.7c0,0-1.8,1.4,0.8-11l-13.2-7.3
			L84.9,253.3z"/>
		<path class="st34" d="M77.5,247.9c1.1,1,2.3,2,3.6,2.8c1.2,1,2.5,1.8,3.8,2.6c-1.1-1-2.3-2-3.6-2.8
			C80,249.6,78.8,248.7,77.5,247.9z"/>
		<path class="st33" d="M92,256.1c-3.9-7.3-7.6-16.8-11.2-27.6L77,249.3l-2.1,11.9l-9.9-1.3l1.8-44.2c0,0,2.2-9.1,10.1-9.6
			c6.8-0.5,12.8,3.5,17.1,12.6c2.6,5.6,5.7,11,9.1,16.1L92,256.1z"/>
		<path class="st35" d="M124.1,261.2c-3.3,2.2-7.1,3.6-11,4c-3.9,0.4-7.9-0.2-11.6-1.7l-9.6-6.5c0,0,0.9-11.2,4.1-16l2.8,0.7
			l-1.9-2.3l4.7-6.9l12.3,12.1L124.1,261.2z"/>
		<path class="st34" d="M81.8,231.5c0,0.1,0,0.2,0.1,0.3l0.3,0.7c0.2,0.7,0.6,1.6,1,2.6c0.8,2.2,1.8,5.3,3.1,8.7
			c1,2.9,2.2,5.8,3.7,8.5c0.3,0.5,0.6,1,0.8,1.4c0.2,0.4,0.5,0.8,0.6,1c0.2,0.3,0.3,0.5,0.4,0.6c0,0.1,0.1,0.1,0.2,0.2
			c0,0,0-0.1-0.1-0.2l-0.4-0.7c-0.2-0.3-0.4-0.6-0.6-1c-0.2-0.4-0.5-0.9-0.7-1.4c-1.4-2.8-2.6-5.6-3.6-8.5c-1.2-3.4-2.3-6.5-3.2-8.7
			c-0.4-1.1-0.8-2-1-2.6l-0.3-0.7C81.9,231.7,81.8,231.6,81.8,231.5z"/>
		<path class="st34" d="M80.2,231.5c-0.1,0.2-0.1,0.4-0.2,0.6c-0.1,0.4-0.2,1-0.4,1.8c-0.3,1.5-0.7,3.6-1.1,5.9
			c-0.4,2.3-0.7,4.4-0.9,5.9c-0.1,0.8-0.2,1.4-0.2,1.8c0,0.2,0,0.4,0,0.7c0.1-0.2,0.1-0.4,0.1-0.7c0.1-0.5,0.2-1.1,0.3-1.8
			c0.3-1.6,0.6-3.6,1-5.9c0.4-2.3,0.8-4.3,1-5.9c0.1-0.7,0.2-1.3,0.3-1.8C80.2,232,80.2,231.8,80.2,231.5z"/>
		<path class="st34" d="M66.1,246.4c0.1,0,0.2-4.3,0.2-9.5c0.1-5.3,0-9.5,0-9.5s-0.2,4.3-0.2,9.5C66,242.2,66,246.4,66.1,246.4z"/>
		<path class="st5" d="M77.8,248.5l-3.1,17c-0.1,0.6-0.5,1.2-1,1.6c-0.5,0.4-1.2,0.5-1.8,0.5L52.5,265c0,0-1.1-1.8,11.4-3.8
			l1.7-14.8L77.8,248.5z"/>
		<g class="st32">
			<path d="M75.5,215.2c2.9-0.2,5.9,3.2,6,6.3c0,0.3,0,0.7-0.1,1c-0.1,0.2-0.2,0.3-0.3,0.4c-0.1,0.1-0.3,0.2-0.4,0.2
				c-0.3,0-0.5,0-0.7-0.2c-0.2-0.1-0.4-0.3-0.5-0.6c-0.2-0.4-0.3-0.9-0.3-1.4C79.3,217.8,77.8,215.8,75.5,215.2"/>
		</g>
		<path class="st33" d="M55.8,259l-2.1,6H36.9c0,0,0.9-1.4,4.4-1.7l6.3-0.6l1.5-5.5L55.8,259z"/>
		<path class="st31" d="M89.9,186.4c0,0,11.1,2,15.2,7.3c3.2,4.2,15.5,27.9,20.4,37.5c1.5,3,2.5,6.2,3,9.5
			c0.9,7.1,1.5,18.8-4.6,20.5c0,0-7-3.6-10.3-10.7c-0.5-1.1-1.1-2.1-1.7-3.1l-4.7-7c0,0-5.2-5.8-7.7-10.6l-4.5-8.6l-1.1-2.5
			L90.2,189L89.9,186.4z"/>
		<path class="st5" d="M97.3,210.3c0.9-0.1,1.7-0.4,2.5-0.9c0.7-0.5,1.3-1.2,1.7-2c-0.6,0.6-1.2,1.2-1.9,1.8
			C98.9,209.6,98.1,210,97.3,210.3z"/>
		<path class="st5" d="M114.5,229.5c-0.3-0.1-0.5-0.1-0.8-0.1c-0.3,0-0.6,0-1-0.1c-0.4-0.1-0.8-0.1-1.3-0.1
			c-1.1-0.1-2.2-0.4-3.2-0.7c-2.6-0.7-5.1-1.8-7.4-3.3c-0.9-0.6-1.8-1.3-2.6-2c-0.4-0.3-0.7-0.6-0.9-0.9c-0.3-0.3-0.5-0.5-0.7-0.7
			c-0.2-0.2-0.4-0.4-0.6-0.6c0.2,0.2,0.3,0.4,0.5,0.6c0.2,0.2,0.4,0.5,0.7,0.7c0.3,0.3,0.6,0.6,0.9,0.9c0.8,0.7,1.7,1.4,2.6,2.1
			c2.3,1.5,4.8,2.7,7.4,3.3c1.1,0.3,2.2,0.5,3.3,0.6c0.5,0.1,0.9,0.1,1.3,0.1c0.3,0,0.6,0,1,0C114,229.6,114.2,229.6,114.5,229.5z"
			/>
		<path class="st5" d="M122.5,246.3c0-0.2-0.1-0.5-0.2-0.7c-0.3-0.6-0.6-1.2-1-1.8c-1.2-1.9-2.9-3.5-5-4.5c-2-1-4.3-1.5-6.6-1.3
			c-0.7,0-1.4,0.1-2,0.3c-0.2,0-0.5,0.1-0.7,0.2c0.9-0.2,1.8-0.3,2.8-0.3c2.2-0.1,4.4,0.4,6.4,1.4c2,1,3.7,2.5,4.9,4.4
			C121.7,244.7,122.1,245.5,122.5,246.3z"/>
		<path class="st5" d="M105.3,236.7c0,0.1,1.8,0.2,4,0.4c2.2,0.2,4,0.4,4,0.3c-0.4-0.1-0.7-0.2-1.1-0.3c-0.7-0.1-1.7-0.2-2.8-0.3
			c-1.1-0.1-2.1-0.1-2.8-0.1C106.1,236.6,105.7,236.7,105.3,236.7z"/>
		<g class="st32">
			<path d="M107.4,240.4c-0.1,0.1-0.5-1.3-0.4-2c2.2-0.9,3.5-0.2,5-0.5c0.2,0,2.2,0.8,2.3,0.6c0.2-0.3-1.2-1.1-1.6-1.2
				c-2.9-0.7-5.3-1-7.2-2.1c-0.5-0.3-1-0.6-1.3-1.1c-0.4-0.5-0.6-1-0.8-1.5c-0.3-0.9-0.6-1.9-0.9-2.8c-0.2-0.5-0.3-1.2,0.2-1.5
				c0.4-0.2,0.8,0.1,1.1,0.2c0.4,0.2,0.9,0.2,1.1-0.1c0.2-0.4-0.4-0.8-0.8-1c-2.2-0.9-4.2-2.3-5.7-4.2c-1.5-1.9-2.5-4.1-2.8-6.5
				l0.2-3.8l-2,5.7l5.7,11C101.9,233.6,104.5,237.2,107.4,240.4z"/>
		</g>
		<path class="st3" d="M108,215.7c0.2-1.1,0.4-2.3,0.4-3.5c0.1-1.2,0.2-2.3,0.1-3.5c-0.2,1.1-0.4,2.3-0.4,3.5
			C107.9,213.3,107.9,214.5,108,215.7z"/>
		<path class="st3" d="M100.9,218.8c0.8,1.4,1.7,2.7,2.8,3.9c-0.3-0.7-0.8-1.4-1.3-2C102,220,101.5,219.4,100.9,218.8z"/>
		<path class="st3" d="M111,228.6c0.3-0.4,0.5-0.8,0.6-1.2c0.2-0.4,0.3-0.9,0.3-1.3c-0.3,0.4-0.5,0.8-0.6,1.2
			C111.1,227.7,111,228.1,111,228.6z"/>
		<path class="st3" d="M117,234c0.3,0.6,0.7,1.2,1,1.7c0.3,0.6,0.6,1.2,1,1.7C118.7,236.1,118,234.8,117,234L117,234z"/>
		<path class="st3" d="M118.5,229.4c0.6-1.4,1-2.9,1.3-4.4c-0.3,0.7-0.6,1.4-0.8,2.1C118.7,227.9,118.6,228.6,118.5,229.4z"/>
		<path class="st3" d="M110.2,218.8c1.4,0.4,2.8,0.5,4.2,0.2c-0.7-0.1-1.4-0.2-2.1-0.1C111.5,218.8,110.8,218.8,110.2,218.8z"/>
		<path class="st3" d="M99.7,213.6c0-0.9-0.1-1.8-0.2-2.6C99.2,211.9,99.3,212.8,99.7,213.6z"/>
		<path class="st3" d="M101.4,201.5c0.6,0.3,1.2,0.5,1.8,0.5c0.6,0.1,1.3,0.1,1.9,0c-0.6-0.1-1.2-0.2-1.9-0.3
			C102.7,201.6,102,201.6,101.4,201.5z"/>
		<path class="st5" d="M37.3,202.4l8.1,6.2l3.5,1.5l-3.5-5.2l-6.6-4.6c-0.3-0.2-0.6-0.3-1-0.2c-0.3,0.1-0.6,0.2-0.8,0.5
			c-0.2,0.3-0.3,0.6-0.2,1C36.9,201.9,37.1,202.2,37.3,202.4z"/>
		<path class="st33" d="M69.5,216.9c-0.4,0-11.4-4.4-11.7-5c-0.2-0.6-0.1-2.3-2.3-2.9c-2.2-0.6-4.5-1.4-4.5-1.4l-5.6-3.7
			c0,0-1.6,0.5-0.2,2.2c0.8,0.9,1.7,1.8,2.6,2.6c0.5,0.5-0.2,0.9-0.2,0.9l-7.9-5.6c0.2,1.4,0.7,2.8,1.6,3.9l1.1,1.5
			c-0.2,0.6-0.2,1.2-0.1,1.7c0.2,0.6,0.5,1.1,0.9,1.5c1.6,1.5,4.1,5.2,6.8,5.4c2.7,0.1,4.6,0.3,4.6,0.3l14,6.8L69.5,216.9z"/>
		<path class="st34" d="M41.9,208.7c1.2,1.2,2.6,2.2,4.1,3.1C44.8,210.7,43.4,209.6,41.9,208.7z"/>
		<path class="st31" d="M99.7,190.6c0,0-6.9-3.4-11-1c-3.3,2-5.7,10.8-8,15.6c-0.6,1.2-1.8,2.1-2.3,2.6c-2.3,2.7-2.8,7.2-2.8,7.2
			l-15.8-2.9L58,222.3c0,0,15.4,11.6,24.3,8.9c9.2-2.8,12.3-14,12.3-14L99.7,190.6z"/>
		<path class="st5" d="M79.1,221.3c0,0,0-0.1,0-0.1c0-0.1,0-0.2,0-0.4c0-0.2,0-0.4,0-0.6c0-0.3,0-0.6-0.1-0.9
			c-0.1-0.8-0.5-1.6-0.9-2.2c-0.7-0.9-1.6-1.6-2.6-1.9l-15.8-3h-0.1v0.1c-0.5,3.1-1.1,6.5-1.7,10.1v0.1l0.1,0.1
			c3.4,2.4,7,4.5,10.7,6.2l1.1,0.5c0.4,0.2,0.7,0.3,1.1,0.4c0.4,0.1,0.7,0.3,1.1,0.4l1.1,0.4c0.7,0.3,1.5,0.4,2.3,0.6
			c0.4,0.1,0.8,0.2,1.1,0.2c0.4,0.1,0.8,0.1,1.1,0.2c1.5,0.2,3,0.2,4.5-0.1c1.4-0.2,2.8-0.8,4-1.6c2.2-1.5,4-3.5,5.4-5.7
			c1.2-2,2.2-4,3-6.2c0.7-2,1.3-3.8,1.8-5.4c0.5-1.6,0.9-3,1.3-4.1c0.4-1.1,0.7-2,0.9-2.5l0.3-0.7c0-0.1,0.1-0.2,0.1-0.2
			c0,0.1-0.1,0.1-0.1,0.2l-0.3,0.6c-0.2,0.6-0.6,1.4-1,2.5c-0.4,1.1-0.9,2.5-1.4,4.1c-0.5,1.6-1.1,3.4-1.9,5.3
			c-0.8,2.1-1.8,4.2-3.1,6.1c-1.4,2.2-3.2,4.1-5.3,5.6c-2.3,1.6-5.3,2.1-8.2,1.6c-0.4,0-0.8-0.1-1.1-0.2c-0.4-0.1-0.7-0.1-1.1-0.2
			c-0.7-0.2-1.5-0.4-2.2-0.6l-1.1-0.4c-0.4-0.1-0.7-0.3-1.1-0.4c-0.4-0.1-0.7-0.3-1.1-0.4l-1.1-0.5c-3.7-1.8-7.3-3.9-10.7-6.2
			l0.1,0.1c0.6-3.6,1.2-7,1.7-10.1l-0.2,0.1l15.8,2.8c1,0.4,1.9,1,2.6,1.8c0.5,0.6,0.8,1.4,1,2.2c0.1,0.3,0.1,0.6,0.1,0.9
			c0,0.2,0,0.4,0,0.6c0,0.2,0,0.3,0,0.4L79.1,221.3z"/>
		<path class="st5" d="M75.5,215.2c0-0.1,0.1-0.2,0.1-0.4c0-0.2,0.1-0.6,0.2-1c0.3-1.2,0.7-2.4,1.3-3.6c0.8-1.4,2.1-2.8,3.4-4.5
			c0.7-0.9,1.3-1.9,1.8-2.9c0.5-1.1,0.9-2.2,1.2-3.4c0.3-1.2,0.7-2.3,1.1-3.4c0.4-1,1-2,1.6-2.9c0.5-0.9,1.1-1.7,1.8-2.4
			c0.6-0.6,1.3-1.1,2.1-1.5c1.2-0.5,2.5-0.6,3.7-0.6c0.9,0.1,1.4,0.2,1.4,0.2c-0.1-0.1-0.2-0.1-0.3-0.1c-0.3-0.1-0.7-0.1-1-0.2
			c-1.3-0.1-2.6,0-3.8,0.5c-0.9,0.3-1.6,0.8-2.2,1.5c-0.7,0.8-1.3,1.6-1.9,2.4c-0.6,1-1.1,1.9-1.6,3c-0.4,1.1-0.8,2.3-1.1,3.4
			c-0.3,1.2-0.7,2.3-1.2,3.4c-0.5,1-1,2-1.7,2.8c-1.3,1.7-2.6,3.1-3.4,4.6c-0.6,1.2-1,2.4-1.2,3.7c-0.1,0.4-0.1,0.8-0.2,1
			C75.5,214.9,75.5,215.1,75.5,215.2z"/>
		<path class="st3" d="M99.3,195.2c0-0.6,0-1.2-0.2-1.8c-0.1-0.6-0.2-1.2-0.4-1.7c0,0.6,0,1.2,0.2,1.8
			C98.9,194.1,99,194.7,99.3,195.2z"/>
		<path class="st3" d="M89.5,193.2c0.6,0.2,1.2,0.3,1.8,0.4c0.6,0.1,1.2,0.1,1.8,0.1c-0.6-0.2-1.2-0.3-1.8-0.4
			C90.7,193.1,90.1,193.1,89.5,193.2z"/>
		<path class="st3" d="M95,204.8c0.4-1.3,0.6-2.6,0.6-4C95.2,202.1,95,203.4,95,204.8z"/>
		<path class="st3" d="M85.2,203.3c0.6,0.1,1.3,0.1,1.9,0c0.6,0,1.3-0.1,1.9-0.2c-0.6-0.1-1.3-0.1-1.9,0
			C86.5,203,85.9,203.1,85.2,203.3z"/>
		<path class="st3" d="M90.6,213.2c-0.1-0.7-0.3-1.3-0.6-1.9c-0.2-0.6-0.5-1.3-0.9-1.8C89.5,210.8,90,212.1,90.6,213.2L90.6,213.2z"
			/>
		<path class="st3" d="M81,212.9c0.8-1.1,1.3-2.4,1.4-3.8c-0.3,0.6-0.5,1.2-0.7,1.9C81.4,211.6,81.2,212.3,81,212.9z"/>
		<path class="st3" d="M85.3,220c0.5,0,1-0.2,1.4-0.4c0.5-0.1,0.9-0.4,1.3-0.7c-0.5,0-1,0.2-1.4,0.4C86.1,219.4,85.6,219.6,85.3,220
			z"/>
		<path class="st3" d="M82.2,227.6c0.7-0.3,1.4-0.6,2.1-1c0.7-0.3,1.4-0.6,2.1-1c-0.8,0.1-1.6,0.3-2.3,0.7
			C83.5,226.6,82.8,227,82.2,227.6z"/>
		<path class="st3" d="M74.8,224.8c0.8,1.2,1.8,2.2,3,3.1c-0.4-0.6-0.8-1.2-1.4-1.7C75.9,225.7,75.4,225.2,74.8,224.8z"/>
		<path class="st3" d="M74,219.8c0.4-0.4,0.7-0.9,1.1-1.4c0.4-0.4,0.8-0.9,1.1-1.3c-0.6,0.2-1,0.6-1.4,1.1
			C74.4,218.7,74.1,219.2,74,219.8z"/>
		<path class="st3" d="M69.5,222.4c-0.1-0.6-0.3-1.3-0.6-1.9c-0.1-0.6-0.3-1.3-0.6-1.9C68.4,219.9,68.8,221.2,69.5,222.4z"/>
		<path class="st3" d="M63.4,216.1c0.7,0.1,1.4,0.1,2,0c0.7,0,1.4-0.1,2-0.3c-0.7-0.1-1.4-0.1-2,0C64.7,215.8,64,215.9,63.4,216.1z"
			/>
		<path class="st3" d="M63.3,222.6c0.5,0.4,1.1,0.7,1.7,0.9c0.6,0.3,1.2,0.5,1.8,0.6C65.7,223.5,64.5,223,63.3,222.6L63.3,222.6z"/>
		<path class="st3" d="M116.8,247.9c0-0.6,0-1.3-0.2-1.9c-0.1-0.6-0.2-1.3-0.4-1.9c0,0.6,0,1.3,0.2,1.9
			C116.4,246.7,116.5,247.3,116.8,247.9z"/>
		<path class="st3" d="M120.2,251.8c0.7-0.1,1.3-0.2,2-0.5c0.7-0.2,1.3-0.4,1.9-0.8c-0.7,0.1-1.3,0.3-2,0.5
			C121.4,251.2,120.8,251.4,120.2,251.8z"/>
		<path class="st3" d="M123.1,253.7c0,0.7,0.1,1.5,0.2,2.2c0.1,0.7,0.3,1.5,0.5,2.2C123.8,256.6,123.6,255.1,123.1,253.7z"/>
		<path class="st3" d="M123.3,238.8c0.4,0.6,0.9,1.1,1.4,1.6c0.4,0.6,0.9,1.1,1.4,1.6c-0.3-0.7-0.7-1.3-1.2-1.8
			C124.5,239.6,123.9,239.1,123.3,238.8z"/>
		<path class="st3" d="M104.8,232.6c0.6,0.5,1.3,0.8,2,0.9c0.7,0.2,1.5,0.3,2.3,0.1c0-0.1-1-0.1-2.2-0.4
			C105.7,232.9,104.8,232.5,104.8,232.6z"/>
		<g>
			<g>
				<path class="st36" d="M180.7,72.5c0-2.3,0-4.6,0-6.9c0-1.3,0.8-2.2,2.1-2.2c3.4,0,6.8,0,10.1,0c1.3,0,2.1,0.9,2.1,2.2
					c0,4.6,0,9.2,0,13.9c0,1.3-0.9,2.2-2.2,2.2c-3.3,0-6.7,0-10,0c-1.3,0-2.2-0.9-2.2-2.2C180.7,77.1,180.7,74.8,180.7,72.5z
					 M194.4,72.6C194.4,72.6,194.4,72.6,194.4,72.6c0-2.3,0-4.5,0-6.8c0-1.1-0.6-1.7-1.7-1.7c-3.2,0-6.4,0-9.6,0
					c-1.3,0-1.9,0.5-1.9,1.8c0,4.4,0,8.8,0,13.2c0,1.3,0.5,1.9,1.8,1.9c3.1,0,6.3,0,9.4,0c1.3,0,1.9-0.6,1.9-1.9
					C194.4,76.9,194.4,74.8,194.4,72.6z"/>
				<g>
					<path class="st37" d="M182.2,71.9c0-2,1-3.7,2.6-4.7l-0.3-0.3c-1.7,1.1-2.8,3-2.8,5.1c0,1.8,0.8,3.4,2,4.5
						c0.1-0.1,0.2-0.2,0.3-0.4C182.9,74.9,182.2,73.5,182.2,71.9z"/>
					<path class="st37" d="M183.2,71.9c0-0.8,0.2-1.5,0.5-2.1l-0.4-0.2c-0.4,0.7-0.6,1.5-0.6,2.3c0,1.4,0.6,2.7,1.6,3.7
						c0.1-0.1,0.2-0.2,0.3-0.4C183.7,74.3,183.2,73.1,183.2,71.9z"/>
					<path class="st37" d="M193.9,71.9c0,3.3-2.7,6.1-6.1,6.1c-1.2,0-2.2-0.3-3.2-0.9c0.1-0.1,0.1-0.3,0.2-0.4
						c0.9,0.6,1.9,0.9,3,0.9c3.1,0,5.6-2.5,5.6-5.6s-2.5-5.6-5.6-5.6c-0.3,0-0.5,0-0.8,0.1l-0.4,0.1v-0.3l-0.4,0.3l-0.4,0.3l0.4,0.3
						l0.4,0.3v-0.2l0.4,0c0.3,0,0.5-0.1,0.8-0.1c2.8,0,5.1,2.3,5.1,5.1s-2.3,5.1-5.1,5.1c-1,0-2-0.3-2.8-0.8
						c0.1-0.1,0.1-0.3,0.2-0.4c0.8,0.5,1.7,0.8,2.6,0.8c2.6,0,4.7-2.1,4.7-4.7c0-2.6-2.1-4.7-4.7-4.7c-0.3,0-0.5,0-0.8,0.1v0.7
						l-0.9-0.7l-0.9-0.7l0.9-0.7l0.9-0.7v0.6c0.3,0,0.5-0.1,0.8-0.1C191.2,65.8,193.9,68.5,193.9,71.9z"/>
					<path class="st37" d="M187.9,67.7c-0.1,0-0.2,0-0.2,0v0.4c0.1,0,0.2,0,0.2,0c2.1,0,3.7,1.7,3.7,3.7c0,2.1-1.7,3.7-3.7,3.7
						c-0.9,0-1.7-0.3-2.3-0.8c-0.1,0.1-0.1,0.3-0.2,0.4c0.7,0.5,1.5,0.8,2.5,0.8c2.3,0,4.2-1.9,4.2-4.2
						C192,69.6,190.2,67.7,187.9,67.7z M185.8,68.7l-0.3-0.3c-1.1,0.8-1.8,2-1.8,3.5c0,1.1,0.5,2.2,1.2,2.9c0.1-0.1,0.2-0.2,0.3-0.4
						c-0.6-0.7-1-1.6-1-2.6C184.1,70.6,184.8,69.4,185.8,68.7z"/>
					<path class="st37" d="M190.1,73.4c-0.5,0.7-1.3,1.2-2.3,1.2c-0.8,0-1.4-0.3-1.9-0.8c-0.1,0.1-0.1,0.3-0.2,0.4
						c0.6,0.5,1.3,0.8,2.1,0.8c1.1,0,2.1-0.6,2.6-1.4L190.1,73.4z M187.9,69.1c0.4,0,0.9,0.1,1.2,0.3l0.2-0.4
						c-0.4-0.2-0.9-0.3-1.4-0.3c-1.8,0-3.2,1.4-3.2,3.2c0,0.8,0.3,1.5,0.8,2.1c0.1-0.1,0.2-0.2,0.3-0.4c-0.4-0.5-0.6-1.1-0.6-1.7
						C185.1,70.3,186.3,69.1,187.9,69.1z"/>
					<path class="st37" d="M187.9,69.7c-0.5,0-0.9,0.2-1.3,0.4l0.2,0.4c0.3-0.2,0.7-0.4,1.1-0.4c1,0,1.8,0.8,1.8,1.8
						c0,1-0.8,1.8-1.8,1.8c-0.7,0-1.3-0.4-1.6-1l-0.4,0.2c0,0.1,0.1,0.2,0.1,0.2c0,0,0.1,0.1,0.1,0.1c0.4,0.5,1,0.8,1.7,0.8
						c1.2,0,2.2-1,2.2-2.2C190.1,70.6,189.1,69.7,187.9,69.7z"/>
				</g>
				<path d="M186,73.6"/>
				<path class="st36" d="M186,73.5c-0.5,1.1-0.9,2.2-1.3,3.4c-0.3,0.7-0.5,1.4-0.8,2c-0.2,0.4-0.7,0.5-1.1,0.2
					c-0.3-0.2-0.4-0.7-0.2-1c0.9-1.2,1.7-2.4,2.6-3.6C185.5,74.2,185.7,73.8,186,73.5z"/>
			</g>
			<g>
				<path class="st36" d="M179.5,84.1h0.3v3.6h-0.3V84.1z"/>
				<path class="st36" d="M184.8,86.8c-0.3,0.7-1,1-1.5,1c-0.9,0-1.7-0.8-1.7-1.8c0-1.1,0.8-1.9,1.7-1.9c0.8,0,1.4,0.6,1.5,1h-0.4
					c-0.4-0.6-0.9-0.7-1.1-0.7c-0.8,0-1.4,0.7-1.4,1.5c0,0.8,0.7,1.5,1.4,1.5c0.2,0,0.7,0,1.1-0.7H184.8z"/>
				<path class="st36" d="M186.6,84.1h1c0.4,0,0.8,0.1,1.1,0.3c0.6,0.4,0.7,1.1,0.7,1.5c0,0.3-0.1,1.1-0.7,1.5
					c-0.3,0.2-0.7,0.3-1.1,0.3h-1V84.1z M186.9,87.4h0.5c0.3,0,0.7,0,1.1-0.3c0.2-0.2,0.5-0.6,0.5-1.2c0-0.5-0.2-0.9-0.6-1.2
					c-0.3-0.2-0.6-0.3-1.1-0.3h-0.5V87.4z"/>
				<path class="st36" d="M191.5,84.5h-0.8v-0.3h1.8v0.3h-0.7v3.3h-0.3V84.5z"/>
				<path class="st36" d="M194.2,84.1h0.8c0.4,0,0.7,0.1,0.8,0.1c0.4,0.2,0.6,0.6,0.6,1c0,0.5-0.3,1-1,1.1l0.9,1.3h-0.4l-1.1-1.6
					c0.4,0,0.6,0,0.7-0.1c0.4-0.1,0.5-0.4,0.5-0.8c0-0.3-0.1-0.6-0.4-0.7c-0.2-0.1-0.4-0.1-0.6-0.1h-0.6v3.3h-0.3V84.1z"/>
			</g>
		</g>
	</g>
</g>
<script  xmlns=""></script>
</svg>
