<?xml version="1.0" encoding="utf-8"?>
<!-- Generator: Adobe Illustrator 26.2.1, SVG Export Plug-In . SVG Version: 6.00 Build 0)  -->
<svg version="1.1" id="Layer_1" xmlns="http://www.w3.org/2000/svg" xmlns:xlink="http://www.w3.org/1999/xlink" x="0px" y="0px"
	 viewBox="0 0 344 267" style="enable-background:new 0 0 344 267;" xml:space="preserve">
<style type="text/css">
	.st0{fill:#FCFCFC;}
	.st1{fill:#FAFAFA;}
	.st2{fill:#455A64;}
	.st3{fill:#263238;}
	.st4{fill:#FFFFFF;fill-opacity:0.7;stroke:#027E43;stroke-width:0.5;}
	.st5{fill:#3467EF;}
	.st6{fill:#FFFFFF;}
	.st7{fill:#EBEBEB;}
	.st8{fill:#DFE7EA;}
	.st9{opacity:0.6;}
	.st10{fill:#E0E0E0;}
	.st11{fill:#F5F5F5;}
	.st12{fill:#9AA48B;}
	.st13{fill:#FFBE9D;}
	.st14{fill:#EB996E;}
	.st15{fill:#7CA2C5;}
	.st16{opacity:0.3;}
	.st17{fill:#FFFFFF;fill-opacity:0.7;stroke:#EBEBEB;stroke-width:0.5;}
	.st18{fill:none;stroke:#000000;}
	.st19{fill:#5D676E;}
	.st20{opacity:0.8;}
	.st21{opacity:0.6;fill:#FFFFFF;enable-background:new    ;}
	.st22{fill:#FFFFFF;stroke:#455A64;}
	.st23{fill-rule:evenodd;clip-rule:evenodd;fill:#5D676E;}
	.st24{fill:#B7715B;}
	.st25{fill:#754235;}
	.st26{fill:#092B4A;}
	.st27{opacity:0.2;}
	.st28{fill:#FCBF9E;}
	.st29{fill:#D16F43;}
	.st30{fill:#435158;}
	.st31{fill:#114777;}
	.st32{fill:#39BAD5;}
</style>
<path class="st0" d="M94,80.3c0.5-3.8-4.8-6.9-8.8-7.2c-1.9-0.2-3.9,0.1-5.7-0.5c-3.9-1.4-5.5-6.5-9.3-8.1c-2.9-1.2-6.2-0.1-8.9,1.3
	s-5.5,3.2-8.6,3.4c-2.7,0.2-5.6-0.8-8,0.5c-1.8,1-2.7,3-4.3,4.2s-3.6,1.4-5.6,1.5s-4,0.1-5.8,1s-3.3,2.7-2.9,4.7L94,80.3z"/>
<path class="st1" d="M323.8,74.6c0.8-5.7-7.3-10.4-13.4-10.9c-2.9-0.2-5.9,0.2-8.7-0.8c-5.9-2.1-8.3-9.8-14.1-12.2
	c-4.3-1.8-9.3-0.2-13.5,1.9s-8.4,4.8-13.1,5.1c-4.1,0.3-8.5-1.3-12.1,0.7c-2.7,1.5-4.1,4.6-6.5,6.4c-2.4,1.8-5.5,2.2-8.5,2.3
	s-6.1,0.2-8.8,1.4s-5,4.1-4.4,7.1L323.8,74.6L323.8,74.6z"/>
<path class="st2" d="M228.6,40.1h-89c-8.4,0-15.3,6.9-15.3,15.3l0,0v206.3c0,8.4,6.9,15.3,15.3,15.3h89c8.4,0,15.3-6.9,15.3-15.3
	V55.5C243.9,47,237.1,40.1,228.6,40.1C228.6,40.1,228.6,40.1,228.6,40.1z"/>
<path class="st3" d="M242.1,261.7V55.5c0-7.4-6-13.4-13.4-13.4h-89c-7.4,0-13.4,6-13.4,13.4c0,0,0,0,0,0v206.3
	c0,7.4,6,13.4,13.4,13.4h89C236.1,275.2,242.1,269.1,242.1,261.7z"/>
<path class="st2" d="M175.5,49.5c-0.3,0-0.7-0.1-0.9-0.4c-0.2-0.2-0.4-0.6-0.4-0.9c0-0.3,0.1-0.7,0.4-0.9c0.2-0.2,0.6-0.4,0.9-0.4
	h17.1c0.3,0,0.7,0.1,0.9,0.4c0.2,0.2,0.4,0.6,0.4,0.9c0,0.3-0.1,0.7-0.4,0.9c-0.2,0.2-0.6,0.4-0.9,0.4H175.5z"/>
<path class="st2" d="M166.3,49.5c-0.2,0-0.5-0.1-0.7-0.2c-0.2-0.2-0.4-0.4-0.5-0.6c-0.1-0.3-0.1-0.5-0.1-0.8c0.1-0.5,0.6-1,1.1-1.1
	c0.3-0.1,0.6,0,0.8,0.1c0.2,0.1,0.4,0.3,0.6,0.5c0.1,0.2,0.2,0.5,0.2,0.7c0,0.3-0.1,0.7-0.4,0.9C167.1,49.3,166.7,49.5,166.3,49.5z"
	/>
<path class="st2" d="M171.2,49.5c-0.2,0-0.5-0.1-0.7-0.2c-0.2-0.2-0.4-0.4-0.5-0.6c-0.1-0.3-0.1-0.5-0.1-0.8c0.1-0.5,0.6-1,1.1-1.1
	c0.3-0.1,0.6,0,0.8,0.1c0.2,0.1,0.4,0.3,0.6,0.5c0.1,0.2,0.2,0.5,0.2,0.7c0,0.3-0.1,0.7-0.4,0.9C172,49.3,171.6,49.5,171.2,49.5z"/>
<path class="st2" d="M201.9,49.5c-0.2,0-0.5-0.1-0.7-0.2c-0.2-0.2-0.4-0.4-0.5-0.6c-0.1-0.3-0.1-0.5-0.1-0.8c0.1-0.5,0.6-1,1.1-1.1
	c0.3-0.1,0.6,0,0.8,0.1c0.2,0.1,0.4,0.3,0.6,0.5c0.1,0.2,0.2,0.5,0.2,0.7c0,0.3-0.1,0.7-0.4,0.9C202.6,49.3,202.3,49.5,201.9,49.5z"
	/>
<path class="st2" d="M197,49.5c-0.2,0-0.5-0.1-0.7-0.2c-0.2-0.2-0.4-0.4-0.5-0.6c-0.1-0.3-0.1-0.5-0.1-0.8c0.1-0.5,0.6-1,1.1-1.1
	c0.3-0.1,0.6,0,0.8,0.1c0.2,0.1,0.4,0.3,0.6,0.5c0.1,0.2,0.2,0.5,0.2,0.7c0,0.3-0.1,0.7-0.4,0.9C197.7,49.3,197.4,49.5,197,49.5z"/>
<path class="st1" d="M229.5,43.6h-16.8c-1.3,0-2.6,0.4-3.6,1.2c-1,0.8-1.8,1.9-2.2,3.1l-0.3,1c-0.4,1.3-1.2,2.5-2.3,3.3
	c-1.1,0.8-2.4,1.3-3.8,1.3h-32c-1.4,0-2.7-0.4-3.8-1.3c-1.1-0.8-1.9-2-2.3-3.3l-0.3-1c-0.4-1.2-1.2-2.3-2.2-3.1
	c-1-0.8-2.3-1.2-3.6-1.2H141c-6.5,0.1-11.8,5.4-11.9,11.9V261c0,1.5,0.3,2.9,0.8,4.3c0.6,1.3,1.4,2.6,2.4,3.6c1,1,2.3,1.9,3.6,2.4
	c1.4,0.6,2.8,0.8,4.3,0.8h89.3c1.3,0,2.7-0.3,3.9-0.8c1.2-0.5,2.4-1.3,3.3-2.2c1-0.9,1.7-2.1,2.2-3.3c0.5-1.2,0.8-2.6,0.8-3.9v-208
	c0-2.7-1.1-5.3-3-7.3C234.8,44.7,232.2,43.6,229.5,43.6z"/>
<path class="st4" d="M144.7,125.4h59.9c2.1,0,3.8,1.7,3.8,3.8v59c0,2.1-1.7,3.8-3.8,3.8l0,0h-59.9c-2.1,0-3.8-1.7-3.8-3.8l0,0v-59
	C141,127.1,142.6,125.5,144.7,125.4z"/>
<path class="st4" d="M144.7,125.4h59.9c2.1,0,3.8,1.7,3.8,3.8v59c0,2.1-1.7,3.8-3.8,3.8l0,0h-59.9c-2.1,0-3.8-1.7-3.8-3.8l0,0v-59
	C141,127.1,142.6,125.5,144.7,125.4z"/>
<path class="st5" d="M204.2,178.1H176v8.8h28.2V178.1z"/>
<path class="st6" d="M188.4,181.6h-10.6v1.8h10.6L188.4,181.6z"/>
<path class="st6" d="M202.5,181.6h-10.6v1.8h10.6V181.6z"/>
<path class="st7" d="M174.2,178.1H146v8.8h28.2V178.1z"/>
<path class="st8" d="M204.2,131.4H146v39.7h58.2V131.4z"/>
<g class="st9">
	<path class="st10" d="M182.4,170.8l-7.8-2.5h-0.1l-6,0.4c-1-2.5-2.4-5.7-3-7.2c-0.1-0.2-0.3-0.4-0.5-0.6c-0.2-0.2-0.4-0.3-0.7-0.3
		l-6.5-0.8h-0.2c-0.1,0-0.1,0.1-0.2,0.1s-0.1,0.1-0.1,0.2v0.2l3.6,8.5c0,0.1,0.1,0.2,0.2,0.3s0.2,0.1,0.3,0.2l7.4,2.9
		c0.2,0.1,0.3,0.1,0.5,0.1l0.5-0.1c1.6-0.2,9.7-1,12.3-1.3h0.1c0-0.1,0-0.1,0.1-0.1L182.4,170.8C182.5,171,182.5,170.9,182.4,170.8
		L182.4,170.8z"/>
	<path class="st3" d="M182.4,170.8L182.4,170.8l0.1,0.1v0.1c0,0.1,0,0.1-0.1,0.1h0h-0.2l-1.8,0.2l-6.7,0.7l-2.2,0.2l-1.2,0.1
		l-0.6,0.1c-0.2,0-0.4,0-0.6-0.1l-4.9-2l-1.3-0.5l-0.7-0.3l-0.3-0.1c-0.1,0-0.1,0-0.2-0.1s-0.1-0.1-0.2-0.1l-0.3-0.3
		c-0.1-0.1-0.1-0.2-0.2-0.3l-0.3-0.7c-0.2-0.5-0.4-0.9-0.6-1.4c-0.8-1.9-1.6-3.8-2.5-5.8l-0.1-0.3c0-0.1-0.1-0.2-0.1-0.3
		c0-0.1,0-0.2,0.1-0.3c0.1-0.1,0.2-0.1,0.3-0.2h0.6l0.6,0.1l2.3,0.3l2.2,0.3l0.6,0.1c0.2,0,0.4,0,0.6,0.1c0.4,0.1,0.7,0.3,0.9,0.6
		c0.1,0.2,0.2,0.3,0.2,0.5s0.1,0.3,0.2,0.5l0.4,1l0.8,1.9l1.5,3.6l0,0l5.8-0.4h0.4l0.3,0.1l0.6,0.2l1.1,0.4l2,0.6l2.7,0.9l0.7,0.2
		C182.3,170.8,182.4,170.8,182.4,170.8c-0.1,0-0.1,0-0.2-0.1l-0.7-0.2l-2.7-0.9l-2-0.6l-1.1-0.4l-0.6-0.2l-0.3-0.1h-0.3l-5.8,0.4
		l0,0c-0.5-1.1-1-2.3-1.5-3.6l-0.8-1.9c-0.2-0.3-0.3-0.7-0.4-1c-0.1-0.2-0.1-0.3-0.2-0.5s-0.1-0.3-0.2-0.5c-0.2-0.3-0.5-0.5-0.8-0.6
		c-0.2,0-0.3-0.1-0.5-0.1l-0.6-0.1l-2.2-0.3L159,160l-0.6-0.1h-0.6c-0.1,0-0.1,0-0.2,0.1c-0.1,0.1-0.1,0.1-0.1,0.2
		c0,0.1,0,0.2,0.1,0.3l0.1,0.3l2.5,5.8c0.2,0.5,0.4,0.9,0.6,1.4c0.1,0.2,0.2,0.5,0.3,0.7s0.1,0.2,0.1,0.3s0.1,0.2,0.2,0.3
		c0.1,0.1,0.1,0.1,0.2,0.1c0.1,0,0.1,0,0.2,0.1l0.3,0.1l0.7,0.3l1.3,0.5l4.9,2c0.2,0.1,0.4,0.1,0.6,0.1l0.6-0.1l1.2-0.1l2.2-0.2
		l6.7-0.7l1.8-0.2h0.2l0.1-0.1V171C182.5,170.9,182.5,170.9,182.4,170.8L182.4,170.8z"/>
	<path class="st11" d="M172.4,169.3l2.9,1.2l3.6-0.4l-3-1.3L172.4,169.3z"/>
	<path class="st11" d="M170.2,171.6l5.7-0.5l-5.4-2.1l-1.7,0.1l0.9,2.2L170.2,171.6z"/>
	<path d="M181.8,170.8h-0.6l-1.6,0.2l-5.4,0.5l-4.3,0.4l0,0l-0.9-2.3l-0.3-0.6c0-0.1-0.1-0.1-0.1-0.2l0,0l0.1,0.2l0.3,0.6
		c0.2,0.6,0.6,1.3,1,2.3l0,0l4.3-0.4l5.4-0.5l1.6-0.1h0.4L181.8,170.8L181.8,170.8z"/>
	<path d="M157.7,160.2h0.2l0.6,0.1l2,0.3c0.9,0.1,1.9,0.3,3,0.4l0.9,0.1h0.4c0.1,0,0.2,0.1,0.2,0.2l0.1,0.1v0.1
		c0.2,0.6,0.5,1.2,0.7,1.8c1,2.4,1.9,4.7,2.5,6.3c0.3,0.8,0.6,1.4,0.8,1.9c0.1,0.2,0.2,0.3,0.2,0.5c0,0.1,0,0.1,0.1,0.1l0,0
		l-0.1-0.1l-0.2-0.5c-0.2-0.6-0.5-1.3-0.8-1.9l-2.5-6.3c-0.2-0.6-0.5-1.2-0.7-1.8v-0.1c0-0.1,0-0.1-0.1-0.1h0c0-0.1-0.1-0.1-0.2-0.1
		h-0.5l-0.9-0.1l-3-0.4l-2-0.3L157.7,160.2L157.7,160.2L157.7,160.2z"/>
	<path class="st6" d="M163.5,165.2c0.3,0.4,0.3,0.8,0.1,0.9s-0.6,0-0.9-0.4s-0.3-0.8-0.1-0.9S163.2,164.9,163.5,165.2z"/>
	<path class="st12" d="M198.4,158.9c-0.4-2.1-2.7-3.4-3.5-4.1l1.2,1.5c0.6,2.4,0.8,4.9,0.7,7.4c0,0.3,0,0.6,0.2,0.7s0.1,0,0.2-0.1
		c0.8-0.6,1.2-1.5,1.2-2.5C198.6,160.8,198.5,159.9,198.4,158.9z"/>
	<path class="st2" d="M196.7,156.6c-0.1-0.2-0.1-0.9-0.7-0.2v-0.3l-3.7-2.8l-8.2,0.4c-0.8,0-2,1.4-2.3,2c-0.2,2.1-0.3,4-0.3,4
		c-0.2,1.2-0.2,2.3,0,3.5c0.2,0.9,0.6,1.7,1.1,2.4c0.3,0.6,0.7,1.1,1.2,1.6l0.4,3l8.6,0.8l3.9-0.2c0,0-0.4-5.9-0.4-6l1-2.4
		C198.2,160.3,197.7,158.6,196.7,156.6z"/>
	<path class="st2" d="M175.1,167.3c0.2-1.2,0.5-2.4,0.8-3.6c0.3-0.6,5.9-8,5.9-8l1.3,4.3l-0.6,2.3l-3.1,3.7l-0.9,2.7L175.1,167.3z"
		/>
	<path class="st2" d="M197.9,158.8c-0.4-2.6-2.4-2.5-2.4-2.5l-2,3.5v7.2l-9.7,0.8l-0.2,2.4c0,0,9.6,2.2,11.8,1.5
		c1.6-0.5,2.8-2,2.8-3.7C198.4,164.9,198.3,161.9,197.9,158.8z"/>
	<path d="M179.5,166c0-0.2-0.1-0.3-0.1-0.5c-0.1-0.4-0.3-0.7-0.6-1c-0.3-0.3-0.6-0.5-1-0.6c-0.2,0-0.3-0.1-0.5-0.1h0.5
		c0.4,0.1,0.8,0.3,1.1,0.6c0.3,0.3,0.5,0.6,0.6,1c0,0.1,0.1,0.2,0.1,0.4L179.5,166z"/>
	<path d="M184.1,167.7h0.2l0.5-0.1l1.7-0.2l5.7-0.7l1.3-0.2l0,0c0.1-2,0.1-3.7,0.1-4.9v-2l0,0v2c0,1.2,0,3-0.1,4.9l0,0l-1.3,0.2
		l-5.8,0.7l-1.7,0.2L184.1,167.7L184.1,167.7z"/>
	<path d="M198.4,167.7L198.4,167.7v0.2c0,0.2,0,0.3-0.1,0.5c0,0.3-0.1,0.5-0.2,0.8c-0.1,0.3-0.3,0.6-0.5,0.9
		c-0.2,0.4-0.5,0.7-0.8,0.9c-0.4,0.3-0.8,0.5-1.3,0.6c-0.3,0.1-0.5,0.1-0.8,0.1h-0.8c-0.6,0-1.1-0.1-1.7-0.2l-3.3-0.5l-1.4-0.2
		l-1.2-0.2c-0.6-0.1-1.2-0.2-1.8-0.3l-0.5-0.1l0,0c0.2,0,0.3,0,0.5,0.1c0.6,0.1,1.2,0.2,1.8,0.3l1.2,0.2l1.4,0.2l3.3,0.5
		c0.6,0.1,1.1,0.1,1.7,0.2h0.8c0.3,0,0.5-0.1,0.8-0.1c0.5-0.1,0.9-0.3,1.3-0.6c0.3-0.3,0.6-0.6,0.8-0.9c0.2-0.3,0.3-0.6,0.5-0.9
		c0.1-0.2,0.2-0.5,0.2-0.8c0-0.2,0.1-0.3,0.1-0.5V167.7z"/>
	<path d="M183.9,167.9L183.9,167.9v-0.2c0-0.2,0-0.3-0.1-0.5l0,0l-0.7-0.8c-0.1-0.2-0.3-0.4-0.4-0.6s-0.2-0.5-0.3-0.8
		c-0.2-0.6-0.4-1.2-0.4-1.8c-0.1-0.7-0.1-1.4,0-2.1c0-0.6,0.1-1.1,0.2-1.7c0-0.4,0.1-0.7,0.2-1.1l0.1-0.3v-0.1l0,0v0.4
		c0,0.3-0.1,0.6-0.1,1.1c-0.1,0.6-0.1,1.1-0.1,1.7c0,0.7,0,1.3,0.1,2c0.1,0.6,0.2,1.2,0.4,1.8c0.1,0.3,0.2,0.5,0.3,0.8
		c0.1,0.2,0.2,0.4,0.4,0.6l0.7,0.8l0.1,0.5C183.8,167.8,183.8,167.8,183.9,167.9L183.9,167.9z"/>
	<path d="M194.9,168.2c-0.1-0.1-0.1-0.2-0.2-0.3c-0.1-0.2-0.3-0.4-0.5-0.6s-0.4-0.4-0.5-0.6l-0.2-0.2c0.1,0.1,0.2,0.1,0.2,0.2
		c0.2,0.2,0.4,0.4,0.5,0.6c0.2,0.2,0.3,0.4,0.5,0.6S194.9,168.1,194.9,168.2z"/>
	<path class="st13" d="M177.5,167.6c-0.1-0.3-0.2-0.6-0.5-0.8c0,0-0.2-0.6-0.5-0.7s-0.6,0.2-0.8,0.1c-0.3-0.1-0.7-0.1-1,0
		c-0.2,0.1-0.4,0.7-0.4,0.7c-0.2,0-0.3,0.1-0.5,0.1c-0.1,0.1-0.3,0.2-0.4,0.3h-0.3c-0.1,0-0.1,0-0.2,0.1c-0.1,0.1-0.2,0.2-0.2,0.4
		l-0.1,0.4v0.2c0,0.1,0,0.1,0.1,0.1c0.1,0.1,0.1,0.1,0.2,0.1h0.2c0.1,0,0.1,0,0.1-0.1v0c0.1-0.1,0.1-0.2,0.2-0.2v0.3
		c0,0,0.1,0.4,0.4,0.4c0.2,0,0.4-0.1,0.5-0.2l0.6-0.1l0.1,0.6c0,0.1,0.1,0.2,0.2,0.3c0.1,0.1,0.2,0.1,0.3,0.1c0.2,0,0.5-0.3,0.5-0.3
		l0.5,0.2c0,0,0.6,0.4,0.9,0.3c0.1,0,0.1-0.1,0.2-0.2v-0.3c0.1-0.2,0.2-0.3,0.3-0.5C177.7,168.5,177.6,168,177.5,167.6z"/>
	<path class="st14" d="M173.2,168.4v-0.6c0-0.2,0.1-0.4,0.1-0.6c0,0.2,0,0.4-0.1,0.6V168.4z"/>
	<path class="st14" d="M174.1,167.8c0,0.1,0.1,0.3,0,0.4v0.3c0,0.1,0,0.1-0.1,0.1h0v-0.4C174,168.1,174,167.9,174.1,167.8z"/>
	<path class="st14" d="M174.4,167.6l-0.2,0.2L174,168l0.2-0.2L174.4,167.6z"/>
	<path class="st14" d="M174.5,166.5v1.1c0,0.3,0,0.5,0.1,0.8v0.3c0-0.1-0.1-0.2-0.1-0.3s-0.1-0.5-0.1-0.8v-0.8
		C174.5,166.7,174.5,166.6,174.5,166.5z"/>
	<path class="st14" d="M176.7,166.7c0,0.1,0,0.1-0.1,0.2c-0.1,0.1-0.1,0.3-0.1,0.4c0,0.1,0,0.2-0.1,0.3c0,0.1-0.1,0.2-0.1,0.4
		s-0.1,0.2-0.2,0.3s-0.1,0.1-0.2,0.1h-0.2c-0.1,0-0.1-0.1-0.2-0.1s-0.1-0.1-0.1-0.2v-0.4c0-0.2,0-0.5,0.1-0.7c0-0.1,0.1-0.3,0.1-0.4
		s0-0.1,0.1-0.1l0,0c0,0.1,0,0.1-0.1,0.2c-0.1,0.1-0.1,0.3-0.1,0.4c-0.1,0.2-0.1,0.5-0.1,0.7v0.4c0,0.1,0,0.1,0.1,0.2
		s0.1,0.1,0.2,0.1h0.2c0.1,0,0.1,0,0.2-0.1s0.2-0.2,0.2-0.3s0.1-0.4,0.2-0.6s0.1-0.3,0.1-0.4C176.6,166.8,176.6,166.8,176.7,166.7
		L176.7,166.7z"/>
	<path class="st14" d="M176.9,167c0,0.1-0.1,0.2-0.2,0.3s-0.2,0.2-0.3,0.2c0.1-0.1,0.2-0.1,0.3-0.2S176.8,167.1,176.9,167z"/>
	<path class="st14" d="M175.7,168.4v0.5c0,0.1,0,0.3-0.1,0.4l0,0v-0.4C175.7,168.7,175.7,168.6,175.7,168.4z"/>
	<path class="st14" d="M177,167.9c0,0.1-0.1,0.1-0.2,0.2c-0.1,0.2-0.2,0.3-0.3,0.5c-0.1,0.2-0.1,0.4-0.2,0.6v0.2
		c0-0.1,0-0.1-0.1-0.2c0-0.2,0-0.4,0.1-0.6c0.1-0.2,0.2-0.4,0.4-0.5C176.8,168.1,176.9,168,177,167.9z"/>
	<path class="st13" d="M176.8,169v-0.4c0-0.1,0.1-0.2,0.2-0.3c0.5-0.4,1-0.7,1.6-1c0.1,0,1.4-0.4,1.9-0.5s3,1.2,3,1.2
		c0.3,0.5,0.5,1,0.5,1.6c-0.1,0.8-0.6,0.8-0.6,0.8l-0.7-0.2l-0.7-0.1c-0.6,0.2-1.3,0.3-1.9,0.4c-0.3-0.1-0.3-0.4-0.1-0.5
		c0.4-0.2,0.7-0.3,1.1-0.4l0.6-0.3l-2,0.3c0,0-1.7,0.3-1.9,0.3s-0.2-0.2-0.2-0.3s-0.7,0.3-0.9,0.2
		C176.5,169.5,176.4,169.1,176.8,169z"/>
	<path class="st14" d="M181.1,168.5h-0.5c-0.2,0-0.4,0-0.6,0.1c-0.1,0-0.2,0.1-0.3,0.1s-0.2,0.1-0.3,0.2s-0.2,0.1-0.4,0.2
		s-0.2,0.1-0.4,0.1c-0.2,0-0.4,0-0.6,0.1c-0.1,0-0.2,0.1-0.3,0.2l-0.1,0.1l0,0v-0.1c0.1-0.1,0.2-0.2,0.3-0.2
		c0.2-0.1,0.4-0.1,0.6-0.1c0.2,0,0.5-0.1,0.7-0.2c0.1-0.1,0.2-0.1,0.3-0.2s0.2-0.1,0.3-0.1s0.4-0.1,0.6-0.1h0.4
		C181,168.5,181,168.5,181.1,168.5z"/>
	<path class="st14" d="M180.5,167.6L180.5,167.6c-0.1,0-0.1,0-0.1,0.1s-0.3,0.1-0.4,0.1s-0.4,0.1-0.6,0.1s-0.5,0.2-0.7,0.3
		c-0.4,0.2-0.8,0.4-1.3,0.6c-0.1,0.1-0.3,0.1-0.4,0.1h-0.2c0.1,0,0.1,0,0.1-0.1v0l0.4-0.1c0.4-0.2,0.9-0.4,1.3-0.6
		c0.2-0.1,0.5-0.2,0.7-0.3s0.4-0.1,0.6-0.1c0.1,0,0.3,0,0.4-0.1C180.4,167.7,180.4,167.6,180.5,167.6z"/>
	<path class="st14" d="M182.1,168.1V168c0-0.1-0.1-0.2-0.1-0.3s-0.2-0.1-0.3-0.2l0,0c0.1,0,0.2,0.1,0.3,0.2c0.1,0.1,0.1,0.2,0.1,0.3
		V168.1z"/>
	<path class="st14" d="M183,169.3v-0.2c0-0.3-0.3-0.6-0.6-0.6c-0.1,0-0.1,0-0.2-0.1h0.2c0.3,0,0.6,0.3,0.6,0.6V169.3z"/>
	<path class="st14" d="M177.6,169.5C177.5,169.5,177.5,169.6,177.6,169.5c-0.2,0.1-0.3,0.1-0.4,0.2s-0.1,0-0.2,0.1h-0.2
		c-0.1,0-0.1,0-0.1-0.1v0l-0.1-0.1c0-0.1-0.1-0.2-0.1-0.3s0.1-0.1,0.1-0.2s0.1-0.1,0.2-0.1l0,0v-0.4c0.1-0.1,0.1-0.2,0.2-0.3
		s0.1-0.1,0.2-0.1h0.1l-0.2,0.2c-0.1,0.1-0.1,0.2-0.2,0.2c-0.1,0.1-0.1,0.3,0,0.4l0,0c-0.1,0.1-0.2,0.1-0.2,0.3v0.3
		c0,0.1,0,0.1,0.1,0.1h0l0.1,0.1h0.4c0.1,0,0.2-0.1,0.3-0.1C177.5,169.5,177.5,169.5,177.6,169.5z"/>
	<path class="st3" d="M186.1,147.2c-0.3-2.4-0.5-4.8-0.6-7.2l-2,1.2c0.1,1-0.8,1.7-1.3,2.5c-0.3,0.5-0.5,1-0.5,1.6
		c0,0.6,0.1,1.2,0.3,1.7c0.2,0.4,0.4,0.8,0.5,1.2c0.1,0.7-0.3,1.5-0.2,2.2c0.3,0.8,1.2,1.3,2,1c0,0,0,0,0,0c0.8-0.3,1.4-1,1.6-1.8
		C186.2,148.8,186.3,148,186.1,147.2z"/>
	<path class="st3" d="M183.6,140.8c0.1-0.6,0.4-1.1,0.8-1.6c0.4-0.4,0.9-0.8,1.5-1c0.5-0.2,1.1-0.2,1.7-0.1c0.6,0.1,1.1,0.4,1.6,0.8
		c0.4,0.3,0.7,0.7,1.1,1s0.5,0.2,1,0.3c0.7,0.5,1.3,1.2,1.5,2.1l0.4,2.4c0,0.6-0.7,0.9-1.2,0.8c-0.5-0.2-1-0.6-1.2-1.1
		c-0.3-0.5-0.6-1-1.1-1.3c-0.9-0.4-1.8-0.4-2.7,0c-0.9,0.3-1.8,0.3-2.7-0.1C183.7,142.4,183.5,141.6,183.6,140.8z"/>
	<path class="st13" d="M183.4,144.2c0-1.6,0.9-3.5,2.5-3.4l4.9,0.9c0.5,0.1,0.8,0.4,0.9,0.9l0.2,11.7l0,0c0,0-1.7,4.3-4.9,3.5
		c-0.6-0.2-0.2-1.8-0.3-2.5l0,0v-0.2c-0.1-0.5-0.1-1.1-0.1-1.6c-0.1-0.9-0.1-1.3-0.1-1.3c-1.4-0.3-2.4-1.4-2.6-2.8
		C183.4,147.7,183.2,145.9,183.4,144.2z"/>
	<path class="st3" d="M184.2,146.3c0,0.1,0,0.2,0.1,0.2s0.1,0.1,0.2,0.1h0.1c0.1,0,0.1,0,0.1-0.1v0c0-0.1,0-0.1,0.1-0.1h0v-0.1
		c0-0.1,0-0.2-0.1-0.2s-0.1-0.1-0.2-0.1h-0.1c-0.1,0-0.1,0-0.1,0.1v0l-0.1,0.1V146.3z"/>
	<path class="st3" d="M183.9,145.3c0.2-0.1,0.4-0.2,0.6-0.2c0.2,0,0.5,0,0.7,0.1c0-0.1,0-0.1-0.1-0.2c-0.2-0.1-0.3-0.1-0.5-0.1
		c-0.2,0-0.4,0.1-0.5,0.2C183.9,145.2,183.9,145.3,183.9,145.3z"/>
	<path class="st3" d="M187.4,146.1c0,0.1,0,0.2,0.1,0.2s0.1,0.1,0.2,0.1h0.1c0.1,0,0.1,0,0.1-0.1v0l0.1-0.1v-0.1
		c0-0.1,0-0.2-0.1-0.2s-0.1-0.1-0.2-0.1h-0.1c-0.1,0-0.1,0-0.1,0.1v0l-0.1,0.1V146.1z"/>
	<path class="st3" d="M187.4,145.2c0.2-0.1,0.4-0.2,0.6-0.2c0.2,0,0.5,0,0.7,0.1c0-0.1,0-0.1-0.1-0.2c-0.2-0.1-0.3-0.1-0.5-0.1
		c-0.2,0-0.4,0.1-0.5,0.2C187.4,145.1,187.4,145.1,187.4,145.2z"/>
	<path class="st3" d="M186.2,147.9c-0.2,0-0.4,0-0.6-0.1c-0.1,0-0.2,0-0.2-0.1v-0.3c0.1-0.2,0.1-0.5,0.2-0.7
		c0.2-0.6,0.4-1.3,0.5-1.9c0,0-0.3,0.8-0.6,1.8l-0.2,0.7c-0.1,0.1-0.1,0.2,0,0.4c0,0.1,0,0.1,0.1,0.1h0h0.3
		C185.9,147.9,186,147.9,186.2,147.9z"/>
	<path class="st14" d="M186.3,152.1c1.2-0.1,2.4-0.4,3.4-1.1c-0.7,1.2-2,2-3.4,1.8V152.1z"/>
	<path class="st14" d="M186.4,148.7c0.1-0.1,0.1-0.2,0.2-0.2s0.2-0.1,0.3-0.1s0.2,0,0.2,0.1s0.1,0.1,0.2,0.1s0.1,0.1,0.1,0.2v0.2
		c-0.1,0.1-0.1,0.1-0.2,0.1h-0.3c-0.2-0.1-0.3-0.1-0.5-0.2l-0.1-0.1C186.4,148.9,186.4,148.8,186.4,148.7L186.4,148.7"/>
	<path class="st3" d="M187.3,148.1c-0.1,0,0,0.4-0.4,0.7c-0.2,0.2-0.4,0.3-0.7,0.3c0.1,0.1,0.2,0.1,0.3,0.1c0.2,0,0.4-0.1,0.6-0.3
		c0.2-0.1,0.3-0.4,0.3-0.6C187.4,148.2,187.4,148.2,187.3,148.1z"/>
	<path class="st3" d="M187.2,143.8c0,0.1,0.4,0,0.8,0.1s0.8,0.1,0.8,0s0-0.1-0.2-0.2c-0.2-0.1-0.4-0.2-0.6-0.2c-0.2,0-0.4,0-0.6,0.1
		L187.2,143.8z"/>
	<path class="st3" d="M183.9,144.3c0.1,0.1,0.3,0,0.6,0s0.6,0,0.6-0.1c0-0.1,0-0.1-0.1-0.2c-0.2-0.1-0.3-0.1-0.5-0.1
		c-0.2,0-0.3,0.1-0.5,0.2S183.9,144.2,183.9,144.3z"/>
	<path class="st3" d="M185.9,140.1l0.2-0.3c1.5,0.1,3,0.4,4.4,0.8c0.6,0.2,1.2,0.5,1.6,0.9c0.5,0.7,0.8,1.5,0.8,2.3
		c0.4,3.1,0.8,6.3,0,9.4c-0.3-0.4-0.7-0.6-1.2-0.6c-0.4-0.1-0.9-0.1-1.3-0.2c-0.2-0.1-0.4-0.3-0.6-0.4c-0.2-0.2-0.3-0.4-0.4-0.6
		c-0.1-0.5-0.1-1,0.1-1.4c0.2-0.5,0.6-1,0.5-1.5s-0.8-0.8-1-1.4c-0.3-0.9,1-1.9,0.6-2.8c-0.1-0.4-0.4-0.6-0.8-0.7
		c-0.3-0.1-0.7-0.2-1.1-0.3c-0.6-0.2-1.1-0.6-1.4-1.2C186,141.5,185.8,140.8,185.9,140.1z"/>
	<path class="st15" d="M193.5,141.7c-1.6-2.3-2.7-2.5-4.2-2.6l2.1,4.7c0.4,0.8,0.6,1.6,0.8,2.5c0,0.9-0.2,1.8-0.7,2.6
		c-0.5,1.1-1.2,2-2.1,2.7c-0.9,0.7-3,1.6-4.1,1.1l1.5,0.8h7.8c0.4-0.4,0.7-0.9,0.9-1.5C196.6,149.3,195.3,144.2,193.5,141.7z"/>
	<path class="st15" d="M196.5,156.3c-0.5-1-1.2-2-2.1-2.8c-1.2-1-1.9-1-3.6-0.9s-4,0.4-4.6,0.3l-0.1-0.8c-0.6-0.2-1.2-0.5-1.6-0.9
		c-0.4,0.4-0.6,0.9-0.5,1.4l-0.3,0.1c-0.4,0.1-0.7,0.4-0.9,0.8c-0.2,0.4-0.3,0.8-0.2,1.2c0.1,0.4,0.4,0.6,0.9,0.7
		c2,0.3,7.3-1.1,9-1.1S196.5,156.3,196.5,156.3z"/>
	<path class="st3" d="M183.4,155.4h2c0.7,0,1.4-0.1,2.1-0.3l1.2-0.3l1.3-0.4c0.8-0.3,1.7-0.5,2.6-0.4c0.7,0.1,1.5,0.3,2.1,0.7
		c0.4,0.2,0.8,0.5,1.1,0.9l0.3,0.3l0.1,0.1l-0.1-0.1c-0.1-0.1-0.1-0.2-0.3-0.3c-0.8-0.9-2-1.4-3.2-1.5c-0.9-0.1-1.8,0.1-2.6,0.4
		c-0.5,0.1-0.9,0.3-1.3,0.4s-0.8,0.2-1.3,0.3c-0.7,0.2-1.5,0.3-2.2,0.3c-0.5,0-1,0-1.5-0.1c-0.2,0-0.3,0-0.4-0.1L183.4,155.4z"/>
	<path class="st15" d="M196.6,155.7c-2.1-2.6-5.7-3.6-8.9-2.3l-3.2,0.7c-0.8,0.1-2.2,0.4-2.3,1.2c-0.1,0.8,0.1,1.7,0.5,2.4
		c0.7,1.3,0.3,3,1.1,4.3c0.3,0.6,0.7,1.2,1.2,1.7c0.5,0.5,1.2,0.8,1.9,0.8c0.8-0.2,1.5-0.6,1.9-1.3c1.1-1.3,1.7-2.9,2.7-4.3
		c0.9-1.5,2.5-2.4,4.3-2.5c0.5,0.1,1,0.3,1.5,0.5C197.4,156.8,196.7,155.9,196.6,155.7z"/>
	<g class="st16">
		<path d="M192.3,154.2c-1.4,0-2.8,0.7-4.1,1c-5.4,1.2-5.4-0.9-5.4-0.9c-0.2,1,0.7,1.4,1.7,1.6c1.7,0.5,3.4,0.5,5.1,0.2
			c1.1-0.3,2.2-0.6,3.2-0.9c1.2-0.4,2.4-0.1,3.4,0.6C195.4,154.6,193.6,154.2,192.3,154.2z"/>
	</g>
	<g class="st16">
		<path d="M185.2,154c0.1,0.1,0.2,0.3,0.3,0.4c0.1,0.1,0.2,0.2,0.4,0.2c0.3,0.1,0.6,0.1,0.9,0.1c1.1-0.2,2.2-0.4,3.3-0.8
			c-0.8,0.1-1.7,0.2-2.5,0.4C186.8,154.6,185.9,154.5,185.2,154"/>
	</g>
	<path d="M196.8,156.6L196.8,156.6l-0.1-0.1c-0.1-0.1-0.1-0.2-0.3-0.3c-0.3-0.4-0.7-0.7-1.2-0.8c-0.3-0.1-0.7-0.2-1-0.2h-1.1
		c-0.8,0.2-1.7,0.4-2.5,0.6c-0.8,0.3-1.7,0.5-2.6,0.6c-0.7,0-1.4,0-2.1-0.2c-0.5-0.1-0.9-0.2-1.4-0.3l-0.4-0.1l0,0l0.4,0.1
		c0.5,0.1,0.9,0.2,1.4,0.3c0.7,0.1,1.4,0.2,2.1,0.1c0.9-0.1,1.8-0.3,2.6-0.6c0.8-0.3,1.7-0.5,2.6-0.6c0.4-0.1,0.8-0.1,1.2,0
		c0.4,0,0.8,0.1,1.2,0.3c0.4,0.2,0.7,0.4,1,0.7l0.3,0.3L196.8,156.6L196.8,156.6z"/>
	<path d="M194.8,153.9L194.8,153.9l-0.3-0.3c-0.3-0.3-0.6-0.5-1-0.6c-0.5-0.3-1.1-0.4-1.7-0.5c-0.7-0.1-1.5-0.1-2.2,0
		c-0.7,0.1-1.5,0.2-2.2,0.4c-0.3,0.1-0.7,0.1-1,0.1c-0.3,0-0.6-0.1-0.8-0.3c-0.2-0.1-0.3-0.3-0.5-0.5c-0.1-0.1-0.2-0.3-0.2-0.5
		c-0.1-0.1-0.1-0.2-0.1-0.3v-0.1l0,0v0.1c0,0.1,0.1,0.2,0.1,0.3s0.2,0.3,0.3,0.5c0.1,0.2,0.3,0.4,0.5,0.5c0.2,0.2,0.5,0.3,0.8,0.3
		c0.3,0,0.7,0,1-0.1c0.7-0.2,1.5-0.3,2.2-0.4c0.7-0.1,1.5-0.1,2.2,0c0.6,0.1,1.2,0.3,1.7,0.5c0.4,0.2,0.7,0.4,1,0.7
		C194.6,153.6,194.7,153.7,194.8,153.9L194.8,153.9z"/>
	<path class="st15" d="M194.2,153.8h-0.1l-0.3-0.1c-0.4-0.1-0.8-0.1-1.2-0.1c-0.6,0-1.1,0-1.7,0.1c-0.7,0.1-1.4,0.2-2.1,0.4
		c-0.7,0.2-1.4,0.3-2.1,0.3c-0.3,0-0.6,0-0.9-0.1c-0.3-0.1-0.5-0.2-0.7-0.4c-0.3-0.3-0.5-0.6-0.7-0.9c-0.1-0.1-0.1-0.3-0.2-0.4l0,0
		v0.1c0,0.1,0.1,0.2,0.1,0.3c0.2,0.3,0.4,0.6,0.7,0.9c0.2,0.2,0.4,0.3,0.7,0.4c0.3,0.1,0.6,0.1,0.9,0.1c0.7,0,1.4-0.1,2.1-0.3
		c0.7-0.2,1.4-0.3,2.1-0.4c0.6-0.1,1.1-0.1,1.7,0c0.4,0,0.8,0.1,1.2,0.1c0.1,0,0.2,0,0.3,0.1L194.2,153.8z"/>
	<path d="M194.3,148.9v0.2c0,0.1,0,0.1-0.1,0.2s-0.1,0.2-0.1,0.3s-0.1,0.2-0.1,0.3s-0.1,0.2-0.2,0.4c-0.3,0.5-0.7,1-1.2,1.4
		c-0.1,0.1-0.2,0.2-0.3,0.2s-0.2,0.1-0.3,0.2c-0.1,0.1-0.2,0.1-0.3,0.1c-0.1,0-0.1,0.1-0.2,0.1s-0.1,0-0.2,0.1
		c0.1,0,0.1-0.1,0.2-0.1s0.1-0.1,0.2-0.1s0.2-0.1,0.3-0.1s0.2-0.1,0.3-0.2s0.2-0.2,0.3-0.2c0.5-0.4,0.9-0.9,1.2-1.4
		c0.1-0.1,0.1-0.2,0.2-0.4s0.1-0.2,0.2-0.3s0.1-0.2,0.1-0.3c0-0.1,0-0.1,0.1-0.2C194.2,149,194.2,148.9,194.3,148.9z"/>
	<path d="M194.1,155.4h-0.3c-0.3,0-0.6,0-0.9,0.1l-0.6,0.3c-0.2,0.1-0.4,0.2-0.6,0.4c-0.4,0.3-0.9,0.6-1.4,1l-2.5,1.9l-0.8,0.6
		l-0.2,0.1h-0.1l0.1-0.1l0.2-0.2l0.8-0.6l2.5-1.9c0.4-0.4,0.9-0.7,1.4-1c0.2-0.1,0.4-0.3,0.6-0.4c0.2-0.1,0.4-0.2,0.6-0.2
		c0.3-0.1,0.6-0.1,0.9-0.1h0.1L194.1,155.4L194.1,155.4z"/>
	<path d="M197.7,158.8v-0.2c0-0.1-0.1-0.2-0.1-0.4s-0.1-0.4-0.2-0.6s-0.3-0.5-0.4-0.7s-0.4-0.3-0.7-0.4c-0.2-0.1-0.4-0.1-0.6-0.1
		c-0.2,0-0.4,0.1-0.6,0.1h0.1c0.1,0,0.3-0.1,0.4-0.1h0.7c0.3,0.1,0.5,0.2,0.7,0.4c0.2,0.2,0.4,0.5,0.5,0.7c0.1,0.2,0.2,0.4,0.2,0.6
		c0,0.2,0.1,0.3,0.1,0.4C197.7,158.6,197.7,158.7,197.7,158.8z"/>
</g>
<path class="st17" d="M214.2,129.2c0-2.1,1.7-3.8,3.8-3.8l0,0h21.3V192H218c-2.1,0-3.8-1.7-3.8-3.8l0,0V129.2z"/>
<path class="st7" d="M239.5,178.1h-20.3v8.8h20.3V178.1z"/>
<path class="st8" d="M239.5,131.4h-20.3v39.7h20.3V131.4z"/>
<path class="st4" d="M144.7,220.9h59.9c2.1,0,3.8,1.7,3.8,3.8l0,0v59c0,2.1-1.7,3.8-3.8,3.8h-59.9c-2.1,0-3.8-1.7-3.8-3.8v-59
	C140.9,222.6,142.6,220.9,144.7,220.9z"/>
<path class="st17" d="M144.7,220.9h59.9c2.1,0,3.8,1.7,3.8,3.8l0,0v59c0,2.1-1.7,3.8-3.8,3.8h-59.9c-2.1,0-3.8-1.7-3.8-3.8v-59
	C140.9,222.6,142.6,220.9,144.7,220.9z"/>
<path class="st8" d="M204.2,226.8H146v39.7h58.2V226.8z"/>
<path class="st17" d="M214.2,224.6c0-2.1,1.7-3.8,3.8-3.8l0,0h21.3v66.5H218c-2.1,0-3.8-1.7-3.8-3.8V224.6z"/>
<path class="st8" d="M239.5,226.8h-20.3v39.7h20.3V226.8z"/>
<line class="st18" x1="336" y1="265.5" x2="16" y2="265.5"/>
<path class="st2" d="M244.1,118.9H244V91.6h0.1c0.2,0,0.3,0.1,0.5,0.2c0.1,0.1,0.2,0.3,0.2,0.5v25.9c0,0.2-0.1,0.3-0.2,0.4
	C244.4,118.8,244.3,118.9,244.1,118.9z"/>
<path class="st2" d="M124.1,108.4h0.2v17.2h-0.2c-0.2,0-0.3-0.1-0.5-0.2c-0.1-0.1-0.2-0.3-0.2-0.5V109c0-0.2,0.1-0.3,0.2-0.5
	C123.8,108.5,123.9,108.4,124.1,108.4z"/>
<path class="st2" d="M124.1,85.9h0.2v17.2h-0.2c-0.2,0-0.3-0.1-0.5-0.2c-0.1-0.1-0.2-0.3-0.2-0.5V86.5c0-0.2,0.1-0.3,0.2-0.5
	C123.8,86,123.9,85.9,124.1,85.9z"/>
<path class="st2" d="M124.2,69L124.2,69l0.1,8h-0.1c-0.2,0-0.3-0.1-0.4-0.2c-0.1-0.1-0.2-0.2-0.2-0.4v-6.9c0-0.2,0.1-0.3,0.2-0.4
	C123.9,69,124,69,124.2,69z"/>
<path class="st3" d="M213.4,51.3h-0.8v1.2h0.8V51.3z"/>
<path class="st3" d="M214.7,50.8h-0.8v1.7h0.8V50.8z"/>
<path class="st3" d="M216,50.4h-0.8v2h0.8V50.4z"/>
<path class="st3" d="M217.4,49.7h-0.8v2.8h0.8V49.7z"/>
<path class="st3" d="M229.5,52.5h-4.2c-0.1,0-0.1,0-0.1-0.1v0c0-0.1,0-0.1-0.1-0.1l0,0v-2.2c0-0.1,0-0.1,0.1-0.1l0,0
	c0.1,0,0.1,0,0.1-0.1v0c0-0.1,0.1,0,0.1,0h4.1v0.8h0.5v1.1h-0.4L229.5,52.5L229.5,52.5z M229.5,50h-4.2v2.2h4.2v-0.8h0.5v-0.8h-0.5
	V50z"/>
<path class="st3" d="M225.6,52v-1.7h3.5V52H225.6z"/>
<path class="st3" d="M221.3,52.4c0-0.1,0-0.2-0.1-0.2s-0.1-0.1-0.2-0.1s-0.1,0-0.2,0.1c-0.1,0-0.1,0-0.1,0.1v0v0.2
	c0,0.1,0,0.1,0.1,0.2c0.1,0.1,0.1,0.1,0.2,0.1h0.2c0.1,0,0.1,0,0.1-0.1v0V52.4z"/>
<path class="st3" d="M220,51.6l0.4,0.4c0.2-0.2,0.4-0.3,0.6-0.3c0.2,0,0.5,0.1,0.6,0.3l0.4-0.4c-0.3-0.3-0.6-0.4-1-0.4
	c-0.2,0-0.4,0-0.6,0.1C220.3,51.4,220.1,51.5,220,51.6z"/>
<path class="st3" d="M221,50.4c-0.6,0-1.2,0.2-1.6,0.7l0.4,0.4c0.2-0.2,0.4-0.3,0.6-0.4c0.2-0.1,0.5-0.1,0.7-0.1
	c0.2,0,0.5,0,0.7,0.1c0.2,0.1,0.4,0.2,0.6,0.4l0.4-0.4C222.3,50.7,221.7,50.4,221,50.4z"/>
<path class="st3" d="M218.7,50.4l0.4,0.4c1-1,2.7-1.1,3.8,0c0,0,0,0,0,0l0.4-0.4c-0.6-0.6-1.4-0.9-2.3-0.9
	C220.1,49.5,219.3,49.8,218.7,50.4z"/>
<path class="st10" d="M222.8,110.7h-75c-4.1,0-7.5-3.4-7.5-7.5s3.4-7.5,7.5-7.5h75c4.1,0,7.5,3.4,7.5,7.5c0,2-0.8,3.9-2.2,5.3
	C226.7,109.9,224.8,110.7,222.8,110.7z"/>
<path class="st3" d="M220.9,106.1c-0.6,0-1.1-0.2-1.6-0.5c-0.5-0.3-0.8-0.8-1-1.3c-0.2-0.5-0.3-1.1-0.2-1.6c0.2-1.2,1.1-2.1,2.3-2.3
	c0.5-0.1,1.1-0.1,1.6,0.2c0.5,0.2,1,0.6,1.3,1.1c0.3,0.5,0.5,1,0.5,1.6c0,0.7-0.3,1.5-0.8,2C222.4,105.8,221.7,106.1,220.9,106.1z
	 M220.9,101c-0.5,0-0.9,0.1-1.3,0.4c-0.4,0.2-0.7,0.6-0.8,1c-0.2,0.4-0.2,0.9-0.1,1.3c0.1,0.4,0.3,0.8,0.6,1.2
	c0.3,0.3,0.7,0.5,1.2,0.6c0.4,0.1,0.9,0,1.3-0.1c0.4-0.2,0.7-0.5,1-0.8c0.3-0.4,0.4-0.8,0.4-1.3c0-0.6-0.2-1.2-0.7-1.6
	C222.1,101.3,221.5,101,220.9,101z"/>
<path class="st3" d="M224.7,106.9c-0.1,0-0.1,0-0.2-0.1l-1.9-1.6c-0.1-0.1-0.1-0.1-0.1-0.2s0-0.1,0.1-0.2c0.1,0,0.1,0,0.1-0.1
	c0,0,0,0,0,0h0.2c0.1,0,0.1,0,0.1,0.1c0,0,0,0,0,0l1.9,1.6c0.1,0.1,0.1,0.1,0.1,0.2s0,0.1-0.1,0.2c-0.1,0-0.1,0-0.1,0.1c0,0,0,0,0,0
	H224.7z"/>
<path class="st19" d="M176.1,208.8c0,0.5-0.1,0.9-0.4,1.3c-0.3,0.4-0.7,0.7-1.1,0.9c-0.4,0.2-0.9,0.2-1.4,0.1
	c-0.5-0.1-0.9-0.3-1.2-0.7c-0.3-0.3-0.6-0.7-0.7-1.2c-0.1-0.5,0-0.9,0.1-1.4c0.2-0.5,0.5-0.8,0.9-1.1c0.4-0.3,0.8-0.4,1.3-0.4
	c0.6,0,1.2,0.3,1.7,0.7C175.8,207.5,176.1,208.1,176.1,208.8z"/>
<path class="st10" d="M184.1,208.8c0,0.5-0.1,0.9-0.4,1.3c-0.3,0.4-0.7,0.7-1.1,0.9c-0.4,0.2-0.9,0.2-1.4,0.1
	c-0.5-0.1-0.9-0.3-1.2-0.7c-0.3-0.3-0.6-0.7-0.7-1.2c-0.1-0.5,0-0.9,0.1-1.4c0.2-0.5,0.5-0.8,0.9-1.1c0.4-0.3,0.8-0.4,1.3-0.4
	c0.6,0,1.2,0.3,1.7,0.7C183.8,207.5,184.1,208.1,184.1,208.8z"/>
<path class="st10" d="M189.7,211.2c1.3,0,2.4-1.1,2.4-2.4s-1.1-2.4-2.4-2.4s-2.4,1.1-2.4,2.4v0C187.3,210.1,188.4,211.2,189.7,211.2
	z"/>
<path class="st10" d="M200.2,208.8c0,0.5-0.1,0.9-0.4,1.3c-0.3,0.4-0.7,0.7-1.1,0.9c-0.4,0.2-0.9,0.2-1.4,0.1
	c-0.5-0.1-0.9-0.3-1.2-0.7c-0.3-0.3-0.6-0.7-0.7-1.2c-0.1-0.5,0-0.9,0.1-1.4c0.2-0.5,0.5-0.8,0.9-1.1c0.4-0.3,0.8-0.4,1.3-0.4
	c0.6,0,1.2,0.3,1.7,0.7C199.9,207.5,200.2,208.1,200.2,208.8z"/>
<path class="st6" d="M224.6,245c-0.1,0-0.2,0-0.3,0.1c-0.1,0.1-0.2,0.2-0.2,0.3s-0.1,0.2,0,0.3s0.1,0.2,0.2,0.3s0.2,0.1,0.3,0.2
	s0.2,0,0.3,0s0.2-0.1,0.3-0.2c0.1-0.1,0.1-0.2,0.1-0.3c0-0.2-0.1-0.3-0.2-0.4C224.9,245.1,224.8,245,224.6,245z"/>
<path class="st3" d="M149.1,138c0-0.1,6.5-0.2,14.4-0.2s14.4,0.1,14.4,0.2s-6.5,0.2-14.4,0.2S149.1,138.1,149.1,138z"/>
<path class="st3" d="M149.1,141.7c0-0.1,4.8-0.2,10.7-0.2s10.7,0.1,10.7,0.2s-4.8,0.2-10.7,0.2S149.1,141.9,149.1,141.7z"/>
<path class="st3" d="M149.1,146.4c0-0.1,4.8-0.2,10.7-0.2s10.7,0.1,10.7,0.2s-4.8,0.2-10.7,0.2S149.1,146.5,149.1,146.4z"/>
<path class="st3" d="M225.4,138c1.5-0.2,3.1-0.3,4.6-0.2c1.5-0.1,3.1,0,4.6,0.2C231.5,138.3,228.5,138.3,225.4,138L225.4,138z"/>
<path class="st3" d="M225.4,141.7c2.3-0.2,4.7-0.3,7-0.2c2.3-0.1,4.7,0,7,0.2c-2.3,0.2-4.7,0.3-7,0.2
	C228.5,141.9,225.4,141.9,225.4,141.7z"/>
<path class="st3" d="M225.4,146.4c2.3-0.2,4.7-0.3,7-0.2c2.3-0.1,4.7,0,7,0.2c-2.3,0.2-4.7,0.3-7,0.2
	C230.1,146.7,227.7,146.6,225.4,146.4z"/>
<path class="st10" d="M305.7,126.3v-7.1l0.1,0.1l-26.6,0.1l0.1-0.1v7.1l-0.1-0.1l19,0.1h7.1L305.7,126.3h-7.6l-19.1,0.1h-0.1v-7.2
	l0.1-0.1l26.6,0.1h0.1V126.3z"/>
<path class="st10" d="M111.3,41.8v-7.1l0.1,0.1H84.8l0.1-0.1v7.1l-0.1-0.1l18.9,0.1l0,0l-19.1,0.1h-0.1v-7.1l0.1-0.1l26.6,0.1h0.1
	V41.8z"/>
<path class="st7" d="M113.4,226.2H86.7v7h26.6v-7H113.4z"/>
<path class="st10" d="M102.1,240.7v-7.1l0.1,0.1l-26.6,0.1l0.1-0.1v7l-0.1-0.1l19,0.1h-0.1l-19.1,0.1h-0.1v-7.2l0.1-0.1l26.6,0.1
	h0.1V240.7L102.1,240.7z"/>
<path class="st10" d="M281.3,38.2v-7.1l0.1,0.1l-26.6,0.1l0.1-0.1v7.1l-0.1-0.1l19,0.1h7.1L281.3,38.2L281.3,38.2
	C281.4,38.1,281.3,38.1,281.3,38.2h-7.6l-19.1,0.1h-0.1v-7.1l0.1-0.1h26.7v7C281.4,38.2,281.3,38.2,281.3,38.2z"/>
<path class="st10" d="M284.9,31.1v-1.9c0-1.2,0-3-0.1-5.1l0.1,0.1h-16.1l0.1-0.1v7l-0.1-0.1l11.5,0.1h0.1l-11.5,0.1h-0.1v-7.1
	l0.1-0.1H285v0.1c0,2.2,0,3.9-0.1,5.2v1.4C285,31,284.9,31.1,284.9,31.1z"/>
<path class="st10" d="M90.8,148.7v-7.1l0.1,0.1l-26.6,0.1l0.1-0.1v7.1l-0.1-0.1l19,0.1h7.1L90.8,148.7h-7.6l-19.1,0.1H64v-7.2
	l0.1-0.1l26.6,0.1h0.1L90.8,148.7L90.8,148.7z"/>
<path class="st10" d="M94.4,141.6v-1.9c0-1.2,0-3-0.1-5.1l0.1,0.1h-16l0.1-0.1v7l-0.1-0.1l11.5,0.1H90l-11.5,0.1h-0.1v-7.1l0.1-0.1
	h16.1v0.1c0,2.2,0,3.9-0.1,5.2v1.4C94.5,141.3,94.5,141.5,94.4,141.6z"/>
<path class="st10" d="M280.3,238.5v-7.1l0.1,0.1l-26.6,0.1l0.1-0.1v7l-0.1-0.1l19,0.1h-0.1l-19.1,0.1h-0.1v-7.1l0.1-0.1l26.6,0.1
	h0.1V238.5z"/>
<path class="st10" d="M283.9,231.5v-1.9c0-1.2,0-3-0.1-5.1l0.1,0.1h-16l0.1-0.1v7l-0.1-0.1l11.5,0.1l0,0l-11.5,0.1h-0.1v-7.1
	l0.1-0.1H284v6.7C283.9,231.2,283.9,231.4,283.9,231.5z"/>
<path class="st7" d="M208.5,28.2v-7.1l0.1,0.1L182,21.3l0.1-0.1v7.1l-0.1-0.1l19,0.1h7.1L208.5,28.2h-7.6l-19.1,0.1h-0.1v-7.1
	l0.1-0.1l26.6,0.1h0.1V28.2z"/>
<g class="st20">
	<path class="st21" d="M320.2,62.6h-25.9c-1.4,0-2.7,0.5-3.6,1.5c-1,1-1.5,2.2-1.5,3.6v15.9c0,1.4,0.5,2.6,1.5,3.6
		c1,1,2.2,1.5,3.6,1.5h1.2l-0.5,4.9l5.9-4.9h19.3c1.4,0,2.7-0.5,3.6-1.5c1-1,1.5-2.2,1.5-3.6V67.8c0-1.4-0.5-2.7-1.5-3.6
		C322.9,63.2,321.6,62.6,320.2,62.6z"/>
	<g class="st20">
		<path class="st6" d="M308.5,69.1h-9.2l-0.8,0.4l0.4,6.8l1.6,0.4v1.6h0.8l1.2-2h6V69.1z"/>
		<path class="st6" d="M304.9,73.5h9.6l0.8,0.4v6.4l-1.7,1.2l-0.3,1.2l-0.8,0.4l-1-1.7l-6.2-0.3L304.9,73.5z"/>
		<path class="st2" d="M313.7,72.9h-4.4v-2.6c0-1.1-0.9-2-2-2h-7.2c-1.1,0-2,0.9-2,2v4.8c0,1.1,0.9,2,2,2v0.8c0,0.2,0,0.3,0.1,0.4
			c0.1,0.1,0.2,0.2,0.4,0.3c0.2,0.1,0.3,0.1,0.5,0c0.2,0,0.3-0.1,0.4-0.2l0,0l1-1.4h2v2.6c0,1.1,0.9,2,2,2h4.4l1.4,1.4
			c0.1,0.1,0.2,0.2,0.4,0.2h0.5c0.2,0,0.3-0.2,0.4-0.3c0.1-0.1,0.1-0.3,0.1-0.4v-0.8c1.1,0,2-0.9,2-2v-4.8c0-0.5-0.2-1-0.6-1.4
			C314.8,73.1,314.2,72.9,313.7,72.9z M302.3,76.3h-0.2c-0.1,0-0.1,0-0.1,0.1c0,0,0,0,0,0l-1.1,1.5v-1.2c0-0.2-0.1-0.4-0.3-0.4
			c0,0-0.1,0-0.1,0h-0.4c-0.3,0-0.6-0.1-0.8-0.4c-0.2-0.2-0.4-0.5-0.4-0.8v-4.8c0-0.3,0.1-0.6,0.4-0.8c0.2-0.2,0.5-0.4,0.8-0.4h7.2
			c0.3,0,0.6,0.1,0.8,0.4c0.2,0.2,0.4,0.5,0.4,0.8v2.6h-2c-0.4,0-0.9,0.1-1.2,0.4l-1.3-2.8c0-0.1-0.1-0.1-0.1-0.2s-0.1-0.1-0.2-0.1
			s-0.2,0-0.2,0.1s-0.1,0.1-0.1,0.2l-2,4.4v0.4c0,0.1,0,0.1,0.1,0.1l0,0l0.1,0.1h0.2c0.1,0,0.2,0,0.2-0.1s0.1-0.1,0.1-0.2l0.6-1.4h2
			v0.1c-0.2,0.3-0.2,0.6-0.2,0.9v1.4L302.3,76.3L302.3,76.3z M304.4,73.1h-1.3l0.7-1.4L304.4,73.1z M314.9,79.7
			c0,0.3-0.1,0.6-0.4,0.8c-0.3,0.2-0.5,0.4-0.8,0.4h-0.4c-0.2,0-0.4,0.1-0.4,0.3c0,0,0,0.1,0,0.1v1.2l-1.5-1.5
			c-0.1-0.1-0.2-0.1-0.3-0.1h-4.6c-0.3,0-0.6-0.1-0.8-0.4c-0.2-0.2-0.4-0.5-0.4-0.8v-4.8c0-0.3,0.1-0.6,0.4-0.8
			c0.2-0.2,0.5-0.4,0.8-0.4h7.2c0.3,0,0.6,0.1,0.8,0.4c0.2,0.3,0.4,0.5,0.4,0.8L314.9,79.7L314.9,79.7z"/>
		<path class="st2" d="M312.1,75.9h-1.6v-0.8c0-0.2-0.2-0.4-0.4-0.4c-0.2,0-0.4,0.2-0.4,0.4c0,0,0,0,0,0v0.8h-1.6
			c-0.2,0-0.4,0.2-0.4,0.4s0.2,0.4,0.4,0.4l0,0h3c-0.1,0.7-0.4,1.3-1,1.7c-0.3-0.2-0.5-0.6-0.7-0.9l-0.1-0.1l-0.1-0.1h-0.4l-0.1,0.1
			l-0.1,0.1v0.4c0.2,0.4,0.4,0.7,0.7,1c-0.3,0.2-0.7,0.2-1.1,0.2H308c-0.1,0-0.1,0-0.1,0.1c0,0,0,0,0,0l-0.1,0.1v0.2
			c0,0.2,0.1,0.4,0.3,0.4c0,0,0.1,0,0.1,0c0.6,0,1.3-0.2,1.8-0.5c0.6,0.3,1.2,0.5,1.8,0.5h0.2l0.1-0.1l0.1-0.1v-0.2
			c0-0.2-0.1-0.4-0.3-0.4c0,0-0.1,0-0.1,0c-0.4,0-0.7-0.1-1.1-0.2c0.6-0.6,1-1.4,1.1-2.2h0.2c0.2,0,0.4-0.2,0.4-0.5
			c0-0.1,0-0.2-0.1-0.2C312.3,75.9,312.2,75.9,312.1,75.9z"/>
	</g>
	<path class="st3" d="M320.2,62.6h0.3c0.2,0,0.5,0,0.7,0.1c1,0.2,1.9,0.6,2.6,1.3c0.5,0.5,0.9,1.1,1.2,1.7c0.3,0.8,0.5,1.6,0.4,2.5
		V84c-0.1,0.7-0.3,1.4-0.6,2.1c-0.4,0.7-0.9,1.3-1.5,1.7c-0.6,0.5-1.3,0.8-2.1,0.9c-0.8,0.1-1.6,0.1-2.4,0.1H301l-5.9,4.9l-0.3,0.3
		v-0.5c0.1-0.8,0.2-1.7,0.2-2.5c0.1-0.8,0.2-1.6,0.2-2.4l0.2,0.2h-1.6c-0.5,0-1-0.1-1.5-0.3c-1-0.4-1.8-1-2.4-1.9
		c-0.6-0.9-0.9-1.9-1-2.9V67.1c0.1-0.9,0.4-1.7,0.9-2.4c0.5-0.7,1.1-1.2,1.9-1.6c0.7-0.4,1.6-0.6,2.4-0.6h8.7l12.6,0.1H320.2
		c-0.1-0.1-0.2-0.1-0.3-0.1h-4.3L303,62.6h-8.7c-1.2,0-2.4,0.5-3.3,1.3c-0.9,0.8-1.5,1.9-1.6,3.1c-0.1,0.9-0.1,1.7,0,2.6v14
		c0,1,0.4,1.9,0.9,2.7c0.6,0.8,1.4,1.4,2.3,1.7c1,0.4,2,0.5,3,0.5h0.2v0.2c-0.1,0.7-0.1,1.6-0.2,2.4c-0.1,0.8-0.2,1.7-0.2,2.5
		l-0.3-0.2l5.9-4.9h18.1c0.8,0,1.5,0,2.3-0.1c0.7-0.1,1.4-0.4,2-0.9c0.6-0.4,1.1-1,1.4-1.6c0.3-0.6,0.5-1.3,0.6-2V68.1
		c0-0.8-0.1-1.6-0.4-2.4c-0.3-0.8-0.8-1.5-1.5-2c-0.6-0.5-1.4-0.9-2.2-1.1C320.6,62.6,320.2,62.7,320.2,62.6z"/>
	<path class="st7" d="M70,186.3c0.5-3.8-4.8-6.9-8.8-7.2c-1.9-0.2-3.9,0.1-5.7-0.5c-3.9-1.4-5.5-6.5-9.3-8.1
		c-2.9-1.2-6.1-0.1-8.9,1.3s-5.5,3.2-8.6,3.4c-2.7,0.2-5.6-0.8-8,0.5c-1.8,1-2.7,3-4.3,4.2s-3.6,1.4-5.6,1.5s-4,0.1-5.8,1
		s-3.3,2.7-2.9,4.7L70,186.3L70,186.3z"/>
	<path class="st7" d="M343,220.4c0.5-3.7-4.7-6.8-8.6-7.1c-1.9-0.1-3.8,0.1-5.6-0.5c-3.8-1.3-5.4-6.3-9.1-7.9
		c-2.8-1.2-6-0.1-8.8,1.2s-5.4,3.1-8.5,3.3c-2.6,0.2-5.5-0.8-7.8,0.5c-1.7,1-2.6,3-4.2,4.1c-1.6,1-3.6,1.6-5.5,1.5
		c-1.9-0.1-3.9,0.3-5.7,0.9c-1.8,0.8-3.2,2.7-2.8,4.6L343,220.4z"/>
	<path class="st21" d="M281.5,17.1H264c-1.4,0-2.6,0.5-3.6,1.5c-1,1-1.5,2.2-1.5,3.6v15.9c0,2.8,2.3,5.1,5.1,5.1h1.2l-0.5,4.9
		l5.9-4.9h10.9c1.4,0,2.7-0.5,3.6-1.5c1-1,1.5-2.2,1.5-3.6V22.3c0-0.7-0.1-1.4-0.4-2c-0.3-0.6-0.6-1.2-1.1-1.7
		c-0.5-0.5-1.1-0.9-1.7-1.1C282.8,17.2,282.2,17.1,281.5,17.1z"/>
	<g class="st20">
		<path class="st22" d="M272.6,33.6h-6.1c-0.5,0-0.8-0.3-0.8-0.6v-8.8c0-0.3,0.3-0.6,0.8-0.6h12c0.5,0,0.8,0.3,0.8,0.6V33
			c-0.1,0.4-0.4,0.6-0.8,0.6H272.6z"/>
		<path class="st3" d="M273.5,26.9h-0.2c-0.1,0-0.1,0.1-0.2,0.1l-1.5,3v0.2c0,0.1,0,0.1,0.1,0.1l0,0l0.1,0.1h0.2
			c0.1,0,0.1,0,0.1-0.1c0,0,0,0,0,0l0.1-0.1l1.5-3V27C273.6,27,273.6,26.9,273.5,26.9z"/>
		<path class="st3" d="M275.3,26.8c-0.1-0.1-0.1-0.1-0.2-0.1s-0.1,0-0.2,0.1s-0.1,0.1-0.1,0.2s0,0.1,0.1,0.2l1.4,1.4l-1.4,1.4
			l-0.1,0.1v0.2c0,0.1,0,0.1,0.1,0.1l0,0c0.1,0,0.1,0,0.1,0.1c0,0,0,0,0,0h0.2c0.1,0,0.1,0,0.1-0.1c0,0,0,0,0,0l1.6-1.6
			c0.1-0.1,0.1-0.1,0.1-0.2s0-0.1-0.1-0.2L275.3,26.8z"/>
		<path class="st3" d="M270.3,26.8c-0.1-0.1-0.1-0.1-0.2-0.1s-0.1,0-0.2,0.1l-1.6,1.6c-0.1,0.1-0.1,0.1-0.1,0.2s0,0.1,0.1,0.2
			l1.6,1.6c0.1,0.1,0.1,0.1,0.2,0.1s0.1,0,0.2-0.1s0.1-0.1,0.1-0.2s0-0.1-0.1-0.2l-1.4-1.4l1.4-1.4c0.1-0.1,0.1-0.1,0.1-0.2
			C270.3,26.9,270.3,26.9,270.3,26.8z"/>
	</g>
	<path class="st3" d="M281.5,17.1h0.2c0.2,0,0.4,0,0.6,0.1c0.8,0.1,1.6,0.4,2.2,0.9c1.1,0.8,1.8,1.9,2.1,3.2
		c0.1,0.8,0.1,1.6,0.1,2.4v14.4c0,0.7-0.1,1.3-0.4,1.9c-0.4,1-1.1,1.8-1.9,2.4c-0.9,0.6-1.9,0.9-2.9,1h-10.8l-5.9,4.9l-0.4,0.3v-0.5
		c0.1-0.8,0.2-1.7,0.2-2.5c0.1-0.8,0.2-1.6,0.2-2.4l0.2,0.2h-1.3c-0.4,0-0.9-0.1-1.3-0.2c-0.9-0.2-1.7-0.7-2.3-1.3
		c-0.6-0.6-1.1-1.4-1.4-2.3c-0.2-0.8-0.3-1.7-0.2-2.5V23.2c0-0.7,0-1.5,0.2-2.2c0.3-1,0.8-1.9,1.6-2.6c0.8-0.7,1.7-1.1,2.7-1.3
		c0.6-0.1,1.3-0.1,1.9-0.1h1.8l10.8,0.1l0,0l-10.8,0.1h-1.8c-0.6,0-1.2,0-1.8,0.1c-2,0.3-3.6,1.8-4.1,3.7c-0.1,0.7-0.2,1.4-0.2,2.1
		V37c-0.1,0.8,0,1.6,0.2,2.4c0.2,0.8,0.7,1.5,1.3,2.1c0.6,0.6,1.3,1,2.1,1.2c0.9,0.2,1.7,0.2,2.6,0.2h0.2v0.2
		c-0.1,0.7-0.1,1.6-0.2,2.4c-0.1,0.8-0.2,1.7-0.2,2.5l-0.3-0.2l5.9-4.9h9.1c1.4,0,2.8,0.2,4-0.4c1.2-0.5,2.1-1.5,2.6-2.7
		c0.3-1.2,0.5-2.4,0.4-3.6V23.7c0-0.8,0-1.6-0.1-2.4c-0.4-2.1-2-3.7-4.1-4.1C282,17.1,281.8,17.1,281.5,17.1z"/>
</g>
<g class="st20">
	<path class="st21" d="M99.5,103H82c-1.4,0-2.6,0.5-3.6,1.5c-1,1-1.5,2.2-1.5,3.6V124c0,1.3,0.6,2.6,1.5,3.6c0.9,1,2.2,1.5,3.6,1.5
		h1.2l-0.5,4.9l5.9-4.9h10.9c1.4,0,2.7-0.5,3.6-1.5c1-1,1.5-2.2,1.5-3.6v-15.9c0-0.7-0.1-1.4-0.4-2c-0.3-0.6-0.6-1.2-1.1-1.7
		c-0.5-0.5-1.1-0.9-1.7-1.1C100.8,103.1,100.1,103,99.5,103z"/>
	<path class="st3" d="M99.5,103h0.2c0.2,0,0.4,0,0.6,0.1c0.8,0.1,1.6,0.4,2.2,0.9c1.1,0.8,1.8,1.9,2.1,3.2c0.1,0.8,0.1,1.6,0.1,2.4
		V124c0,0.7-0.1,1.3-0.4,1.9c-0.4,1-1.1,1.8-1.9,2.4c-0.9,0.6-1.9,0.9-2.9,0.9H88.7l-5.9,4.9l-0.4,0.3v-0.5c0.1-0.8,0.2-1.7,0.2-2.5
		c0.1-0.8,0.2-1.6,0.2-2.4l0.2,0.2h-1.3c-0.4,0-0.9-0.1-1.3-0.2c-0.9-0.2-1.7-0.7-2.3-1.3c-0.6-0.6-1.1-1.4-1.4-2.3
		c-0.2-0.8-0.3-1.7-0.2-2.5V109c0-0.7,0-1.5,0.2-2.2c0.3-1,0.8-1.9,1.6-2.6c0.8-0.7,1.7-1.1,2.7-1.3c0.6-0.1,1.3-0.1,1.9-0.1h1.8
		l10.8,0.1l0,0L84.7,103h-1.8c-0.6,0-1.2,0-1.8,0.1c-2,0.3-3.6,1.8-4.1,3.7c-0.1,0.7-0.2,1.4-0.2,2.1v13.9c-0.1,0.8,0,1.6,0.2,2.4
		c0.2,0.8,0.7,1.5,1.3,2.1c0.6,0.6,1.3,1,2.1,1.2c0.9,0.2,1.7,0.2,2.6,0.2h0.2v0.2c-0.1,0.7-0.1,1.6-0.2,2.4
		c-0.1,0.8-0.2,1.7-0.2,2.5l-0.3-0.2l5.9-4.9h9.1c1.4,0,2.8,0.2,4-0.4c1.2-0.5,2.1-1.5,2.6-2.7c0.3-1.2,0.5-2.4,0.4-3.6v-12.5
		c0-0.8,0-1.6-0.1-2.4c-0.4-2.1-2-3.7-4.1-4.1H99.5z"/>
	<g class="st20">
		<path class="st6" d="M82.8,110.7l15.2-0.2l0.1,5l-0.7,0.3l0.1,7.1L83.8,123l-0.1-7.5l-0.8-0.3L82.8,110.7z"/>
		<path class="st19" d="M87.1,109.3c0-0.9,0.7-1.7,1.6-1.7H92c0.9,0,1.7,0.7,1.7,1.6v1h4.6l0.1,5.6h-0.7l0.1,7.6l-14.6,0.2l-0.1-7.6
			h-0.7l-0.1-5.6h4.6L87.1,109.3z M93.1,109.2c0-0.5-0.5-1-1-1h-3.3c-0.5,0-1,0.5-1,1v1l5.3-0.1L93.1,109.2z M97.2,121.2
			c-0.8,0.1-1.5,0.8-1.6,1.6h1.6V121.2z M85.6,122.9c-0.1-0.8-0.8-1.5-1.6-1.6v1.6H85.6z M83.9,120.6c1.2,0.1,2.2,1.1,2.3,2.3
			l8.7-0.1c0.1-1.2,1.1-2.2,2.3-2.3v-4.7h-4.6v2h-1.7v0.7h-0.7v-0.7h-1.7v-2h-4.6V120.6z M90.8,116.6v0.7h1V116h-2.7v1.3h1v-0.7
			L90.8,116.6z M83.2,115.3l5.3-0.1h4l5.3-0.1v-4.3L83.1,111L83.2,115.3z"/>
	</g>
</g>
<g class="st20">
	<path class="st21" d="M138.7-3h17.5c1.4,0,2.6,0.5,3.6,1.5c1,1,1.5,2.2,1.5,3.6V18c0,1.3-0.6,2.6-1.5,3.6c-0.9,1-2.2,1.5-3.6,1.5
		H155l0.5,4.9l-5.9-4.9h-10.9c-1.4,0-2.7-0.5-3.6-1.5c-1-1-1.5-2.2-1.5-3.6V2.1c0-0.7,0.1-1.4,0.4-2c0.3-0.6,0.6-1.2,1.1-1.7
		c0.5-0.5,1.1-0.9,1.7-1.1C137.4-2.9,138.1-3,138.7-3z"/>
	<path class="st6" d="M141.4,15.4v-4.5c0-0.1,0.1-0.2,0.2-0.2h11.2c0.1,0,0.2,0.1,0.2,0.2v4.5c0,0.1,0,0.1-0.1,0.1l0,0
		c-3.3,2.8-8.1,2.8-11.4,0L141.4,15.4z"/>
	<path class="st23" d="M141.8,11.1v4.2c3.1,2.5,7.6,2.5,10.7,0v-4.2H141.8z M141,10.9c0-0.3,0.3-0.6,0.6-0.6h11.2
		c0.3,0,0.6,0.2,0.6,0.6c0,0,0,0,0,0v4.5c0,0.2-0.1,0.3-0.2,0.4c-3.5,2.9-8.4,2.9-11.9,0c-0.1-0.1-0.2-0.2-0.2-0.4v-4.5L141,10.9z"
		/>
	<path class="st6" d="M147.2,2.4l-10.3,5.5c-0.1,0.1-0.1,0.2,0,0.3c0,0,0,0,0,0l10.3,5.6h0.2l10.2-5.6c0.1-0.1,0.1-0.2,0-0.3
		c0,0,0,0,0,0l-10.2-5.5H147.2z"/>
	<path class="st23" d="M147.3,2.9l-9.8,5.2l9.8,5.4l9.7-5.4L147.3,2.9z M147,2.1c0.2-0.1,0.3-0.1,0.5,0l10.2,5.5
		c0.3,0.2,0.4,0.5,0.2,0.8c-0.1,0.1-0.1,0.2-0.2,0.2l-10.2,5.6c-0.2,0.1-0.3,0.1-0.5,0l-10.3-5.6c-0.3-0.2-0.4-0.5-0.2-0.8
		c0.1-0.1,0.1-0.2,0.2-0.2L147,2.1z"/>
	<path class="st23" d="M155.7,9.9l-8.6-1.3l0.1-0.8l8.8,1.3c0.3,0,0.5,0.3,0.5,0.6v2.4h-0.8V9.9z"/>
	<path class="st6" d="M155.4,17.6h1.4c0.1,0,0.2-0.1,0.2-0.2v-4.3c0.1-0.5-0.3-1-0.8-1s-1,0.3-1,0.8c0,0.1,0,0.2,0,0.3v4.2
		C155.2,17.5,155.3,17.6,155.4,17.6z"/>
	<path class="st23" d="M155.8,12.6c-0.1,0.1-0.2,0.3-0.2,0.5v4h1v-4c0-0.5-0.3-0.7-0.5-0.7S155.9,12.6,155.8,12.6z M156.1,11.7
		c0.8,0,1.3,0.7,1.3,1.5c0,0,0,0,0,0v4.3c0,0.3-0.3,0.6-0.6,0.6h-1.4c-0.3,0-0.6-0.3-0.6-0.6v-4.2l0,0c0-0.4,0.1-0.8,0.4-1.1
		C155.4,11.9,155.7,11.7,156.1,11.7z"/>
	<path class="st3" d="M138.7-3h-0.2c-0.2,0-0.4,0-0.6,0.1c-0.8,0.1-1.6,0.4-2.2,0.9c-1.1,0.8-1.8,1.9-2.1,3.2
		c-0.1,0.8-0.1,1.6-0.1,2.4V18c0,0.7,0.1,1.3,0.4,1.9c0.4,1,1.1,1.8,1.9,2.4c0.9,0.6,1.9,0.9,2.9,1h10.8l5.9,4.9l0.4,0.3V28
		c-0.1-0.8-0.2-1.7-0.2-2.5c-0.1-0.8-0.2-1.6-0.2-2.4l-0.2,0.2h1.3c0.4,0,0.9-0.1,1.3-0.2c0.9-0.2,1.7-0.7,2.3-1.3
		c0.7-0.6,1.2-1.4,1.4-2.3c0.2-0.8,0.3-1.7,0.2-2.5V3.1c0-0.7,0-1.5-0.2-2.2c-0.3-1-0.8-1.9-1.6-2.6c-0.8-0.7-1.7-1.1-2.7-1.3
		c-0.6-0.1-1.3-0.1-1.9-0.1h-1.8L142.7-3h-0.1l10.8,0.1h1.8c0.6,0,1.2,0,1.8,0.1c2,0.3,3.6,1.8,4.1,3.7c0.1,0.7,0.2,1.4,0.2,2.1
		v13.9c0.1,0.8,0,1.6-0.2,2.4c-0.2,0.8-0.7,1.5-1.3,2.1c-0.6,0.6-1.3,1-2.1,1.2c-0.9,0.2-1.7,0.2-2.6,0.2h-0.2V23
		c0.1,0.7,0.1,1.6,0.2,2.4c0.1,0.8,0.2,1.7,0.2,2.5l0.3-0.2l-5.9-4.9h-9.1c-1.4,0-2.8,0.2-4-0.4c-1.2-0.5-2.1-1.5-2.6-2.7
		c-0.3-1.2-0.5-2.4-0.4-3.6V3.6c0-0.8,0-1.6,0.1-2.4c0.2-1,0.7-2,1.4-2.7c0.7-0.7,1.7-1.2,2.7-1.4C138.1-3,138.4-3,138.7-3z"/>
</g>
<path class="st24" d="M257,180.8c0,0-3.2,33.5-2.1,39.4s39.1,31.6,39.1,31.6l5.8-7.3c0,0-9.1-12.6-17.3-19.9s-10.4-8.8-10.4-8.8
	l0.7-3.7l4.5-27.9L257,180.8z"/>
<path class="st24" d="M278.8,183.1l0.7,32.9l3.1,45.9h8c0,0,3.6-21.5,3.4-32.7s-0.1-15.3,0-16.7s3.9-16.5,4.8-27.7
	s-4.8-14.2-4.8-14.2L278.8,183.1z"/>
<path class="st25" d="M278.8,183.1l0.3-0.2l0.8-0.6l3-2.5l11.2-9.3h0.1c1,0.6,1.9,1.5,2.5,2.5c0.7,1.1,1.2,2.2,1.6,3.4
	c0.8,2.7,1,5.4,0.8,8.2c-0.5,6.3-1.5,12.6-2.9,18.8c-0.4,1.7-0.7,3.4-1.1,5.1l-0.5,2.6c-0.1,0.4-0.2,0.9-0.2,1.3
	c0,0.5,0,0.9-0.1,1.4c-0.1,3.6,0,7.4,0,11.2c0,1.9,0.1,3.8,0,5.8c0,1-0.1,2-0.1,3s-0.1,2-0.2,3c-0.3,4-0.7,8-1.3,12.1
	c-0.6,4.4-1.2,8.8-1.9,13v0.1h-8.3v-0.1c-0.8-11.3-1.5-21.8-2.1-31.3c-0.3-4.7-0.6-9.2-0.9-13.4c-0.1-1-0.1-2.1-0.1-3.1s0-2-0.1-3
	c0-1.9-0.1-3.8-0.1-5.5c-0.1-7-0.2-12.7-0.3-16.5c0-1.9,0-3.4-0.1-4.4v-1.1C278.8,183.4,278.9,183.2,278.8,183.1l0,1.6
	c0,1,0.1,2.5,0.1,4.4c0.1,3.9,0.2,9.5,0.4,16.5c0,1.8,0.1,3.6,0.1,5.5c0,1,0,1.9,0.1,3s0,2,0.1,3.1c0.3,4.2,0.6,8.7,0.9,13.4
	c0.7,9.5,1.4,20,2.2,31.3l-0.1-0.1h8l-0.1,0.1c0.7-4.2,1.3-8.6,1.9-13c0.5-4.1,1-8.1,1.3-12.1c0.1-1,0.1-2,0.2-3s0.1-2,0.1-2.9v-5.8
	c0-3.8-0.1-7.6,0-11.2c0-0.5,0-0.9,0.1-1.4c0-0.5,0.2-0.9,0.2-1.3c0.2-0.9,0.4-1.8,0.5-2.6c0.4-1.7,0.7-3.4,1.1-5.1
	c1.4-6.2,2.4-12.5,2.9-18.8c0.2-2.7,0-5.5-0.8-8.1c-0.4-1.2-0.9-2.3-1.6-3.4c-0.6-1-1.4-1.8-2.4-2.4h0.1l-11.3,9.2l-3,2.4L279,183
	L278.8,183.1z"/>
<path class="st2" d="M281.6,258.5v0.6c0,0-10.5,4.1-10.6,6.1h20.7l-0.3-6.9c-1.5,0.7-3.2,1.1-4.9,1.2
	C284.8,259.5,283.1,259.2,281.6,258.5z"/>
<g class="st9">
	<path class="st6" d="M289.4,260.5c0.2,0.1,0.4,0.2,0.5,0.4c0.1,0.2,0.1,0.4,0.1,0.6c-0.1,0.2-0.2,0.4-0.4,0.5
		c-0.2,0.1-0.4,0.1-0.6,0.1c-0.2-0.1-0.4-0.2-0.5-0.4c-0.1-0.2-0.2-0.4-0.1-0.6c0.1-0.2,0.2-0.4,0.4-0.5
		C289,260.5,289.2,260.5,289.4,260.5"/>
</g>
<g class="st9">
	<path class="st6" d="M291.8,265.2l-0.1-1.6l-19.9,0.6c0,0-0.9,0.4-0.8,1.1L291.8,265.2z"/>
</g>
<path class="st3" d="M281.6,259.1c0,0.1,0.5,0.1,1,0.5s0.8,0.8,0.9,0.7s-0.1-0.6-0.7-1C282.4,259.1,282,259,281.6,259.1z"/>
<path class="st3" d="M279.4,260c0,0.1,0.4,0.3,0.8,0.7s0.4,0.9,0.5,0.9s0.2-0.6-0.3-1.1C280.2,260.2,279.8,260,279.4,260z"/>
<path class="st3" d="M278.1,262.6c0.1,0,0.2-0.5,0-1s-0.7-0.8-0.8-0.7s0.3,0.4,0.5,0.8S278,262.6,278.1,262.6z"/>
<path class="st3" d="M269,80.2c2.4,1.5,3.9,4.1,4.1,7c0,1.4-0.1,3,0.9,3.9s2.7,0.7,3.7,1.6c1.1,1.1,0.5,3.1,1.1,4.6
	c0.3,0.7,0.8,1.3,1.5,1.6c0.7,0.4,1.5,0.5,2.2,0.3c-1.6,1.6-3.6,2.8-5.8,3.4l-2-2c0.3,0.4,0.5,0.9,0.6,1.4c0,0.5-0.1,1-0.4,1.4
	c-0.6,0.8-1.4,1.5-2.4,1.8c-2.2,1-4.7,1.4-7.1,1.3c-2.4-0.1-4.8-0.8-6.9-2"/>
<path class="st3" d="M244.8,95.2c0.2-1.1,0.7-2.1,0.8-3.2c0.2-2.4-1.2-4.8-0.3-7.1c0.6-1.6,2.2-2.5,3.8-3.2c1.6-0.5,3.1-1.4,4.3-2.6
	c0.8-1,1.1-2.2,1.9-3.2c1.2-1.3,2.9-2.1,4.7-2.3c1.8-0.4,3.7-0.3,5.4,0.3c1.8,0.6,3.1,1.9,3.7,3.7c0.1,0.9,0.3,1.8,0.6,2.6
	c0.5,0.8,1.1,1.6,1.8,2.3c0.6,0.9,0.8,1.9,0.7,2.9c-0.1,1-0.5,2-1.2,2.8l-10.6,17.4c-2.5,1.3-8.9,0.8-11.2-0.9S244.2,98,244.8,95.2z
	"/>
<path class="st24" d="M270.3,86.2c-0.9-3.6-4.2-7.5-7.7-6.5l-10.7,5c-0.5,0.2-0.9,0.5-1.2,1c-0.3,0.4-0.4,1-0.3,1.5l5,26.5h-0.1
	c-0.1,0-0.1,0-0.1,0.1c0,0,0,0,0,0v0.2c1.6,1.8,8.9,9.6,15.1,6.2c1.4-0.7-0.7-5.1-0.8-6.9l-0.7-4.3c-0.3-1-0.4-2.1-0.5-3.1
	c0,0,4.5-1.6,4.3-7.9C272.2,94,271.4,90,270.3,86.2z"/>
<path class="st3" d="M269.3,91.8c0,0.2,0,0.4-0.1,0.6c-0.1,0.2-0.3,0.3-0.5,0.3h-0.3c-0.1,0-0.2,0-0.3-0.1c-0.1-0.1-0.2-0.1-0.2-0.2
	c-0.1-0.1-0.1-0.2-0.1-0.3c0-0.2,0-0.4,0.1-0.6c0.1-0.2,0.3-0.3,0.5-0.3h0.3c0.1,0,0.2,0,0.3,0.1c0.1,0.1,0.2,0.1,0.2,0.2
	C269.3,91.6,269.3,91.7,269.3,91.8z"/>
<path class="st3" d="M261.8,93.7c0,0.2,0,0.4-0.1,0.6c-0.1,0.2-0.3,0.3-0.5,0.3h-0.3c-0.1,0-0.2,0-0.3-0.1c-0.1-0.1-0.2-0.1-0.2-0.2
	c-0.1-0.1-0.1-0.2-0.1-0.3c0-0.2,0-0.4,0.1-0.6c0.1-0.2,0.3-0.3,0.5-0.3h0.3c0.1,0,0.2,0,0.3,0.1c0.1,0.1,0.2,0.1,0.2,0.2
	C261.8,93.5,261.8,93.6,261.8,93.7z"/>
<path class="st3" d="M270.1,89c-0.1,0.2-0.8-0.2-1.7,0s-1.4,0.9-1.5,0.8s0-0.3,0.2-0.6c0.3-0.4,0.7-0.7,1.2-0.8
	c0.5-0.1,1-0.1,1.4,0.1C270,88.7,270.1,88.9,270.1,89z"/>
<path class="st3" d="M262.1,90.9c-0.6-0.1-1.2-0.1-1.8-0.1c-1,0.2-1.6,0.8-1.7,0.7s0-0.3,0.3-0.6c0.4-0.4,0.9-0.6,1.4-0.7
	c0.5-0.1,1.1,0,1.5,0.3C262,90.6,262.1,90.7,262.1,90.9z"/>
<path class="st3" d="M265.8,96.3c0.4-0.2,0.8-0.4,1.3-0.5c0.2-0.1,0.4-0.1,0.4-0.3c0-0.2-0.1-0.4-0.3-0.6l-0.9-1.5
	c-0.9-1.3-1.6-2.6-2.2-4c1,1.2,1.8,2.4,2.5,3.8l0.9,1.5c0.2,0.2,0.3,0.5,0.3,0.8c0,0.1,0,0.1-0.1,0.2l-0.2,0.2
	c-0.1,0.1-0.2,0.1-0.4,0.1C266.7,96.2,266.3,96.3,265.8,96.3z"/>
<path class="st25" d="M268.3,106c-2.8,0.6-5.8,0.4-8.5-0.6c0,0,2.9,3.8,8.8,2.1L268.3,106z"/>
<path class="st25" d="M265.8,98.4c-0.2-0.1-0.5-0.2-0.7-0.2c-0.2,0-0.5,0.1-0.7,0.2c-0.2,0.1-0.3,0.2-0.4,0.4
	c-0.1,0.1-0.2,0.3-0.2,0.5v0.5c0.1,0.2,0.2,0.3,0.3,0.4c0.2,0.1,0.4,0.1,0.6,0.1c0.2,0,0.4-0.1,0.5-0.3c0.3-0.3,0.6-0.6,0.7-1
	c0.1-0.1,0.1-0.2,0.1-0.3v-0.2C265.9,98.5,265.9,98.5,265.8,98.4"/>
<path class="st3" d="M263.6,97.8c0.3,0.6,0.7,1,1.2,1.4c0.6,0.2,1.3,0.4,1.9,0.3c0,0.1-0.2,0.2-0.6,0.3c-0.5,0.1-1.1,0-1.6-0.2
	c-0.5-0.2-0.8-0.7-1-1.2C263.5,98.1,263.5,97.8,263.6,97.8z"/>
<path class="st3" d="M261.8,88.6c0,0.2-0.9,0.3-1.8,0.6s-1.7,0.7-1.9,0.5s0-0.3,0.3-0.6c0.4-0.4,0.8-0.6,1.3-0.8
	c0.5-0.2,1-0.2,1.5-0.1C261.6,88.4,261.8,88.5,261.8,88.6z"/>
<path class="st3" d="M268.8,85.7c-0.1,0.2-0.8,0.2-1.6,0.3s-1.4,0.4-1.6,0.2s0-0.3,0.2-0.5c0.4-0.3,0.8-0.5,1.2-0.6
	c0.5-0.1,0.9,0,1.4,0.1C268.8,85.4,268.9,85.6,268.8,85.7z"/>
<path class="st3" d="M249.5,85.9c0.6-0.9,1.4-1.6,2.3-2c4-2.1,8.2-3.7,12.5-4.8c0.7,0.8,0.3,2.1-0.5,2.9c-0.8,0.7-1.7,1.2-2.7,1.6
	c-1,0.4-1.8,1.2-2.2,2.2c-0.3,1,0.2,2.3-0.1,3.4c-0.4,1.9-2.9,2.8-3.4,4.7c-0.3,1.4,0.6,2.8,1,4.2c0.2,0.7,0.2,1.5,0.1,2.2
	c-0.1,0.7-0.4,1.5-0.8,2.1c-0.4,0.6-1,1.1-1.6,1.5c-0.6,0.4-1.4,0.6-2.1,0.7L249.3,89C249.1,88,249.1,86.9,249.5,85.9z"/>
<path class="st3" d="M240.5,100.3c0.7-0.8,1.7-1.6,1.9-2.7c0.3-1.6-1.1-3.3-0.5-4.8s2.7-1.6,3.3-2.9c0.4-1.1-0.3-1.9-0.2-2.8
	c0.3-1,1.1-1.8,2.2-1.9l8.3,9.5c1.1,3.4,1.9,5.2,1.4,7.3c-0.4,1.1-0.6,2.3-0.7,3.5c-0.1,1.2,0.5,2.4,1.5,3.1
	c-4.2,0.8-8.5-0.9-12.4-2.7l-4.2-1.8c-0.5-0.1-0.9-0.4-1.2-0.8C239.2,102.5,239.8,101.2,240.5,100.3z"/>
<path class="st2" d="M245,104.9h0.5c0.4,0,0.9-0.1,1.3-0.2c0.7-0.2,1.3-0.6,1.7-1.2c0.9-1.2,1.2-2.8,0.6-4.2c-0.3-0.5-0.6-1-1-1.5
	c-0.4-0.5-0.8-1-1-1.6c-0.3-0.6-0.3-1.2,0-1.8c0.4-0.5,1-0.9,1.7-1.1c0.3-0.2,0.6-0.5,0.8-0.8c0.2-0.4,0.2-0.8,0.2-1.2
	c-0.2-0.8-0.4-1.5-0.7-2.2c-0.1-0.4-0.2-0.7-0.1-1.1c0-0.4,0.2-0.7,0.5-0.9c0.6-0.5,1.3-0.7,2.1-0.8c0.8-0.1,1.5-0.4,2.1-0.9
	c0.6-0.5,1.1-1.1,1.3-1.8c0.2-0.7,0.3-1.4,0.3-2.1c0-0.7,0.1-1.3,0.2-2c0.1-0.6,0.4-1.1,0.8-1.6c0.7-0.9,1.7-1.5,2.8-1.7
	c0.9-0.2,1.8-0.1,2.7,0.2c0.7,0.2,1.3,0.6,1.8,1.1c0.4,0.4,0.8,0.8,1.2,1.3l-0.1-0.1c-0.1-0.1-0.1-0.2-0.2-0.3
	c-0.7-1-1.6-1.7-2.7-2.1c-0.9-0.4-1.9-0.5-2.8-0.3c-1.1,0.2-2.2,0.8-2.9,1.7c-0.4,0.5-0.7,1.1-0.9,1.7c-0.1,0.7-0.2,1.3-0.2,2
	c0,0.7-0.1,1.4-0.3,2c-0.3,0.7-0.7,1.2-1.2,1.7c-0.6,0.4-1.3,0.7-2,0.8c-0.8,0.1-1.6,0.4-2.2,0.9c-0.3,0.3-0.5,0.7-0.6,1.1
	c0,0.4,0,0.8,0.1,1.2c0.3,0.7,0.6,1.4,0.7,2.1c0.1,0.3,0,0.7-0.1,1c-0.2,0.3-0.4,0.5-0.7,0.7c-0.3,0.2-0.7,0.4-1,0.5
	c-0.3,0.2-0.6,0.4-0.8,0.7c-0.2,0.3-0.2,0.7-0.2,1c0,0.3,0.1,0.7,0.2,1c0.3,0.6,0.6,1.1,1.1,1.6c0.4,0.4,0.7,0.9,1,1.4
	c0.2,0.5,0.3,1,0.3,1.5c0,0.9-0.3,1.8-0.9,2.5c-0.4,0.6-1,1-1.7,1.2C246.2,104.7,245.6,104.9,245,104.9z"/>
<path class="st3" d="M238.5,98.2c-0.1,0.1-0.1,0.2-0.1,0.4c0,0.4,0.1,0.7,0.3,1c0.2,0.2,0.4,0.4,0.6,0.5c0.3,0.1,0.6,0.2,0.9,0.1
	c0.4-0.1,0.8-0.2,1.1-0.5c0.3-0.3,0.5-0.6,0.7-0.9c0.2-0.4,0.2-0.9,0.2-1.3c-0.1-0.5-0.2-1-0.5-1.4c-0.4-0.9-1.2-1.7-1.3-2.8
	c-0.1-0.3-0.1-0.5,0-0.8c0.1-0.2,0.2-0.5,0.3-0.7c0.4-0.4,0.9-0.6,1.5-0.7c0.6,0,1.2-0.2,1.8-0.4c0.3-0.2,0.5-0.4,0.7-0.7
	c0.1-0.3,0.2-0.7,0.2-1c0-0.6-0.2-1.3-0.4-1.9c-0.2-0.6-0.2-1.2-0.1-1.8c0.2-1.1,0.8-2.1,1.7-2.8c0.9-0.6,1.9-0.9,2.9-1
	c0.9-0.1,1.8-0.4,2.7-0.7c0.7-0.3,1.3-0.8,1.8-1.4c0.4-0.4,0.7-0.9,0.9-1.5c0.2-0.4,0.3-0.9,0.4-1.4c-0.1,0.5-0.3,0.9-0.4,1.4
	c-0.2,0.5-0.5,1-0.9,1.4c-0.5,0.5-1.1,1-1.7,1.4c-0.8,0.4-1.7,0.6-2.6,0.7c-1.1,0.1-2.1,0.5-3,1c-1,0.7-1.6,1.8-1.8,3
	c-0.1,0.6-0.1,1.3,0.1,1.9c0.2,0.6,0.3,1.2,0.4,1.8c0,0.3,0,0.6-0.2,0.9c-0.1,0.3-0.3,0.5-0.6,0.6c-0.5,0.2-1.1,0.4-1.7,0.4
	c-0.6,0-1.2,0.3-1.6,0.8c-0.2,0.2-0.3,0.5-0.4,0.8c-0.1,0.3-0.1,0.6,0,0.9c0.1,0.6,0.3,1.1,0.6,1.6c0.2,0.4,0.5,0.9,0.8,1.3
	c0.2,0.4,0.4,0.8,0.5,1.3c0.1,0.4,0,0.9-0.1,1.3c-0.1,0.4-0.3,0.7-0.6,0.9c-0.3,0.2-0.6,0.4-1,0.4h-0.7l-0.6-0.3
	c-0.2-0.1-0.3-0.3-0.4-0.5c-0.1-0.2-0.1-0.5-0.1-0.7C238.5,98.5,238.5,98.4,238.5,98.2z"/>
<path class="st3" d="M283.8,95.6c0.2,0.3,0.2,0.7,0.1,1.1c0,0.2-0.1,0.4-0.3,0.6c-0.1,0.2-0.3,0.3-0.5,0.4c-0.3,0.1-0.6,0.2-0.9,0.1
	c-0.3,0-0.6-0.2-0.8-0.4c-0.2-0.2-0.4-0.6-0.5-0.9c-0.1-0.4-0.1-0.7,0-1.1c0.3-0.8,0.4-1.7,0.3-2.5c-0.1-0.5-0.3-0.9-0.5-1.3
	c-0.3-0.4-0.6-0.7-1-1c-0.4-0.3-0.9-0.5-1.4-0.5c-0.5-0.1-1-0.1-1.5,0h-1.5c-0.5,0-0.9-0.2-1.2-0.6c-0.3-0.3-0.5-0.8-0.5-1.2
	c-0.1-0.4-0.1-0.9,0-1.3c0.1-0.8,0.2-1.7,0.1-2.5c-0.1-0.7-0.5-1.4-1-2c-0.4-0.4-0.9-0.8-1.5-1l-1.2-0.6c-0.3-0.2-0.6-0.5-0.8-0.8
	v0.1c0,0.1,0.1,0.1,0.1,0.2c0.2,0.2,0.4,0.5,0.6,0.6c0.4,0.3,0.8,0.5,1.2,0.7c0.5,0.3,1,0.6,1.5,1c0.5,0.5,0.8,1.2,0.9,1.9
	c0.1,0.8,0,1.7-0.1,2.5c-0.1,0.5-0.1,0.9,0,1.4c0.1,0.5,0.3,0.9,0.6,1.3c0.4,0.4,0.9,0.6,1.4,0.7h1.5c0.5,0,1,0,1.5,0
	c0.5,0.1,0.9,0.3,1.3,0.5c0.4,0.2,0.7,0.5,1,0.9c0.3,0.4,0.4,0.8,0.5,1.2c0.1,0.8,0,1.6-0.3,2.4c-0.1,0.4-0.1,0.8,0,1.2
	c0.1,0.3,0.3,0.7,0.5,0.9c0.3,0.2,0.6,0.3,0.9,0.4c0.3,0,0.6,0,0.9-0.1c0.2-0.1,0.4-0.3,0.5-0.5l0.3-0.6c0.1-0.3,0-0.6-0.1-0.9
	C283.9,95.8,283.9,95.7,283.8,95.6z"/>
<path class="st3" d="M292.5,155.5c2.6,4.1,4.7,8.5,6.4,13c2,6,1.2,20.6,1.2,20.6l-21.3,2.1l-0.7-5.7l-0.7,5.6l-22.6,0.9l1.6-15.9
	l-0.9-12.1L292.5,155.5z"/>
<path class="st2" d="M274.1,169.3c0.1,0,1.1,3.6,2.2,8s2,8,1.9,8.1s-1.1-3.6-2.2-8S274,169.4,274.1,169.3z"/>
<path class="st2" d="M291.9,169l-1.8,0.5c-1.5,0.4-2.9,1-4.3,1.6c-1.4,0.6-2.8,1.4-4.1,2.2c-0.5,0.4-1,0.7-1.6,1
	c0-0.1,0.1-0.1,0.4-0.4s0.6-0.5,1.1-0.8c2.6-1.8,5.5-3.1,8.5-3.9c0.6-0.1,1.1-0.3,1.4-0.3C291.6,169,291.8,169,291.9,169z"/>
<path class="st2" d="M298.2,166.4c-0.5,0.1-0.9,0.2-1.4,0.1c-1.2,0-2.3-0.2-3.4-0.5c-1.1-0.3-2.1-0.8-3.1-1.4
	c-0.4-0.2-0.8-0.5-1.1-0.9c1.4,0.8,2.8,1.5,4.3,2C295,166.2,296.6,166.4,298.2,166.4z"/>
<path class="st2" d="M261.2,169.6c0,0.3,0,0.6-0.2,0.9c-0.3,0.7-0.8,1.3-1.4,1.8c-0.6,0.4-1.2,0.9-1.7,1.4c-0.2,0.2-0.4,0.4-0.7,0.5
	c0.2-0.3,0.4-0.5,0.6-0.7c0.5-0.5,1.1-1,1.7-1.4c0.5-0.5,1-1,1.4-1.6L261.2,169.6z"/>
<path class="st2" d="M276.8,169.5c0,0,0-0.1,0.2-0.2c0.1-0.1,0.2-0.1,0.3-0.1c0.1,0,0.3,0,0.4,0.1c0.2,0.1,0.3,0.2,0.4,0.3
	c0.1,0.2,0.2,0.4,0.1,0.6c0,0.2-0.1,0.4-0.2,0.6c-0.1,0.2-0.3,0.3-0.5,0.4c-0.2,0.1-0.5,0.1-0.7,0.1c-0.2,0-0.4-0.1-0.6-0.3
	c-0.2-0.1-0.3-0.3-0.3-0.5c0-0.2,0-0.3,0.1-0.5c0-0.1,0.1-0.2,0.2-0.3s0.2-0.1,0.3-0.2S276.8,169.4,276.8,169.5c0-0.1-0.1-0.1-0.2,0
	c-0.1,0-0.2,0.1-0.2,0.2c-0.1,0.1-0.1,0.2-0.1,0.3c-0.1,0.1-0.1,0.3,0,0.4c0,0.1,0.1,0.3,0.2,0.3c0.1,0.1,0.3,0.2,0.5,0.2
	c0.2,0,0.4,0,0.5-0.1c0.2-0.1,0.3-0.2,0.4-0.3c0.1-0.1,0.2-0.3,0.2-0.5c0-0.1,0-0.3-0.1-0.4l-0.3-0.3c-0.1,0-0.2-0.1-0.3-0.1h-0.3
	C276.9,169.5,276.8,169.5,276.8,169.5z"/>
<path class="st15" d="M246.6,115.5l8.4-3.7c0,0,4.7,4.4,10.2,2.7c2-0.7,3.4-2.4,3.9-4.4l9.8,0.5l4.3,18.6l0.1,10.6l10.9,18.3
	c0,0-13.3,13.9-39.7,9.5l-1.6-20.7c0,0-4.1-11.1-4.3-14.8s0-8.1,0-8.1L246.6,115.5z"/>
<path class="st3" d="M277.4,139.6c-0.1,0.2-0.3,0.4-0.5,0.5c-0.5,0.5-1,1-1.5,1.4c-3.3,3-7.2,5.4-11.4,6.9c-0.6,0.2-1.3,0.4-1.9,0.6
	c-0.2,0.1-0.5,0.1-0.7,0.2c0.2-0.1,0.5-0.2,0.7-0.3c0.4-0.2,1.1-0.4,1.9-0.7c2.1-0.8,4.1-1.8,6-3c1.9-1.2,3.7-2.5,5.4-3.9
	c0.6-0.5,1.2-1,1.5-1.3C277,139.8,277.2,139.7,277.4,139.6z"/>
<g class="st16">
	<path d="M287,146.3c-0.6,0.3-1.3,0.4-2,0.3c-0.7-0.1-1.3-0.4-1.8-0.8c-0.9-0.9-1.7-2-2.2-3.2l-4-7.9c-4.7-1.4-9.8-1.1-14.3,0.8
		c-0.7,0.3-1.3,0.7-1.9,1.2c-0.6,0.9-0.9,1.9-1,2.9c-0.1,2.5-0.6,5-1.5,7.3c-0.9,2.4-2.8,4.2-5.2,5.1l-1.3-11.2l3.7-8.9l17.6-3.3
		l7.3,2.7l4.9,12.1L287,146.3z"/>
</g>
<path class="st15" d="M247.6,115.2c0,0-4.2,0.4-5.8,5.9c-1,3.9-1.7,7.8-2.2,11.8l10.2,0.5v-9.9L247.6,115.2z"/>
<path class="st15" d="M278.8,110.7c2,0,3.8,0.7,5.3,2c2.2,2.1,7.1,10.2,7.1,10.2l-9.9,3.3l-3.2-9.8L278.8,110.7z"/>
<path class="st3" d="M247.1,125.6c0.2,0.4,0.4,0.8,0.5,1.2c0.3,0.8,0.7,1.8,1.1,2.8l1.1,2.8c0.2,0.4,0.3,0.8,0.4,1.2
	c-0.2-0.4-0.4-0.7-0.6-1.1c-0.3-0.7-0.8-1.7-1.2-2.8s-0.8-2.1-1-2.9C247.2,126.4,247.1,126,247.1,125.6z"/>
<path class="st3" d="M280,118.4c0.6,1.5,1,3.1,1.4,4.7c0.5,1.6,0.9,3.2,1.1,4.8c-0.6-1.5-1-3.1-1.4-4.7
	C280.7,121.6,280.3,120,280,118.4z"/>
<path class="st24" d="M270.5,220.1l2.4-6.6L270.5,220.1z"/>
<path class="st25" d="M272.9,213.4c-0.3,1.2-0.6,2.3-1.1,3.4c-0.4,1.1-0.8,2.2-1.3,3.3C271.2,217.8,272,215.6,272.9,213.4z"/>
<path class="st3" d="M259.8,112.9l1.4,14.8c0,0.2,0.1,0.5,0.3,0.6c0.2,0.2,0.4,0.2,0.7,0.2l9.5-0.7c0.3,0,0.5-0.1,0.7-0.3
	c0.2-0.2,0.3-0.4,0.2-0.7l-0.9-15.6c0-0.1,0-0.3-0.1-0.4c-0.1-0.1-0.1-0.2-0.2-0.3s-0.2-0.1-0.3-0.2h-0.4l-10,1.5
	c-0.2,0-0.4,0.1-0.6,0.3C259.9,112.3,259.8,112.6,259.8,112.9z"/>
<path class="st24" d="M265.4,119.9l-5.6,2l-7.1,5.4l-2.8,6.1l5.2,6.3l1-6.5c1.2,0.2,2.5,0.1,3.7-0.2c1.6-0.5,7-1.8,7-1.8l2.5-2
	c0.3-0.6,0.4-1.2,0.5-1.9c0-0.1-0.1-0.2-0.1-0.3s-0.2-0.2-0.3-0.2h-0.3c-0.1,0-0.2,0.1-0.3,0.2c-1.7,0.7-3.6,1-5.4,1
	c0,0,5.6-1.4,6.1-2.4s0.2-1.7-0.7-1.5s-4,1.2-5,1.3s-2.2,0.3-2.5-0.1s0.3-0.9,0.3-0.9l0.9-1c0,0,4-1.4,4.1-2.3v-0.5
	c0-0.2-0.1-0.3-0.2-0.4c-0.1-0.1-0.2-0.2-0.4-0.2C265.8,119.9,265.6,119.9,265.4,119.9z"/>
<path class="st24" d="M267.3,119.3c1.7-0.1,3.5,0,5.2,0.1c0.3,0.2,7.5,6.2,7.5,6.2l1.7,1.1l-2.8,5.5l-0.8-0.3l-5.8-1.8
	c-0.6-0.1-1.2-0.2-1.8-0.2c0,0-5.5,0.1-6-0.4s-0.3-0.7,0.1-0.9c1.5-0.2,2.9-0.4,4.4-0.4c0.7-0.1,1.4-0.2,2.1-0.4
	c0,0-2.3-0.1-2.8-0.2s-5.7-0.3-5.8-1.1s0.5-1.3,3.8-1c1.8,0.2,3.6,0.1,5.4-0.1l-7.3-1.1c0,0-2.9-0.4-2.2-1.3s7-0.4,7-0.4l2.8,0.5
	l-1-1.3c-1.5-0.1-3-0.4-4.5-0.7c-0.7-0.3-0.8-0.7-0.4-1.2C266.4,119.6,266.8,119.4,267.3,119.3z"/>
<path class="st24" d="M290.3,123.2l-8,2.7l0.4,1.9l-1.6-1.5l-2.3,5.9l2.8,5.3c2.6,5,6.4,10.5,9.7,9.6c3.9-1.1,5.1-5.6,4.5-8.6
	C295.3,135.8,290.3,123.2,290.3,123.2z"/>
<path class="st24" d="M240.2,133l7.4,0.4l2.2,0.1l1.5-3.2l4.3,5.5c0,0-0.5,3.8-0.8,5.9c-0.7,5.6-2.3,12.1-5.7,12.4
	c-4.1,0.4-7.8-3.7-8.3-6.6S240.2,133,240.2,133z"/>
<path class="st25" d="M280,125.6l-0.2-0.2l-0.6-0.5l-2.3-1.9l-3.6-3l-0.5-0.4l-0.3-0.2c-0.1-0.1-0.3-0.1-0.4-0.1
	c-0.5,0-1-0.1-1.5-0.1h-3.3c-0.3,0-0.6,0-0.9,0.1c-0.2,0-0.3,0.1-0.4,0.2c-0.1,0.1-0.2,0.2-0.3,0.4v0.2c0,0.1,0,0.2,0.1,0.2
	s0.2,0.3,0.3,0.3c0.1,0.1,0.2,0.2,0.4,0.2c0.2,0.1,0.3,0.1,0.5,0.1c1.2,0.2,2.5,0.4,3.9,0.5h-0.1l1,1.4l0.1-0.1l-2.8-0.5
	c-1.2-0.1-2.4-0.1-3.6-0.1c-0.6,0-1.3,0-1.9,0.1c-0.3,0-0.6,0.1-0.9,0.2c-0.2,0-0.3,0.1-0.5,0.2s-0.1,0.1-0.2,0.2
	c-0.1,0.2-0.1,0.4,0,0.6c0,0.1,0.1,0.2,0.2,0.2c0.1,0.1,0.2,0.2,0.4,0.2l0.9,0.3l1.9,0.3l4,0.6l2.1,0.3v-0.2c-1.7,0.2-3.3,0.3-5,0.2
	c-0.8-0.1-1.6-0.1-2.4-0.1c-0.4,0-0.8,0.1-1.2,0.2c-0.2,0.1-0.4,0.2-0.5,0.4c-0.1,0.2-0.1,0.4-0.1,0.6c0,0.1,0.1,0.2,0.2,0.3
	c0.1,0.1,0.2,0.1,0.3,0.1c0.2,0.1,0.4,0.1,0.5,0.2c0.4,0.1,0.7,0.2,1.1,0.2c0.8,0.1,1.5,0.2,2.3,0.2l1.1,0.1c0.4,0,0.7,0.1,1.1,0.1
	c0.7,0,1.4,0.1,2.1,0.1v-0.2c-0.7,0.2-1.5,0.4-2.3,0.4c-0.8,0-1.5,0.1-2.3,0.2c-0.4,0-0.7,0.1-1.1,0.1c-0.2,0-0.4,0-0.5,0.1
	c-0.1,0-0.2,0-0.3,0.1c-0.1,0-0.1,0-0.2,0.1c-0.1,0.1-0.1,0.2-0.2,0.3c0,0.1,0,0.2,0.1,0.3c0,0.1,0.1,0.1,0.1,0.2l0.1,0.1l0.1,0.1
	c0.3,0.1,0.7,0.2,1,0.2c1.2,0.1,2.5,0.1,3.7,0.1h1.6c0.5,0,1,0.1,1.5,0.2l4.2,1.3l1.1,0.3l0.3,0.1l0,0l-0.3-0.1l-1.1-0.4l-4.1-1.3
	c-1-0.2-2.1-0.3-3.1-0.3c-1.2,0-2.5,0-3.7-0.1c-0.3,0-0.6-0.1-0.9-0.2c-0.1,0-0.1,0-0.1-0.1v0l-0.1-0.1c0-0.1-0.1-0.1-0.1-0.2
	c-0.1-0.1-0.1-0.3,0-0.4c0,0,0,0,0.1,0c0.1,0,0.1-0.1,0.2-0.1s0.2,0,0.2-0.1l0.5-0.1l1.1-0.1c0.8-0.1,1.5-0.1,2.3-0.1
	c0.8,0,1.6-0.2,2.4-0.4h-0.1c-0.7,0-1.4-0.1-2.1-0.1c-0.4,0-0.7-0.1-1.1-0.1l-1.1-0.1c-0.7-0.1-1.5-0.1-2.2-0.2
	c-0.4-0.1-0.8-0.1-1.1-0.2c-0.2,0-0.4-0.1-0.5-0.2c-0.2-0.1-0.4-0.2-0.4-0.3c0-0.2,0-0.3,0.1-0.5c0.1-0.2,0.2-0.3,0.4-0.3
	c0.4-0.1,0.7-0.2,1.1-0.2c0.8,0,1.6,0,2.4,0.1c1.7,0.1,3.3,0.1,5-0.2h0.1v-0.2h-0.1l-2.2-0.3l-4-0.6l-1.9-0.3l-0.9-0.3
	c-0.1-0.1-0.3-0.1-0.4-0.2c-0.1,0-0.1,0-0.1-0.1c0,0,0,0,0,0v-0.2c0-0.3,0.3-0.4,0.6-0.5s0.6-0.1,0.9-0.2c0.6-0.1,1.3-0.1,1.9-0.1
	c1.2,0,2.4,0,3.6,0.1l2.8,0.5h0.1v-0.2c-0.4-0.5-0.7-1-1-1.4l0,0c-1.4-0.1-2.7-0.3-3.9-0.5c-0.2,0-0.3-0.1-0.4-0.1
	c-0.2,0-0.3-0.1-0.4-0.2c-0.1-0.1-0.2-0.1-0.3-0.3c-0.1-0.1-0.1-0.3,0-0.4c0-0.1,0.1-0.2,0.2-0.3c0.1-0.1,0.2-0.2,0.4-0.2
	c0.3-0.1,0.5-0.1,0.8-0.1h3.3c0.5,0,1,0,1.5,0.1c0.1,0,0.2,0,0.3,0.1l0.3,0.2l0.5,0.4l3.6,2.9l2.3,1.9l0.6,0.5
	C279.9,125.4,279.9,125.5,280,125.6z"/>
<path class="st25" d="M281.4,126.6c0,0.1,2.9,2.5,6.6,5.6s6.8,5.4,6.8,5.4s-2.9-2.5-6.6-5.6S281.5,126.6,281.4,126.6z"/>
<path class="st25" d="M244.8,144.2c0,0,0.2-0.7,0.6-1.8c0.5-1.4,1.2-2.8,1.9-4.2c0.8-1.6,1.6-3,2.2-4.1c0.2-0.4,0.4-0.8,0.6-1.3
	c0.1-0.2,0.1-0.3,0.2-0.5c-0.1,0.1-0.2,0.3-0.3,0.4l-0.7,1.2c-0.6,1-1.4,2.4-2.3,4.1c-0.7,1.4-1.3,2.8-1.8,4.3
	c-0.1,0.4-0.3,0.9-0.4,1.4V144.2z"/>
<path class="st2" d="M293.1,251.4l0.5,0.4c0,0-3.1,11.4-1.5,12.8l13.1-17.4l-6-4.1c-0.4,1.8-1.1,3.4-2.1,4.9
	C296,249.3,294.6,250.5,293.1,251.4z"/>
<g class="st9">
	<path class="st6" d="M299.7,246.2c0.2-0.1,0.4-0.2,0.6-0.2c0.2,0,0.4,0.1,0.6,0.3c0.1,0.2,0.2,0.4,0.2,0.6c0,0.2-0.1,0.4-0.3,0.6
		c-0.2,0.1-0.4,0.2-0.6,0.2c-0.2,0-0.4-0.1-0.6-0.3c-0.1-0.2-0.2-0.5-0.1-0.7C299.4,246.4,299.6,246.3,299.7,246.2"/>
</g>
<g class="st9">
	<path class="st6" d="M305.1,247.1l-1.4-1l-12,17.1c0,0-0.2,1,0.4,1.4L305.1,247.1z"/>
</g>
<path class="st3" d="M293.6,251.9c0.1,0.1,0.4-0.3,1-0.5s1.1-0.2,1.1-0.3s-0.5-0.3-1.3-0.1C293.8,251.3,293.5,251.9,293.6,251.9z"/>
<path class="st3" d="M293,254.3c0.1,0.1,0.5-0.2,1.1-0.2s1,0.2,1.1,0.1s-0.4-0.5-1.1-0.5S292.9,254.2,293,254.3z"/>
<path class="st3" d="M294.4,257c0.1-0.1-0.3-0.5-0.9-0.6s-1.1,0.1-1.1,0.2s0.5,0,1,0.1S294.3,257.1,294.4,257z"/>
<path class="st26" d="M58.7,215.4l46.2,21.7l-10.4-48.4H76.8c-2.1,0-9.3,2.4-11.1,7.1C65.8,195.8,58,214.4,58.7,215.4"/>
<path class="st26" d="M60.6,208.9l-12.6,48l8.9,2.4c0,0,17.1-36.8,16.8-37.4S60.6,208.9,60.6,208.9z"/>
<g class="st27">
	<path d="M70.4,206.3c-1.7,0.1-3.3,1.1-4.1,2.6c-0.8,1.5-1.3,3.1-1.5,4.7c-0.5,3.1-0.8,6.2-0.8,9.3c0.2,1.7-0.2,3.4-0.9,4.9
		c-0.9,1.4-2.6,2.2-4,3.1c-1.9,1.3-3.5,3.1-4.6,5.1c-1.1,2.1-1.6,4.4-1.6,6.7c0.1,4.6,3.1,7.7,7,10.1l6.2-19.9l5.1-22.5L70.4,206.3z
		"/>
</g>
<path class="st3" d="M68.9,198.9c0.2,1.7,0.5,3.3,0.9,4.9c0.3,1.6,0.7,3.3,1.1,4.9c-0.2-1.7-0.5-3.3-0.9-4.9
	C69.7,202.1,69.4,200.5,68.9,198.9z"/>
<path class="st3" d="M77,189.3v0.4c0,0.4,0.1,0.8,0.2,1.2c0.3,1.3,1.1,2.5,2.2,3.4c1.1,0.8,2.4,1.3,3.8,1.3c0.4,0,0.8,0,1.2-0.1
	c0.1,0,0.3-0.1,0.4-0.1s-0.6,0.1-1.6,0.1c-2.7-0.1-5-1.9-5.8-4.5C77.2,190.5,77,189.9,77,189.3z"/>
<path class="st1" d="M80.1,201.2c-0.2-0.6-0.4-1.1-0.7-1.6c-0.3-0.5-0.6-1-1-1.5c0.2,0.6,0.4,1.1,0.7,1.6
	C79.3,200.3,79.6,200.8,80.1,201.2z"/>
<path class="st1" d="M72.9,204.1c0.5-0.5,0.8-1.1,1-1.7c0.3-0.6,0.5-1.2,0.5-1.9c-0.3,0.6-0.6,1.2-0.8,1.8
	C73.2,202.8,73,203.5,72.9,204.1z"/>
<path class="st1" d="M71,196c0.6,0,1.2-0.2,1.8-0.5c0.6-0.2,1.1-0.5,1.6-0.9c-0.6,0.2-1.2,0.4-1.7,0.7C72.1,195.5,71.5,195.7,71,196
	z"/>
<path class="st1" d="M65.2,208c-0.4-1-0.8-2.1-1.2-3.2C64,206,64.4,207.1,65.2,208z"/>
<path class="st1" d="M59.6,229.4c0.5-0.2,1-0.5,1.5-0.8c0.5-0.3,0.9-0.7,1.3-1.1C61.3,227.9,60.4,228.6,59.6,229.4z"/>
<path class="st1" d="M55.2,253.9c-0.5-1.3-1-2.5-1.6-3.8C53.8,251.5,54.3,252.8,55.2,253.9z"/>
<path class="st3" d="M88.8,172.9c1.2-3.8,0.6-10.2-2-13.4s-7.2-5-11.3-5.4c-0.7-0.1-1.4-0.1-2,0.2c-0.3,0.2-0.5,0.4-0.7,0.7
	c-0.1,0.3-0.1,0.7,0,1c-0.8-0.5-1.7-0.8-2.7-1c-0.5-0.1-0.9,0-1.4,0.1c-0.5,0.1-0.9,0.4-1.2,0.7c-0.2,0.2-0.3,0.4-0.4,0.6
	c-0.1,0.2-0.1,0.5-0.1,0.7c0,0.2,0.1,0.5,0.2,0.7c0.1,0.2,0.3,0.4,0.4,0.6c-0.6-0.2-1.2-0.1-1.8,0.1c-1.1,0.4-1.9,1.4-2,2.6
	c0,0.6,0.1,1.2,0.4,1.7c0.7,1.1,1.5,2,2.5,2.8c0.8,0.6,1.2,1.6,1.1,2.6"/>
<path class="st28" d="M67.6,168.5c-0.3-2.6,0.4-5.3,1.9-7.5c1.6-2.2,3.9-3.7,6.5-4.2l0.6-0.1c5.9-0.9,9.9,3.7,10.6,9.6l2.9,21.7
	c0.5,3.6-2,6.9-5.6,7.5c-0.9,0.1-1.8,0.1-2.7-0.1c-0.9-0.2-1.7-0.6-2.4-1.2c-0.7-0.6-1.3-1.2-1.8-2c-0.4-0.8-0.7-1.6-0.8-2.5
	c-0.2-1.3-0.3-2.3-0.3-2.3s-5.8,0.3-7-5.3C69,179.3,68.2,173.7,67.6,168.5z"/>
<path class="st29" d="M76.6,187.3c2.6-0.5,5-1.8,6.9-3.7c0,0-1,4.4-6.7,5L76.6,187.3z"/>
<path class="st3" d="M70,171.9c0,0.2,0.1,0.4,0.3,0.5c0.2,0.1,0.4,0.2,0.6,0.1c0.1,0,0.2,0,0.3-0.1c0.1-0.1,0.2-0.1,0.2-0.2
	c0.1-0.1,0.1-0.2,0.1-0.3v-0.3c0-0.2-0.1-0.4-0.3-0.5c-0.2-0.1-0.4-0.2-0.6-0.1c-0.1,0-0.2,0-0.3,0.1c-0.1,0.1-0.2,0.1-0.2,0.2
	c-0.1,0.1-0.1,0.2-0.1,0.3V171.9z"/>
<path class="st3" d="M69.4,171c0.1,0.1,0.6-0.5,1.5-0.7c0.6-0.1,1.1-0.1,1.7,0c0.1-0.1-0.1-0.2-0.4-0.4c-0.4-0.2-0.9-0.2-1.3-0.1
	c-0.4,0.1-0.8,0.3-1.1,0.7C69.4,170.8,69.3,171,69.4,171z"/>
<path class="st3" d="M78.5,170.5c0,0.2,0.1,0.4,0.3,0.5c0.2,0.1,0.4,0.2,0.6,0.1c0.1,0,0.2,0,0.3-0.1c0.1-0.1,0.2-0.1,0.2-0.2
	c0.1-0.1,0.1-0.2,0.1-0.3v-0.3c0-0.2-0.1-0.4-0.3-0.5c-0.2-0.1-0.4-0.2-0.6-0.1c-0.1,0-0.2,0-0.3,0.1c-0.1,0.1-0.2,0.1-0.2,0.2
	c-0.1,0.1-0.1,0.2-0.1,0.3V170.5z"/>
<path class="st3" d="M77.9,169.4c0.1,0.1,0.6-0.5,1.5-0.7c0.6-0.1,1.1-0.1,1.7,0c0.1-0.1-0.1-0.2-0.4-0.4c-0.4-0.2-0.9-0.2-1.3-0.1
	c-0.4,0.1-0.8,0.3-1.1,0.7C77.9,169.2,77.8,169.4,77.9,169.4z"/>
<path class="st3" d="M76.1,176.5c-0.5,0-1,0-1.5,0c-0.2,0-0.4,0-0.5-0.1c-0.1-0.2-0.1-0.5,0-0.7l0.3-1.8c0.3-1.6,0.5-3.1,0.6-4.7
	c-0.4,1.5-0.7,3-0.9,4.6l-0.3,1.8c-0.1,0.3-0.1,0.6,0.1,0.9c0,0.1,0.1,0.1,0.2,0.2c0.1,0,0.1,0,0.2,0.1h0.4
	C75.1,176.7,75.6,176.6,76.1,176.5z"/>
<path class="st3" d="M78.7,176.5c-0.1,0.6-0.3,1.2-0.6,1.8c-0.7,0.8-1.7,0.9-1.7,1.1s0.3,0.1,0.7,0.1c0.5-0.1,1-0.4,1.4-0.8
	c0.3-0.4,0.5-1,0.5-1.5C78.9,176.7,78.8,176.5,78.7,176.5z"/>
<path class="st3" d="M77,166.1c0.1,0.2,1-0.1,2-0.2s1.9,0,2-0.2s-0.1-0.3-0.5-0.5c-0.5-0.2-1.1-0.3-1.6-0.2c-0.5,0-1.1,0.2-1.5,0.5
	C77,165.8,76.9,166,77,166.1z"/>
<path class="st3" d="M69.2,168.5c0.2,0.2,0.7-0.2,1.5-0.3s1.3-0.1,1.4-0.4c0-0.1-0.1-0.3-0.4-0.4c-0.4-0.1-0.9-0.2-1.3-0.1
	c-0.4,0.1-0.8,0.3-1.1,0.6C69.1,168.2,69.1,168.4,69.2,168.5z"/>
<path class="st28" d="M87.6,170.5c0.1-0.1,3.6-1.9,4.3,1.9s-3.3,3.7-3.4,3.6L87.6,170.5z"/>
<path class="st29" d="M89.4,174.4c0.1,0,0.1,0,0.2,0.1c0.2,0,0.4,0,0.5-0.1c0.2-0.2,0.4-0.4,0.5-0.7c0.1-0.3,0.1-0.6,0-0.9
	c0-0.3-0.2-0.7-0.4-0.9c-0.1-0.1-0.1-0.2-0.2-0.3s-0.2-0.1-0.4-0.1s-0.2,0-0.2,0.1s-0.1,0.1-0.1,0.2v0.2c-0.1-0.1-0.1-0.1-0.1-0.2
	c0-0.1,0-0.2,0.1-0.3c0.1-0.1,0.2-0.2,0.4-0.2c0.2,0,0.3,0.1,0.5,0.1s0.3,0.2,0.3,0.3c0.2,0.3,0.4,0.6,0.4,1
	c0.2,0.7-0.1,1.4-0.7,1.8c-0.1,0-0.2,0.1-0.3,0.1c-0.1,0-0.2,0-0.3-0.1C89.4,174.5,89.4,174.4,89.4,174.4z"/>
<path class="st3" d="M63.9,161.7c0.4,5.1,6.9,6.1,9.1,2.8c1-1.5,1.8-3.3,3.4-4.2c0.6-0.3,1.2-0.4,1.8-0.5c0.6,0,1.2,0,1.8,0.2l0,0
	c1.7,0.7,3,2.2,3.5,4c0.8,2.4,0.8,4.7,1.8,6.8c0.1,0.3,0.3,0.6,0.6,0.8c0.5,0.3,1.1-0.2,1.5-0.6c0.4-0.8,0.6-1.8,0.5-2.7
	c0-2.1-0.5-4.2-1.3-6.2c-0.9-2-2.3-3.6-4.1-4.8c-2.3-1.4-5.1-1.8-7.7-1.2c-2.6,0.6-5,2-6.7,4.1c-0.9,0.9-1.5,2-1.8,3.2"/>
<path class="st2" d="M67.5,158.2c-0.2,0-0.4,0-0.5,0.1c-0.4,0.2-0.8,0.5-1.1,0.9c-0.4,0.6-0.7,1.4-0.6,2.1c0.1,0.9,0.5,1.8,1.2,2.4
	c0.7,0.6,1.5,1.1,2.4,1.3c0.7,0.2,1.5,0.2,2.2,0.1c0.5-0.1,1-0.2,1.4-0.3c0.2,0,0.3-0.1,0.5-0.2c0-0.1-0.7,0.2-2,0.3
	c-0.7,0.1-1.4,0-2.1-0.2c-0.8-0.2-1.6-0.6-2.2-1.2c-0.6-0.6-1-1.4-1.1-2.2c0-0.7,0.1-1.4,0.5-2c0.3-0.4,0.6-0.7,1-0.9
	C67.2,158.4,67.3,158.3,67.5,158.2z"/>
<path class="st2" d="M69.8,156c-0.1,0-0.3,0-0.4,0.1c-0.1,0.1-0.3,0.3-0.3,0.4c-0.1,0.2-0.1,0.3-0.1,0.5c0,0.5,0.2,1,0.6,1.4
	c0.4,0.5,0.8,0.9,1.3,1.3c0.9,0.7,2,1.1,3.1,1.3c0.5,0.1,0.9,0.1,1.4,0c0-0.1-0.5,0-1.3-0.2c-1-0.2-2-0.7-2.9-1.3
	c-0.5-0.4-0.9-0.8-1.3-1.2c-0.3-0.4-0.5-0.8-0.6-1.3c0-0.3,0.1-0.6,0.3-0.8C69.6,156.1,69.8,156,69.8,156z"/>
<path class="st28" d="M94.9,243.2c-0.6,0-27.8-9.1-27.8-9.1s-12.4-2.7-13.8,5.2s11.3,17.3,11.3,17.3L87.2,268l11.8-9.2l-1.7-7
	L94.9,243.2z"/>
<path class="st3" d="M84.9,253.3l15.2,9.2c0.4,0.3,0.8,0.7,0.9,1.2c0.1,0.5,0.1,1-0.2,1.5l-9.9,16.7c0,0-1.8,1.4,0.8-11l-13.2-7.3
	L84.9,253.3z"/>
<path class="st29" d="M77.5,247.9c1.1,1,2.3,2,3.6,2.8c1.2,1,2.5,1.8,3.8,2.6c-1.1-1-2.3-2-3.6-2.8C80,249.6,78.8,248.7,77.5,247.9z
	"/>
<path class="st28" d="M92,256.1c-3.9-7.3-7.6-16.8-11.2-27.6L77,249.3l-2.1,11.9l-9.9-1.3l1.8-44.2c0,0,2.2-9.1,10.1-9.6
	c6.8-0.5,12.8,3.5,17.1,12.6c2.6,5.6,5.7,11,9.1,16.1L92,256.1z"/>
<path class="st30" d="M124.1,261.2c-6.7,4.5-15.2,5.4-22.6,2.3l-9.6-6.5c0,0,0.9-11.2,4.1-16l2.8,0.7l-1.9-2.3l4.7-6.9l12.3,12.1
	L124.1,261.2z"/>
<path class="st29" d="M81.8,231.5c0,0.1,0,0.2,0.1,0.3l0.3,0.7c0.2,0.7,0.6,1.6,1,2.6c0.8,2.2,1.8,5.3,3.1,8.7
	c1,2.9,2.2,5.8,3.7,8.5c0.3,0.5,0.6,1,0.8,1.4s0.5,0.8,0.6,1c0.1,0.2,0.3,0.4,0.4,0.6c0,0.1,0.1,0.1,0.2,0.2c0-0.1,0-0.1-0.1-0.2
	l-0.4-0.7c-0.2-0.3-0.4-0.7-0.6-1c-0.2-0.4-0.5-0.9-0.7-1.4c-1.4-2.8-2.6-5.6-3.6-8.5c-1.2-3.4-2.3-6.5-3.2-8.7
	c-0.4-1.1-0.8-2-1-2.6l-0.3-0.7C81.9,231.7,81.8,231.6,81.8,231.5z"/>
<path class="st29" d="M80.2,231.5c-0.1,0.2-0.1,0.4-0.2,0.6c-0.1,0.4-0.2,1-0.4,1.8c-0.3,1.5-0.7,3.6-1.1,5.9s-0.7,4.4-0.9,5.9
	c-0.1,0.8-0.2,1.4-0.2,1.8v0.7c0.1-0.2,0.1-0.5,0.1-0.7c0.1-0.5,0.2-1.1,0.3-1.8c0.3-1.6,0.6-3.6,1-5.9s0.8-4.3,1-5.9
	c0.1-0.7,0.2-1.3,0.3-1.8C80.2,232,80.2,231.8,80.2,231.5z"/>
<path class="st29" d="M66.1,246.4c0.1,0,0.2-4.3,0.2-9.5s0-9.5,0-9.5s-0.2,4.3-0.2,9.5S66,246.4,66.1,246.4z"/>
<path class="st3" d="M77.8,248.5l-3.1,17c-0.1,0.6-0.5,1.2-1,1.6c-0.5,0.4-1.2,0.5-1.8,0.5L52.5,265c0,0-1.1-1.8,11.4-3.8l1.7-14.8
	L77.8,248.5z"/>
<g class="st27">
	<path d="M75.5,215.2c2.9-0.2,5.9,3.2,6,6.3c0,0.3,0,0.7-0.1,1c-0.1,0.2-0.2,0.3-0.3,0.4c-0.1,0.1-0.2,0.2-0.4,0.2
		c-0.3,0-0.5,0-0.7-0.2c-0.2-0.1-0.4-0.3-0.5-0.6c-0.2-0.4-0.3-0.9-0.3-1.4C79.3,217.8,77.8,215.8,75.5,215.2"/>
</g>
<path class="st28" d="M55.8,259l-2.1,6H36.9c0,0,0.9-1.4,4.4-1.7l6.3-0.6l1.5-5.5L55.8,259z"/>
<path class="st26" d="M89.9,186.4c0,0,11.1,2,15.2,7.3c3.2,4.2,15.5,27.9,20.4,37.5c1.5,3,2.5,6.2,3,9.5c0.9,7.1,1.5,18.8-4.6,20.5
	c0,0-7-3.6-10.3-10.7c-0.5-1.1-1.1-2.1-1.7-3.1l-4.7-7c0,0-5.2-5.8-7.7-10.6l-4.5-8.6l-1.1-2.5L90.2,189L89.9,186.4z"/>
<path class="st3" d="M97.3,210.3c0.9-0.1,1.7-0.4,2.5-0.9c0.7-0.5,1.3-1.2,1.7-2c-0.6,0.6-1.2,1.2-1.9,1.8
	C98.9,209.6,98.1,210,97.3,210.3z"/>
<path class="st3" d="M114.5,229.5c-0.3-0.1-0.5-0.1-0.8-0.1c-0.3,0-0.7,0-1-0.1c-0.4-0.1-0.9-0.1-1.3-0.1c-1.1-0.1-2.2-0.4-3.2-0.7
	c-3.7-1-7.1-2.8-10-5.3c-0.3-0.2-0.7-0.6-0.9-0.9l-0.7-0.7L96,221c0.2,0.2,0.3,0.4,0.5,0.6c0.2,0.3,0.4,0.5,0.7,0.7l0.9,0.9
	c0.8,0.7,1.7,1.4,2.6,2.1c2.3,1.5,4.8,2.6,7.4,3.3c1.1,0.3,2.2,0.5,3.3,0.6c0.4,0.1,0.9,0.1,1.3,0.1h1
	C113.9,229.5,114.2,229.6,114.5,229.5z"/>
<path class="st3" d="M122.5,246.3c0-0.2-0.1-0.5-0.2-0.7c-0.3-0.6-0.6-1.2-1-1.8c-1.2-1.9-2.9-3.5-5-4.5c-2-1-4.3-1.5-6.6-1.3
	c-0.7,0-1.4,0.1-2,0.3c-0.2,0-0.5,0.1-0.7,0.2c0.9-0.2,1.9-0.3,2.8-0.3c2.2-0.1,4.4,0.4,6.4,1.4c2,1,3.7,2.5,4.9,4.4
	C121.7,244.7,122.1,245.5,122.5,246.3z"/>
<path class="st3" d="M105.3,236.7c1.3,0.2,2.7,0.3,4,0.4c1.3,0.2,2.7,0.3,4,0.3l-1.1-0.3c-0.7-0.1-1.7-0.2-2.8-0.3s-2.1-0.1-2.8-0.1
	C106.2,236.6,105.7,236.6,105.3,236.7z"/>
<g class="st27">
	<path d="M107.4,240.4c-0.3-0.6-0.5-1.3-0.4-2c2.2-0.9,3.5-0.2,5-0.5c0.2,0,2.2,0.8,2.3,0.6s-1.2-1.1-1.6-1.2
		c-2.9-0.7-5.3-1-7.2-2.1c-0.5-0.3-1-0.6-1.3-1.1c-0.3-0.5-0.6-1-0.8-1.5c-0.3-0.9-0.6-1.9-0.9-2.8c-0.2-0.5-0.3-1.2,0.2-1.5
		s0.8,0.1,1.1,0.2s0.9,0.2,1.1-0.1s-0.4-0.8-0.8-1c-2.2-0.9-4.2-2.3-5.7-4.2c-1.5-1.9-2.5-4.1-2.8-6.5l0.2-3.8l-2,5.7l5.7,11
		C101.8,233.4,104.4,237.1,107.4,240.4z"/>
</g>
<path class="st1" d="M108,215.7c0.2-1.2,0.4-2.3,0.4-3.5c0.1-1.2,0.2-2.3,0.1-3.5c-0.2,1.2-0.4,2.3-0.4,3.5
	C107.9,213.4,107.9,214.5,108,215.7z"/>
<path class="st1" d="M100.9,218.8c0.8,1.4,1.7,2.7,2.8,3.9c-0.3-0.7-0.8-1.4-1.3-2C102,220,101.5,219.4,100.9,218.8z"/>
<path class="st1" d="M111,228.6c0.3-0.4,0.5-0.8,0.6-1.2c0.2-0.4,0.3-0.8,0.3-1.3c-0.3,0.4-0.5,0.8-0.6,1.2
	C111.1,227.7,111,228.1,111,228.6z"/>
<path class="st1" d="M117,234c0.3,0.6,0.7,1.2,1,1.7c0.3,0.6,0.6,1.2,1,1.7C118.7,236.1,118,234.9,117,234z"/>
<path class="st1" d="M118.5,229.4c0.6-1.4,1-2.9,1.3-4.4c-0.3,0.7-0.6,1.4-0.8,2.1C118.7,227.8,118.6,228.6,118.5,229.4z"/>
<path class="st1" d="M110.2,218.8c1.4,0.4,2.8,0.5,4.2,0.2c-0.7-0.1-1.4-0.2-2.1-0.1C111.6,218.8,110.9,218.8,110.2,218.8z"/>
<path class="st1" d="M99.7,213.6c0-0.9-0.1-1.7-0.2-2.6C99.2,211.9,99.3,212.8,99.7,213.6z"/>
<path class="st1" d="M101.4,201.5c0.6,0.3,1.2,0.5,1.8,0.5c0.6,0.1,1.3,0.1,1.9,0c-0.6-0.1-1.2-0.2-1.9-0.3
	C102.7,201.6,102,201.6,101.4,201.5z"/>
<path class="st3" d="M37.3,202.4l8.1,6.2l3.5,1.5l-3.5-5.2l-6.6-4.6c-0.3-0.2-0.7-0.3-1-0.2c-0.3,0.1-0.6,0.2-0.8,0.5
	c-0.2,0.3-0.3,0.7-0.2,1C36.9,201.9,37.1,202.2,37.3,202.4z"/>
<path class="st28" d="M69.5,216.9c-0.4,0-11.4-4.4-11.7-5s-0.1-2.3-2.3-2.9s-4.5-1.4-4.5-1.4l-5.6-3.7c0,0-1.6,0.5-0.2,2.2
	c0.8,0.9,1.7,1.8,2.6,2.6c0.5,0.5-0.2,0.9-0.2,0.9l-7.9-5.6c0.2,1.4,0.7,2.8,1.6,3.9l1.1,1.5c-0.2,0.5-0.2,1.1-0.1,1.7
	c0.2,0.6,0.5,1.1,0.9,1.5c1.6,1.5,4.1,5.2,6.8,5.4s4.6,0.3,4.6,0.3l14,6.8L69.5,216.9z"/>
<path class="st29" d="M41.9,208.7c1.2,1.2,2.6,2.2,4.1,3.1C44.7,210.6,43.4,209.6,41.9,208.7z"/>
<path class="st26" d="M99.7,190.6c0,0-6.9-3.4-11-1c-3.3,2-5.7,10.8-8,15.6c-0.6,1-1.4,1.9-2.3,2.6c-2.3,2.7-2.8,7.2-2.8,7.2
	l-15.8-2.9L58,222.3c0,0,15.4,11.6,24.3,8.9c9.2-2.8,12.3-14,12.3-14L99.7,190.6z"/>
<path class="st3" d="M79.1,221.3v-1.1c0-0.3,0-0.6-0.1-0.9c-0.3-1.9-1.7-3.5-3.5-4.1l-15.8-3h-0.1v0.1c-0.5,3.1-1.1,6.5-1.7,10.1
	v0.1l0.1,0.1c3.4,2.4,7,4.5,10.7,6.2l1.1,0.5c0.3,0.2,0.7,0.3,1.1,0.4c0.4,0.1,0.7,0.3,1.1,0.4l1.1,0.4c0.8,0.3,1.5,0.5,2.3,0.6
	c0.4,0.1,0.7,0.2,1.1,0.2c0.4,0.1,0.8,0.1,1.1,0.2c1.5,0.2,3,0.2,4.5-0.1c1.4-0.2,2.8-0.8,4-1.6c2.2-1.5,4-3.5,5.4-5.7
	c1.2-2,2.2-4,3-6.2c0.7-2,1.3-3.8,1.8-5.4c0.5-1.6,0.9-3,1.3-4.1s0.7-2,0.9-2.5l0.3-0.7c0-0.1,0-0.1,0.1-0.2c0,0.1-0.1,0.1-0.1,0.2
	l-0.3,0.6c-0.2,0.6-0.6,1.4-1,2.5s-0.9,2.5-1.4,4.1s-1.1,3.4-1.9,5.3c-0.8,2.1-1.8,4.2-3.1,6.1c-1.4,2.2-3.2,4.1-5.3,5.6
	c-2.4,1.6-5.4,2.2-8.2,1.6c-0.4,0-0.7-0.1-1.1-0.2c-0.4-0.1-0.7-0.1-1.1-0.2l-2.2-0.6l-1.1-0.4c-0.4-0.1-0.7-0.3-1.1-0.4
	s-0.7-0.3-1.1-0.4l-1.1-0.5c-3.7-1.8-7.3-3.9-10.7-6.2l0.1,0.1c0.6-3.6,1.2-7,1.7-10.1l-0.2,0.1l15.8,2.8c1,0.4,1.9,1,2.6,1.8
	c0.5,0.7,0.8,1.4,1,2.2c0.1,0.3,0.1,0.6,0.1,0.9v1L79.1,221.3z"/>
<path class="st3" d="M75.5,215.2c0-0.1,0.1-0.2,0.1-0.4c0-0.3,0.1-0.7,0.2-1c0.3-1.2,0.7-2.5,1.3-3.6c1-1.6,2.2-3.1,3.4-4.5
	c0.7-0.9,1.3-1.9,1.8-2.9c0.5-1.1,0.9-2.2,1.2-3.4c0.3-1.2,0.7-2.3,1.1-3.4c0.4-1,1-2,1.6-2.9c0.5-0.9,1.1-1.7,1.8-2.4
	c0.6-0.6,1.3-1.1,2.1-1.5c1.2-0.4,2.4-0.6,3.7-0.6c0.9,0.1,1.4,0.2,1.4,0.2c-0.1-0.1-0.2-0.1-0.3-0.1c-0.3-0.1-0.7-0.1-1-0.2
	c-1.3-0.1-2.6,0-3.8,0.5c-0.9,0.3-1.6,0.8-2.2,1.5c-0.7,0.8-1.3,1.6-1.9,2.4c-0.6,1-1.1,2-1.6,3c-0.4,1.1-0.8,2.3-1.1,3.4
	c-0.3,1.2-0.7,2.3-1.2,3.4c-0.4,1-1,1.9-1.7,2.8c-1.2,1.4-2.4,3-3.4,4.6c-0.6,1.2-1,2.4-1.2,3.7c0,0.3-0.1,0.7-0.2,1
	C75.5,214.9,75.5,215.1,75.5,215.2z"/>
<path class="st1" d="M99.3,195.2c0-0.6,0-1.2-0.2-1.8c-0.1-0.6-0.2-1.1-0.4-1.7c0,0.6,0,1.2,0.2,1.8C98.9,194.1,99,194.7,99.3,195.2
	z"/>
<path class="st1" d="M89.5,193.2c0.6,0.2,1.2,0.3,1.8,0.4c0.6,0.1,1.2,0.1,1.8,0.1c-0.6-0.2-1.2-0.3-1.8-0.4
	C90.7,193.1,90.1,193.1,89.5,193.2z"/>
<path class="st1" d="M95,204.8c0.4-1.3,0.6-2.6,0.6-4C95.2,202.1,95,203.4,95,204.8z"/>
<path class="st1" d="M85.2,203.3c0.6,0.1,1.3,0.1,1.9,0c0.6,0,1.3-0.1,1.9-0.2c-0.6-0.1-1.3-0.1-1.9,0
	C86.5,203,85.8,203.1,85.2,203.3z"/>
<path class="st1" d="M90.6,213.2c-0.3-1.3-0.8-2.6-1.5-3.7C89.5,210.8,90,212,90.6,213.2z"/>
<path class="st1" d="M81,212.9c0.8-1.1,1.3-2.4,1.4-3.8c-0.3,0.6-0.5,1.2-0.7,1.9C81.4,211.6,81.2,212.3,81,212.9z"/>
<path class="st1" d="M85.3,220c0.5,0,1-0.2,1.4-0.4c0.5-0.1,0.9-0.4,1.3-0.7c-0.5,0-1,0.2-1.4,0.4C86.1,219.4,85.6,219.6,85.3,220z"
	/>
<path class="st1" d="M82.2,227.6c0.7-0.3,1.4-0.6,2.1-1c0.7-0.3,1.4-0.6,2.1-1c-0.8,0.1-1.6,0.3-2.3,0.7
	C83.4,226.6,82.8,227.1,82.2,227.6z"/>
<path class="st1" d="M74.8,224.8c0.8,1.2,1.8,2.2,3,3.1c-0.4-0.6-0.9-1.2-1.4-1.7C75.9,225.7,75.4,225.2,74.8,224.8z"/>
<path class="st1" d="M74,219.8c0.4-0.4,0.8-0.9,1.1-1.4c0.4-0.4,0.8-0.8,1.1-1.3c-0.6,0.2-1.1,0.6-1.4,1.1
	C74.4,218.7,74.1,219.2,74,219.8z"/>
<path class="st1" d="M69.5,222.4c-0.1-0.7-0.3-1.3-0.6-1.9c-0.1-0.7-0.3-1.3-0.6-1.9C68.4,219.9,68.8,221.2,69.5,222.4z"/>
<path class="st1" d="M63.4,216.1c0.7,0.1,1.3,0.1,2,0c0.7,0,1.4-0.1,2-0.3c-0.7-0.1-1.3-0.1-2,0C64.7,215.8,64,215.9,63.4,216.1z"/>
<path class="st1" d="M63.3,222.6c0.5,0.4,1.1,0.7,1.7,0.9c0.6,0.3,1.2,0.5,1.8,0.6C65.7,223.5,64.5,223,63.3,222.6z"/>
<path class="st1" d="M116.8,247.9c0-0.6,0-1.3-0.2-1.9c-0.1-0.6-0.2-1.3-0.4-1.9c0,0.6,0,1.3,0.2,1.9
	C116.4,246.7,116.5,247.3,116.8,247.9z"/>
<path class="st1" d="M120.2,251.8c0.7-0.1,1.4-0.2,2-0.5c0.7-0.2,1.3-0.4,1.9-0.8c-0.7,0.1-1.3,0.3-2,0.5
	C121.4,251.2,120.8,251.4,120.2,251.8z"/>
<path class="st1" d="M123.1,253.7c0,0.7,0.1,1.5,0.2,2.2c0.1,0.7,0.3,1.5,0.5,2.2C123.8,256.6,123.6,255.1,123.1,253.7z"/>
<path class="st1" d="M123.3,238.8c0.4,0.6,0.9,1.1,1.4,1.6c0.4,0.6,0.9,1.1,1.4,1.6c-0.3-0.7-0.7-1.3-1.2-1.8
	C124.5,239.6,123.9,239.1,123.3,238.8z"/>
<path class="st1" d="M104.8,232.6c0.6,0.5,1.3,0.8,2,0.9c0.7,0.2,1.5,0.3,2.3,0.1c0-0.1-1-0.1-2.2-0.4S104.8,232.5,104.8,232.6z"/>
<path class="st31" d="M180.7,72.5v-6.9c-0.1-1.1,0.7-2.1,1.8-2.2c0.1,0,0.2,0,0.3,0h10.1c1.1-0.1,2,0.8,2.1,1.9c0,0.1,0,0.2,0,0.3
	v13.9c0.1,1.2-0.8,2.1-2,2.2c-0.1,0-0.1,0-0.2,0h-10c-1.2,0.1-2.1-0.8-2.2-2c0-0.1,0-0.1,0-0.2C180.7,77.1,180.7,74.8,180.7,72.5z
	 M194.4,72.6L194.4,72.6v-6.8c0.1-0.8-0.5-1.6-1.3-1.7c-0.1,0-0.2,0-0.4,0h-9.6c-1.3,0-1.9,0.5-1.9,1.8v13.2c0,1.3,0.5,1.9,1.8,1.9
	h9.4c0.9,0.2,1.7-0.5,1.9-1.4c0-0.2,0-0.4,0-0.5C194.4,76.9,194.4,74.8,194.4,72.6z"/>
<path class="st32" d="M182.2,71.9c0-1.9,1-3.7,2.6-4.7l-0.3-0.3c-2.8,1.8-3.6,5.5-1.9,8.4c0.3,0.5,0.6,0.9,1.1,1.2
	c0.1-0.1,0.2-0.2,0.3-0.4C182.9,75,182.2,73.5,182.2,71.9z"/>
<path class="st32" d="M183.2,71.9c0-0.7,0.2-1.4,0.5-2.1l-0.4-0.2c-0.4,0.7-0.6,1.5-0.6,2.3c0,1.4,0.6,2.7,1.6,3.7
	c0.1-0.1,0.2-0.2,0.3-0.4C183.7,74.3,183.2,73.1,183.2,71.9z"/>
<path class="st32" d="M193.9,71.9c0,3.4-2.7,6.1-6.1,6.1c-1.1,0-2.2-0.3-3.2-0.9c0.1-0.1,0.1-0.3,0.2-0.4c0.9,0.6,1.9,0.9,3,0.9
	c3.1,0,5.6-2.5,5.6-5.6c0-3.1-2.5-5.6-5.6-5.6c-0.3,0-0.5,0-0.8,0.1l-0.4,0.1v-0.3l-0.4,0.3l-0.4,0.3l0.4,0.3l0.4,0.3v-0.2h0.4
	c0.3,0,0.5-0.1,0.8-0.1c2.8,0,5.1,2.3,5.1,5.1c0,2.8-2.3,5.1-5.1,5.1c-1,0-2-0.3-2.8-0.8c0.1-0.1,0.1-0.3,0.2-0.4
	c0.8,0.5,1.7,0.8,2.6,0.8c2.6,0,4.7-2.1,4.7-4.7c0-2.6-2.1-4.7-4.7-4.7c-0.3,0-0.5,0-0.8,0.1v0.7l-0.9-0.7l-0.9-0.7l0.9-0.7l0.9-0.7
	v0.6c0.3,0,0.5-0.1,0.8-0.1c3.1-0.3,5.8,2.1,6.1,5.2C193.9,71.5,193.9,71.7,193.9,71.9z"/>
<path class="st32" d="M187.9,67.7h-0.2v0.4h0.2c2,0,3.7,1.7,3.7,3.7c0,2-1.7,3.7-3.7,3.7c-0.8,0-1.7-0.3-2.3-0.8
	c-0.1,0.1-0.1,0.3-0.2,0.4c0.7,0.5,1.6,0.8,2.5,0.8c2.3,0,4.1-1.8,4.1-4.1C192,69.5,190.2,67.7,187.9,67.7
	C187.9,67.7,187.9,67.7,187.9,67.7z M185.8,68.7l-0.3-0.3c-1.9,1.3-2.4,4-1,5.9c0.1,0.2,0.3,0.4,0.4,0.5c0.1-0.1,0.2-0.2,0.3-0.4
	c-0.6-0.7-1-1.6-1-2.6C184.2,70.6,184.8,69.4,185.8,68.7L185.8,68.7z"/>
<path class="st32" d="M190.1,73.4c-0.5,0.8-1.4,1.2-2.3,1.2c-0.7,0-1.4-0.3-1.9-0.8c-0.1,0.1-0.1,0.3-0.2,0.4
	c0.6,0.5,1.3,0.8,2.1,0.8c1,0,2-0.5,2.6-1.4L190.1,73.4z M187.9,69.1c0.4,0,0.8,0.1,1.2,0.3l0.2-0.4c-0.4-0.2-0.9-0.3-1.4-0.3
	c-1.7,0-3.2,1.4-3.2,3.1c0,0,0,0.1,0,0.1c0,0.8,0.3,1.5,0.8,2.1c0.1-0.1,0.2-0.2,0.3-0.4c-0.4-0.5-0.6-1.1-0.6-1.7
	c-0.1-1.4,1-2.7,2.4-2.8C187.7,69.1,187.8,69.1,187.9,69.1L187.9,69.1z"/>
<path class="st32" d="M187.9,69.7c-0.5,0-0.9,0.2-1.3,0.4l0.2,0.4c0.3-0.2,0.7-0.4,1.1-0.4c1,0,1.8,0.8,1.8,1.8c0,1-0.8,1.8-1.8,1.8
	c-0.7,0-1.3-0.4-1.6-1l-0.4,0.2c0,0.1,0,0.1,0.1,0.2l0.1,0.1c0.4,0.5,1,0.8,1.7,0.8c1.2,0,2.2-1,2.2-2.2c0.1-1.1-0.8-2-1.9-2.1
	C188,69.7,188,69.7,187.9,69.7z"/>
<path class="st31" d="M186,73.5c-0.5,1.1-0.9,2.2-1.3,3.4c-0.3,0.7-0.5,1.4-0.8,2c-0.2,0.3-0.6,0.5-1,0.3c-0.1,0-0.1-0.1-0.1-0.1
	c-0.3-0.2-0.4-0.7-0.2-1c0.9-1.2,1.7-2.4,2.6-3.6C185.5,74.2,185.7,73.8,186,73.5z"/>
<path class="st31" d="M179.5,84.1h0.3v3.6h-0.3V84.1z"/>
<path class="st31" d="M184.8,86.8c-0.3,0.6-0.8,1-1.5,1c-1,0-1.7-0.8-1.7-1.8c-0.1-1,0.7-1.8,1.7-1.9c0,0,0,0,0,0
	c0.7,0,1.3,0.4,1.5,1h-0.4c-0.2-0.4-0.6-0.7-1.1-0.7c-0.8,0-1.4,0.7-1.4,1.5c0,0,0,0,0,0c0,0.8,0.6,1.4,1.4,1.5
	c0.5,0,0.9-0.3,1.1-0.7L184.8,86.8L184.8,86.8z"/>
<path class="st31" d="M186.6,84.1h1c0.4,0,0.8,0.1,1.1,0.3c0.5,0.4,0.7,0.9,0.7,1.5c0,0.6-0.2,1.1-0.7,1.5c-0.3,0.2-0.7,0.3-1.1,0.3
	h-1V84.1z M186.9,87.4h0.5c0.8,0.1,1.5-0.4,1.6-1.2c0-0.1,0-0.2,0-0.3c0-0.5-0.2-0.9-0.6-1.2c-0.3-0.2-0.7-0.3-1.1-0.3h-0.5v3H186.9
	z"/>
<path class="st31" d="M191.5,84.5h-0.8v-0.3h1.8v0.3h-0.7v3.3h-0.3V84.5z"/>
<path class="st31" d="M194.2,84.1h0.8c0.3,0,0.5,0,0.8,0.1c0.4,0.2,0.6,0.6,0.6,1c0,0.6-0.4,1.1-1,1.1l0.9,1.3h-0.4l-1.1-1.6
	c0.4,0,0.6,0,0.7-0.1c0.4-0.1,0.5-0.4,0.5-0.8c0-0.3-0.1-0.6-0.4-0.7c-0.2-0.1-0.4-0.1-0.6-0.1h-0.6v3.3h-0.3v-3.5H194.2z"/>
</svg>
