<svg id="Layer_1" data-name="Layer 1" xmlns="http://www.w3.org/2000/svg" viewBox="0 0 2048 2048"><defs><style>.cls-1{fill:none;}.cls-2{fill:#fff;}.cls-3{fill:#f15b25;}.cls-4{fill:#006934;}.cls-5{fill:#2c2c6f;}</style></defs><rect class="cls-1" width="2048" height="2048"/><path class="cls-2" d="M256,562.5H1792v923H256Z"/><path class="cls-3" d="M256,562.5H1792V870.17H256Z"/><path class="cls-4" d="M256,1177.83H1792V1485.5H256Z"/><ellipse class="cls-5" cx="1024" cy="1024" rx="157.87" ry="142.3"/><ellipse class="cls-2" cx="1024" cy="1024" rx="136.53" ry="123.07"/><ellipse class="cls-5" cx="1024" cy="1024" rx="27.31" ry="24.61"/><g id="d"><g id="c"><g id="b"><g id="a"><path class="cls-5" d="M1024,900.93l5.12,74.06-5.12,36.67L1018.88,975Z"/><ellipse class="cls-5" cx="1041.82" cy="901.99" rx="5.97" ry="5.38"/></g><g id="a-2" data-name="a"><path class="cls-5" d="M1024,1147.07l-5.12-74.06,5.12-36.67,5.12,36.67Z"/><ellipse class="cls-5" cx="1006.18" cy="1146.01" rx="5.97" ry="5.38"/></g></g><g id="b-2" data-name="b"><g id="a-3" data-name="a"><path class="cls-5" d="M1059.34,905.13,1043,977.86l-15.48,34.22,5.59-36.61Z"/><ellipse class="cls-5" cx="1076.25" cy="910.3" rx="5.97" ry="5.38"/></g><g id="a-4" data-name="a"><path class="cls-5" d="M988.66,1142.87l16.32-72.72,15.48-34.23-5.59,36.62Z"/><ellipse class="cls-5" cx="971.75" cy="1137.7" rx="5.97" ry="5.38"/></g></g></g><g id="c-2" data-name="c"><g id="b-3" data-name="b"><g id="a-5" data-name="a"><path class="cls-5" d="M1092.27,917.42l-36.65,66.44-24.77,29.45,15.9-34.06Z"/><ellipse class="cls-5" cx="1107.12" cy="926.37" rx="5.97" ry="5.38"/></g><g id="a-6" data-name="a"><path class="cls-5" d="M955.73,1130.58l36.65-66.44,24.77-29.45-15.9,34.06Z"/><ellipse class="cls-5" cx="940.88" cy="1121.64" rx="5.97" ry="5.38"/></g></g><g id="b-4" data-name="b"><g id="a-7" data-name="a"><path class="cls-5" d="M1120.54,937l-54.47,55.63-32.39,22.66,25.15-29.19Z"/><ellipse class="cls-5" cx="1132.32" cy="949.08" rx="5.97" ry="5.38"/></g><g id="a-8" data-name="a"><path class="cls-5" d="M927.46,1111l54.47-55.63,32.39-22.66-25.15,29.19Z"/><ellipse class="cls-5" cx="915.68" cy="1098.92" rx="5.97" ry="5.38"/></g></g></g></g><g id="d-2" data-name="d"><g id="c-3" data-name="c"><g id="b-5" data-name="b"><g id="a-9" data-name="a"><path class="cls-5" d="M1142.24,962.47l-68.59,41-37.79,14.34,32.67-22.33Z"/><ellipse class="cls-5" cx="1150.14" cy="976.91" rx="5.97" ry="5.38"/></g><g id="a-10" data-name="a"><path class="cls-5" d="M905.76,1085.53l68.59-41,37.79-14.34-32.67,22.33Z"/><ellipse class="cls-5" cx="897.86" cy="1071.1" rx="5.97" ry="5.38"/></g></g><g id="b-6" data-name="b"><g id="a-11" data-name="a"><path class="cls-5" d="M1155.88,992.15l-78,23.62-40.62,5,38-13.95Z"/><ellipse class="cls-5" cx="1159.37" cy="1007.94" rx="5.97" ry="5.38"/></g><g id="a-12" data-name="a"><path class="cls-5" d="M892.12,1055.85l78-23.62,40.62-5-38,13.94Z"/><ellipse class="cls-5" cx="888.63" cy="1040.06" rx="5.97" ry="5.38"/></g></g></g><g id="c-4" data-name="c"><g id="b-7" data-name="b"><g id="a-13" data-name="a"><path class="cls-5" d="M1160.53,1024l-82.16,4.62-40.68-4.62,40.68-4.61Z"/><ellipse class="cls-5" cx="1159.37" cy="1040.06" rx="5.97" ry="5.38"/></g><g id="a-14" data-name="a"><path class="cls-5" d="M887.47,1024l82.16-4.61,40.68,4.61-40.68,4.62Z"/><ellipse class="cls-5" cx="888.63" cy="1007.94" rx="5.97" ry="5.38"/></g></g><g id="b-8" data-name="b"><g id="a-15" data-name="a"><path class="cls-5" d="M1155.88,1055.85l-80.68-14.71-38-13.94,40.62,5Z"/><ellipse class="cls-5" cx="1150.14" cy="1071.1" rx="5.97" ry="5.38"/></g><g id="a-16" data-name="a"><path class="cls-5" d="M892.12,992.15l80.68,14.71,38,13.95-40.62-5Z"/><ellipse class="cls-5" cx="897.86" cy="976.91" rx="5.97" ry="5.38"/></g></g></g></g><g id="d-3" data-name="d"><g id="c-5" data-name="c"><g id="b-9" data-name="b"><g id="a-17" data-name="a"><path class="cls-5" d="M1142.24,1085.53l-73.71-33-32.67-22.33,37.79,14.34Z"/><ellipse class="cls-5" cx="1132.32" cy="1098.92" rx="5.97" ry="5.38"/></g><g id="a-18" data-name="a"><path class="cls-5" d="M905.76,962.47l73.71,33,32.67,22.33-37.79-14.34Z"/><ellipse class="cls-5" cx="915.68" cy="949.08" rx="5.97" ry="5.38"/></g></g><g id="b-10" data-name="b"><g id="a-19" data-name="a"><path class="cls-5" d="M1120.54,1111l-61.71-49.1-25.15-29.19,32.39,22.66Z"/><ellipse class="cls-5" cx="1107.12" cy="1121.64" rx="5.97" ry="5.38"/></g><g id="a-20" data-name="a"><path class="cls-5" d="M927.46,937l61.71,49.1,25.15,29.19-32.39-22.66Z"/><ellipse class="cls-5" cx="940.88" cy="926.37" rx="5.97" ry="5.38"/></g></g></g><g id="c-6" data-name="c"><g id="b-11" data-name="b"><g id="a-21" data-name="a"><path class="cls-5" d="M1092.27,1130.58l-45.52-61.83-15.9-34.06,24.77,29.45Z"/><ellipse class="cls-5" cx="1076.25" cy="1137.7" rx="5.97" ry="5.38"/></g><g id="a-22" data-name="a"><path class="cls-5" d="M955.73,917.42l45.52,61.83,15.9,34.06-24.77-29.45Z"/><ellipse class="cls-5" cx="971.75" cy="910.3" rx="5.97" ry="5.38"/></g></g><g id="b-12" data-name="b"><g id="a-23" data-name="a"><path class="cls-5" d="M1059.34,1142.87l-26.21-70.33-5.59-36.62,15.48,34.23Z"/><ellipse class="cls-5" cx="1041.82" cy="1146.01" rx="5.97" ry="5.38"/></g><g id="a-24" data-name="a"><path class="cls-5" d="M988.66,905.13l26.21,70.34,5.59,36.61L1005,977.86Z"/><ellipse class="cls-5" cx="1006.18" cy="901.99" rx="5.97" ry="5.38"/></g></g></g></g></svg>