<?xml version="1.0" encoding="utf-8"?>
<!-- Generator: Adobe Illustrator 26.2.1, SVG Export Plug-In . SVG Version: 6.00 Build 0)  -->
<svg version="1.1" id="Capa_1" xmlns="http://www.w3.org/2000/svg" xmlns:xlink="http://www.w3.org/1999/xlink" x="0px" y="0px"
	 viewBox="0 0 512 512" style="enable-background:new 0 0 512 512;" xml:space="preserve">
<style type="text/css">
	.st0{fill:#030303;}
	.st1{fill:#040404;}
	.st2{fill:#FDFDFD;}
	.st3{fill:#F9F9F9;}
	.st4{fill:#FCFCFC;}
</style>
<g>
	<path class="st0" d="M24.9,476c1-13.4-2.3-27.9,3.1-43c4.2-4.4,8.8-10.3,17.8-10.2c0-53,0-106,0-159.5c-5.7,0-11.6,0-17,0
		c-1.5-1.5-2.7-2.7-3.8-3.8c0-1.6,0-3.1,0-4.9c1.9-1.8,3.9-3.7,6.6-6.2c61.6,0,123.9,0,186,0c-8.1-8.1-16.1-16.1-21.1-21.1
		c-6.2-14.4-4.2-25.4-4.4-36.3c-0.1-5.4,0-10.7-2.9-15.3c2.4-3.9,2.7-8.4,6.9-10.6c3.1-0.8,3.8,4.5,6.7,2.3
		c4.1,4.7,3.6,9.8,3.6,14.8c0,10.3,0,20.7,0,31c22.5,25.4,49.6,51.4,59.5,56.9c4.1-3.5,4.1-3.5,5.1-8.6c-17.3-15-31.6-33.4-48-50.4
		c2.1-6.3-3-12.1-2.4-18.8c0.6-6.3,1.6-13.2-0.2-19c-2.5-7.8-1.5-15.3-2.2-24c2.1-1.4,4.7-3.1,8.4-5.6c2,0.3,3.5,3.9,5.5,5.6
		c1.4,15.3,4.2,30,2.9,44.9c2.9,5.1,0.4,12.3,6.1,16.2c4.4,0.7,8.1-1.5,10.5-3.8c4.8-4.5,12.5-4.8,15.8-10.8
		c3-5.4,5.1-11.5,8.2-16.9c5.8-9.9,9.5-20.9,16.4-30.3c2.1-2.8,4.2-5.3,6.4-7.3c3.5-0.7,5.7,0.5,7.5,3c2,5.7-0.8,10.2-4.2,15.3
		c0,5.1-0.5,11.1,0.1,17c1.1,11-2.4,21.6-2.5,32.4c-0.1,10.7-0.1,21.5,0,32.2c0,2.3-0.7,4.7,0.8,7.1c24.8,0,49.7,0,75.5,0
		c0-8.7,1.5-17.7-0.3-25.9c-3.5-15.6-1.4-31.2-1.9-46.8c-0.2-4.7-3.5-8.4-2.7-13.3c0.7-4.7,0.2-9.5,0.2-15.5
		c1.7-0.9,4.2-2.3,6.7-3.6c2-3,4.7-2,6.8,0.8c0.3,0.7,0.9,1.4,0.8,2c-1.7,10.6,2.7,20.7,2.5,31.2c-0.3,10.3-1.2,20.8,0.4,30.9
		c1,6.5,1.9,12.8,2,19.4c0.1,6.7,0,13.4,0,20.6c6.1,0,12,0,18.7,0c-0.4-8.6,2.8-17.8-1.7-26.8c-0.5-1-0.3-2.3-0.3-3.4
		c-0.3-9.7,1.3-19.5-2.4-28.8c1.8-14.9-2.9-29.5-2.3-44.3c0.6-12.6-2-24-9-35.3c-3.4-1.8-7.4-3.8-12.5-6.4
		c-24.1,0-49.5-0.3-74.9,0.2c-7.3,0.1-13.1,3.7-18.7,9.9c-10.1,11.1-12.5,25.3-18.4,37.9c-3.8,8.2-8.5,16.3-10.2,25.7
		c-3.8,0-7.3,0-10.7,0c-1.8-1.2,0-4.2-3-5.1c7.9-18.9,14.3-38.3,23.5-56.5c7.9-15.6,19.8-25.6,38.5-27c-1.5-5.7-6.4-10-5.1-16
		c-5.9-6.9,1-13.7,0.2-20.6c6.5-10.6,13.3-21.1,27.3-22.3c3.6-0.3,6.4-5.2,10.5-1.5c3.3,3,7.6,0.4,11.4,1.8
		c7.8,3.7,13.1,10.7,18.9,16.9c3,3.2,2.5,8.5,3.9,12.6c1.5,4.4,0.9,7.4,0.1,11.6c-1.1,6-3.7,11.3-5.9,16.6c2.7,2.6,5.7,1.5,8.2,1.4
		c15.3-0.7,25,7.9,32.7,19.6c5,7.7,7,16.5,7.2,25.6c0.1,5.6,0.4,11.2-0.1,16.7c-0.6,5.9,3.6,10.8,2.7,16.9
		c-0.9,5.8-1.6,12.4,0.1,17.8c3.3,10.1,1.8,20.1,1.9,30.1c0.1,5.5,3.5,10,2.7,15.7c-0.8,5.4-0.2,11-0.2,17.4c9.3,0,18.4,0,27.4,0
		c8.7,0,17.5,0,26.3,0c1.9,2,3.9,3.9,5.9,6c0.3,3.2,0.5,6.4-3.5,7.9c-6.3,1.6-13.8-1.9-20,3.1c0,51.6,0,102.7,0,154.6
		c8.9,3.3,17,8.1,21,19.7c0,11,0,24.1,0,36.8c-4.5,4.9-8.9,4.6-13.7,0.2c0-12,0-24.2,0-35.9c-5.2-6-11.5-7-17.8-6.3
		c-2.9,1.7-5.5,3.2-8.4,4.9c0,11.5,0,22.9,0,34c-2.4,2.3-4.4,4.3-6.4,6.3c-3.1,0.3-6.3,0.5-8.3-5.2c0-8.7,0-19.4,0-30.1
		c0-13.8,4.7-19.5,18.9-22.7c0-52.7,0-105.5,0-158.6c-52.2,0-104.1,0-156.4,0c-0.8,0.8-1.9,1.9-3.1,3.1c0,2.3,0,4.6,0,6.8
		c-6.6,8.2-14.1,13.7-27,10.1c-7.8-4.1-13.7-13.2-22-20.2c-57.2,0-114.8,0-173,0c0,3.7,0,7.2,0,10.7c0,40.6,0,81.1,0,121.7
		c0,7.7,0.9,15.5-2.7,22.2c1.6,3.1,3.5,4.2,6.3,5.2c10.9,4.2,14.1,14,15.3,24.3c0.9,7.5-0.2,15.1,0.3,22.6c0.3,3.9-2.9,6.1-3.1,9.7
		c-3.8,0.5-7.7,1.5-10.9-2.9c0-10,0-20.7,0-30.6c-7.6-12.1-12.8-13.7-25.7-8.7c-3.7,4.6-3.4,9.9-3.3,15.3c0.1,7.9,0,15.9,0,23.8
		c-1.2,1.2-2.3,2.3-3.4,3.4C31.9,480.1,27.7,481.4,24.9,476z"/>
	<path class="st0" d="M299.2,287.3c0,6.1,0,13.7,0,21.2c-0.1,11.7,3.5,22.9,2.6,34.8c-0.9,11.5-1.9,23.4,0.2,34.5
		c3.2,16.9,1.7,33.6,1.7,50.3c0,10.6,5.3,20.5,2,31.4c2.5,1.9,4.6,3.6,7.9,6.1c2.6,0,6.9,0,10.9,0c4.8-4.4,5.9-9.7,5.9-15.7
		c-0.1-45.7-0.1-91.4-0.1-137.1c2-3.1,2.6-7.2,6.2-9.2c3.5-0.6,4.4,4.5,8.1,2.4c0,40.8,0,80.6,0,120.3c0,6,0.5,12-0.1,17.9
		c-0.6,5.6,4.5,10.1,2.3,15.5c2.2,2.2,4.2,4.2,6.2,6.2c3.1,0,6.3,0,9.5,0c5.9-4.5,8.6-10.9,8.3-17.9c-1.3-33.1,4.1-66,2.5-99.1
		c-0.3-5.5-1.2-11.4,0.2-16.6c4.1-15.1,0.9-30.4,2.6-46.9c1.5-1.1,3.9-3,7.9-6c-0.4,0.1,0.8,1,1.9,2.3c1,1.3,3.3-0.3,4.1,2.5
		c0,11.9-0.4,24.6,0.1,37.3c0.3,8.6-3.6,16.5-2.7,25.3c0.9,8.6,0.2,17.5,0.2,26.2s1.5,17.8-0.3,26.2c-3.6,16.8-1.2,33.6-2,50.3
		c-0.3,6.7-4.1,18.2-7.7,23.1c-2.6,3.6-8.4,2.8-9.5,7.9c-11-0.8-22.6,3.3-30.4-8.8c-3.7,4.1-6.6,7.2-10.7,8.7c-3.5,0-7.1,0-10.6,0
		c-13.1-0.2-22-9.9-24.5-22.7c-3.3-16.8-2.2-33.6-1.8-50.3c0.3-13.4-3.3-26.2-2.8-39.5c0.5-13.5,1.2-27.1-0.3-40.5
		c-0.8-7.2-1.9-14.4-1.9-21.7c-0.1-7.5,0-15,0-22.3c2.8-1.3,5.1-2.3,8.2-3.8C294.8,281.6,296.7,284.1,299.2,287.3z"/>
	<path class="st0" d="M129,482.6c-3.4-0.6-5.9,0.1-8.5,2.9c-3-3.3-7.3-3.2-11-3c-3.5-3.5-6.6-6.6-11.1-11.1c-0.9-0.9,0-4.2-1.6-7
		c-3-5.2,0.1-11.8,2.3-16.5c8.5-17.6,14-36.3,22.4-53.9c2-4.3,2.2-9.5,5.9-13.1c0-32.6,0-65.1,0-97.7c2.1-2.5,4.3-4.7,8.7-3.4
		c1.3,1.6,3.1,3.7,5.5,6.4c0,0.1,0.1,1.3,0.1,2.5c0,28.6-0.2,57.2,0.2,85.8c0.1,6-1.1,11.7-3.4,16.5c-7.4,15.2-11.9,31.6-19.6,46.8
		c-2.3,4.6-3.9,10.4-6.2,15.3c-2.7,5.7-1.9,9.9,1.2,14.8c3.3,0,6.8,0,10.7,0c14.3-25.7,28.7-51.6,43.3-77.7c0-6,0.5-12.4-0.1-18.7
		c-0.8-7.9,3.6-14.9,2.7-22.9c-0.9-7.4-0.4-15.1-0.1-22.6c0.2-4.1,4.4-7.4,1.5-12.5c4.5,0,8,0,11.8,0c1,2.1,2.3,4.7,3.5,7
		c-4.7,13.4-0.2,27.2-3.1,39.9c-1.9,8.7-1.8,17-1.6,25.3c0.1,7.7-2.3,14.2-6.2,20.2c-5.7,8.7-10.5,17.9-15.6,26.9
		c-7.1,12.6-14.5,25-21.3,37.6C137,475.3,132.3,477.7,129,482.6z"/>
	<path class="st1" d="M265.8,465.6c-3,8.1-8.5,12-13,16.8c-3.7,0.5-7.9-1.2-10.3,2.7c-8.1-3.6-16.9-4.9-21.6-14.3
		c1-3.1-2.7-6.2-3.1-10.6c-0.4-4.8-1.8-9.6-2.4-14.5c-0.6-4.8-1.2-9.9-2.3-14.5c-2.5-9.9-3.9-19.9-5.5-29.9
		c-2.2-13.2-7.4-25.6-11-37.6c0.2-3.2,2.6-3.8,3.6-5.4c2.4,0,4.8,0,7.2,0c3.3,2.2,5.4,5.9,5.8,9.3c0.7,6.1,3.2,11.8,5.6,16.8
		c2.5,5.4-0.7,11.8,4.2,16.2c-1.7,7.1,2.3,13.5,2.6,20.5c0.2,6,1.3,12.1,3.1,17.7c2.4,7.3,0.8,15.2,3,23.1c2.3,1.5,4.7,2.9,7,4.4
		c-0.3,0.4-0.7,0.9-1,1.3c3.5,0,6.9,0,10.7,0c1.5-1.3,0.4-4.5,3.2-5.6c-0.2-6.5,0-12.8-2.1-19.3c-1.8-5.6,0-11.9-2.3-18.1
		c-1.9-5.1,0.7-11.5-2.7-16.8c1.8-8.7-3.3-16.6-2.5-25.3c0.6-6.5-3-12.5-5.1-18.2c-6.4-17.3-12.2-34.7-17.7-52.3
		c-2.6-8.4-6.8-16.4-7.6-27c1.7-2.4,4-6.5,9.8-5.7c6.1,3.8,6.7,10.9,8.4,16.6c8.1,26.4,16.3,52.8,25.5,78.9c0.4,1,1.2,2,1,3.2
		c-1.5,8.6,3.6,16.6,2.4,25.3c-0.6,4.6,3.5,8.3,2.5,13.4c-0.9,4.4,0.2,8.9,2,13.4c1.6,4.1,0.9,8.8,2.1,13.4
		C267.2,450.8,265.8,458.7,265.8,465.6z"/>
	<path class="st0" d="M195.6,117.5c-13.1,4.2-20,11.5-25.5,20.5c-4.3,7-7,14.6-9.3,22.4c-1.5,5.1-1.9,10.5-2.9,15.6
		c-1.1,5.3-0.4,11.1-2.3,15.6c-2.4,5.4,0,11.3-2.6,15.6c-3.1,5-0.4,10-2.2,14.6c-1.6,3-5.5,2.6-7.4,5.1c-1.9-0.8-3.8-1.6-5.8-2.5
		c-0.2-0.6-0.7-1.4-0.6-2c0.9-5.7-1.8-11.5,1.6-17.2c2.7-4.5-1.5-10.9,3.1-15.4c-1.5-6.7,2.3-12.8,2.3-19.3c0-8.5,3-16.2,5.8-23.8
		c6.4-17.2,17.8-30.8,33.3-40.8c0.6-0.4,1-1.2,1.7-2.2c-1.4-2.8-2.9-5.7-5.1-9.9c0-2.6,0.5-6.6-0.1-10.4c-1.6-9.5,1.8-17.8,7.7-24.1
		c5.4-5.8,12.2-11.4,21.5-11c5.5,0.3,11.1,0,16.6,0c2.3,1.2,4.6,2.4,6.9,3.7c20.8,11.3,25.5,38.6,8.8,55.7
		c-9.4,9.7-20.3,13.1-33.1,12.1c-2.4-0.2-4.4-2.8-7.4-2.3C198.5,117.8,196.1,117.5,195.6,117.5z"/>
	<path class="st2" d="M329.7,43.6c5.2,0,10.3,0,15,0c11.1,3.2,13.3,12.7,16.5,21.7c-6.5,20.8-17.3,26.3-34.5,21.2
		c-3-3.2-6.2-6.7-11.1-12.2c-1.9-3.8-2.4-10.2,0.3-16.6C318.5,51.6,321.9,46.2,329.7,43.6z"/>
	<path class="st3" d="M284.9,245.4c-1.9,1.7-3.1,2.7-3.4,2.9c-8.9-8.9-17.5-17.5-26.3-26.3c7.8-6.7,19.5-11.8,27.1-22.7
		c0.1-1.2,0.3-3.1,0.6-5.1c1.3-0.1,2.3-0.2,3.5-0.3c-2.9,8.3-1.2,16.7-1.4,25C284.7,227.7,284.9,236.4,284.9,245.4z"/>
	<path class="st4" d="M237,87.9c-3.3,2.8-3.2,7.5-6.5,11.4c-3.1,1.6-7.1,3.6-12,6.2c-10.9,2.9-17.1-5.9-24-12.8
		c-0.9-12.3-1.5-24.5,14.4-30c4.1,0,9.6,0,15.2,0C237.2,75.7,237.2,75.7,237,87.9z"/>
</g>
</svg>
