<?xml version="1.0" encoding="utf-8"?>
<!-- Generator: Adobe Illustrator 26.2.1, SVG Export Plug-In . SVG Version: 6.00 Build 0)  -->
<svg version="1.1" id="Capa_1" xmlns="http://www.w3.org/2000/svg" xmlns:xlink="http://www.w3.org/1999/xlink" x="0px" y="0px"
	 viewBox="0 0 512 512" style="enable-background:new 0 0 512 512;" xml:space="preserve">
<style type="text/css">
	.st0{stroke:#000000;stroke-width:4.7147;stroke-miterlimit:10;}
	.st1{fill:#1A1A1A;stroke:#000000;stroke-width:4.7147;stroke-miterlimit:10;}
	.st2{stroke:#191819;stroke-width:4.7147;stroke-miterlimit:10;}
	.st3{fill:#4A4A4A;stroke:#000000;stroke-width:4.7147;stroke-miterlimit:10;}
	.st4{fill:#414242;stroke:#000000;stroke-width:4.7147;stroke-miterlimit:10;}
	.st5{fill:#464646;stroke:#000000;stroke-width:4.7147;stroke-miterlimit:10;}
	.st6{fill:#2B2A2A;stroke:#000000;stroke-width:4.7147;stroke-miterlimit:10;}
	.st7{fill:#3B3C3C;stroke:#000000;stroke-width:4.7147;stroke-miterlimit:10;}
	.st8{fill:#474847;stroke:#000000;stroke-width:4.7147;stroke-miterlimit:10;}
	.st9{fill:#515251;stroke:#000000;stroke-width:4.7147;stroke-miterlimit:10;}
	.st10{fill:#F1F1F1;stroke:#000000;stroke-width:4.7147;stroke-miterlimit:10;}
	.st11{fill:#F9F9F9;stroke:#000000;stroke-width:4.7147;stroke-miterlimit:10;}
	.st12{fill:#FCFCFB;stroke:#000000;stroke-width:4.7147;stroke-miterlimit:10;}
	.st13{fill:#F0EFEF;stroke:#000000;stroke-width:4.7147;stroke-miterlimit:10;}
	.st14{fill:#FAFBFB;stroke:#000000;stroke-width:4.7147;stroke-miterlimit:10;}
	.st15{fill:#EFEEEE;stroke:#000000;stroke-width:4.7147;stroke-miterlimit:10;}
	.st16{fill:#EEEDED;stroke:#000000;stroke-width:4.7147;stroke-miterlimit:10;}
	.st17{fill:#DFDEDE;stroke:#000000;stroke-width:4.7147;stroke-miterlimit:10;}
	.st18{fill:#FFFFFF;stroke:#000000;stroke-width:4.7147;stroke-miterlimit:10;}
	.st19{fill:#F2F2F1;stroke:#000000;stroke-width:4.7147;stroke-miterlimit:10;}
	.st20{fill:#EEEDEC;stroke:#000000;stroke-width:4.7147;stroke-miterlimit:10;}
	.st21{fill:#F6F7F7;stroke:#000000;stroke-width:4.7147;stroke-miterlimit:10;}
	.st22{fill:#353636;stroke:#000000;stroke-width:4.7147;stroke-miterlimit:10;}
	.st23{fill:#414141;stroke:#000000;stroke-width:4.7147;stroke-miterlimit:10;}
	.st24{fill:#2A2A2A;stroke:#000000;stroke-width:4.7147;stroke-miterlimit:10;}
	.st25{fill:#F7F7F7;stroke:#000000;stroke-width:4.7147;stroke-miterlimit:10;}
</style>
<g>
	<path class="st0" d="M393,450.3c0-55.8,0-111.6,0-168.2c-8.4-3-17.4-1.9-26.1-1.3c-14.6,1.1-25.7-3-32.4-16.6
		c1.5-3.7-1.7-6.9-1.2-10.5c7.2-21,24.2-21.1,42.1-19.6c-17.1-10.8-30.1-25.9-43.3-40.6c-5.2-5.8-9.7-13.2-6.9-20.8
		c6.5-17.7,0.8-33.9-3.9-50.5c-2.4-8.5-5.4-17.3,2.9-25c11,1.2,12.8,10.3,13.8,18c3.2,24.1,15.6,41.3,34.7,55.9
		c11.2,8.6,17.6,9,27.5-1.3c15.4-16,31.5-19,46.5-11.4c3.2,1.6,5.5,4.1,6.5,7.6c-0.3,3.3-2.2,5.5-4.9,7.2c-2,0.6-4,0.9-6.1,0.8
		c-29.2-0.6-32,2-36.2,34c1.6-8,4.3-15.2,12.9-17.3c12.1,4.9,1,22.6,15.1,24.6c7.7,1.1,8.1-8.4,13.3-11.4c14.6-2,12.9,8.2,9.6,15.3
		c-10.9,23.6-13.4,52.5-40.8,66c-3.2,1.6-3.3,5.7-4.1,9.1c-0.7,3.2-1.7,6.4-2.3,9.7c-2.9,38.6-0.4,77.3-1.3,115.9
		c-0.2,10.2,1.4,20.8-4.8,30.2C400,453.1,396.5,453.1,393,450.3z"/>
	<path class="st0" d="M447.8,171.5c0.7-2.3,2.4-3.4,4.6-3.8c16.7,1.4,18.6,14.5,19.8,26.9c1.4,13.7,0.3,27.6,0.8,41.4
		c-2.5-52.9-2.4-105.8-2.4-158.7c0-6.9,0.4-13.9-4.6-19.6c-7.7-6.7-17.1-4.4-25.8-4.4C368,53.1,295.7,53.4,223.5,53
		c-9.3-0.1-21.3,3.8-25.5-10.2c9.5-7.9,20.9-6,31.8-6c81.4-0.2,162.9-0.1,244.2-0.2c7.1,0.1,10.3-4.2,11.8-10.5
		c0.9-1.8,2.1-3.2,3.8-4.4c8.5,7.7,3.5,16.9,2.8,25.6c-2.5,4-9.2-0.1-10.9,5.5c0,69.6,0,139.3,0,207.7c-3,6.8-10.4,1.4-14,11.7
		c0,22.8,0,50.4,0,77.9c0,37.3,0.1,74.5,0,111.8c0,7.4,1.7,15.3-3.9,21.8c-3.7,0.8-5.2-1.6-6.6-4.4c-5.5-20.2-10.9-22.7-29.3-13.8
		c-4.2,2-7.7,5.4-12.2,7c-3.1,0.5-5.3-0.8-6.9-3.4c-1.4-8.4-8.1-9.8-14.8-11.3c-2.6-1.3-4.6-3-3.9-6.4c0.9-0.9,2-1.3,3.2-1.1
		c3.4-0.1,6.9-0.2,10.3-0.3c9.1-8.4,9.1-19.7,9.2-30.8c0.2-21.4-0.2-42.9,0.2-64.3c0.2-8.6-1.3-18.2,7.7-24.8
		c10.9,3.7,8.5,12.9,8.5,20.6c0,24.2-0.4,48.4,0.2,72.6c0.2,8.9,0.1,19.5,13.1,19.5c13.9,0,11.6-11.4,11.7-19.8
		c0.4-33.2-0.1-66.4,0.3-99.6c0.2-14.1-4.5-20.3-19.6-18.3c-10.2,1.3-20.8,0.1-28.5-8.8c1-2.7,3.2-3.8,5.7-4.5
		c5-4.5,11.3-4.3,17.4-5c23.4-2.4,26-3.8,24.6-27.8c-1.3-23,8.7-46.1-1-68.9C450.7,184.1,447.1,178.4,447.8,171.5z"/>
	<path class="st0" d="M305.6,463.2c-0.1,2.7-0.1,5.5-0.2,8.2c-0.6,1.9-2.4,3.2-2.5,5.4c0.2,1.2-0.3,2.2-1.4,2.8
		c-3.3,0.7-5-1.3-6.3-3.8c-1.6-4-1.4-8.4-2.5-12.6c-1-2.2-2.5-4-4.7-5.2c-7.6-4.1-16.4,0.9-23.9-3.4c-4.6-8.7-12.8-6.2-19.8-5.9
		c-15.3,0.7-30.8-2.7-45.8,2.1c-15,17.7-33.1,30.3-56.6,33.7c-4,1.2-8.2,2.8-10.8-2.5c0.5-4,3.5-5.9,6.7-6.9
		c39.5-12.4,62.9-40.1,74.9-78.7c1.8-2.7,4.2-4.6,7.4-5.4c2.1,0.1,3.8,0.9,5.2,2.6c4.9,15.1-4.5,27.7-7.9,41.6
		c6.8,3.3,13.3,2.2,20.8-0.5c2.4-12.5-0.7-25.6,1.5-38.4c1-3.9,2.4-7.6,6.8-9c6.3,1.5,6.5,8.6,10.7,11.9c8.2,6.5,15.2,5.8,19.9-4.3
		c1.8-3.4,3-7.4,8.2-6.5c2.2,11.3,3.8,22.2,15.6,29c9.3,5.3,11.7,16.1,13.1,24.8c0.4,9.7-12,4.5-11.7,12.8
		C304.8,457.1,303.9,460.6,305.6,463.2z"/>
	<path class="st1" d="M489.6,21.7c-0.1,1.6-0.2,3.2-0.3,4.7c-2,1.7-4.2,3.1-6.5,4.3c-10.1,3.3-20.5,2.2-30.8,2.3
		c-77.1,0.1-154.3-0.1-231.4,0.3c-10.4,0.1-22.5-3.4-29.8,8.5c-2.1,3.3-4.3,6.3-8.9,5.5c-3.5-8.1-0.6-16.2-1.5-22.5
		c4.1-6,8.5-4.9,12.5-4.9c96.3-0.1,192.6,0,288.9-0.1C484.7,19.8,487.4,19.5,489.6,21.7z"/>
	<path class="st0" d="M14.9,358c4.4-29.3,21.3-50.5,45.5-65.4c10.5-6.4,17.4-14.1,21.9-24.8c3.7-0.8,5.4,1.4,6.9,4.2
		c3,23.4,10.6,44.7,27.6,63.3c9.7-10,3.8-17.8-0.2-24c-12.2-18.8-10.5-34.9,6.6-49.4c3.1-3.6,6.5-6.9,9.7-10.5
		c4.5-4.1,9.4-10,15.6-3.8c4.9,5,1.1,10.8-2.8,14.5c-9.1,8.4-2.3,12.7,3.6,17.6c0.7,2,0.5,3.9-0.4,5.7c-1.5,1.3-3.3,2.3-5.2,2.9
		c-11.3,1-15.9,4.5-10.4,17.3c10.5,24.2,7.9,36.8-6.2,43.3c-14.9,6.9-26.7-0.4-39-24.2c-1.9-3.7-3.9-7.3-5.6-11.1
		c-5.4-12.2-13-12.7-22.8-4.8c-14.4,11.7-24.5,26-30.6,43.6c-2.5,7.3-2.2,17-12.1,20.2C11.3,368.3,13.5,363.1,14.9,358z"/>
	<path class="st0" d="M142.8,285.1c1.9-0.2,3.7-0.5,5.6-0.7c4.2-3.4,8.4-3.4,12.6,0c13.8,10.5,29.3,13.4,46.4,12
		c13-1,26.1-0.6,39.1,0c15.4,0.7,24,7.6,27.2,22.9c3.8,18.1,8.1,36.1,8.4,54.8c1.1,4.2,2.6,8.6-2.9,11.1
		c-12.6-7.8-10.5-21.5-12.6-33.2c-7.7-42.3-14.8-47.2-59-38.8c3.2,8.9,8.1,16.8,17.4,18.6c17.1,3.3,22.6,13.8,21.9,29.6
		c-0.8,4.1-2.6,7.6-5.7,10.4c-9.2,2.3-8.6-5.7-10.8-10.4c-2.8-5.9-4.9-4.7-7.1,0.2c-1.6,3.5-3.3,6.9-7.9,6.9
		c-3.6-2.3-4.5-6.1-5.6-9.8c-0.9-2.7-1.8-5.4-2.9-8c-11-24.5-28.4-43-52.4-55.2C149.8,292.9,143.9,291.7,142.8,285.1z"/>
	<path class="st0" d="M181.9,47.3c2.7-0.8,4-2.8,4.7-5.4c4.4-2.4,8.4-2.2,11.8,1.9c5.4,6.9,12.8,3.3,19.2,3.3
		c80.6,0.3,161.1,0.1,241.7,0.5c5.5,0,14.4-5.4,16.7,5.7c-9.3,6.3-19.9,4.7-30.1,4.8c-70.3,0.2-140.7,0-211,0.1
		c-9.6,0-19.4-1.2-28.4,3.3c-7.9,6-6.3,14.8-6.3,22.9c-0.1,50.4,0.1,100.7-0.1,151.1c0,9.5,1.8,19.5-5.6,27.6
		c-7.3-4.1-3.4-11-3.5-16.4c-0.3-59.8-0.3-119.6-0.1-179.4C190.7,58.9,190.6,51.4,181.9,47.3z"/>
	<path class="st0" d="M118.4,193.3c-20.2-8.4-29.6-22.8-26.5-40.7c3.3-18.8,18.7-32.5,37-33.1c18.1-0.5,34.5,12.7,38.6,31.2
		c4.1,18.6-5.6,34.2-26.5,42.6C133.5,196.4,125.9,200.2,118.4,193.3z"/>
	<path class="st2" d="M194.3,263c0-64.3,0-128.5,0.3-192.8c0-6.2-4.2-14,4.2-18.6c7.3,8.9,5.9,19.6,6,29.8
		c0.6,54.6-0.9,109.2,0.9,163.7c1,3.3,3,5.7,6.4,6.8c31.5,2.5,63,0.2,94.5,1.1c9.4,0.3,19.4-1.3,27.5,5.5c1.6,0.7,3.9,1,3.4,3.4
		c-0.2,0.9-2,1.5-3,2.2c-44.1,0.2-88.2,0.3-132.2,0.4C199.6,264.6,196.9,263.5,194.3,263z"/>
	<path class="st0" d="M131.8,480.3c2,4.6,6.4,3.4,9.9,4.1c-4.2,3.7-9.2,3.6-14.3,2.9c-6.8-2.3-13.7-2.3-20.5,0
		c-39.8-0.6-85.9-37.2-92.1-81.2c-1.3-5.3-4-10.9,2.8-14.6c8.9,3.9,9.2,13.1,11.9,20.5c14,38.2,41.6,58.1,81.5,62.2
		C118.3,475,126.3,473.3,131.8,480.3z"/>
	<path class="st0" d="M389.7,451.4c0.9,2.5,3,3.5,5.3,4.1c0.2,7-8.1,11.5-6,19.4c10.6,5.6,12.3-10.1,20.9-8.5
		c0.4,2.2,1.4,4.1,3.7,4.9c13.6,13.5,30.9,4,46.1,7.4c0.5,2.3,1.4,4.1,3.8,4.9c-3.1,6.3-8.6,8.2-15.1,8.2c-23.2,0.1-46.4,0-69.2,0
		C372.3,468.4,374.1,462.1,389.7,451.4z"/>
	<path class="st0" d="M86.4,272.6c-0.5-2.4-1.6-4.2-4.1-4.8c4.8-6.5,5.2-14,4.7-21.6c-0.8-12.7,1.9-24.6,7.7-35.8
		c1.1-1.8,2.7-2.7,4.8-2.6c3.2,0.9,4.9,3.1,5.5,6.2c0.3,4.7-1.6,8.9-3.3,13.1c-2.8,7,0.4,9.6,7,9.9c7.1,4.4,4.5,9.7,1.4,15.1
		C102,258.6,99.4,271.6,86.4,272.6z"/>
	<path class="st0" d="M102.8,213.8c-0.5-2.5-2-4-4.5-4.4c-1-1.6-0.6-2.9,1-3.8c5.3-5.8,16.4-2.5,19.1-12.3c7.5,0,15.1,0,22.6,0
		c-1.6,1.2-3.1,2.4-6.4,4.9c10,5.1,18.4,9.9,21.7,19.7c-1.2,2.7-2.5,5.2-6,5.5C136,212.6,120.3,208.5,102.8,213.8z"/>
	<path class="st3" d="M198.4,450.7c1.4-4,4.6-4.4,8.2-4.4c15.7,0.1,31.5,0.8,47.1-0.3c8-0.6,10.4,4.6,14.5,8.6
		c4.5,7.6,1.6,16,2.5,24.1c-1,2.9-2.9,4.8-5.9,5.5c-11.6-8.9-9.7-20.1-4.5-33.5C239.1,450.7,218.7,450.7,198.4,450.7z"/>
	<path class="st0" d="M151.9,223.4c0.6-2.6,1.7-4.7,4.5-5.6c1,0.8,1.3,1.7,0.9,2.9c1.5,3,1.3,6.4,2.8,9.4c0.3,18,0.7,36.1,1,54.1
		c-4.2,0-8.4,0-12.6,0c0.1-1.2,0.1-2.5,0.1-3.7C148.6,261.5,146,242.2,151.9,223.4z"/>
	<path class="st4" d="M264.7,484.2c0.5-2.6,2-4.1,4.6-4.6c9.5-1.1,18.8-3.6,28.2-5.1c0.5,2.3,1.5,4.3,4,5
		C287.2,494.8,282.5,495.4,264.7,484.2z"/>
	<path class="st0" d="M18.8,392.5c-5.8,3.3-2.3,9.2-4,13.7c-6.1-16.1-6.1-32.1,0-48.2c1.6,4.4-1.8,10.3,3.9,13.6
		C25.7,378.5,25.6,385.5,18.8,392.5z"/>
	<path class="st5" d="M277.9,384.1c4.7-2,3.3-6.5,4.3-10.1c3.4,4.3,3.6,9.2,2.9,14.4c-4.6,1.7-3.3,6.1-4.3,9.4
		C273.1,394.6,273.2,389.8,277.9,384.1z"/>
	<path class="st6" d="M107,487.4c6.8-5.3,13.7-5.3,20.5,0C120.7,488.8,113.8,488.6,107,487.4z"/>
	<path class="st7" d="M481.5,52.8c0.6-7.8,6.7-4.7,10.9-5.5C490.9,53.2,484.9,50.4,481.5,52.8z"/>
	<path class="st8" d="M160,230.2c-4.3-2.1-3.1-5.9-2.8-9.4C159.7,223.5,160.9,226.5,160,230.2z"/>
	<path class="st9" d="M305.6,463.2c-3.6-1.7-3.5-4.9-3.4-8.2C305.3,456.9,306.6,459.5,305.6,463.2z"/>
	<path class="st10" d="M99.3,205.6c-0.3,1.3-0.7,2.5-1,3.8c-1.2,0.3-2.4,0.7-3.5,1C94.8,207.4,96.3,205.8,99.3,205.6z"/>
	<path class="st9" d="M302.9,476.8c-0.6-2.5,0.1-4.3,2.5-5.4C306.1,473.9,304.9,475.5,302.9,476.8z"/>
	<path class="st11" d="M406.2,296.3c8.9,1.2,17.8,2.9,26.7,3.3c8.2,0.4,16.2-3.2,25.8-1.5c0,49.5,0,99.1,0,149.8
		c-10.1,3.3-20.9,1.9-34,1.8c0-39.8,0-78.9,0-118.1c-9.7,11.4-6.2,24.2-6.7,36.3c-0.6,13.1-0.1,26.3-0.1,39.5c0,13.1,0,26.2,0,37.7
		c-4.7,6.5-10.1,3.8-14.6,4.9c-2.6-49.1-0.5-98.2-1.1-147.3C402.1,299.7,403.3,297.4,406.2,296.3z"/>
	<path class="st12" d="M412.2,223.1c10.5,1.8,17.3,4.7,23.3,10.7c0.8,9.9-5.1,18-9.1,26.5c-3.8,8.1-10.9,12.2-20.2,12.1
		c-15.9-0.1-31.9,0.4-47.8-0.2c-10.4-0.3-15.3-5.3-14.7-13.3c0.7-9.7,7.1-12.6,15.8-12.5c6.2,0.1,12.6-0.7,18.7,0.2
		C396.2,249.1,409.6,245,412.2,223.1z"/>
	<path class="st11" d="M447.8,171.5c2.9,4.3,8,7.1,8.3,13c5.1,10.1,1.2,16.9-8,21.7c-2.2,6.4-4.3,12.7-6.6,19.6
		c-8.5-3.9-15.9-7.3-22.6-10.4c-3.9-7.8,6.6-14,1.1-22.2c-10.8,6.1-8,20-16.3,27.3C398.3,175.1,412.3,159.8,447.8,171.5z"/>
	<path class="st13" d="M448.1,206.3c5.5-6.2,10.2-12.7,8-21.7c4,2.8,3.7,7.1,3.7,11.1c0.1,30,0,60.1,0,90.8
		c-15.4,9.1-32,4.7-47.9,5.4c-2.5-3.2-8-2.1-9.7-6.3c0.7-1.6,1-3.8,1.6-3.8c18.9-1.7,29-13.2,35.2-30.1c5.5-15.2,12-30,17.9-44.5
		C453.1,203.8,450.6,205.7,448.1,206.3z"/>
	<path class="st14" d="M393.4,197.2c0,9.6,0,16.3,0,23.3c-9.1,3.7-16,1.6-22.4-5c-9.5-9.9-19.4-19.5-29.1-29.2
		c-5.3-5.3-9.1-10.9-2-17.5c7-6.5,12.5-2,17.7,2.9c5.4,5.2,11,10.4,15.9,16.1C378.7,193.8,384.8,197.5,393.4,197.2z"/>
	<path class="st15" d="M198.4,43.8c-3.9-0.6-7.8-1.3-11.8-1.9c0-4.1,0-8.2,0-15c99.9,0,199,0,298,0c4.1,5.4,3.7,10.8,0.2,16.2
		c-87.9,0-175.8,0-263.7,0C213.6,43.1,206,43.6,198.4,43.8z"/>
	<path class="st16" d="M459.7,478.7c-15.2,10.2-31.8,2.8-47.2,4.9c-3.4-5.1,0.7-8.5,1.1-12.3c11.2-14.9,26.4-16.9,44.4-14.1
		C461.4,464.2,459.4,471.6,459.7,478.7z"/>
	<path class="st17" d="M410,466.4c-5.4,3.9-5,10.9-9.6,16.4c-4.7,1.6-10.6,2-16.7-0.5c-4.5-12.5,0.9-20.7,11.4-26.7
		c6,0.4,12,0.7,17.7,1.1C414.9,461.2,410.4,463.1,410,466.4z"/>
	<path class="st7" d="M484.8,43.1c1.6-5.4,1.3-10.8-0.2-16.2c1.6-0.1,3.2-0.3,4.7-0.4C488,32,493.3,39.4,484.8,43.1z"/>
	<path class="st18" d="M18.8,392.5c0-7,0-13.9,0-20.9c5.7-35.8,23.8-62.6,57.2-79.3c8,9.3,10.8,21,16.6,31
		c2.7,4.8,4.5,10.1,7.5,14.7c6.3,9.8,17.7,13,27,8.1c8.6-4.5,12.7-14.5,8.5-25.1c-4.7-12-10.9-23.3-16.5-35.1c8.9-4,16.4,0,23.8-0.8
		c32.5,12,56.7,32.7,69,65.8c0.8,1.9,2.4,3.5,2.5,5.7c0.5,3.6,0.9,7.1,1.4,10.7c7.9,9.7,3.9,19.5,0.1,29.2
		c-9.9,46.1-37.9,73.9-83.9,83.8c-13-0.9-26.2,1.1-39-2.8C50.1,464.9,26.3,435.8,18.8,392.5z"/>
	<path class="st11" d="M277.9,384.1c-0.6,4.9-0.5,9.7,2.9,13.7c-0.6,4.2,1.5,10.1-6.2,9.8c-2-0.1-4,0-6,0c-4.6,0-9.3,0-12.9,0
		c-6.6-5.8-5.8-13.1-8-19.2c-7.3-7.3-6.5-15.9-4.4-24.9c-1.2-7.5-2.4-14.9-3.6-22.2c-6.9-5.9-15.1-1.5-23.9-4.2
		c-6.5-9.4-13.9-20-22.7-32.8c19.7,0,37.3-0.6,54.9,0.2c12.1,0.6,17.5,7.4,20.3,22.4C271.5,345.9,274.6,365,277.9,384.1z"/>
	<path class="st19" d="M219.8,357.4c0-3.3,0-6.6,0-9.9c8.6-2.9,13.6-1,15.2,8.1c1,6-0.2,12.5,4.2,17.7c9.4,6.6-0.2,16.9,4.6,24.4
		c0,14.3,0,28.5,0,43.5c-10.7,0-22.9,0-36.2,0c6.6-16.1,16.1-30.9,15.1-48.7c-4.4-5.8-3.4-12.5-3.3-19.1
		C220.2,368,222.2,362.8,219.8,357.4z"/>
	<path class="st20" d="M254.2,416c32.4-4.5,41-0.5,51.9,25.8c-14.9,0-28.9,0.1-42.9-0.1c-6.3-0.1-10.5-3.2-10.6-9.9
		C252.5,426.6,251.1,421,254.2,416z"/>
	<path class="st21" d="M297.6,474.5c-8.1,8.8-17.1,12.6-28.2,5.1c-6.1-8-5.8-16.4-1.2-25c8.7-6.7,17.4-6.4,26.1,0
		c1,1.8,2.7,3.1,3.5,4.9C297.7,464.6,297.6,469.5,297.6,474.5z"/>
	<path class="st22" d="M243.7,397.6c-5-7.5-3.8-16.1-4.6-24.4c1-3.4-0.2-7.7,4.1-9.7c1.2,8.3,5.1,16.2,4.4,24.9
		C243.2,390.1,244.3,394.2,243.7,397.6z"/>
	<path class="st23" d="M219.8,357.4c3.8,4.2,3.7,9.2,3,14.4c-4,6.4,0.9,14.2-3.4,20.5c-0.4,2.1-1.4,3.7-3.6,4.2
		c0-9.7-0.1-19.5-0.1-29.2C220.2,365.3,218.9,360.9,219.8,357.4z"/>
	<path class="st24" d="M219.4,392.3c1.4-6.8-3.5-14.6,3.4-20.5c1.2,6.9,1.3,13.7-0.1,20.6l-1.6,0L219.4,392.3z"/>
	<path class="st9" d="M297.8,459.6c-1.2-1.6-2.3-3.3-3.5-4.9C296.9,455.3,298.1,456.9,297.8,459.6z"/>
	<path class="st10" d="M151.9,223.4c0.3,15.7,0.6,31.3,0.7,47c0,3.9,1,8.4-4.2,10.3c-5.9-1.9-11.8-3.8-18.8-6
		c4-9.6,15.7-14.2,18.3-24.9c-7.8-3-9,2.8-11.7,6.2c-13.4,1.8-22.2-2.5-22.2-17.5c0-3.7-1.6-2.1-3.2-1.4c-1.2,0.5-2.4,1.1-3.6,1.7
		c-2.9,2.6-5.8,5.2-9.5,8.5c-6-13.1-0.9-23.3,5.2-33.3C125.4,200.4,134.3,202.2,151.9,223.4z"/>
	<path class="st25" d="M86.4,272.6c6.8-7.5,13.7-15,20.5-22.4c12.4-2.8,17.5,4.3,19.9,14.9c-5.5,6-11.1,12-16.7,18.1
		c2.8,12.2,10.1,21.6,14.3,32.4c1.5,3.8,4.1,7.4,4.8,11.3c1,5.9-1.8,10.3-7.5,13.1c-5.5,2.7-11,0.6-12.7-3.2
		C99.7,316,81.2,298.4,86.4,272.6z"/>
	<path class="st0" d="M126.8,265.1c-5.6-6.4-10.6-13.5-19.9-14.9c0.7-3.8,8.5-7.6,0.1-11.5c3.8-6.5,8.5-12.1,15.4-16
		c6.3,9.9-6.2,12.4-7,20.9c7.4,2.5,10,13.3,20.7,12.4C134.6,260.6,127.3,259.3,126.8,265.1z"/>
	<path class="st23" d="M214.3,356.6c-2-1.4-2.9-3.3-2.5-5.7C214.3,352.1,214.9,354.1,214.3,356.6z"/>
	<path class="st11" d="M128.9,188.5c-16.4-0.5-30.2-14.8-29.9-31c0.3-16.2,14.6-30.4,30.7-30.5c17-0.1,31.7,15.4,30.8,32.3
		C159.6,175.9,145.5,188.9,128.9,188.5z"/>
	<path class="st7" d="M198.3,255.3c1.7,1.2,3.4,2.5,5,3.7C200.4,259.5,198.7,258.3,198.3,255.3z"/>
	<path class="st0" d="M409.4,147.6c-15.4-8.2-20.7-21.9-18.6-38.1c2-15.5,16-29.5,31.8-31.8c16.4-2.4,29.7,3.6,38.2,18.6
		c2.1,3.7,0.1,5.4-3.1,6.5c-5.9-0.4-9.7-4.7-14.3-7.5c-11.4-6.9-22.3-6.3-31.8,3.1c-9.6,9.5-10.1,20.4-3.2,31.8
		c2.8,4.6,7.1,8.5,7.6,14.3C414.7,147.7,413.1,149.8,409.4,147.6z"/>
	<path class="st0" d="M290.9,96.5c6.4-7.1,20.3,2,18.9-12.5c-5.5-5.5-12.9-0.2-18.7-5.6c7.2-9.8,16.1-5,24.7-4.2
		c4.1,8.1,2.7,15.4,1.9,21.9c-4.7,7.9-13.8,2.2-18.7,7.3c-0.9,14.7,14.4,4.3,18.2,13.2c-8.1,4.1-16.2,2.8-24.7,1.4
		C288.7,110.6,290.3,103.3,290.9,96.5z"/>
	<path class="st0" d="M244.2,116.4c-7.9,5.5-15.9,1.5-23.9,3c-3.5-8.7-1.6-16.2-1.9-22.6c4.8-7.1,12.8-1.3,17.5-6.4
		c2.6-15.4-12.5-5.4-17.1-12.3c6.3-9,15-4.1,23.5-4.6c3.7,8.8,1.5,16.8,2,23.1c-5.4,7.3-13.6,1.4-17.7,7.4
		C230.8,111,230.8,111,244.2,116.4z"/>
	<path class="st0" d="M409.4,147.6c2.4-0.5,4.3-1.6,5.1-4.1c10.4-4.4,22.8-0.1,32.4-9.7c9.6-9.6,5.2-22.1,9.7-32.4
		c2.5-0.8,3.6-2.8,4.1-5.2c9.4,19.4,7.9,33.9-4.8,46.6C443.1,155.6,428.9,157.1,409.4,147.6z"/>
	<path class="st0" d="M256.8,95.3c3.6-2.8,7.6-5.3,9.6-9.8c5.8,1.1,6.9,7.7,11.8,9.7c-1,6-6,8.6-10.9,13
		C265.2,102.5,257.5,102.3,256.8,95.3z"/>
	<path class="st11" d="M456.6,101.4c7.8,32.4-9.9,50.1-42.1,42.1c-2.6-2.2-5.5-4.2-7.7-6.8c-11.8-14.4-11.5-30.3,0.6-42.4
		c12.1-12.1,28.2-12.4,42.4-0.5C452.4,95.9,454.3,98.8,456.6,101.4z"/>
</g>
</svg>
