<?xml version="1.0" encoding="utf-8"?>
<!-- Generator: Adobe Illustrator 26.2.1, SVG Export Plug-In . SVG Version: 6.00 Build 0)  -->
<svg version="1.1" id="Capa_1" xmlns="http://www.w3.org/2000/svg" xmlns:xlink="http://www.w3.org/1999/xlink" x="0px" y="0px"
	 viewBox="0 0 512 512" style="enable-background:new 0 0 512 512;" xml:space="preserve">
<style type="text/css">
	.st0{fill:#575757;}
	.st1{fill:#F9F9F9;}
	.st2{fill:#FFFFFF;}
</style>
<g>
	<path class="st0" d="M275.7,404.8c-5.5-5.1-12.3-3.3-18.2-2.3c-16.8,3-28.6,12-32.8,29.3c-3.7,15.4,0.2,28.4,11.4,39.5
		c5.8,5.8,13.1,7.8,21.6,7.9c-8.5,6.9-25.6,2.7-32.8-3.2c-4.6-3.8-6.1-2.7-9,1.9c-10.1,15.9-26.5,21.2-44,24
		c-4.4,0.7-9,0.7-13.7,0.6c15.4-3.5,26.8-12.8,37-23.9c11.8-12.9,16.2-28.2,14.7-45.5c-1.1-12.8-3-25.4-5-38.1
		c-2.7-16.4-12.5-27.8-24.4-37.8c-21.5-17.9-47.4-24-74.8-25.5c-4.7-0.3-7.7,1.2-9.2,6c-2.6,8.1-9.3,11.6-17.1,12.6
		c-6.1,0.8-12.3,0.3-18.4,0.3c-3.9,0-4.6-1.8-3-5.3c5.8-12.9,17.5-19.8,32.4-19.8c7.2,0,14.4-1.9,21.7-2.1
		c24.8-0.8,47.3,5.4,67.5,19.7c0.9,0.6,2,0.9,3.5,0.9c-7.4-15.1-16.5-28.9-28.6-40.7c-5.5-6-13.1-9.4-18.8-15.3
		c-7.2-7.3-16.1-12.4-24.3-18.5c-3.8-2.8-8.1-3.9-12.7-4.1c-14.9-0.7-23.9-11.6-21.6-25.9c0.1-0.9,0-1.8-0.6-2.5
		c0.2-2.8-2.6-6.1,0.2-8.3c2.8-2.2,6.1,0,9,1.1c6.9,2.6,13.3,5.9,18,11.7c1.9,2.3,4.1,4.7,3.9,7.7c-0.4,6.2,3,9,7.9,11.9
		c20.8,12.3,39.9,26.8,55.4,45.4c1.5,1.8,2.8,4.2,5.9,4.4c-0.1-10.4-2.2-20.6-2-30.9c0.3-14.9,2.4-29.5,4.2-44.2
		c-0.3-2.4-1.7-4.9,1.2-6.8c4.3-7.3,5.5-15.7,8.5-23.4c7.1-18.7,17.1-35.7,28.9-51.8c2.2-3,3.6-5.9,3.1-9.9
		c-0.8-5.7,2-10.5,5.9-14.5c5.7-5.9,12.8-9.2,20.6-11.5c3.7-1.1,5.6-0.3,5.7,3.9c0.4,13.8-9.4,27.2-22.7,30.2
		c-3.3,0.8-4.9,3-6.6,5.4c-12.7,18.4-22.1,38.2-28,59.7c-1.9,6.9-5,13.6-4.3,21c0.1,2.6,1.6,4.9,1.4,7.5
		c-3.4,14.8-4.1,29.8-3.2,44.8c1.3,22.4,6.1,43.9,16.3,64.2c6.9,13.9,11.2,29,14.5,44.2c1,4.5,2.5,5.2,6.3,2.3
		c12.8-9.5,26.7-15.6,43.2-12.8c1.7,0.3,3.1-0.5,4.7-0.7c3.3,0.2,6.4,0.8,8.7,3.5c9.4,2.8,18.9,4.9,28.9,3
		c13.1-2.5,17.6-8.1,15.9-21.2c-0.8-6-1.5-11.5,2.6-16.7c1.7-2.1,0.9-4.2-1.3-5.8c-4.1-2.9-3.2-5.9,0.5-7.9c5.7-3.1,8.3-7,6.7-13.7
		c-1.3-5.6,2.9-9,6.5-12.6c7.6-7.4,7.8-9.3,0.1-16.4c-14-13-17.9-28-14.9-47c5.5-35,4.6-70.2-9.9-103.5c-8.8-20.3-24.1-35.1-44-45.4
		c-20.4-10.6-42.2-16-65-16.7C156,85.7,96.3,107.8,68.2,163c-12.6,24.6-14.2,50.9-11.9,77.8c0.2,2.4,1.4,5-0.5,7.1
		c-1.6,1.8-4,2.2-6.3,1.9c-2.9-0.4-3.2-2.8-3.5-5.1c-3.4-26.6-1.9-52.6,8.8-77.6c19.5-45.6,55-72.1,102.6-84.6
		c34-8.9,67.6-8.4,100.8,3c46.2,15.8,73.7,47,80.9,95.4c4,27.2,3.5,54.3-0.9,81.3c-2,12.2,3.6,21.3,11.9,29.5c4.1,4,8,7.9,9.4,13.8
		c1.9,8.4-3.2,13.8-8.4,18.7c-3,2.9-4.5,4.9-2.4,9.1c2.1,4.1-3.5,25.4-7.2,28.3c-2.7,2.1-3.5,4.4-2.9,7.7c0.5,2.9,0.6,5.8,0.6,8.7
		c-0.1,14.9-8.8,24.5-23.8,26.7c-6.6,1-13,1.5-19.7,0.2c-4.2-0.8-8.5-0.7-8.8,5.4c-2.1,0.7-3.2-0.6-4.4-2
		C280.7,406.3,278.7,404.6,275.7,404.8z"/>
	<path d="M422.5,274.9c-8.6-16.2-18-31.9-30-45.9c-8.5-9.9-10.8-20.2-5.9-32.5c6.1-15.4,1.8-30.8-1.8-45.8
		C367.1,76.4,303.7,22.7,226.8,16.4c-72.3-6-141.7,32.9-173.5,97.3c-0.7,1.4-1.5,2.8-2.1,4.3c-1.3,3.3-3.1,4.5-6.8,2.9
		c-3.8-1.7-3.7-3.9-2.2-7c7.1-15,15.7-29.1,26.6-41.6c40.5-46.2,91.9-68.7,153.6-66.1c79.9,3.4,149,58.8,170.2,135.1
		c4.6,16.7,9.2,33.6,5.5,51.2c-0.1,0.7-0.1,1.4-0.4,2c-7.3,13.6-1.7,24.1,7.5,34.7c10.1,11.7,17.9,25,24.5,38.9
		C429.1,272.2,428,275.7,422.5,274.9z"/>
	<path d="M275.7,404.8c5.5-4.7,8.2-3.3,11.1,5.5c0.5,6.7,1.1,13.4,1.6,20.2c0.2,2.7,1,4.1,3.7,2c15.8-12.2,35.1-12.6,53.7-15.6
		c6.3-1,12.7-1.6,18.8-3.1c15.3-3.8,19.5-9.9,17.7-25.3c-1.3-10.9-1.2-21.5,2.8-31.9c0.8-2.1,1.4-4.3,3.1-5.9c1.2-1.1,4.2-1,3.7-3.3
		c-0.6-2.7-3.6-2.5-5.7-2.9c-5.8-1.2-11.7-2-17.4-3.2c-2.6-0.5-6-1-6.1-4.4c-0.1-3.1,3-4.2,5.4-5.5c5.8-3.2,12.2-4.8,18.6-6.6
		c2.8-0.8,5.9-1.4,7.8-3.8c1.6-2,2.8-4,0-6.3c-8.3-6.7-9-15.1-2.3-23.8c3.9-0.9,6.5,0.9,8.8,3.7c0.3,0.7,0.1,1.3-0.4,1.9
		c-3.1,3.1-4.6,6.2-0.5,9.7c8.9,7.6,7.5,19.7-2.9,25.3c-2,1-4.1,1.8-6.1,2.8c0.9,2.3,3,2.2,4.5,3c9.5,5,10.3,13.6,1.9,20.4
		c-6.5,5.2-5.7,12.8-5.9,19.9c-0.2,5.4,0.8,10.8,0.9,16.2c0.3,14.7-5.7,23-19.8,28c-11.1,3.9-22.8,4.3-34.2,6.1
		c-11.9,1.9-23.9,3.3-34.5,9.8c-8,4.9-12.8,11.1-11.7,21c0.5,4.7,0.5,9.4,1.8,14c3.9,13.7,13.6,21.2,27.9,21.4
		c11.6,0.1,23.2-1.9,34.8-1.3c10.3,0.5,20.4,1.5,30.3,4.6c1.6,0.5,3.6,0.7,5,3.3c-21.6-1.3-42.1,3.7-62.9,5.3
		c-17.5,1.3-33-3.8-44.2-18c-2.3-2.9-3.6-2.4-5.7-0.1c-12.4,13.6-27.2,17.6-45.1,11.9c-10.8-3.5-22-2.3-32.8,1.3
		c8.1-7.7,17.7-10.7,28.6-10.2c2.7,0.1,5.5,0.4,8.2,0.6c19.4,1.5,29.2-4.8,36.6-23.1c5.3-13,4.4-26.5,3.7-40
		C278,420.4,276.6,412.6,275.7,404.8z"/>
	<path d="M283,391.2c-3.2,0-6.5,0-9.7,0c-2.9-1.7-4.3-4.1-5.2-7.4c-6.4-23.5-15.1-46.1-27.3-67.3c-4.9-8.5-8.3-17.7-15.6-24.7
		c-1.9-1.8-3.3-4.3-3.1-7.3c0.6-2.1,1.1-4.3,1.4-6.4c0.4-2.2,1-4.5,4.3-3.1c6.1,6.3,9.9,14.5,16.7,20.2c7.1-8,5-17.3,3.7-26.3
		c-0.5-3.5-1.8-7-3.5-10.2c2.5-22,9.3-42.6,20.1-61.9c2.1-3.7,3.2-7.1,1.6-11.4c-2.3-6.3-0.3-12.1,3.6-17.1
		c6.2-7.9,14.7-12.6,23.7-16.6c2.7-1.2,3.9-0.3,3.9,2.4c-0.3,10.4-1,20.7-6.6,29.9c-3.1,5.1-7.7,8.4-13.6,9.3
		c-3.4,0.5-5.3,2.2-6.5,5.2c-16.5,40.4-24.3,81.7-10.8,124.4c4.5,14.3,12.3,27.6,16.5,42.1C279.1,373.7,282.1,382.2,283,391.2z"/>
	<path class="st1" d="M76.2,237c1.7,5.3,3.5,10.6,6.1,15.6c2.7,5.3,7,9.3,12.5,9.3c13.3-0.1,22.5,7.7,32.1,14.6
		c9,6.5,17.1,14,24.6,22.2c1.2,1.3,1.9,3,2.8,4.5c-1.3-0.8-2.5-1.6-4.2-2.7c-0.8,2.9,0.7,5.9-1.3,8.2c-1.7-0.2-2.7-1.3-3.6-2.7
		c-3.6-5.2-8.7-7.3-15.1-6.8c-2.8,0.2-6,1-7.4-2.7c-1.4-10.4-3.2-11.2-11.9-5.4c-9.2,6.2-17.3,5.8-26.4-1.4c2.2-3.3,5.2-1.8,8-1.3
		c4.6,0.9,9,0.7,13.1-1.8c2.4-1.5,4.2-3.5,4.1-6.5c-0.1-3.3-2.2-5.3-5.1-6.5c-5.6-2.4-11.1-1.4-16.5,0.7c-3,1.1-5.7,2.7-8.6,4.1
		c-2.2,1-4.3,1.7-6-0.8c0-5.1,0.5-10.3-2.4-15c-1.1-1.8-1.1-3.9,0.4-5.6c1.7-2,2.3-4.5,1.9-6.9C72.5,245.2,73.4,240.9,76.2,237z"/>
	<path d="M180,229c0.3,2.4,0.4,4.7-1.2,6.8c-8.7-6.2-16.9-13-26.1-18.5c-2.6-1.5-4.7-2.1-7.6-0.7c-7.9,4.1-15.5,2.5-22.6-2.1
		c-6.6-4.2-11.7-9.9-16.6-16c-2.6-3.2-2.3-5.1,2-5.9c7.2-1.3,14.4-2.3,21.7-1.4c10,1.2,17.9,5.5,20.4,16.1c0.6,2.5,2.3,3.7,4.2,5
		C163,217.8,171.5,223.5,180,229z"/>
	<path d="M249.1,218.9c-0.7,5-0.4,10.3-4.9,11.9c-5.9,2.1-11.7-0.4-16.3-4.5c-4.2-3.8-6.2-8.9-7.2-14.2c-1.2-5.9-2-12-1.7-18.1
		c0.1-2.2,0.7-4.5,3.6-3.1c10.3,5,20.2,10.5,25.2,21.5C248.7,214.7,248.8,217.3,249.1,218.9z"/>
	<path d="M273.6,247.8c-7.9-0.2-10-2.4-10-10.2c0-6.1,2.7-10.8,7.2-14.6c7.1-6,15.7-8.7,24.6-11c2.5-0.7,4.3-0.1,3.6,2.8
		c-2.3,10.1-4.5,20.2-12.5,27.8C282.9,246,278.6,247.8,273.6,247.8z"/>
	<path d="M183.1,196.4c0.1,9.2-4.2,16.9-8.7,17.6c-4.7,0.8-12.9-4.9-15.2-10.8c-4.5-11.4-0.6-22.1,3.1-32.7c0.7-2,2.2-2.3,3.7-0.8
		C174.4,177.7,182.1,186.2,183.1,196.4z"/>
	<path class="st0" d="M195.2,122.7c0.1-9.8,3.5-16.8,6.7-23.7c1.6-3.5,3.6-3.4,6.1-0.5c6,7.3,10.5,15.3,11.7,24.7
		c0.8,6.4-2.7,11.2-7.6,15c-2.4,1.9-5.1,1.5-7.7,0.1C197.3,134.5,194.9,128.4,195.2,122.7z"/>
	<path class="st0" d="M151.4,259c-0.6,4.1-1.7,8.7-6.1,10.9c-4.7,2.4-8.9-0.3-12.5-3.2c-8-6.4-9-15.4-8.2-24.5
		c0.3-3.9-1.2-10.1,3.2-11.4c3.7-1.1,7.4,3.5,10.7,6.3C145.1,242.8,150.7,249.2,151.4,259z"/>
	<path class="st0" d="M67.3,322.1c-7.7-1-15.7-4-23.1-8.8c-3-1.9-2.9-3.8-0.3-5.8c7.9-5.7,16.5-9.7,26.5-9.6
		c7.3,0.1,15.2,6.3,15.1,11.4C85.6,315.1,75.9,322.2,67.3,322.1z"/>
	<path class="st0" d="M122.7,296.5c5.6,0.1,11.1-2.5,16.7,0.3c5.1,2.6,9.4,5.5,9.4,11.9c-10.1,12.5-15.3,13.7-32.4,6.6
		c-4.2-1.7-11-2.4-11.1-7.4c-0.1-4.9,6.7-5.8,10.6-8.3C118,298.3,120.5,297.6,122.7,296.5z"/>
	<path class="st0" d="M200.7,160.4c-0.8,4.8-2.2,10.9-8.4,12.3c-5.7,1.3-10.7-2.5-13.2-7.5c-5.1-10.2-3.6-20.9-1-31.4
		c0.5-1.8,1.7-3.1,4.1-2.1C189.4,134.6,200.8,151.4,200.7,160.4z"/>
	<path class="st0" d="M73.4,277.6c7.2-2.8,13.3-7.9,21.3-8.7c2.3-0.2,4.5-0.4,6.8,0.1c7.4,1.5,12.7,6.2,12.7,11.3
		c0,5.3-6.7,11.1-13.8,12.1c-5.6,0.8-10.8-1.2-16-2.5c-3.6-1.9-7.1-3.9-10.8-5.6C69.1,282,69.9,279.9,73.4,277.6z"/>
	<path d="M470.8,345.9c-0.1,10.3-6.4,25.3-20.1,37.2c-3.5,3-7.2,5.5-11.5,7.1c-2.3,0.9-5,2.5-6.5-0.7c-1.3-2.8,1.4-3.9,3.5-4.8
		c29.6-12.4,40.1-58.5,12.6-83.1c-1.8-1.6-4.5-3.5-1.8-6c2.5-2.3,4.6,0.2,6.5,1.7C463.9,305.8,470.7,321.9,470.8,345.9z"/>
	<path d="M152.9,172.7c-0.2,11.9-6.7,15.4-15.9,10c-7.6-4.5-8.8-12.2-9.6-19.9c-0.5-4.8-2.2-11.5,1.9-13.9c3.4-2,7.7,3.4,11.3,6
		C147.3,159.7,152.5,165.5,152.9,172.7z"/>
	<path d="M454.1,342.9c-0.4,11.2-6.6,24.1-20.2,33.1c-1.7,1.1-3.6,2-5.5,2.7c-1.7,0.7-3.7,1-4.8-1c-1.4-2.6,0.7-3.7,2.5-4.6
		c8-3.9,14.1-9.7,17.9-17.8c7.3-15.6,4.7-31.8-7.3-44.3c-1.7-1.7-4.7-3.5-2.3-6c2.6-2.8,4.9,0,6.9,1.8
		C449.6,313.9,454.1,325.1,454.1,342.9z"/>
	<path d="M437.8,339.7c-0.5,9.9-5.6,18.1-15.6,23.2c-2.4,1.2-5.5,2.9-7.2-0.4c-1.7-3.3,1.8-3.9,3.9-5c14-7.3,16.5-23.3,5.5-34.4
		c-1.8-1.8-5.2-3.7-2.2-6.5c2.7-2.6,5,0.3,6.9,2.1C435,324,437.7,330.7,437.8,339.7z"/>
	<path d="M189.5,245.4c0.1-2.5-0.1-5.2,1.7-7.3c9.1,7.8,18.3,15.5,25.9,24.8c1.8,5.7-3.7,4.1-5.9,5.8c-1.1,0.3-2.6,0.6-3.3-0.2
		C201.6,261,191.9,256.1,189.5,245.4z"/>
	<path d="M422.5,274.9c2.3-2.3,4.7-4.6,7-6.9c0.8,1.4,1.6,2.8,2.4,4.2c-0.8,0.6-0.6,1,0.2,1.3c1.5,2,1.5,4.4,1.4,6.8
		c-1.2,1.3-1.5,2.6-0.3,4.1c-1.5,6.3-6.6,8.2-12.1,9.6c-3.6-1.6-9.1-1.6-6.8-8C424.6,282.7,424.6,282.7,422.5,274.9z"/>
	<path d="M414.4,285.9c2.3,2.7,4.6,5.4,6.8,8c-6.7,2-13.7,2-20.6,2.6c0-0.5,0-0.9,0-1.4c-2.7-3.9,0.7-5.9,2.6-8.3
		C406.9,285.8,410.6,285.6,414.4,285.9z"/>
	<path d="M244.7,292.4c-1.5-9.9-1.7-19.8-0.1-29.7c4.3,0.1,5,3.6,5.3,6.5c0.6,6.7,0.3,13.4,0.1,20.1
		C249.8,292.7,248.3,294.4,244.7,292.4z"/>
	<path d="M244.7,292.4c1-0.5,2.4-0.7,2.9-1.5c3-4.7,0.9-23.8-3.1-28.2c0.1-1.3,0.1-2.7,0.2-4c4.7,3.5,6.6,8.3,6.7,14
		c0,5.1-0.1,10.3,0,15.4c0.1,4.7-1.9,7.2-6.9,7C244.6,294.3,244.6,293.4,244.7,292.4z"/>
	<path d="M220,266.8c0.9,1,1.8,1.9,2.7,2.9c2.5,3.8,2.2,7.5-0.3,11.2c-6.3-0.2-10.2-4.4-10.8-11.9
		C213.7,265.9,216.6,265.3,220,266.8z"/>
	<path d="M403.3,286.8c0.1,3.1-1.2,5.7-2.6,8.3c-3.6,0.1-6.1-1.8-8.4-4.2C395.1,287.5,399,286.6,403.3,286.8z"/>
	<path d="M221.1,280.4c2.3-3.3,1.3-7.1,1.6-10.7c2.4,1.1,3.9,3.1,5.2,5.3c-3.9,2.9-1.9,7.1-2.4,10.7
		C221.2,286.1,220.2,284,221.1,280.4z"/>
	<path d="M433.3,284.4c-2.3-0.1-4.8,0.1-6.5-2.1c1.9-2.8,4.8-0.8,6.8-2C433.5,281.6,433.4,283,433.3,284.4z"/>
	<path d="M220,266.8c-2.7,0-5.3,0.4-7,2.9c-2.1,0.1-3.2-0.6-2.6-2.9c2.3-1.3,5.5-1,6.7-3.9C218.6,263.8,219.5,265.2,220,266.8z"/>
	<path d="M432.2,273.5c-0.8,1-0.7,2.7-2.3,2.9c-0.4,0.1-1.2-0.7-1.3-1.1c-0.3-2.4,1.6-2.8,3.3-3.1
		C432.1,272.6,432.2,273.1,432.2,273.5z"/>
	<path class="st2" d="M210.4,266.8c0.9,1,1.8,1.9,2.6,2.9c2.7,3.6,5.4,7.1,8.1,10.7c1.4,1.8,2.9,3.5,4.3,5.3c8.4,13,17,26,24.1,39.8
		c10.8,20.9,18.7,42.8,23.8,65.7c-13.2-1-25.9,0.7-37.5,7.7c-6.1,3.6-11.4,7.9-15.6,14.7c-3.8-7.7-3.6-15-5.4-21.9
		c-4-14.8-9-29.3-15.8-43.1c-7.4-15-10.1-31.2-12-47.5c-1.7-14.6-1.5-29.2,0-43.8c0.4-4.1,0.7-8.1,2.5-11.8
		C196.5,252.5,203.4,259.7,210.4,266.8z"/>
	<path d="M208.5,293.8c11.2,0.4,20.4,1.9,25.2,12.2c2.1,4.5,1.1,7.7-3.2,10.1c-5.7,3.3-11.4,3.9-17.5,1c-8-3.8-13.7-10.1-19.1-16.8
		c-2.2-2.8-1.1-3.9,1.8-4.4C200.5,295.1,205.1,294.4,208.5,293.8z"/>
</g>
</svg>
