<?xml version="1.0" encoding="utf-8"?>
<!-- Generator: Adobe Illustrator 26.2.1, SVG Export Plug-In . SVG Version: 6.00 Build 0)  -->
<svg version="1.1" id="Layer_1" xmlns="http://www.w3.org/2000/svg" xmlns:xlink="http://www.w3.org/1999/xlink" x="0px" y="0px"
	 viewBox="0 0 2048 2048" style="enable-background:new 0 0 2048 2048;" xml:space="preserve">
<style type="text/css">
	.st0{fill:none;}
	.st1{fill:#2E4593;}
	.st2{fill:#FCF5FF;}
	.st3{fill:#F42525;}
	.st4{fill:#FFFFFF;}
	.st5{fill:#CD002A;}
</style>
<rect class="st0" width="2048" height="2048"/>
<g>
	<g>
		<g>
			<polygon class="st1" points="1788.7,546.4 1788.7,1505.7 1788.5,1506 258.1,1506 258.1,546.4 			"/>
		</g>
	</g>
	<g>
		<g>
			<g>
				<polygon class="st2" points="1788.7,1405.9 1788.7,1505.7 1788.5,1506 1629.3,1506 1159.6,1211.4 1112.4,1182 1057,1147 
					1038.4,1135.3 982,1100 960.9,1086.8 943.2,1075.8 907.7,1053.6 896.3,1046.4 878.9,1035.6 712.1,930.8 637.1,883.8 
					258.1,646.3 258.1,546.4 259.5,544.4 262.5,546.4 417.5,546.4 896.3,846.4 943.2,876 955.8,883.8 1030.9,930.8 1038.4,935.6 
					1067.2,953.6 1112.4,982.1 1120.1,987 1159.6,1011.6 1197.9,1035.6 1300.9,1100 1375.9,1147 				"/>
			</g>
		</g>
		<g>
			<g>
				<polygon class="st3" points="1788.9,1503 1789.2,1506.5 1686.8,1506 1159.6,1175.4 1114.5,1147 1112.4,1145.8 1067.2,1117.4 
					1039.7,1100 989.6,1068.7 943.2,1039.8 936.6,1035.6 907.7,1017.3 896.3,1010.1 769.7,930.8 694.8,883.8 258.1,609.9 
					258.1,544.1 259.5,544.4 262.5,546.4 800.9,883.8 875.7,930.8 896.3,943.6 943.2,973.3 960.9,984.2 989.6,1002.3 1042.8,1035.6 
					1112.4,1079.3 1120.1,1084.2 1145.7,1100 1159.6,1108.9 1220.6,1147 				"/>
			</g>
		</g>
	</g>
	<g>
		<g>
			<g>
				<polygon class="st2" points="1788.7,565.3 1788.7,665.2 1439.7,883.8 1364.8,930.8 1197.9,1035.6 1159.6,1059.4 1120.1,1084.2 
					1112.4,1089 1094.8,1100 1067.2,1117.4 1038.4,1135.3 1019.7,1147 943.2,1195.1 896.3,1224.6 447.3,1506 258.1,1506 
					258.1,1424.7 701,1147 775.8,1100 878.9,1035.6 896.3,1024.7 907.7,1017.3 943.2,995.1 960.9,984.2 1038.4,935.6 1046,930.8 
					1112.4,889.1 1120.9,883.8 1159.6,859.6 1659.4,546.4 1776.7,546.4 				"/>
			</g>
		</g>
		<g>
			<g>
				<polygon class="st3" points="1784.8,570.2 1284.6,883.8 1209.6,930.8 1159.6,962.3 1120.1,987 1112.4,991.8 1042.8,1035.6 
					989.6,1068.7 960.9,1086.8 943.2,1097.8 939.7,1100 896.3,1127.4 864.6,1147 292.7,1506 258.1,1506 258.1,1461 758.5,1147 
					833.5,1100 896.3,1060.8 907.7,1053.6 936.6,1035.6 943.2,1031.3 989.6,1002.3 1067.2,953.6 1103.4,930.8 1112.4,925.2 
					1159.6,895.6 1178.5,883.8 1716.7,546.4 1769.9,546.4 1788.7,546.4 1788.9,567.4 				"/>
			</g>
		</g>
	</g>
	<g>
		<g>
			<rect x="256.9" y="883.8" class="st4" width="1532.6" height="263.3"/>
		</g>
	</g>
	<g>
		<g>
			<rect x="256.9" y="930.8" class="st3" width="1532.6" height="169.2"/>
		</g>
	</g>
	<g>
		<g>
			<rect x="943.2" y="546.4" class="st5" width="169.2" height="959.6"/>
		</g>
	</g>
	<g>
		<g>
			<g>
				<polygon class="st4" points="1112.1,1147 1159.2,1147 1159.2,1506 895.8,1506 895.8,1147 942.8,1147 942.8,883.8 895.8,883.8 
					895.8,546.4 1159.2,546.4 1159.2,883.8 1112.1,883.8 				"/>
			</g>
		</g>
		<g>
			<g>
				<rect x="942" y="546.4" class="st3" width="171" height="959.6"/>
			</g>
		</g>
	</g>
</g>
</svg>
