<?xml version="1.0" encoding="utf-8"?>
<!-- Generator: Adobe Illustrator 26.2.1, SVG Export Plug-In . SVG Version: 6.00 Build 0)  -->
<svg version="1.1" id="Capa_1" xmlns="http://www.w3.org/2000/svg" xmlns:xlink="http://www.w3.org/1999/xlink" x="0px" y="0px"
	 viewBox="0 0 512 512" style="enable-background:new 0 0 512 512;" xml:space="preserve">
<style type="text/css">
	.st0{fill:#FFFFFF;stroke:#000000;stroke-width:15;stroke-miterlimit:10;}
</style>
<path class="st0" d="M253.4,492.5v-1.5c-0.5-0.5-1.1-0.9-1.8-1.3c-20.2-8.1-38.6-19.7-57.4-30.3c-14-7.9-28.5-14.7-45.4-12.9
	c-0.6,0.1-1.3-0.5-3.4-1.3c2.7-1.1,4.1-2.1,5.6-2.2c5.5-0.4,11.1-1.2,16.5-0.6c16,2,30.9,8.2,45.5,14.6
	c24.5,10.8,48.6,22.5,73.3,32.5c24.4,9.9,49.6,17.6,76.1,19c26.9,1.4,52.8-2.4,76.3-16.6c19-11.5,25.9-35.7,16.4-55.7
	c-6.5-13.8-18.5-20.8-32.1-25.7c-18.7-6.9-38.3-8.1-58-8.7c-11.4-0.3-18.1-5-21.9-15.5c-12.6-34.6-16-70.2-10.8-106.6
	c0.3-1.7,0.8-3.5,1.3-5.1l1.3-0.1c0.8,1.4,1.4,3,1.9,4.5c3.2,17.4,7,34.7,9.3,52.2c1.9,14.4,7.5,26.1,18.2,35.9
	c12.7,11.5,27.5,20.4,43.6,26.3c8,3.1,16.2,5.5,24.5,7.1c15.9,2.9,28.4-8.8,26.7-24.2c-1.1-10.2-7.9-17.9-18.1-21
	c-5.8-1.7-11.6-3.3-17.1-5.7c-14.3-6.3-23.7-16.5-25.6-32.7c-0.8-7.1-2.3-14.1-2.7-21.2c-1.1-16.9-2.3-33.8-2.7-50.7
	c-0.7-29.9-14.5-51.7-40.7-65.3c-10.6-5.5-21.9-10.2-33.5-13c-35-8.3-70.6-8.3-106.2-3.8c-20.3,2.6-39.6,8.1-57.2,19.1
	c-21.1,13.2-34,31.3-35.5,56.7c-0.6,10-0.9,20-1.7,29.9c-1.4,17-3,34-5,51c-1.4,11.6-7.7,20.6-17.9,26c-7.6,3.9-15.5,7-23.7,9.4
	c-13.2,4.1-21.1,16.2-18.1,29.2c2.8,12.2,14.1,19,28,16c25-5.4,47.5-16.1,66.6-33.4c10.5-9.5,16-21,17.9-35
	c2.3-17.5,6-34.9,9.2-52.3c0.5-1.7,1.1-3.4,1.9-5l1.3,0c0.5,1.4,1,2.7,1.3,4.2c5.2,35.6,2.3,70.4-9.6,104.4
	c-5.1,14.5-10.4,18.2-25.9,18.6c-16.7,0.5-33.2,1.8-49.3,6.6c-12.7,3.9-24.8,9.1-33.2,20c-16.2,21-9.6,50.7,14.3,64.4
	c17.4,10,36.5,14,56.3,15.4c33.8,2.4,67-2.1,99.8-10.1C239.2,496.5,246.3,494.5,253.4,492.5z M318.9,79.8c0-15.2-3.3-27.4-10-38.8
	c-20.2-34.1-63.8-41.1-93.4-15.1c-30.5,26.8-29.7,78.2,1.5,104.6c24.3,20.8,60.6,18.9,82.5-4.3C311.8,113.8,318.7,97.2,318.9,79.8z"
	/>
</svg>
