<svg id="Capa_1" data-name="Capa 1" xmlns="http://www.w3.org/2000/svg" viewBox="0 0 512 512"><defs><style>.cls-1{fill:#fff;}</style></defs><path class="cls-1" d="M253.36,495.54l0-1.48a9.1,9.1,0,0,0-1.78-1.3c-20.21-8.12-38.58-19.68-57.45-30.34-14-7.91-28.51-14.69-45.36-12.89-.63.07-1.33-.48-3.44-1.3,2.71-1.09,4.13-2.09,5.62-2.2,5.49-.39,11.1-1.24,16.49-.56,16,2,30.85,8.17,45.49,14.6,24.47,10.77,48.56,22.45,73.3,32.54,24.36,9.94,49.56,17.58,76.13,19,26.89,1.41,52.82-2.37,76.31-16.56,19-11.46,25.89-35.67,16.4-55.69-6.53-13.78-18.54-20.76-32.07-25.73-18.71-6.87-38.3-8.1-58-8.68-11.37-.33-18.11-5-21.94-15.55-12.6-34.6-16-70.16-10.82-106.57a46.75,46.75,0,0,1,1.33-5.14l1.27-.06a23.26,23.26,0,0,1,1.87,4.54c3.21,17.4,7,34.73,9.26,52.25,1.87,14.42,7.54,26.08,18.22,35.86a131.9,131.9,0,0,0,43.65,26.27,148.63,148.63,0,0,0,24.53,7.15c15.87,2.94,28.39-8.8,26.66-24.22-1.14-10.19-7.93-17.93-18.09-21-5.75-1.72-11.61-3.28-17.08-5.68-14.28-6.27-23.74-16.52-25.59-32.68-.81-7.07-2.26-14.08-2.74-21.17-1.15-16.89-2.29-33.79-2.71-50.71-.74-29.9-14.45-51.73-40.67-65.31-10.57-5.49-21.91-10.24-33.46-13-35-8.3-70.59-8.33-106.2-3.75-20.31,2.61-39.61,8.12-57.16,19.13-21.06,13.2-34,31.29-35.46,56.69C119.3,252,119,262,118.13,271.9c-1.45,17-3,34-5,51-1.37,11.6-7.74,20.57-17.91,26a135.33,135.33,0,0,1-23.68,9.4c-13.23,4.08-21.06,16.17-18.1,29.18,2.77,12.2,14.08,19,28,16,25-5.38,47.51-16.07,66.65-33.44,10.47-9.5,16-21,17.85-35,2.3-17.52,6-34.87,9.16-52.27a27,27,0,0,1,1.93-5l1.32.05a28.81,28.81,0,0,1,1.27,4.16c5.17,35.56,2.3,70.4-9.57,104.38C165,400.84,159.62,404.56,144.14,405c-16.65.51-33.22,1.78-49.26,6.65-12.72,3.87-24.81,9.09-33.23,20C45.41,452.68,52.07,482.31,76,496c17.43,10,36.54,14,56.31,15.37,33.83,2.42,67-2.15,99.75-10.1C239.19,499.52,246.26,497.45,253.36,495.54ZM322.83,73.91c0-16.18-3.5-29.14-10.6-41.15-21.41-36.21-67.74-43.68-99.21-16-32.36,28.49-31.56,83.06,1.64,111.06a63.55,63.55,0,0,0,87.63-4.59A72,72,0,0,0,322.83,73.91Z"/><path d="M253.36,495.54c-7.1,1.91-14.17,4-21.31,5.71-32.78,7.95-65.92,12.52-99.75,10.1C112.53,509.94,93.42,505.94,76,496c-23.92-13.67-30.58-43.3-14.34-64.32,8.42-10.89,20.51-16.11,33.23-20,16-4.87,32.61-6.14,49.26-6.65,15.48-.47,20.85-4.19,25.94-18.75,11.87-34,14.74-68.82,9.57-104.38a28.81,28.81,0,0,0-1.27-4.16l-1.32-.05a27,27,0,0,0-1.93,5c-3.18,17.4-6.86,34.75-9.16,52.27-1.85,14.07-7.38,25.53-17.85,35C129,387.33,106.52,398,81.47,403.4c-13.92,3-25.23-3.78-28-16-3-13,4.87-25.1,18.1-29.18a135.33,135.33,0,0,0,23.68-9.4c10.17-5.4,16.54-14.37,17.91-26,2-16.95,3.52-34,5-51,.85-9.93,1.17-19.9,1.73-29.85,1.42-25.4,14.4-43.49,35.46-56.69,17.55-11,36.85-16.52,57.16-19.13,35.61-4.58,71.16-4.55,106.2,3.75,11.55,2.73,22.89,7.48,33.46,13,26.22,13.58,39.93,35.41,40.67,65.31.42,16.92,1.56,33.82,2.71,50.71.48,7.09,1.93,14.1,2.74,21.17,1.85,16.16,11.31,26.41,25.59,32.68,5.47,2.4,11.33,4,17.08,5.68,10.16,3,16.95,10.77,18.09,21,1.73,15.42-10.79,27.16-26.66,24.22a148.63,148.63,0,0,1-24.53-7.15,131.9,131.9,0,0,1-43.65-26.27c-10.68-9.78-16.35-21.44-18.22-35.86-2.27-17.52-6-34.85-9.26-52.25a23.26,23.26,0,0,0-1.87-4.54l-1.27.06a46.75,46.75,0,0,0-1.33,5.14c-5.17,36.41-1.78,72,10.82,106.57,3.83,10.54,10.57,15.22,21.94,15.55,19.67.58,39.26,1.81,58,8.68,13.53,5,25.54,11.95,32.07,25.73,9.49,20,2.56,44.23-16.4,55.69-23.49,14.19-49.42,18-76.31,16.56-26.57-1.4-51.77-9-76.13-19-24.74-10.09-48.83-21.77-73.3-32.54-14.64-6.43-29.48-12.58-45.49-14.6-5.39-.68-11,.17-16.49.56-1.49.11-2.91,1.11-5.62,2.2,2.11.82,2.81,1.37,3.44,1.3,16.85-1.8,31.37,5,45.36,12.89,18.87,10.66,37.24,22.22,57.45,30.34a9.1,9.1,0,0,1,1.78,1.3Z"/><path d="M322.83,73.91a72,72,0,0,1-20.54,49.33,63.55,63.55,0,0,1-87.63,4.59c-33.2-28-34-82.57-1.64-111.06,31.47-27.69,77.8-20.22,99.21,16C319.33,44.77,322.81,57.73,322.83,73.91Z"/></svg>